<?plantuml 1.2026.2?><svg xmlns="http://www.w3.org/2000/svg" xmlns:xlink="http://www.w3.org/1999/xlink" contentStyleType="text/css" data-diagram-type="CLASS" height="1074px" preserveAspectRatio="none" style="width:1358px;height:1074px;background:#FFFFFF;" version="1.1" viewBox="0 0 1358 1074" width="1358px" zoomAndPan="magnify"><defs/><g><!--class setup_filebrowser_access.AppSpec--><g class="entity" data-qualified-name="setup_filebrowser_access.AppSpec" data-source-line="2" id="ent0002"><rect fill="#F1F1F1" height="67.0679" rx="2.5" ry="2.5" style="stroke:#181818;stroke-width:0.5;" width="89.0778" x="40.34" y="92.81"/><ellipse cx="55.34" cy="108.81" fill="#ADD1B2" rx="11" ry="11" style="stroke:#181818;stroke-width:1;"/><path d="M55.4494,104.3413 Q54.5275,104.3413 53.7931,104.6538 Q53.0744,104.9663 52.5744,105.56 Q52.0744,106.1381 51.7931,107.0131 Q51.5275,107.8881 51.5275,108.9819 Q51.5275,110.4194 51.965,111.4663 Q52.4181,112.5131 53.2619,113.06 Q54.1213,113.6069 55.4338,113.6069 Q56.215,113.6069 56.9025,113.4819 Q57.6056,113.3413 58.6056,113.0288 L58.6056,114.9038 Q57.7463,115.2319 56.9806,115.3569 Q56.2306,115.4819 55.215,115.4819 Q53.2931,115.4819 51.9806,114.685 Q50.6838,113.8725 50.0275,112.4038 Q49.3713,110.9194 49.3713,108.9506 Q49.3713,107.5288 49.7619,106.3569 Q50.1681,105.1694 50.9494,104.2944 Q51.7306,103.4194 52.8713,102.9506 Q54.0119,102.4663 55.4806,102.4663 Q56.4338,102.4663 57.3244,102.6694 Q58.2306,102.8569 59.1681,103.3256 L58.34,105.1069 Q57.5588,104.7319 56.9025,104.5444 Q56.2463,104.3413 55.4494,104.3413 Z " fill="#000000"/><text fill="#000000" font-family="sans-serif" font-size="14" lengthAdjust="spacing" textLength="57.0778" x="69.34" y="114.242">AppSpec</text><line style="stroke:#181818;stroke-width:0.5;" x1="41.34" x2="128.4178" y1="124.81" y2="124.81"/><text fill="#000000" font-family="sans-serif" font-size="14" lengthAdjust="spacing" textLength="56.3498" x="46.34" y="143.7759">root : str</text><line style="stroke:#181818;stroke-width:0.5;" x1="41.34" x2="128.4178" y1="151.8779" y2="151.8779"/></g><!--class setup_filebrowser_access.AuthSpec--><g class="entity" data-qualified-name="setup_filebrowser_access.AuthSpec" data-source-line="5" id="ent0003"><rect fill="#F1F1F1" height="124.2717" rx="2.5" ry="2.5" style="stroke:#181818;stroke-width:0.5;" width="201.3773" x="164.19" y="64.21"/><ellipse cx="229.5208" cy="80.21" fill="#ADD1B2" rx="11" ry="11" style="stroke:#181818;stroke-width:1;"/><path d="M229.6301,75.7413 Q228.7083,75.7413 227.9739,76.0538 Q227.2551,76.3663 226.7551,76.96 Q226.2551,77.5381 225.9739,78.4131 Q225.7083,79.2881 225.7083,80.3819 Q225.7083,81.8194 226.1458,82.8663 Q226.5989,83.9131 227.4426,84.46 Q228.302,85.0069 229.6145,85.0069 Q230.3958,85.0069 231.0833,84.8819 Q231.7864,84.7413 232.7864,84.4288 L232.7864,86.3038 Q231.927,86.6319 231.1614,86.7569 Q230.4114,86.8819 229.3958,86.8819 Q227.4739,86.8819 226.1614,86.085 Q224.8645,85.2725 224.2083,83.8038 Q223.552,82.3194 223.552,80.3506 Q223.552,78.9288 223.9426,77.7569 Q224.3489,76.5694 225.1301,75.6944 Q225.9114,74.8194 227.052,74.3506 Q228.1926,73.8663 229.6614,73.8663 Q230.6145,73.8663 231.5051,74.0694 Q232.4114,74.2569 233.3489,74.7256 L232.5208,76.5069 Q231.7395,76.1319 231.0833,75.9444 Q230.427,75.7413 229.6301,75.7413 Z " fill="#000000"/><text fill="#000000" font-family="sans-serif" font-size="14" lengthAdjust="spacing" textLength="62.2158" x="250.0208" y="85.642">AuthSpec</text><line style="stroke:#181818;stroke-width:0.5;" x1="165.19" x2="364.5673" y1="96.21" y2="96.21"/><text fill="#000000" font-family="sans-serif" font-size="14" lengthAdjust="spacing" textLength="158.8434" x="170.19" y="115.1759">hide_login_button : bool</text><text fill="#000000" font-family="sans-serif" font-size="14" lengthAdjust="spacing" textLength="80.3457" x="170.19" y="134.2439">method : str</text><text fill="#000000" font-family="sans-serif" font-size="14" lengthAdjust="spacing" textLength="169.5394" x="170.19" y="153.3118">proxy_header : str | None</text><text fill="#000000" font-family="sans-serif" font-size="14" lengthAdjust="spacing" textLength="189.3773" x="170.19" y="172.3797">proxy_username : str | None</text><line style="stroke:#181818;stroke-width:0.5;" x1="165.19" x2="364.5673" y1="180.4817" y2="180.4817"/></g><!--class setup_bind_share.ConfigError--><g class="entity" data-qualified-name="setup_bind_share.ConfigError" data-source-line="11" id="ent0004"><rect fill="#F1F1F1" height="48" rx="2.5" ry="2.5" style="stroke:#181818;stroke-width:0.5;" width="108.6077" x="400.57" y="102.34"/><ellipse cx="415.57" cy="118.34" fill="#ADD1B2" rx="11" ry="11" style="stroke:#181818;stroke-width:1;"/><path d="M415.6794,113.8713 Q414.7575,113.8713 414.0231,114.1838 Q413.3044,114.4963 412.8044,115.09 Q412.3044,115.6681 412.0231,116.5431 Q411.7575,117.4181 411.7575,118.5119 Q411.7575,119.9494 412.195,120.9963 Q412.6481,122.0431 413.4919,122.59 Q414.3513,123.1369 415.6638,123.1369 Q416.445,123.1369 417.1325,123.0119 Q417.8356,122.8713 418.8356,122.5588 L418.8356,124.4338 Q417.9763,124.7619 417.2106,124.8869 Q416.4606,125.0119 415.445,125.0119 Q413.5231,125.0119 412.2106,124.215 Q410.9138,123.4025 410.2575,121.9338 Q409.6013,120.4494 409.6013,118.4806 Q409.6013,117.0588 409.9919,115.8869 Q410.3981,114.6994 411.1794,113.8244 Q411.9606,112.9494 413.1013,112.4806 Q414.2419,111.9963 415.7106,111.9963 Q416.6638,111.9963 417.5544,112.1994 Q418.4606,112.3869 419.3981,112.8556 L418.57,114.6369 Q417.7888,114.2619 417.1325,114.0744 Q416.4763,113.8713 415.6794,113.8713 Z " fill="#000000"/><text fill="#FF0000" font-family="sans-serif" font-size="14" lengthAdjust="spacing" textLength="76.6077" x="429.57" y="123.772">ConfigError</text><line style="stroke:#181818;stroke-width:0.5;" x1="401.57" x2="508.1777" y1="134.34" y2="134.34"/><line style="stroke:#181818;stroke-width:0.5;" x1="401.57" x2="508.1777" y1="142.34" y2="142.34"/></g><!--class check_wireguard_endpoint.EmailConfig--><g class="entity" data-qualified-name="check_wireguard_endpoint.EmailConfig" data-source-line="13" id="ent0005"><rect fill="#F1F1F1" height="124.2717" rx="2.5" ry="2.5" style="stroke:#181818;stroke-width:0.5;" width="141.3035" x="1034.22" y="372.35"/><ellipse cx="1062.8747" cy="388.35" fill="#ADD1B2" rx="11" ry="11" style="stroke:#181818;stroke-width:1;"/><path d="M1062.9841,383.8813 Q1062.0622,383.8813 1061.3278,384.1938 Q1060.6091,384.5063 1060.1091,385.1 Q1059.6091,385.6781 1059.3278,386.5531 Q1059.0622,387.4281 1059.0622,388.5219 Q1059.0622,389.9594 1059.4997,391.0063 Q1059.9528,392.0531 1060.7966,392.6 Q1061.656,393.1469 1062.9685,393.1469 Q1063.7497,393.1469 1064.4372,393.0219 Q1065.1403,392.8813 1066.1403,392.5688 L1066.1403,394.4438 Q1065.281,394.7719 1064.5153,394.8969 Q1063.7653,395.0219 1062.7497,395.0219 Q1060.8278,395.0219 1059.5153,394.225 Q1058.2185,393.4125 1057.5622,391.9438 Q1056.906,390.4594 1056.906,388.4906 Q1056.906,387.0688 1057.2966,385.8969 Q1057.7028,384.7094 1058.4841,383.8344 Q1059.2653,382.9594 1060.406,382.4906 Q1061.5466,382.0063 1063.0153,382.0063 Q1063.9685,382.0063 1064.8591,382.2094 Q1065.7653,382.3969 1066.7028,382.8656 L1065.8747,384.6469 Q1065.0935,384.2719 1064.4372,384.0844 Q1063.781,383.8813 1062.9841,383.8813 Z " fill="#000000"/><text fill="#000000" font-family="sans-serif" font-size="14" lengthAdjust="spacing" textLength="78.9597" x="1079.9091" y="393.782">EmailConfig</text><line style="stroke:#181818;stroke-width:0.5;" x1="1035.22" x2="1174.5235" y1="404.35" y2="404.35"/><text fill="#000000" font-family="sans-serif" font-size="14" lengthAdjust="spacing" textLength="118.3275" x="1040.22" y="423.3159">config_path : Path</text><text fill="#000000" font-family="sans-serif" font-size="14" lengthAdjust="spacing" textLength="93.3236" x="1040.22" y="442.3839">enabled : bool</text><text fill="#000000" font-family="sans-serif" font-size="14" lengthAdjust="spacing" textLength="129.3035" x="1040.22" y="461.4518">sender_script : Path</text><text fill="#000000" font-family="sans-serif" font-size="14" lengthAdjust="spacing" textLength="100.4776" x="1040.22" y="480.5197">to_address : str</text><line style="stroke:#181818;stroke-width:0.5;" x1="1035.22" x2="1174.5235" y1="488.6217" y2="488.6217"/></g><!--class check_wireguard_endpoint.EndpointValue--><g class="entity" data-qualified-name="check_wireguard_endpoint.EndpointValue" data-source-line="19" id="ent0006"><rect fill="#F1F1F1" height="105.2038" rx="2.5" ry="2.5" style="stroke:#181818;stroke-width:0.5;" width="127.8576" x="543.95" y="73.74"/><ellipse cx="558.95" cy="89.74" fill="#ADD1B2" rx="11" ry="11" style="stroke:#181818;stroke-width:1;"/><path d="M559.0594,85.2713 Q558.1375,85.2713 557.4031,85.5838 Q556.6844,85.8963 556.1844,86.49 Q555.6844,87.0681 555.4031,87.9431 Q555.1375,88.8181 555.1375,89.9119 Q555.1375,91.3494 555.575,92.3963 Q556.0281,93.4431 556.8719,93.99 Q557.7313,94.5369 559.0438,94.5369 Q559.825,94.5369 560.5125,94.4119 Q561.2156,94.2713 562.2156,93.9588 L562.2156,95.8338 Q561.3563,96.1619 560.5906,96.2869 Q559.8406,96.4119 558.825,96.4119 Q556.9031,96.4119 555.5906,95.615 Q554.2938,94.8025 553.6375,93.3338 Q552.9813,91.8494 552.9813,89.8806 Q552.9813,88.4588 553.3719,87.2869 Q553.7781,86.0994 554.5594,85.2244 Q555.3406,84.3494 556.4813,83.8806 Q557.6219,83.3963 559.0906,83.3963 Q560.0438,83.3963 560.9344,83.5994 Q561.8406,83.7869 562.7781,84.2556 L561.95,86.0369 Q561.1688,85.6619 560.5125,85.4744 Q559.8563,85.2713 559.0594,85.2713 Z " fill="#000000"/><text fill="#000000" font-family="sans-serif" font-size="14" lengthAdjust="spacing" textLength="95.8576" x="572.95" y="95.172">EndpointValue</text><line style="stroke:#181818;stroke-width:0.5;" x1="544.95" x2="670.8076" y1="105.74" y2="105.74"/><text fill="#000000" font-family="sans-serif" font-size="14" lengthAdjust="spacing" textLength="57.4558" x="549.95" y="124.7059">host : str</text><text fill="#000000" font-family="sans-serif" font-size="14" lengthAdjust="spacing" textLength="106.9176" x="549.95" y="143.7739">port : int | None</text><line style="stroke:#181818;stroke-width:0.5;" x1="544.95" x2="670.8076" y1="151.8758" y2="151.8758"/><text fill="#000000" font-family="sans-serif" font-size="14" lengthAdjust="spacing" textLength="90.3557" x="549.95" y="170.8418">render() -&gt; str</text></g><!--class setup_bind_share.FolderMount--><g class="entity" data-qualified-name="setup_bind_share.FolderMount" data-source-line="24" id="ent0007"><rect fill="#F1F1F1" height="238.6792" rx="2.5" ry="2.5" style="stroke:#181818;stroke-width:0.5;" width="213.8092" x="706.97" y="7"/><ellipse cx="767.0438" cy="23" fill="#ADD1B2" rx="11" ry="11" style="stroke:#181818;stroke-width:1;"/><path d="M767.1532,18.5313 Q766.2313,18.5313 765.4969,18.8438 Q764.7782,19.1563 764.2782,19.75 Q763.7782,20.3281 763.4969,21.2031 Q763.2313,22.0781 763.2313,23.1719 Q763.2313,24.6094 763.6688,25.6563 Q764.1219,26.7031 764.9657,27.25 Q765.825,27.7969 767.1375,27.7969 Q767.9188,27.7969 768.6063,27.6719 Q769.3094,27.5313 770.3094,27.2188 L770.3094,29.0938 Q769.45,29.4219 768.6844,29.5469 Q767.9344,29.6719 766.9188,29.6719 Q764.9969,29.6719 763.6844,28.875 Q762.3875,28.0625 761.7313,26.5938 Q761.075,25.1094 761.075,23.1406 Q761.075,21.7188 761.4657,20.5469 Q761.8719,19.3594 762.6532,18.4844 Q763.4344,17.6094 764.575,17.1406 Q765.7157,16.6563 767.1844,16.6563 Q768.1375,16.6563 769.0282,16.8594 Q769.9344,17.0469 770.8719,17.5156 L770.0438,19.2969 Q769.2625,18.9219 768.6063,18.7344 Q767.95,18.5313 767.1532,18.5313 Z " fill="#000000"/><text fill="#000000" font-family="sans-serif" font-size="14" lengthAdjust="spacing" textLength="85.1617" x="787.5438" y="28.432">FolderMount</text><line style="stroke:#181818;stroke-width:0.5;" x1="707.97" x2="919.7792" y1="39" y2="39"/><text fill="#000000" font-family="sans-serif" font-size="14" lengthAdjust="spacing" textLength="91.0417" x="712.97" y="57.9659">acl_mode : str</text><text fill="#000000" font-family="sans-serif" font-size="14" lengthAdjust="spacing" textLength="189.0413" x="712.97" y="77.0339">create_missing_source : bool</text><text fill="#000000" font-family="sans-serif" font-size="14" lengthAdjust="spacing" textLength="143.7514" x="712.97" y="96.1018">default_acl_mode : str</text><text fill="#000000" font-family="sans-serif" font-size="14" lengthAdjust="spacing" textLength="186.5073" x="712.97" y="115.1697">grant_parent_traverse : bool</text><text fill="#000000" font-family="sans-serif" font-size="14" lengthAdjust="spacing" textLength="66.0658" x="712.97" y="134.2376">name : str</text><text fill="#000000" font-family="sans-serif" font-size="14" lengthAdjust="spacing" textLength="84.5597" x="712.97" y="153.3055">persist : bool</text><text fill="#000000" font-family="sans-serif" font-size="14" lengthAdjust="spacing" textLength="124.7535" x="712.97" y="172.3734">recursive_acl : bool</text><text fill="#000000" font-family="sans-serif" font-size="14" lengthAdjust="spacing" textLength="85.2877" x="712.97" y="191.4414">source : Path</text><text fill="#000000" font-family="sans-serif" font-size="14" lengthAdjust="spacing" textLength="117.6976" x="712.97" y="210.5093">target_path : Path</text><text fill="#000000" font-family="sans-serif" font-size="14" lengthAdjust="spacing" textLength="201.8092" x="712.97" y="229.5772">target_relative : PurePosixPath</text><line style="stroke:#181818;stroke-width:0.5;" x1="707.97" x2="919.7792" y1="237.6792" y2="237.6792"/></g><!--class setup_bind_share.GlobalSettings--><g class="entity" data-qualified-name="setup_bind_share.GlobalSettings" data-source-line="36" id="ent0008"><rect fill="#F1F1F1" height="181.4754" rx="2.5" ry="2.5" style="stroke:#181818;stroke-width:0.5;" width="155.7514" x="7" y="343.75"/><ellipse cx="34.6593" cy="359.75" fill="#ADD1B2" rx="11" ry="11" style="stroke:#181818;stroke-width:1;"/><path d="M34.7687,355.2813 Q33.8468,355.2813 33.1124,355.5938 Q32.3937,355.9063 31.8937,356.5 Q31.3937,357.0781 31.1124,357.9531 Q30.8468,358.8281 30.8468,359.9219 Q30.8468,361.3594 31.2843,362.4063 Q31.7374,363.4531 32.5812,364 Q33.4406,364.5469 34.7531,364.5469 Q35.5343,364.5469 36.2218,364.4219 Q36.9249,364.2813 37.9249,363.9688 L37.9249,365.8438 Q37.0656,366.1719 36.2999,366.2969 Q35.5499,366.4219 34.5343,366.4219 Q32.6124,366.4219 31.2999,365.625 Q30.0031,364.8125 29.3468,363.3438 Q28.6906,361.8594 28.6906,359.8906 Q28.6906,358.4688 29.0812,357.2969 Q29.4874,356.1094 30.2687,355.2344 Q31.0499,354.3594 32.1906,353.8906 Q33.3312,353.4063 34.7999,353.4063 Q35.7531,353.4063 36.6437,353.6094 Q37.5499,353.7969 38.4874,354.2656 L37.6593,356.0469 Q36.8781,355.6719 36.2218,355.4844 Q35.5656,355.2813 34.7687,355.2813 Z " fill="#000000"/><text fill="#000000" font-family="sans-serif" font-size="14" lengthAdjust="spacing" textLength="95.6196" x="51.4725" y="365.182">GlobalSettings</text><line style="stroke:#181818;stroke-width:0.5;" x1="8" x2="161.7514" y1="375.75" y2="375.75"/><text fill="#000000" font-family="sans-serif" font-size="14" lengthAdjust="spacing" textLength="143.7514" x="13" y="394.7159">acl_group : str | None</text><text fill="#000000" font-family="sans-serif" font-size="14" lengthAdjust="spacing" textLength="82.0117" x="13" y="413.7839">acl_user : str</text><text fill="#000000" font-family="sans-serif" font-size="14" lengthAdjust="spacing" textLength="140.7695" x="13" y="432.8518">mount_dir_mode : int</text><text fill="#000000" font-family="sans-serif" font-size="14" lengthAdjust="spacing" textLength="111.9436" x="13" y="451.9197">share_root : Path</text><text fill="#000000" font-family="sans-serif" font-size="14" lengthAdjust="spacing" textLength="143.5135" x="13" y="470.9876">share_root_mode : int</text><text fill="#000000" font-family="sans-serif" font-size="14" lengthAdjust="spacing" textLength="103.3196" x="13" y="490.0555">smb_group : str</text><text fill="#000000" font-family="sans-serif" font-size="14" lengthAdjust="spacing" textLength="92.2317" x="13" y="509.1234">smb_user : str</text><line style="stroke:#181818;stroke-width:0.5;" x1="8" x2="161.7514" y1="517.2254" y2="517.2254"/></g><!--class export_caddy_mtls_profile.IdentityPaths--><g class="entity" data-qualified-name="export_caddy_mtls_profile.IdentityPaths" data-source-line="45" id="ent0009"><rect fill="#F1F1F1" height="200.5433" rx="2.5" ry="2.5" style="stroke:#181818;stroke-width:0.5;" width="183.1914" x="197.28" y="334.22"/><ellipse cx="240.9413" cy="350.22" fill="#ADD1B2" rx="11" ry="11" style="stroke:#181818;stroke-width:1;"/><path d="M241.0506,345.7513 Q240.1288,345.7513 239.3944,346.0638 Q238.6756,346.3763 238.1756,346.97 Q237.6756,347.5481 237.3944,348.4231 Q237.1288,349.2981 237.1288,350.3919 Q237.1288,351.8294 237.5663,352.8763 Q238.0194,353.9231 238.8631,354.47 Q239.7225,355.0169 241.035,355.0169 Q241.8163,355.0169 242.5038,354.8919 Q243.2069,354.7513 244.2069,354.4388 L244.2069,356.3138 Q243.3475,356.6419 242.5819,356.7669 Q241.8319,356.8919 240.8163,356.8919 Q238.8944,356.8919 237.5819,356.095 Q236.285,355.2825 235.6288,353.8138 Q234.9725,352.3294 234.9725,350.3606 Q234.9725,348.9388 235.3631,347.7669 Q235.7694,346.5794 236.5506,345.7044 Q237.3319,344.8294 238.4725,344.3606 Q239.6131,343.8763 241.0819,343.8763 Q242.035,343.8763 242.9256,344.0794 Q243.8319,344.2669 244.7694,344.7356 L243.9413,346.5169 Q243.16,346.1419 242.5038,345.9544 Q241.8475,345.7513 241.0506,345.7513 Z " fill="#000000"/><text fill="#000000" font-family="sans-serif" font-size="14" lengthAdjust="spacing" textLength="87.4997" x="261.3104" y="355.652">IdentityPaths</text><line style="stroke:#181818;stroke-width:0.5;" x1="198.28" x2="379.4714" y1="366.22" y2="366.22"/><text fill="#000000" font-family="sans-serif" font-size="14" lengthAdjust="spacing" textLength="102.8996" x="203.28" y="385.1859">cert_path : Path</text><text fill="#000000" font-family="sans-serif" font-size="14" lengthAdjust="spacing" textLength="99.9596" x="203.28" y="404.2539">key_path : Path</text><text fill="#000000" font-family="sans-serif" font-size="14" lengthAdjust="spacing" textLength="102.0736" x="203.28" y="423.3218">p12_path : Path</text><text fill="#000000" font-family="sans-serif" font-size="14" lengthAdjust="spacing" textLength="152.8234" x="203.28" y="442.3897">passphrase_path : Path</text><text fill="#000000" font-family="sans-serif" font-size="14" lengthAdjust="spacing" textLength="112.9096" x="203.28" y="461.4576">serial_path : Path</text><text fill="#000000" font-family="sans-serif" font-size="14" lengthAdjust="spacing" textLength="56.1538" x="203.28" y="480.5255">slug : str</text><text fill="#000000" font-family="sans-serif" font-size="14" lengthAdjust="spacing" textLength="153.0194" x="203.28" y="499.5934">staged_p12_path : Path</text><text fill="#000000" font-family="sans-serif" font-size="14" lengthAdjust="spacing" textLength="171.1914" x="203.28" y="518.6614">staged_profile_path : Path</text><line style="stroke:#181818;stroke-width:0.5;" x1="198.28" x2="379.4714" y1="526.7633" y2="526.7633"/></g><!--class check_wireguard_endpoint.MonitorConfig--><g class="entity" data-qualified-name="check_wireguard_endpoint.MonitorConfig" data-source-line="55" id="ent0010"><rect fill="#F1F1F1" height="219.6113" rx="2.5" ry="2.5" style="stroke:#181818;stroke-width:0.5;" width="242.9851" x="1071.38" y="16.54"/><ellipse cx="1140.7497" cy="32.54" fill="#ADD1B2" rx="11" ry="11" style="stroke:#181818;stroke-width:1;"/><path d="M1140.8591,28.0713 Q1139.9372,28.0713 1139.2029,28.3838 Q1138.4841,28.6963 1137.9841,29.29 Q1137.4841,29.8681 1137.2029,30.7431 Q1136.9372,31.6181 1136.9372,32.7119 Q1136.9372,34.1494 1137.3747,35.1963 Q1137.8279,36.2431 1138.6716,36.79 Q1139.531,37.3369 1140.8435,37.3369 Q1141.6247,37.3369 1142.3122,37.2119 Q1143.0154,37.0713 1144.0154,36.7588 L1144.0154,38.6338 Q1143.156,38.9619 1142.3904,39.0869 Q1141.6404,39.2119 1140.6247,39.2119 Q1138.7029,39.2119 1137.3904,38.415 Q1136.0935,37.6025 1135.4372,36.1338 Q1134.781,34.6494 1134.781,32.6806 Q1134.781,31.2588 1135.1716,30.0869 Q1135.5779,28.8994 1136.3591,28.0244 Q1137.1404,27.1494 1138.281,26.6806 Q1139.4216,26.1963 1140.8904,26.1963 Q1141.8435,26.1963 1142.7341,26.3994 Q1143.6404,26.5869 1144.5779,27.0556 L1143.7497,28.8369 Q1142.9685,28.4619 1142.3122,28.2744 Q1141.656,28.0713 1140.8591,28.0713 Z " fill="#000000"/><text fill="#000000" font-family="sans-serif" font-size="14" lengthAdjust="spacing" textLength="95.7456" x="1161.2497" y="37.972">MonitorConfig</text><line style="stroke:#181818;stroke-width:0.5;" x1="1072.38" x2="1313.3651" y1="48.54" y2="48.54"/><text fill="#000000" font-family="sans-serif" font-size="14" lengthAdjust="spacing" textLength="173.2073" x="1077.38" y="67.5059">bind_interface : str | None</text><text fill="#000000" font-family="sans-serif" font-size="14" lengthAdjust="spacing" textLength="118.3275" x="1077.38" y="86.5739">config_path : Path</text><text fill="#000000" font-family="sans-serif" font-size="14" lengthAdjust="spacing" textLength="36.0639" x="1077.38" y="105.6418">email</text><text fill="#000000" font-family="sans-serif" font-size="14" lengthAdjust="spacing" textLength="95.2556" x="1077.38" y="124.7097">host_label : str</text><text fill="#000000" font-family="sans-serif" font-size="14" lengthAdjust="spacing" textLength="207.8852" x="1077.38" y="143.7776">profiles : tuple[ProfileConfig, ...]</text><text fill="#000000" font-family="sans-serif" font-size="14" lengthAdjust="spacing" textLength="230.9851" x="1077.38" y="162.8455">public_ip_lookup_urls : tuple[str, ...]</text><text fill="#000000" font-family="sans-serif" font-size="14" lengthAdjust="spacing" textLength="151.5774" x="1077.38" y="181.9134">shock_relay_root : Path</text><text fill="#000000" font-family="sans-serif" font-size="14" lengthAdjust="spacing" textLength="39.0459" x="1077.38" y="200.9814">signal</text><text fill="#000000" font-family="sans-serif" font-size="14" lengthAdjust="spacing" textLength="99.7776" x="1077.38" y="220.0493">state_file : Path</text><line style="stroke:#181818;stroke-width:0.5;" x1="1072.38" x2="1313.3651" y1="228.1513" y2="228.1513"/></g><!--class check_wireguard_endpoint.MonitorError--><g class="entity" data-qualified-name="check_wireguard_endpoint.MonitorError" data-source-line="66" id="ent0011"><rect fill="#F1F1F1" height="48" rx="2.5" ry="2.5" style="stroke:#181818;stroke-width:0.5;" width="118.3377" x="415.71" y="410.49"/><ellipse cx="430.71" cy="426.49" fill="#ADD1B2" rx="11" ry="11" style="stroke:#181818;stroke-width:1;"/><path d="M430.8194,422.0213 Q429.8975,422.0213 429.1631,422.3338 Q428.4444,422.6463 427.9444,423.24 Q427.4444,423.8181 427.1631,424.6931 Q426.8975,425.5681 426.8975,426.6619 Q426.8975,428.0994 427.335,429.1463 Q427.7881,430.1931 428.6319,430.74 Q429.4913,431.2869 430.8038,431.2869 Q431.585,431.2869 432.2725,431.1619 Q432.9756,431.0213 433.9756,430.7088 L433.9756,432.5838 Q433.1163,432.9119 432.3506,433.0369 Q431.6006,433.1619 430.585,433.1619 Q428.6631,433.1619 427.3506,432.365 Q426.0538,431.5525 425.3975,430.0838 Q424.7413,428.5994 424.7413,426.6306 Q424.7413,425.2088 425.1319,424.0369 Q425.5381,422.8494 426.3194,421.9744 Q427.1006,421.0994 428.2413,420.6306 Q429.3819,420.1463 430.8506,420.1463 Q431.8038,420.1463 432.6944,420.3494 Q433.6006,420.5369 434.5381,421.0056 L433.71,422.7869 Q432.9288,422.4119 432.2725,422.2244 Q431.6163,422.0213 430.8194,422.0213 Z " fill="#000000"/><text fill="#FF0000" font-family="sans-serif" font-size="14" lengthAdjust="spacing" textLength="86.3377" x="444.71" y="431.922">MonitorError</text><line style="stroke:#181818;stroke-width:0.5;" x1="416.71" x2="533.0477" y1="442.49" y2="442.49"/><line style="stroke:#181818;stroke-width:0.5;" x1="416.71" x2="533.0477" y1="450.49" y2="450.49"/></g><!--class check_wireguard_endpoint.MonitorOutcome--><g class="entity" data-qualified-name="check_wireguard_endpoint.MonitorOutcome" data-source-line="68" id="ent0012"><rect fill="#F1F1F1" height="219.6113" rx="2.5" ry="2.5" style="stroke:#181818;stroke-width:0.5;" width="268.773" x="569.49" y="324.68"/><ellipse cx="642.8497" cy="340.68" fill="#ADD1B2" rx="11" ry="11" style="stroke:#181818;stroke-width:1;"/><path d="M642.9591,336.2113 Q642.0372,336.2113 641.3028,336.5238 Q640.5841,336.8363 640.0841,337.43 Q639.5841,338.0081 639.3028,338.8831 Q639.0372,339.7581 639.0372,340.8519 Q639.0372,342.2894 639.4747,343.3363 Q639.9278,344.3831 640.7716,344.93 Q641.631,345.4769 642.9435,345.4769 Q643.7247,345.4769 644.4122,345.3519 Q645.1153,345.2113 646.1153,344.8988 L646.1153,346.7738 Q645.256,347.1019 644.4903,347.2269 Q643.7403,347.3519 642.7247,347.3519 Q640.8028,347.3519 639.4903,346.555 Q638.1935,345.7425 637.5372,344.2738 Q636.881,342.7894 636.881,340.8206 Q636.881,339.3988 637.2716,338.2269 Q637.6778,337.0394 638.4591,336.1644 Q639.2403,335.2894 640.381,334.8206 Q641.5216,334.3363 642.9903,334.3363 Q643.9435,334.3363 644.8341,334.5394 Q645.7403,334.7269 646.6778,335.1956 L645.8497,336.9769 Q645.0685,336.6019 644.4122,336.4144 Q643.756,336.2113 642.9591,336.2113 Z " fill="#000000"/><text fill="#000000" font-family="sans-serif" font-size="14" lengthAdjust="spacing" textLength="113.5536" x="663.3497" y="346.112">MonitorOutcome</text><line style="stroke:#181818;stroke-width:0.5;" x1="570.49" x2="837.263" y1="356.68" y2="356.68"/><text fill="#000000" font-family="sans-serif" font-size="14" lengthAdjust="spacing" textLength="142.8835" x="575.49" y="375.6459">current_endpoint : str</text><text fill="#000000" font-family="sans-serif" font-size="14" lengthAdjust="spacing" textLength="169.9033" x="575.49" y="394.7139">email_retry_needed : bool</text><text fill="#000000" font-family="sans-serif" font-size="14" lengthAdjust="spacing" textLength="110.7816" x="575.49" y="413.7818">email_sent : bool</text><text fill="#000000" font-family="sans-serif" font-size="14" lengthAdjust="spacing" textLength="162.9594" x="575.49" y="432.8497">endpoint_changed : bool</text><text fill="#000000" font-family="sans-serif" font-size="14" lengthAdjust="spacing" textLength="256.773" x="575.49" y="451.9176">profile_outcomes : list[ProfileOutcome]</text><text fill="#000000" font-family="sans-serif" font-size="14" lengthAdjust="spacing" textLength="86.8277" x="575.49" y="470.9855">public_ip : str</text><text fill="#000000" font-family="sans-serif" font-size="14" lengthAdjust="spacing" textLength="178.4993" x="575.49" y="490.0534">regenerated_qrs : list[Path]</text><text fill="#000000" font-family="sans-serif" font-size="14" lengthAdjust="spacing" textLength="172.8853" x="575.49" y="509.1214">signal_retry_needed : bool</text><text fill="#000000" font-family="sans-serif" font-size="14" lengthAdjust="spacing" textLength="113.7636" x="575.49" y="528.1893">signal_sent : bool</text><line style="stroke:#181818;stroke-width:0.5;" x1="570.49" x2="837.263" y1="536.2913" y2="536.2913"/></g><!--class export_caddy_mtls_profile.Ownership--><g class="entity" data-qualified-name="export_caddy_mtls_profile.Ownership" data-source-line="79" id="ent0013"><rect fill="#F1F1F1" height="124.2717" rx="2.5" ry="2.5" style="stroke:#181818;stroke-width:0.5;" width="126.0856" x="872.83" y="372.35"/><ellipse cx="897.837" cy="388.35" fill="#ADD1B2" rx="11" ry="11" style="stroke:#181818;stroke-width:1;"/><path d="M897.9464,383.8813 Q897.0245,383.8813 896.2902,384.1938 Q895.5714,384.5063 895.0714,385.1 Q894.5714,385.6781 894.2902,386.5531 Q894.0245,387.4281 894.0245,388.5219 Q894.0245,389.9594 894.462,391.0063 Q894.9152,392.0531 895.7589,392.6 Q896.6183,393.1469 897.9308,393.1469 Q898.712,393.1469 899.3995,393.0219 Q900.1027,392.8813 901.1027,392.5688 L901.1027,394.4438 Q900.2433,394.7719 899.4777,394.8969 Q898.7277,395.0219 897.712,395.0219 Q895.7902,395.0219 894.4777,394.225 Q893.1808,393.4125 892.5245,391.9438 Q891.8683,390.4594 891.8683,388.4906 Q891.8683,387.0688 892.2589,385.8969 Q892.6652,384.7094 893.4464,383.8344 Q894.2277,382.9594 895.3683,382.4906 Q896.5089,382.0063 897.9777,382.0063 Q898.9308,382.0063 899.8214,382.2094 Q900.7277,382.3969 901.6652,382.8656 L900.837,384.6469 Q900.0558,384.2719 899.3995,384.0844 Q898.7433,383.8813 897.9464,383.8813 Z " fill="#000000"/><text fill="#000000" font-family="sans-serif" font-size="14" lengthAdjust="spacing" textLength="71.8477" x="914.0608" y="393.782">Ownership</text><line style="stroke:#181818;stroke-width:0.5;" x1="873.83" x2="997.9156" y1="404.35" y2="404.35"/><text fill="#000000" font-family="sans-serif" font-size="14" lengthAdjust="spacing" textLength="49.1818" x="878.83" y="423.3159">gid : int</text><text fill="#000000" font-family="sans-serif" font-size="14" lengthAdjust="spacing" textLength="112.4056" x="878.83" y="442.3839">group_name : str</text><text fill="#000000" font-family="sans-serif" font-size="14" lengthAdjust="spacing" textLength="114.0856" x="878.83" y="461.4518">owner_name : str</text><text fill="#000000" font-family="sans-serif" font-size="14" lengthAdjust="spacing" textLength="49.2238" x="878.83" y="480.5197">uid : int</text><line style="stroke:#181818;stroke-width:0.5;" x1="873.83" x2="997.9156" y1="488.6217" y2="488.6217"/></g><!--class export_caddy_root_profile.Ownership--><g class="entity" data-qualified-name="export_caddy_root_profile.Ownership" data-source-line="85" id="ent0014"><rect fill="#F1F1F1" height="124.2717" rx="2.5" ry="2.5" style="stroke:#181818;stroke-width:0.5;" width="126.0856" x="21.83" y="681.57"/><ellipse cx="46.837" cy="697.57" fill="#ADD1B2" rx="11" ry="11" style="stroke:#181818;stroke-width:1;"/><path d="M46.9464,693.1013 Q46.0245,693.1013 45.2902,693.4138 Q44.5714,693.7263 44.0714,694.32 Q43.5714,694.8981 43.2902,695.7731 Q43.0245,696.6481 43.0245,697.7419 Q43.0245,699.1794 43.462,700.2263 Q43.9152,701.2731 44.7589,701.82 Q45.6183,702.3669 46.9308,702.3669 Q47.712,702.3669 48.3995,702.2419 Q49.1027,702.1013 50.1027,701.7888 L50.1027,703.6638 Q49.2433,703.9919 48.4777,704.1169 Q47.7277,704.2419 46.712,704.2419 Q44.7902,704.2419 43.4777,703.445 Q42.1808,702.6325 41.5245,701.1638 Q40.8683,699.6794 40.8683,697.7106 Q40.8683,696.2888 41.2589,695.1169 Q41.6652,693.9294 42.4464,693.0544 Q43.2277,692.1794 44.3683,691.7106 Q45.5089,691.2263 46.9777,691.2263 Q47.9308,691.2263 48.8214,691.4294 Q49.7277,691.6169 50.6652,692.0856 L49.837,693.8669 Q49.0558,693.4919 48.3995,693.3044 Q47.7433,693.1013 46.9464,693.1013 Z " fill="#000000"/><text fill="#000000" font-family="sans-serif" font-size="14" lengthAdjust="spacing" textLength="71.8477" x="63.0608" y="703.002">Ownership</text><line style="stroke:#181818;stroke-width:0.5;" x1="22.83" x2="146.9156" y1="713.57" y2="713.57"/><text fill="#000000" font-family="sans-serif" font-size="14" lengthAdjust="spacing" textLength="49.1818" x="27.83" y="732.5359">gid : int</text><text fill="#000000" font-family="sans-serif" font-size="14" lengthAdjust="spacing" textLength="112.4056" x="27.83" y="751.6039">group_name : str</text><text fill="#000000" font-family="sans-serif" font-size="14" lengthAdjust="spacing" textLength="114.0856" x="27.83" y="770.6718">owner_name : str</text><text fill="#000000" font-family="sans-serif" font-size="14" lengthAdjust="spacing" textLength="49.2238" x="27.83" y="789.7397">uid : int</text><line style="stroke:#181818;stroke-width:0.5;" x1="22.83" x2="146.9156" y1="797.8417" y2="797.8417"/></g><!--class check_wireguard_endpoint.ProfileConfig--><g class="entity" data-qualified-name="check_wireguard_endpoint.ProfileConfig" data-source-line="91" id="ent0015"><rect fill="#F1F1F1" height="105.2038" rx="2.5" ry="2.5" style="stroke:#181818;stroke-width:0.5;" width="130.3275" x="182.71" y="691.1"/><ellipse cx="203.4078" cy="707.1" fill="#ADD1B2" rx="11" ry="11" style="stroke:#181818;stroke-width:1;"/><path d="M203.5172,702.6313 Q202.5953,702.6313 201.861,702.9438 Q201.1422,703.2563 200.6422,703.85 Q200.1422,704.4281 199.861,705.3031 Q199.5953,706.1781 199.5953,707.2719 Q199.5953,708.7094 200.0328,709.7563 Q200.486,710.8031 201.3297,711.35 Q202.1891,711.8969 203.5016,711.8969 Q204.2828,711.8969 204.9703,711.7719 Q205.6735,711.6313 206.6735,711.3188 L206.6735,713.1938 Q205.8141,713.5219 205.0485,713.6469 Q204.2985,713.7719 203.2828,713.7719 Q201.361,713.7719 200.0485,712.975 Q198.7516,712.1625 198.0953,710.6938 Q197.4391,709.2094 197.4391,707.2406 Q197.4391,705.8188 197.8297,704.6469 Q198.236,703.4594 199.0172,702.5844 Q199.7985,701.7094 200.9391,701.2406 Q202.0797,700.7563 203.5485,700.7563 Q204.5016,700.7563 205.3922,700.9594 Q206.2985,701.1469 207.236,701.6156 L206.4078,703.3969 Q205.6266,703.0219 204.9703,702.8344 Q204.3141,702.6313 203.5172,702.6313 Z " fill="#000000"/><text fill="#000000" font-family="sans-serif" font-size="14" lengthAdjust="spacing" textLength="85.6657" x="218.674" y="712.532">ProfileConfig</text><line style="stroke:#181818;stroke-width:0.5;" x1="183.71" x2="312.0375" y1="723.1" y2="723.1"/><text fill="#000000" font-family="sans-serif" font-size="14" lengthAdjust="spacing" textLength="118.3275" x="188.71" y="742.0659">config_path : Path</text><text fill="#000000" font-family="sans-serif" font-size="14" lengthAdjust="spacing" textLength="66.0658" x="188.71" y="761.1339">name : str</text><text fill="#000000" font-family="sans-serif" font-size="14" lengthAdjust="spacing" textLength="91.8397" x="188.71" y="780.2018">qr_path : Path</text><line style="stroke:#181818;stroke-width:0.5;" x1="183.71" x2="312.0375" y1="788.3038" y2="788.3038"/></g><!--class check_wireguard_endpoint.ProfileOutcome--><g class="entity" data-qualified-name="check_wireguard_endpoint.ProfileOutcome" data-source-line="96" id="ent0016"><rect fill="#F1F1F1" height="162.4075" rx="2.5" ry="2.5" style="stroke:#181818;stroke-width:0.5;" width="135.4736" x="348.14" y="662.5"/><ellipse cx="363.14" cy="678.5" fill="#ADD1B2" rx="11" ry="11" style="stroke:#181818;stroke-width:1;"/><path d="M363.2494,674.0313 Q362.3275,674.0313 361.5931,674.3438 Q360.8744,674.6563 360.3744,675.25 Q359.8744,675.8281 359.5931,676.7031 Q359.3275,677.5781 359.3275,678.6719 Q359.3275,680.1094 359.765,681.1563 Q360.2181,682.2031 361.0619,682.75 Q361.9213,683.2969 363.2338,683.2969 Q364.015,683.2969 364.7025,683.1719 Q365.4056,683.0313 366.4056,682.7188 L366.4056,684.5938 Q365.5463,684.9219 364.7806,685.0469 Q364.0306,685.1719 363.015,685.1719 Q361.0931,685.1719 359.7806,684.375 Q358.4838,683.5625 357.8275,682.0938 Q357.1713,680.6094 357.1713,678.6406 Q357.1713,677.2188 357.5619,676.0469 Q357.9681,674.8594 358.7494,673.9844 Q359.5306,673.1094 360.6713,672.6406 Q361.8119,672.1563 363.2806,672.1563 Q364.2338,672.1563 365.1244,672.3594 Q366.0306,672.5469 366.9681,673.0156 L366.14,674.7969 Q365.3588,674.4219 364.7025,674.2344 Q364.0463,674.0313 363.2494,674.0313 Z " fill="#000000"/><text fill="#000000" font-family="sans-serif" font-size="14" lengthAdjust="spacing" textLength="103.4736" x="377.14" y="683.932">ProfileOutcome</text><line style="stroke:#181818;stroke-width:0.5;" x1="349.14" x2="482.6136" y1="694.5" y2="694.5"/><text fill="#000000" font-family="sans-serif" font-size="14" lengthAdjust="spacing" textLength="97.1876" x="354.14" y="713.4659">changed : bool</text><text fill="#000000" font-family="sans-serif" font-size="14" lengthAdjust="spacing" textLength="118.3275" x="354.14" y="732.5339">config_path : Path</text><text fill="#000000" font-family="sans-serif" font-size="14" lengthAdjust="spacing" textLength="66.0658" x="354.14" y="751.6018">name : str</text><text fill="#000000" font-family="sans-serif" font-size="14" lengthAdjust="spacing" textLength="121.8975" x="354.14" y="770.6697">new_endpoint : str</text><text fill="#000000" font-family="sans-serif" font-size="14" lengthAdjust="spacing" textLength="115.0376" x="354.14" y="789.7376">old_endpoint : str</text><text fill="#000000" font-family="sans-serif" font-size="14" lengthAdjust="spacing" textLength="91.8397" x="354.14" y="808.8055">qr_path : Path</text><line style="stroke:#181818;stroke-width:0.5;" x1="349.14" x2="482.6136" y1="816.9075" y2="816.9075"/></g><!--class setup_filebrowser_access.RuntimeSpec--><g class="entity" data-qualified-name="setup_filebrowser_access.RuntimeSpec" data-source-line="104" id="ent0017"><rect fill="#F1F1F1" height="276.815" rx="2.5" ry="2.5" style="stroke:#181818;stroke-width:0.5;" width="212.6892" x="518.53" y="605.29"/><ellipse cx="577.3368" cy="621.29" fill="#ADD1B2" rx="11" ry="11" style="stroke:#181818;stroke-width:1;"/><path d="M577.4462,616.8213 Q576.5243,616.8213 575.7899,617.1338 Q575.0712,617.4463 574.5712,618.04 Q574.0712,618.6181 573.7899,619.4931 Q573.5243,620.3681 573.5243,621.4619 Q573.5243,622.8994 573.9618,623.9463 Q574.4149,624.9931 575.2587,625.54 Q576.118,626.0869 577.4305,626.0869 Q578.2118,626.0869 578.8993,625.9619 Q579.6024,625.8213 580.6024,625.5088 L580.6024,627.3838 Q579.743,627.7119 578.9774,627.8369 Q578.2274,627.9619 577.2118,627.9619 Q575.2899,627.9619 573.9774,627.165 Q572.6805,626.3525 572.0243,624.8838 Q571.368,623.3994 571.368,621.4306 Q571.368,620.0088 571.7587,618.8369 Q572.1649,617.6494 572.9462,616.7744 Q573.7274,615.8994 574.868,615.4306 Q576.0087,614.9463 577.4774,614.9463 Q578.4305,614.9463 579.3212,615.1494 Q580.2274,615.3369 581.1649,615.8056 L580.3368,617.5869 Q579.5555,617.2119 578.8993,617.0244 Q578.243,616.8213 577.4462,616.8213 Z " fill="#000000"/><text fill="#000000" font-family="sans-serif" font-size="14" lengthAdjust="spacing" textLength="86.5757" x="597.8368" y="626.722">RuntimeSpec</text><line style="stroke:#181818;stroke-width:0.5;" x1="519.53" x2="730.2192" y1="637.29" y2="637.29"/><text fill="#000000" font-family="sans-serif" font-size="14" lengthAdjust="spacing" textLength="134.9735" x="524.53" y="656.2559">container_name : str</text><text fill="#000000" font-family="sans-serif" font-size="14" lengthAdjust="spacing" textLength="150.2194" x="524.53" y="675.3239">container_runtime : str</text><text fill="#000000" font-family="sans-serif" font-size="14" lengthAdjust="spacing" textLength="125.3976" x="524.53" y="694.3918">database_path : str</text><text fill="#000000" font-family="sans-serif" font-size="14" lengthAdjust="spacing" textLength="200.6892" x="524.53" y="713.4597">filebrowser_image : str | None</text><text fill="#000000" font-family="sans-serif" font-size="14" lengthAdjust="spacing" textLength="66.6398" x="524.53" y="732.5276">mode : str</text><text fill="#000000" font-family="sans-serif" font-size="14" lengthAdjust="spacing" textLength="133.0135" x="524.53" y="751.5955">restart_strategy : str</text><text fill="#000000" font-family="sans-serif" font-size="14" lengthAdjust="spacing" textLength="130.7735" x="524.53" y="770.6634">run_as_account : str</text><text fill="#000000" font-family="sans-serif" font-size="14" lengthAdjust="spacing" textLength="169.4274" x="524.53" y="789.7314">run_as_group : str | None</text><text fill="#000000" font-family="sans-serif" font-size="14" lengthAdjust="spacing" textLength="151.9834" x="524.53" y="808.7993">share_mount_path : str</text><text fill="#000000" font-family="sans-serif" font-size="14" lengthAdjust="spacing" textLength="187.1512" x="524.53" y="827.8672">sync_web_env_uid_gid : bool</text><text fill="#000000" font-family="sans-serif" font-size="14" lengthAdjust="spacing" textLength="124.5995" x="524.53" y="846.9351">web_env_file : Path</text><text fill="#000000" font-family="sans-serif" font-size="14" lengthAdjust="spacing" textLength="154.4054" x="524.53" y="866.003">web_setup_script : Path</text><line style="stroke:#181818;stroke-width:0.5;" x1="519.53" x2="730.2192" y1="874.105" y2="874.105"/></g><!--class export_caddy_mtls_profile.SetupError--><g class="entity" data-qualified-name="export_caddy_mtls_profile.SetupError" data-source-line="118" id="ent0018"><rect fill="#F1F1F1" height="48" rx="2.5" ry="2.5" style="stroke:#181818;stroke-width:0.5;" width="103.4977" x="766.13" y="719.7"/><ellipse cx="781.13" cy="735.7" fill="#ADD1B2" rx="11" ry="11" style="stroke:#181818;stroke-width:1;"/><path d="M781.2394,731.2313 Q780.3175,731.2313 779.5831,731.5438 Q778.8644,731.8563 778.3644,732.45 Q777.8644,733.0281 777.5831,733.9031 Q777.3175,734.7781 777.3175,735.8719 Q777.3175,737.3094 777.755,738.3563 Q778.2081,739.4031 779.0519,739.95 Q779.9113,740.4969 781.2238,740.4969 Q782.005,740.4969 782.6925,740.3719 Q783.3956,740.2313 784.3956,739.9188 L784.3956,741.7938 Q783.5363,742.1219 782.7706,742.2469 Q782.0206,742.3719 781.005,742.3719 Q779.0831,742.3719 777.7706,741.575 Q776.4738,740.7625 775.8175,739.2938 Q775.1613,737.8094 775.1613,735.8406 Q775.1613,734.4188 775.5519,733.2469 Q775.9581,732.0594 776.7394,731.1844 Q777.5206,730.3094 778.6613,729.8406 Q779.8019,729.3563 781.2706,729.3563 Q782.2238,729.3563 783.1144,729.5594 Q784.0206,729.7469 784.9581,730.2156 L784.13,731.9969 Q783.3488,731.6219 782.6925,731.4344 Q782.0363,731.2313 781.2394,731.2313 Z " fill="#000000"/><text fill="#FF0000" font-family="sans-serif" font-size="14" lengthAdjust="spacing" textLength="71.4977" x="795.13" y="741.132">SetupError</text><line style="stroke:#181818;stroke-width:0.5;" x1="767.13" x2="868.6277" y1="751.7" y2="751.7"/><line style="stroke:#181818;stroke-width:0.5;" x1="767.13" x2="868.6277" y1="759.7" y2="759.7"/></g><!--class export_caddy_root_profile.SetupError--><g class="entity" data-qualified-name="export_caddy_root_profile.SetupError" data-source-line="120" id="ent0019"><rect fill="#F1F1F1" height="48" rx="2.5" ry="2.5" style="stroke:#181818;stroke-width:0.5;" width="103.4977" x="33.13" y="981.24"/><ellipse cx="48.13" cy="997.24" fill="#ADD1B2" rx="11" ry="11" style="stroke:#181818;stroke-width:1;"/><path d="M48.2394,992.7713 Q47.3175,992.7713 46.5831,993.0838 Q45.8644,993.3963 45.3644,993.99 Q44.8644,994.5681 44.5831,995.4431 Q44.3175,996.3181 44.3175,997.4119 Q44.3175,998.8494 44.755,999.8963 Q45.2081,1000.9431 46.0519,1001.49 Q46.9112,1002.0369 48.2237,1002.0369 Q49.005,1002.0369 49.6925,1001.9119 Q50.3956,1001.7713 51.3956,1001.4588 L51.3956,1003.3338 Q50.5362,1003.6619 49.7706,1003.7869 Q49.0206,1003.9119 48.005,1003.9119 Q46.0831,1003.9119 44.7706,1003.115 Q43.4737,1002.3025 42.8175,1000.8338 Q42.1612,999.3494 42.1612,997.3806 Q42.1612,995.9588 42.5519,994.7869 Q42.9581,993.5994 43.7394,992.7244 Q44.5206,991.8494 45.6612,991.3806 Q46.8019,990.8963 48.2706,990.8963 Q49.2237,990.8963 50.1144,991.0994 Q51.0206,991.2869 51.9581,991.7556 L51.13,993.5369 Q50.3487,993.1619 49.6925,992.9744 Q49.0362,992.7713 48.2394,992.7713 Z " fill="#000000"/><text fill="#FF0000" font-family="sans-serif" font-size="14" lengthAdjust="spacing" textLength="71.4977" x="62.13" y="1002.672">SetupError</text><line style="stroke:#181818;stroke-width:0.5;" x1="34.13" x2="135.6277" y1="1013.24" y2="1013.24"/><line style="stroke:#181818;stroke-width:0.5;" x1="34.13" x2="135.6277" y1="1021.24" y2="1021.24"/></g><!--class setup_filebrowser_access.SetupError--><g class="entity" data-qualified-name="setup_filebrowser_access.SetupError" data-source-line="122" id="ent0020"><rect fill="#F1F1F1" height="48" rx="2.5" ry="2.5" style="stroke:#181818;stroke-width:0.5;" width="103.4977" x="171.13" y="981.24"/><ellipse cx="186.13" cy="997.24" fill="#ADD1B2" rx="11" ry="11" style="stroke:#181818;stroke-width:1;"/><path d="M186.2394,992.7713 Q185.3175,992.7713 184.5831,993.0838 Q183.8644,993.3963 183.3644,993.99 Q182.8644,994.5681 182.5831,995.4431 Q182.3175,996.3181 182.3175,997.4119 Q182.3175,998.8494 182.755,999.8963 Q183.2081,1000.9431 184.0519,1001.49 Q184.9113,1002.0369 186.2238,1002.0369 Q187.005,1002.0369 187.6925,1001.9119 Q188.3956,1001.7713 189.3956,1001.4588 L189.3956,1003.3338 Q188.5363,1003.6619 187.7706,1003.7869 Q187.0206,1003.9119 186.005,1003.9119 Q184.0831,1003.9119 182.7706,1003.115 Q181.4738,1002.3025 180.8175,1000.8338 Q180.1613,999.3494 180.1613,997.3806 Q180.1613,995.9588 180.5519,994.7869 Q180.9581,993.5994 181.7394,992.7244 Q182.5206,991.8494 183.6613,991.3806 Q184.8019,990.8963 186.2706,990.8963 Q187.2238,990.8963 188.1144,991.0994 Q189.0206,991.2869 189.9581,991.7556 L189.13,993.5369 Q188.3488,993.1619 187.6925,992.9744 Q187.0363,992.7713 186.2394,992.7713 Z " fill="#000000"/><text fill="#FF0000" font-family="sans-serif" font-size="14" lengthAdjust="spacing" textLength="71.4977" x="200.13" y="1002.672">SetupError</text><line style="stroke:#181818;stroke-width:0.5;" x1="172.13" x2="273.6277" y1="1013.24" y2="1013.24"/><line style="stroke:#181818;stroke-width:0.5;" x1="172.13" x2="273.6277" y1="1021.24" y2="1021.24"/></g><!--class check_wireguard_endpoint.SignalConfig--><g class="entity" data-qualified-name="check_wireguard_endpoint.SignalConfig" data-source-line="124" id="ent0021"><rect fill="#F1F1F1" height="143.3396" rx="2.5" ry="2.5" style="stroke:#181818;stroke-width:0.5;" width="141.3035" x="1210.22" y="362.82"/><ellipse cx="1237.0414" cy="378.82" fill="#ADD1B2" rx="11" ry="11" style="stroke:#181818;stroke-width:1;"/><path d="M1237.1508,374.3513 Q1236.2289,374.3513 1235.4946,374.6638 Q1234.7758,374.9763 1234.2758,375.57 Q1233.7758,376.1481 1233.4946,377.0231 Q1233.2289,377.8981 1233.2289,378.9919 Q1233.2289,380.4294 1233.6664,381.4763 Q1234.1196,382.5231 1234.9633,383.07 Q1235.8227,383.6169 1237.1352,383.6169 Q1237.9164,383.6169 1238.6039,383.4919 Q1239.3071,383.3513 1240.3071,383.0388 L1240.3071,384.9138 Q1239.4477,385.2419 1238.6821,385.3669 Q1237.9321,385.4919 1236.9164,385.4919 Q1234.9946,385.4919 1233.6821,384.695 Q1232.3852,383.8825 1231.7289,382.4138 Q1231.0727,380.9294 1231.0727,378.9606 Q1231.0727,377.5388 1231.4633,376.3669 Q1231.8696,375.1794 1232.6508,374.3044 Q1233.4321,373.4294 1234.5727,372.9606 Q1235.7133,372.4763 1237.1821,372.4763 Q1238.1352,372.4763 1239.0258,372.6794 Q1239.9321,372.8669 1240.8696,373.3356 L1240.0414,375.1169 Q1239.2602,374.7419 1238.6039,374.5544 Q1237.9477,374.3513 1237.1508,374.3513 Z " fill="#000000"/><text fill="#000000" font-family="sans-serif" font-size="14" lengthAdjust="spacing" textLength="83.0337" x="1253.6684" y="384.252">SignalConfig</text><line style="stroke:#181818;stroke-width:0.5;" x1="1211.22" x2="1350.5235" y1="394.82" y2="394.82"/><text fill="#000000" font-family="sans-serif" font-size="14" lengthAdjust="spacing" textLength="118.3275" x="1216.22" y="413.7859">config_path : Path</text><text fill="#000000" font-family="sans-serif" font-size="14" lengthAdjust="spacing" textLength="93.3236" x="1216.22" y="432.8539">enabled : bool</text><text fill="#000000" font-family="sans-serif" font-size="14" lengthAdjust="spacing" textLength="119.2515" x="1216.22" y="451.9218">note_to_self : bool</text><text fill="#000000" font-family="sans-serif" font-size="14" lengthAdjust="spacing" textLength="86.4077" x="1216.22" y="470.9897">recipient : str</text><text fill="#000000" font-family="sans-serif" font-size="14" lengthAdjust="spacing" textLength="129.3035" x="1216.22" y="490.0576">sender_script : Path</text><line style="stroke:#181818;stroke-width:0.5;" x1="1211.22" x2="1350.5235" y1="498.1596" y2="498.1596"/></g><!--class setup_filebrowser_access.UserSpec--><g class="entity" data-qualified-name="setup_filebrowser_access.UserSpec" data-source-line="131" id="ent0022"><rect fill="#F1F1F1" height="124.2717" rx="2.5" ry="2.5" style="stroke:#181818;stroke-width:0.5;" width="107.1016" x="309.32" y="943.11"/><ellipse cx="330.4273" cy="959.11" fill="#ADD1B2" rx="11" ry="11" style="stroke:#181818;stroke-width:1;"/><path d="M330.5367,954.6413 Q329.6148,954.6413 328.8805,954.9538 Q328.1617,955.2663 327.6617,955.86 Q327.1617,956.4381 326.8805,957.3131 Q326.6148,958.1881 326.6148,959.2819 Q326.6148,960.7194 327.0523,961.7663 Q327.5055,962.8131 328.3492,963.36 Q329.2086,963.9069 330.5211,963.9069 Q331.3023,963.9069 331.9898,963.7819 Q332.693,963.6413 333.693,963.3288 L333.693,965.2038 Q332.8336,965.5319 332.068,965.6569 Q331.318,965.7819 330.3023,965.7819 Q328.3805,965.7819 327.068,964.985 Q325.7711,964.1725 325.1148,962.7038 Q324.4586,961.2194 324.4586,959.2506 Q324.4586,957.8288 324.8492,956.6569 Q325.2555,955.4694 326.0367,954.5944 Q326.818,953.7194 327.9586,953.2506 Q329.0992,952.7663 330.568,952.7663 Q331.5211,952.7663 332.4117,952.9694 Q333.318,953.1569 334.2555,953.6256 L333.4273,955.4069 Q332.6461,955.0319 331.9898,954.8444 Q331.3336,954.6413 330.5367,954.6413 Z " fill="#000000"/><text fill="#000000" font-family="sans-serif" font-size="14" lengthAdjust="spacing" textLength="61.5298" x="345.7845" y="964.542">UserSpec</text><line style="stroke:#181818;stroke-width:0.5;" x1="310.32" x2="415.4216" y1="975.11" y2="975.11"/><text fill="#000000" font-family="sans-serif" font-size="14" lengthAdjust="spacing" textLength="82.0117" x="315.32" y="994.0759">admin : bool</text><text fill="#000000" font-family="sans-serif" font-size="14" lengthAdjust="spacing" textLength="92.3157" x="315.32" y="1013.1439">password : str</text><text fill="#000000" font-family="sans-serif" font-size="14" lengthAdjust="spacing" textLength="66.9758" x="315.32" y="1032.2118">scope : str</text><text fill="#000000" font-family="sans-serif" font-size="14" lengthAdjust="spacing" textLength="95.1016" x="315.32" y="1051.2797">username : str</text><line style="stroke:#181818;stroke-width:0.5;" x1="310.32" x2="415.4216" y1="1059.3817" y2="1059.3817"/></g><!--link check_wireguard_endpoint.MonitorConfig to check_wireguard_endpoint.EmailConfig--><g class="link" data-entity-1="ent0010" data-entity-2="ent0005" data-link-type="dependency" data-source-line="137" id="lnk23"><path codeLine="137" d="M1161.48,236.57 C1148.4,282.08 1135.3474,327.4634 1124.2074,366.2234" fill="none" id="check_wireguard_endpoint.MonitorConfig-to-check_wireguard_endpoint.EmailConfig" style="stroke:#181818;stroke-width:1;"/><polygon fill="#181818" points="1122.55,371.99,1128.8804,364.4451,1123.9311,367.1845,1121.1917,362.2353,1122.55,371.99" style="stroke:#181818;stroke-width:1;"/><text fill="#000000" font-family="sans-serif" font-size="13" lengthAdjust="spacing" textLength="33.488" x="1149.88" y="290.577">email</text></g><!--link check_wireguard_endpoint.MonitorConfig to check_wireguard_endpoint.SignalConfig--><g class="link" data-entity-1="ent0010" data-entity-2="ent0021" data-link-type="dependency" data-source-line="138" id="lnk24"><path codeLine="138" d="M1224.27,236.57 C1236.32,278.47 1248.0821,319.3936 1258.8321,356.7836" fill="none" id="check_wireguard_endpoint.MonitorConfig-to-check_wireguard_endpoint.SignalConfig" style="stroke:#181818;stroke-width:1;"/><polygon fill="#181818" points="1260.49,362.55,1261.8474,352.7951,1259.1084,357.7447,1254.1589,355.0057,1260.49,362.55" style="stroke:#181818;stroke-width:1;"/><text fill="#000000" font-family="sans-serif" font-size="13" lengthAdjust="spacing" textLength="36.257" x="1240.51" y="290.577">signal</text></g><?plantuml-src jLTDZ-Gq4BtFhuZs11BR28wZrKW83OZ3iYDQS44hot6g4siSErksfwS5_7VASUBOIJVTY-0qqrNFzV5SLQvOS9NcFTY12zZ3m94xWvKs6kw4ujPMRxuRXlq0uat5RMN1-O4Tf88QpT42CYu4MBkRGDKVTrM5nhZglh8Ex_vAHhphRh0oeKOpdMo0ATDApMhldD5aipP6aQe7rvbcyb5L0vhN4-k0Du1HMFrP_HnIc7MUd8GqIssAxfqmok0zGlFmlT47sJuY6dptzIX-o6AkfMwOxJZ2BWDIkCdKOy-bYhhndEX0FBEZH6WznuQ1RWOZjTjbm35TCVxB1kuwYlA9_f0GDAyLD4lcbiuJNrQW7Do2SuRnfa7YS4tyu-JlDwuyN8aeXyOhCDOjB1iCFmYmi8jZE5zyMRrzADt-O1GftXkltNdwCi3eYWl5UjD0SYSGk0FMIskbRfar7WKiH3Hmu5uvjZdN8jUEQAJG77F8Nm1jTcwfWf0IwUIOugH549v4Bn3iPgpFpcUwERRWLdSr2H4KTsGXA3p2ax7oTKGaRdvKfkPg3yvHOlOyFIKcCTIYySEwn8CY57XAgm-iiaRYp0pTMSWYM6PJTqv1Bx8LjgzpPvCayvAo-QaXegKx1OCn6NWDfS84LUI9zKvPHaqOkdrNO6FL0wvvV8RJIZ9yy-rQGgw73hc5bO82b5ojXSgtInwEjz2mhSrP4MCjb2dPzqPBce-tz7S17NCThvTKW0SkO7sBv_i_38cf4PdYDQXyw8KuGyDJxIZu_IaAeiElgjrkzp70VAsaO7AWKMgUgSWygkKCcKf8sndA99JlQLqaijLSHOge9OEN3JFP29qotyxGQrnjXkaa_-2TC3tSP6F2nkBoE4w16PEu6scbL1sUc0PeyWaRTJHdix4m6s2YuxhDqNErcEWsCAjeeioNCKLJN4IAWb803VJWKjLzmkKeyVeniNuXoacPXvbO-t0agxQJmvLkJBYHh5OsgVl7pcV5g3G1N8fyEd6Bwt76_8-kY_B_vr8fe9SVtyBZ9pm_4SgBliblKQBhWheUYORZjgBfDTqAByNy2pqFieVh-rW6d6boN6vkOn5ZF90q3NUypgPqbEQUP4zJTpqBYmUTjXfwMXsZNzGgxMbHUCsu3R6EMyHAVFQfZCzTV1-BaEn92tQ4caXyOLHTBDRaT2cp8fzyKHgfAzUnSpDn7t3RYNYvEPS3-K3yJ8j5p_rRYnUhuxp1_JYPRcd37FaPAx0sz0RHmcj17OhDJGuIiZeukogdC7-bHAutm8oA2rZJo-mZ9EmWHuFBPuWLPiX6LF794HpVjYcyfLNwfe-6-sax-2_i5bTnFxqkVmC0?></g></svg>
