<?plantuml 1.2026.2?><svg xmlns="http://www.w3.org/2000/svg" xmlns:xlink="http://www.w3.org/1999/xlink" contentStyleType="text/css" data-diagram-type="CLASS" height="773px" preserveAspectRatio="none" style="width:541px;height:773px;background:#FFFFFF;" version="1.1" viewBox="0 0 541 773" width="541px" zoomAndPan="magnify"><defs/><g><!--class setup_filebrowser_access.AppSpec--><g class="entity" data-qualified-name="setup_filebrowser_access.AppSpec" data-source-line="2" id="ent0002"><rect fill="#F1F1F1" height="67.0679" rx="2.5" ry="2.5" style="stroke:#181818;stroke-width:0.5;" width="89.0778" x="40.34" y="92.81"/><ellipse cx="55.34" cy="108.81" fill="#ADD1B2" rx="11" ry="11" style="stroke:#181818;stroke-width:1;"/><path d="M55.4494,104.3412 Q54.5275,104.3412 53.7931,104.6537 Q53.0744,104.9662 52.5744,105.56 Q52.0744,106.1381 51.7931,107.0131 Q51.5275,107.8881 51.5275,108.9819 Q51.5275,110.4194 51.965,111.4662 Q52.4181,112.5131 53.2619,113.06 Q54.1213,113.6069 55.4338,113.6069 Q56.215,113.6069 56.9025,113.4819 Q57.6056,113.3412 58.6056,113.0287 L58.6056,114.9037 Q57.7463,115.2319 56.9806,115.3569 Q56.2306,115.4819 55.215,115.4819 Q53.2931,115.4819 51.9806,114.685 Q50.6838,113.8725 50.0275,112.4037 Q49.3713,110.9194 49.3713,108.9506 Q49.3713,107.5287 49.7619,106.3569 Q50.1681,105.1694 50.9494,104.2944 Q51.7306,103.4194 52.8713,102.9506 Q54.0119,102.4662 55.4806,102.4662 Q56.4338,102.4662 57.3244,102.6694 Q58.2306,102.8569 59.1681,103.3256 L58.34,105.1069 Q57.5588,104.7319 56.9025,104.5444 Q56.2463,104.3412 55.4494,104.3412 Z " fill="#000000"/><text fill="#000000" font-family="sans-serif" font-size="14" lengthAdjust="spacing" textLength="57.0778" x="69.34" y="114.242">AppSpec</text><line style="stroke:#181818;stroke-width:0.5;" x1="41.34" x2="128.4178" y1="124.81" y2="124.81"/><text fill="#000000" font-family="sans-serif" font-size="14" lengthAdjust="spacing" textLength="56.3498" x="46.34" y="143.7759">root : str</text><line style="stroke:#181818;stroke-width:0.5;" x1="41.34" x2="128.4178" y1="151.8779" y2="151.8779"/></g><!--class setup_bind_share.ConfigError--><g class="entity" data-qualified-name="setup_bind_share.ConfigError" data-source-line="5" id="ent0003"><rect fill="#F1F1F1" height="48" rx="2.5" ry="2.5" style="stroke:#181818;stroke-width:0.5;" width="108.6077" x="164.57" y="102.34"/><ellipse cx="179.57" cy="118.34" fill="#ADD1B2" rx="11" ry="11" style="stroke:#181818;stroke-width:1;"/><path d="M179.6794,113.8713 Q178.7575,113.8713 178.0231,114.1838 Q177.3044,114.4963 176.8044,115.09 Q176.3044,115.6681 176.0231,116.5431 Q175.7575,117.4181 175.7575,118.5119 Q175.7575,119.9494 176.195,120.9963 Q176.6481,122.0431 177.4919,122.59 Q178.3513,123.1369 179.6638,123.1369 Q180.445,123.1369 181.1325,123.0119 Q181.8356,122.8713 182.8356,122.5588 L182.8356,124.4338 Q181.9763,124.7619 181.2106,124.8869 Q180.4606,125.0119 179.445,125.0119 Q177.5231,125.0119 176.2106,124.215 Q174.9138,123.4025 174.2575,121.9338 Q173.6013,120.4494 173.6013,118.4806 Q173.6013,117.0588 173.9919,115.8869 Q174.3981,114.6994 175.1794,113.8244 Q175.9606,112.9494 177.1013,112.4806 Q178.2419,111.9963 179.7106,111.9963 Q180.6638,111.9963 181.5544,112.1994 Q182.4606,112.3869 183.3981,112.8556 L182.57,114.6369 Q181.7888,114.2619 181.1325,114.0744 Q180.4763,113.8713 179.6794,113.8713 Z " fill="#000000"/><text fill="#FF0000" font-family="sans-serif" font-size="14" lengthAdjust="spacing" textLength="76.6077" x="193.57" y="123.772">ConfigError</text><line style="stroke:#181818;stroke-width:0.5;" x1="165.57" x2="272.1777" y1="134.34" y2="134.34"/><line style="stroke:#181818;stroke-width:0.5;" x1="165.57" x2="272.1777" y1="142.34" y2="142.34"/></g><!--class setup_bind_share.FolderMount--><g class="entity" data-qualified-name="setup_bind_share.FolderMount" data-source-line="7" id="ent0004"><rect fill="#F1F1F1" height="238.6792" rx="2.5" ry="2.5" style="stroke:#181818;stroke-width:0.5;" width="213.8092" x="307.97" y="7"/><ellipse cx="368.0438" cy="23" fill="#ADD1B2" rx="11" ry="11" style="stroke:#181818;stroke-width:1;"/><path d="M368.1532,18.5313 Q367.2313,18.5313 366.4969,18.8438 Q365.7782,19.1563 365.2782,19.75 Q364.7782,20.3281 364.4969,21.2031 Q364.2313,22.0781 364.2313,23.1719 Q364.2313,24.6094 364.6688,25.6563 Q365.1219,26.7031 365.9657,27.25 Q366.825,27.7969 368.1375,27.7969 Q368.9188,27.7969 369.6063,27.6719 Q370.3094,27.5313 371.3094,27.2188 L371.3094,29.0938 Q370.45,29.4219 369.6844,29.5469 Q368.9344,29.6719 367.9188,29.6719 Q365.9969,29.6719 364.6844,28.875 Q363.3875,28.0625 362.7313,26.5938 Q362.075,25.1094 362.075,23.1406 Q362.075,21.7188 362.4657,20.5469 Q362.8719,19.3594 363.6532,18.4844 Q364.4344,17.6094 365.575,17.1406 Q366.7157,16.6563 368.1844,16.6563 Q369.1375,16.6563 370.0282,16.8594 Q370.9344,17.0469 371.8719,17.5156 L371.0438,19.2969 Q370.2625,18.9219 369.6063,18.7344 Q368.95,18.5313 368.1532,18.5313 Z " fill="#000000"/><text fill="#000000" font-family="sans-serif" font-size="14" lengthAdjust="spacing" textLength="85.1617" x="388.5438" y="28.432">FolderMount</text><line style="stroke:#181818;stroke-width:0.5;" x1="308.97" x2="520.7792" y1="39" y2="39"/><text fill="#000000" font-family="sans-serif" font-size="14" lengthAdjust="spacing" textLength="91.0417" x="313.97" y="57.9659">acl_mode : str</text><text fill="#000000" font-family="sans-serif" font-size="14" lengthAdjust="spacing" textLength="189.0413" x="313.97" y="77.0339">create_missing_source : bool</text><text fill="#000000" font-family="sans-serif" font-size="14" lengthAdjust="spacing" textLength="143.7514" x="313.97" y="96.1018">default_acl_mode : str</text><text fill="#000000" font-family="sans-serif" font-size="14" lengthAdjust="spacing" textLength="186.5073" x="313.97" y="115.1697">grant_parent_traverse : bool</text><text fill="#000000" font-family="sans-serif" font-size="14" lengthAdjust="spacing" textLength="66.0658" x="313.97" y="134.2376">name : str</text><text fill="#000000" font-family="sans-serif" font-size="14" lengthAdjust="spacing" textLength="84.5597" x="313.97" y="153.3055">persist : bool</text><text fill="#000000" font-family="sans-serif" font-size="14" lengthAdjust="spacing" textLength="124.7535" x="313.97" y="172.3734">recursive_acl : bool</text><text fill="#000000" font-family="sans-serif" font-size="14" lengthAdjust="spacing" textLength="85.2877" x="313.97" y="191.4414">source : Path</text><text fill="#000000" font-family="sans-serif" font-size="14" lengthAdjust="spacing" textLength="117.6976" x="313.97" y="210.5093">target_path : Path</text><text fill="#000000" font-family="sans-serif" font-size="14" lengthAdjust="spacing" textLength="201.8092" x="313.97" y="229.5772">target_relative : PurePosixPath</text><line style="stroke:#181818;stroke-width:0.5;" x1="308.97" x2="520.7792" y1="237.6792" y2="237.6792"/></g><!--class setup_bind_share.GlobalSettings--><g class="entity" data-qualified-name="setup_bind_share.GlobalSettings" data-source-line="19" id="ent0005"><rect fill="#F1F1F1" height="181.4754" rx="2.5" ry="2.5" style="stroke:#181818;stroke-width:0.5;" width="155.7514" x="7" y="353.35"/><ellipse cx="34.6593" cy="369.35" fill="#ADD1B2" rx="11" ry="11" style="stroke:#181818;stroke-width:1;"/><path d="M34.7687,364.8812 Q33.8468,364.8812 33.1124,365.1937 Q32.3937,365.5062 31.8937,366.1 Q31.3937,366.6781 31.1124,367.5531 Q30.8468,368.4281 30.8468,369.5219 Q30.8468,370.9594 31.2843,372.0062 Q31.7374,373.0531 32.5812,373.6 Q33.4406,374.1469 34.7531,374.1469 Q35.5343,374.1469 36.2218,374.0219 Q36.9249,373.8812 37.9249,373.5687 L37.9249,375.4437 Q37.0656,375.7719 36.2999,375.8969 Q35.5499,376.0219 34.5343,376.0219 Q32.6124,376.0219 31.2999,375.225 Q30.0031,374.4125 29.3468,372.9437 Q28.6906,371.4594 28.6906,369.4906 Q28.6906,368.0687 29.0812,366.8969 Q29.4874,365.7094 30.2687,364.8344 Q31.0499,363.9594 32.1906,363.4906 Q33.3312,363.0062 34.7999,363.0062 Q35.7531,363.0062 36.6437,363.2094 Q37.5499,363.3969 38.4874,363.8656 L37.6593,365.6469 Q36.8781,365.2719 36.2218,365.0844 Q35.5656,364.8812 34.7687,364.8812 Z " fill="#000000"/><text fill="#000000" font-family="sans-serif" font-size="14" lengthAdjust="spacing" textLength="95.6196" x="51.4725" y="374.782">GlobalSettings</text><line style="stroke:#181818;stroke-width:0.5;" x1="8" x2="161.7514" y1="385.35" y2="385.35"/><text fill="#000000" font-family="sans-serif" font-size="14" lengthAdjust="spacing" textLength="143.7514" x="13" y="404.3159">acl_group : str | None</text><text fill="#000000" font-family="sans-serif" font-size="14" lengthAdjust="spacing" textLength="82.0117" x="13" y="423.3839">acl_user : str</text><text fill="#000000" font-family="sans-serif" font-size="14" lengthAdjust="spacing" textLength="140.7695" x="13" y="442.4518">mount_dir_mode : int</text><text fill="#000000" font-family="sans-serif" font-size="14" lengthAdjust="spacing" textLength="111.9436" x="13" y="461.5197">share_root : Path</text><text fill="#000000" font-family="sans-serif" font-size="14" lengthAdjust="spacing" textLength="143.5135" x="13" y="480.5876">share_root_mode : int</text><text fill="#000000" font-family="sans-serif" font-size="14" lengthAdjust="spacing" textLength="103.3196" x="13" y="499.6555">smb_group : str</text><text fill="#000000" font-family="sans-serif" font-size="14" lengthAdjust="spacing" textLength="92.2317" x="13" y="518.7234">smb_user : str</text><line style="stroke:#181818;stroke-width:0.5;" x1="8" x2="161.7514" y1="526.8254" y2="526.8254"/></g><!--class setup_filebrowser_access.RuntimeSpec--><g class="entity" data-qualified-name="setup_filebrowser_access.RuntimeSpec" data-source-line="28" id="ent0006"><rect fill="#F1F1F1" height="276.815" rx="2.5" ry="2.5" style="stroke:#181818;stroke-width:0.5;" width="199.1512" x="197.3" y="305.68"/><ellipse cx="249.3378" cy="321.68" fill="#ADD1B2" rx="11" ry="11" style="stroke:#181818;stroke-width:1;"/><path d="M249.4472,317.2113 Q248.5253,317.2113 247.7909,317.5238 Q247.0722,317.8363 246.5722,318.43 Q246.0722,319.0081 245.7909,319.8831 Q245.5253,320.7581 245.5253,321.8519 Q245.5253,323.2894 245.9628,324.3363 Q246.4159,325.3831 247.2597,325.93 Q248.119,326.4769 249.4315,326.4769 Q250.2128,326.4769 250.9003,326.3519 Q251.6034,326.2113 252.6034,325.8988 L252.6034,327.7738 Q251.744,328.1019 250.9784,328.2269 Q250.2284,328.3519 249.2128,328.3519 Q247.2909,328.3519 245.9784,327.555 Q244.6815,326.7425 244.0253,325.2738 Q243.369,323.7894 243.369,321.8206 Q243.369,320.3988 243.7597,319.2269 Q244.1659,318.0394 244.9472,317.1644 Q245.7284,316.2894 246.869,315.8206 Q248.0097,315.3363 249.4784,315.3363 Q250.4315,315.3363 251.3222,315.5394 Q252.2284,315.7269 253.1659,316.1956 L252.3378,317.9769 Q251.5565,317.6019 250.9003,317.4144 Q250.244,317.2113 249.4472,317.2113 Z " fill="#000000"/><text fill="#000000" font-family="sans-serif" font-size="14" lengthAdjust="spacing" textLength="86.5757" x="269.8378" y="327.112">RuntimeSpec</text><line style="stroke:#181818;stroke-width:0.5;" x1="198.3" x2="395.4512" y1="337.68" y2="337.68"/><text fill="#000000" font-family="sans-serif" font-size="14" lengthAdjust="spacing" textLength="134.9735" x="203.3" y="356.6459">container_name : str</text><text fill="#000000" font-family="sans-serif" font-size="14" lengthAdjust="spacing" textLength="150.2194" x="203.3" y="375.7139">container_runtime : str</text><text fill="#000000" font-family="sans-serif" font-size="14" lengthAdjust="spacing" textLength="125.3976" x="203.3" y="394.7818">database_path : str</text><text fill="#000000" font-family="sans-serif" font-size="14" lengthAdjust="spacing" textLength="150.0374" x="203.3" y="413.8497">filebrowser_image : str</text><text fill="#000000" font-family="sans-serif" font-size="14" lengthAdjust="spacing" textLength="66.6398" x="203.3" y="432.9176">mode : str</text><text fill="#000000" font-family="sans-serif" font-size="14" lengthAdjust="spacing" textLength="133.0135" x="203.3" y="451.9855">restart_strategy : str</text><text fill="#000000" font-family="sans-serif" font-size="14" lengthAdjust="spacing" textLength="130.7735" x="203.3" y="471.0534">run_as_account : str</text><text fill="#000000" font-family="sans-serif" font-size="14" lengthAdjust="spacing" textLength="169.4274" x="203.3" y="490.1214">run_as_group : str | None</text><text fill="#000000" font-family="sans-serif" font-size="14" lengthAdjust="spacing" textLength="151.9834" x="203.3" y="509.1893">share_mount_path : str</text><text fill="#000000" font-family="sans-serif" font-size="14" lengthAdjust="spacing" textLength="187.1512" x="203.3" y="528.2572">sync_web_env_uid_gid : bool</text><text fill="#000000" font-family="sans-serif" font-size="14" lengthAdjust="spacing" textLength="124.5995" x="203.3" y="547.3251">web_env_file : Path</text><text fill="#000000" font-family="sans-serif" font-size="14" lengthAdjust="spacing" textLength="154.4054" x="203.3" y="566.393">web_setup_script : Path</text><line style="stroke:#181818;stroke-width:0.5;" x1="198.3" x2="395.4512" y1="574.495" y2="574.495"/></g><!--class setup_filebrowser_access.SetupError--><g class="entity" data-qualified-name="setup_filebrowser_access.SetupError" data-source-line="42" id="ent0007"><rect fill="#F1F1F1" height="48" rx="2.5" ry="2.5" style="stroke:#181818;stroke-width:0.5;" width="103.4977" x="431.13" y="420.09"/><ellipse cx="446.13" cy="436.09" fill="#ADD1B2" rx="11" ry="11" style="stroke:#181818;stroke-width:1;"/><path d="M446.2394,431.6213 Q445.3175,431.6213 444.5831,431.9338 Q443.8644,432.2463 443.3644,432.84 Q442.8644,433.4181 442.5831,434.2931 Q442.3175,435.1681 442.3175,436.2619 Q442.3175,437.6994 442.755,438.7463 Q443.2081,439.7931 444.0519,440.34 Q444.9113,440.8869 446.2238,440.8869 Q447.005,440.8869 447.6925,440.7619 Q448.3956,440.6213 449.3956,440.3088 L449.3956,442.1838 Q448.5363,442.5119 447.7706,442.6369 Q447.0206,442.7619 446.005,442.7619 Q444.0831,442.7619 442.7706,441.965 Q441.4738,441.1525 440.8175,439.6838 Q440.1613,438.1994 440.1613,436.2306 Q440.1613,434.8088 440.5519,433.6369 Q440.9581,432.4494 441.7394,431.5744 Q442.5206,430.6994 443.6613,430.2306 Q444.8019,429.7463 446.2706,429.7463 Q447.2238,429.7463 448.1144,429.9494 Q449.0206,430.1369 449.9581,430.6056 L449.13,432.3869 Q448.3488,432.0119 447.6925,431.8244 Q447.0363,431.6213 446.2394,431.6213 Z " fill="#000000"/><text fill="#FF0000" font-family="sans-serif" font-size="14" lengthAdjust="spacing" textLength="71.4977" x="460.13" y="441.522">SetupError</text><line style="stroke:#181818;stroke-width:0.5;" x1="432.13" x2="533.6277" y1="452.09" y2="452.09"/><line style="stroke:#181818;stroke-width:0.5;" x1="432.13" x2="533.6277" y1="460.09" y2="460.09"/></g><!--class setup_filebrowser_access.UserSpec--><g class="entity" data-qualified-name="setup_filebrowser_access.UserSpec" data-source-line="44" id="ent0008"><rect fill="#F1F1F1" height="124.2717" rx="2.5" ry="2.5" style="stroke:#181818;stroke-width:0.5;" width="107.1016" x="31.32" y="642.5"/><ellipse cx="52.4273" cy="658.5" fill="#ADD1B2" rx="11" ry="11" style="stroke:#181818;stroke-width:1;"/><path d="M52.5367,654.0313 Q51.6148,654.0313 50.8805,654.3438 Q50.1617,654.6563 49.6617,655.25 Q49.1617,655.8281 48.8805,656.7031 Q48.6148,657.5781 48.6148,658.6719 Q48.6148,660.1094 49.0523,661.1563 Q49.5055,662.2031 50.3492,662.75 Q51.2086,663.2969 52.5211,663.2969 Q53.3023,663.2969 53.9898,663.1719 Q54.693,663.0313 55.693,662.7188 L55.693,664.5938 Q54.8336,664.9219 54.068,665.0469 Q53.318,665.1719 52.3023,665.1719 Q50.3805,665.1719 49.068,664.375 Q47.7711,663.5625 47.1148,662.0938 Q46.4586,660.6094 46.4586,658.6406 Q46.4586,657.2188 46.8492,656.0469 Q47.2555,654.8594 48.0367,653.9844 Q48.818,653.1094 49.9586,652.6406 Q51.0992,652.1563 52.568,652.1563 Q53.5211,652.1563 54.4117,652.3594 Q55.318,652.5469 56.2555,653.0156 L55.4273,654.7969 Q54.6461,654.4219 53.9898,654.2344 Q53.3336,654.0313 52.5367,654.0313 Z " fill="#000000"/><text fill="#000000" font-family="sans-serif" font-size="14" lengthAdjust="spacing" textLength="61.5298" x="67.7845" y="663.932">UserSpec</text><line style="stroke:#181818;stroke-width:0.5;" x1="32.32" x2="137.4216" y1="674.5" y2="674.5"/><text fill="#000000" font-family="sans-serif" font-size="14" lengthAdjust="spacing" textLength="82.0117" x="37.32" y="693.4659">admin : bool</text><text fill="#000000" font-family="sans-serif" font-size="14" lengthAdjust="spacing" textLength="92.3157" x="37.32" y="712.5339">password : str</text><text fill="#000000" font-family="sans-serif" font-size="14" lengthAdjust="spacing" textLength="66.9758" x="37.32" y="731.6018">scope : str</text><text fill="#000000" font-family="sans-serif" font-size="14" lengthAdjust="spacing" textLength="95.1016" x="37.32" y="750.6697">username : str</text><line style="stroke:#181818;stroke-width:0.5;" x1="32.32" x2="137.4216" y1="758.7717" y2="758.7717"/></g><?plantuml-src XLDDRzim3BtdLmZz0TszA0eCmxRJXgB1pW8jCOu0MnH8EcdHzRzFYXDBQJtqPFYznwz7Ib1DX14bWSCj9c1GOXCfuiOD869klgQqJUXk38WHr2dPNHYmOpeAiWNdKEJsB3Al6sEOICsT4UNDsoN9lQE1-8xHFtoZk0lzTsRY-oyd-A79tONehUo1yROHvhnBgXyqUEHVD4LTZsi4ftx03NOaZ-UUZ76Ce6Z7819YRuKcTeNjY8PCUzp1DAZz4DSpHBNP8ymVPJWWInDNV5oqAND1jBACRihG0KlU2Y_57q7t-L-1Uon5TFy1P1n0SuP2J8oF9E7vf5Yy-JbG1yCMLVDWicxFjMPng6UQqjo--Mj-bmEOYIclUHbhBAvQ7_ZYJ8XQfYYPxNdnvwOhzauxTcsnCz9KMQPvohN2Y9zVNoCypUCeAeIO1LSxgJ3F0GlZGQ43mOllCzfM2YFqsDZGd0MZv0MfpN_vhFgNIapHWfGcJxVu3burV3PjTlcg5tc9pXwninWFTWhUzi7NAxeGfUEwWOBEdedZa9RThBtART7zxr6kM5xrxTlyanMVh-kYcc_FZo7MILBESoJsTN17gNfTpgJPwTi_?></g></svg>