<?plantuml 1.2026.2?><svg xmlns="http://www.w3.org/2000/svg" xmlns:xlink="http://www.w3.org/1999/xlink" contentStyleType="text/css" data-diagram-type="CLASS" height="494px" preserveAspectRatio="none" style="width:394px;height:494px;background:#FFFFFF;" version="1.1" viewBox="0 0 394 494" width="394px" zoomAndPan="magnify"><defs/><g><!--class setup_bind_share.ConfigError--><g class="entity" data-qualified-name="setup_bind_share.ConfigError" data-source-line="2" id="ent0002"><rect fill="#F1F1F1" height="48" rx="2.5" ry="2.5" style="stroke:#181818;stroke-width:0.5;" width="108.6077" x="30.57" y="102.33"/><ellipse cx="45.57" cy="118.33" fill="#ADD1B2" rx="11" ry="11" style="stroke:#181818;stroke-width:1;"/><path d="M45.6794,113.8612 Q44.7575,113.8612 44.0231,114.1737 Q43.3044,114.4862 42.8044,115.08 Q42.3044,115.6581 42.0231,116.5331 Q41.7575,117.4081 41.7575,118.5019 Q41.7575,119.9394 42.195,120.9862 Q42.6481,122.0331 43.4919,122.58 Q44.3513,123.1269 45.6638,123.1269 Q46.445,123.1269 47.1325,123.0019 Q47.8356,122.8612 48.8356,122.5487 L48.8356,124.4237 Q47.9763,124.7519 47.2106,124.8769 Q46.4606,125.0019 45.445,125.0019 Q43.5231,125.0019 42.2106,124.205 Q40.9138,123.3925 40.2575,121.9237 Q39.6013,120.4394 39.6013,118.4706 Q39.6013,117.0487 39.9919,115.8769 Q40.3981,114.6894 41.1794,113.8144 Q41.9606,112.9394 43.1013,112.4706 Q44.2419,111.9862 45.7106,111.9862 Q46.6638,111.9862 47.5544,112.1894 Q48.4606,112.3769 49.3981,112.8456 L48.57,114.6269 Q47.7888,114.2519 47.1325,114.0644 Q46.4763,113.8612 45.6794,113.8612 Z " fill="#000000"/><text fill="#FF0000" font-family="sans-serif" font-size="14" lengthAdjust="spacing" textLength="76.6077" x="59.57" y="123.762">ConfigError</text><line style="stroke:#181818;stroke-width:0.5;" x1="31.57" x2="138.1777" y1="134.33" y2="134.33"/><line style="stroke:#181818;stroke-width:0.5;" x1="31.57" x2="138.1777" y1="142.33" y2="142.33"/></g><!--class setup_bind_share.FolderMount--><g class="entity" data-qualified-name="setup_bind_share.FolderMount" data-source-line="4" id="ent0003"><rect fill="#F1F1F1" height="238.6792" rx="2.5" ry="2.5" style="stroke:#181818;stroke-width:0.5;" width="213.8092" x="173.97" y="7"/><ellipse cx="234.0438" cy="23" fill="#ADD1B2" rx="11" ry="11" style="stroke:#181818;stroke-width:1;"/><path d="M234.1532,18.5313 Q233.2313,18.5313 232.4969,18.8438 Q231.7782,19.1563 231.2782,19.75 Q230.7782,20.3281 230.4969,21.2031 Q230.2313,22.0781 230.2313,23.1719 Q230.2313,24.6094 230.6688,25.6563 Q231.1219,26.7031 231.9657,27.25 Q232.825,27.7969 234.1375,27.7969 Q234.9188,27.7969 235.6063,27.6719 Q236.3094,27.5313 237.3094,27.2188 L237.3094,29.0938 Q236.45,29.4219 235.6844,29.5469 Q234.9344,29.6719 233.9188,29.6719 Q231.9969,29.6719 230.6844,28.875 Q229.3875,28.0625 228.7313,26.5938 Q228.075,25.1094 228.075,23.1406 Q228.075,21.7188 228.4657,20.5469 Q228.8719,19.3594 229.6532,18.4844 Q230.4344,17.6094 231.575,17.1406 Q232.7157,16.6563 234.1844,16.6563 Q235.1375,16.6563 236.0282,16.8594 Q236.9344,17.0469 237.8719,17.5156 L237.0438,19.2969 Q236.2625,18.9219 235.6063,18.7344 Q234.95,18.5313 234.1532,18.5313 Z " fill="#000000"/><text fill="#000000" font-family="sans-serif" font-size="14" lengthAdjust="spacing" textLength="85.1617" x="254.5438" y="28.432">FolderMount</text><line style="stroke:#181818;stroke-width:0.5;" x1="174.97" x2="386.7792" y1="39" y2="39"/><text fill="#000000" font-family="sans-serif" font-size="14" lengthAdjust="spacing" textLength="91.0417" x="179.97" y="57.9659">acl_mode : str</text><text fill="#000000" font-family="sans-serif" font-size="14" lengthAdjust="spacing" textLength="189.0413" x="179.97" y="77.0339">create_missing_source : bool</text><text fill="#000000" font-family="sans-serif" font-size="14" lengthAdjust="spacing" textLength="143.7514" x="179.97" y="96.1018">default_acl_mode : str</text><text fill="#000000" font-family="sans-serif" font-size="14" lengthAdjust="spacing" textLength="186.5073" x="179.97" y="115.1697">grant_parent_traverse : bool</text><text fill="#000000" font-family="sans-serif" font-size="14" lengthAdjust="spacing" textLength="66.0658" x="179.97" y="134.2376">name : str</text><text fill="#000000" font-family="sans-serif" font-size="14" lengthAdjust="spacing" textLength="84.5597" x="179.97" y="153.3055">persist : bool</text><text fill="#000000" font-family="sans-serif" font-size="14" lengthAdjust="spacing" textLength="124.7535" x="179.97" y="172.3734">recursive_acl : bool</text><text fill="#000000" font-family="sans-serif" font-size="14" lengthAdjust="spacing" textLength="85.2877" x="179.97" y="191.4414">source : Path</text><text fill="#000000" font-family="sans-serif" font-size="14" lengthAdjust="spacing" textLength="117.6976" x="179.97" y="210.5093">target_path : Path</text><text fill="#000000" font-family="sans-serif" font-size="14" lengthAdjust="spacing" textLength="201.8092" x="179.97" y="229.5772">target_relative : PurePosixPath</text><line style="stroke:#181818;stroke-width:0.5;" x1="174.97" x2="386.7792" y1="237.6792" y2="237.6792"/></g><!--class setup_bind_share.GlobalSettings--><g class="entity" data-qualified-name="setup_bind_share.GlobalSettings" data-source-line="16" id="ent0004"><rect fill="#F1F1F1" height="181.4754" rx="2.5" ry="2.5" style="stroke:#181818;stroke-width:0.5;" width="155.7514" x="7" y="305.67"/><ellipse cx="34.6593" cy="321.67" fill="#ADD1B2" rx="11" ry="11" style="stroke:#181818;stroke-width:1;"/><path d="M34.7687,317.2012 Q33.8468,317.2012 33.1124,317.5137 Q32.3937,317.8262 31.8937,318.42 Q31.3937,318.9981 31.1124,319.8731 Q30.8468,320.7481 30.8468,321.8419 Q30.8468,323.2794 31.2843,324.3262 Q31.7374,325.3731 32.5812,325.92 Q33.4406,326.4669 34.7531,326.4669 Q35.5343,326.4669 36.2218,326.3419 Q36.9249,326.2012 37.9249,325.8887 L37.9249,327.7637 Q37.0656,328.0919 36.2999,328.2169 Q35.5499,328.3419 34.5343,328.3419 Q32.6124,328.3419 31.2999,327.545 Q30.0031,326.7325 29.3468,325.2637 Q28.6906,323.7794 28.6906,321.8106 Q28.6906,320.3887 29.0812,319.2169 Q29.4874,318.0294 30.2687,317.1544 Q31.0499,316.2794 32.1906,315.8106 Q33.3312,315.3262 34.7999,315.3262 Q35.7531,315.3262 36.6437,315.5294 Q37.5499,315.7169 38.4874,316.1856 L37.6593,317.9669 Q36.8781,317.5919 36.2218,317.4044 Q35.5656,317.2012 34.7687,317.2012 Z " fill="#000000"/><text fill="#000000" font-family="sans-serif" font-size="14" lengthAdjust="spacing" textLength="95.6196" x="51.4725" y="327.102">GlobalSettings</text><line style="stroke:#181818;stroke-width:0.5;" x1="8" x2="161.7514" y1="337.67" y2="337.67"/><text fill="#000000" font-family="sans-serif" font-size="14" lengthAdjust="spacing" textLength="143.7514" x="13" y="356.6359">acl_group : str | None</text><text fill="#000000" font-family="sans-serif" font-size="14" lengthAdjust="spacing" textLength="82.0117" x="13" y="375.7039">acl_user : str</text><text fill="#000000" font-family="sans-serif" font-size="14" lengthAdjust="spacing" textLength="140.7695" x="13" y="394.7718">mount_dir_mode : int</text><text fill="#000000" font-family="sans-serif" font-size="14" lengthAdjust="spacing" textLength="111.9436" x="13" y="413.8397">share_root : Path</text><text fill="#000000" font-family="sans-serif" font-size="14" lengthAdjust="spacing" textLength="143.5135" x="13" y="432.9076">share_root_mode : int</text><text fill="#000000" font-family="sans-serif" font-size="14" lengthAdjust="spacing" textLength="103.3196" x="13" y="451.9755">smb_group : str</text><text fill="#000000" font-family="sans-serif" font-size="14" lengthAdjust="spacing" textLength="92.2317" x="13" y="471.0434">smb_user : str</text><line style="stroke:#181818;stroke-width:0.5;" x1="8" x2="161.7514" y1="479.1454" y2="479.1454"/></g><?plantuml-src RL51RW8n3Bpp2ei7j7U4k5HjJwsGU43apPebKZPUsGv2Qlbx4oYxsy8foipOavae6IJiIGVqjAC11Oq54YTQ-8Ygi5nxZYmheNRpmcaVkbSHblNp1Tui0HMKB0-k2QbrUa2XfvaGlXRdswetZYt91-TaZ-TcWZ87W3wwdbk25QX90RmG6ha-g8RKEUKilh8DSonqItlCqTpTN2UOp9LuL0uJF9BeRAvMC6g7mWMrYHNokK17gdidU3JVeXtAtL0wgYPsk0E58bhPK8aij6KDfujYxEOzSeDnHsObc3wkvwzcRAWJpiFr-V0Dd_NlhaHMaZ5MNrjrRP1RCo5PJL4tEs6swT4Jza_RDtEpNsJcSlu1?></g></svg>