<?plantuml 1.2026.2?><svg xmlns="http://www.w3.org/2000/svg" xmlns:xlink="http://www.w3.org/1999/xlink" contentStyleType="text/css" data-diagram-type="CLASS" height="1034px" preserveAspectRatio="none" style="width:786px;height:1034px;background:#FFFFFF;" version="1.1" viewBox="0 0 786 1034" width="786px" zoomAndPan="magnify"><defs/><g><!--class setup_filebrowser_access.AppSpec--><g class="entity" data-qualified-name="setup_filebrowser_access.AppSpec" data-source-line="2" id="ent0002"><rect fill="#F1F1F1" height="67.0679" rx="2.5" ry="2.5" style="stroke:#181818;stroke-width:0.5;" width="89.0778" x="62.04" y="92.81"/><ellipse cx="77.04" cy="108.81" fill="#ADD1B2" rx="11" ry="11" style="stroke:#181818;stroke-width:1;"/><path d="M77.1494,104.3412 Q76.2275,104.3412 75.4931,104.6537 Q74.7744,104.9662 74.2744,105.56 Q73.7744,106.1381 73.4931,107.0131 Q73.2275,107.8881 73.2275,108.9819 Q73.2275,110.4194 73.665,111.4662 Q74.1181,112.5131 74.9619,113.06 Q75.8212,113.6069 77.1337,113.6069 Q77.915,113.6069 78.6025,113.4819 Q79.3056,113.3412 80.3056,113.0287 L80.3056,114.9037 Q79.4462,115.2319 78.6806,115.3569 Q77.9306,115.4819 76.915,115.4819 Q74.9931,115.4819 73.6806,114.685 Q72.3837,113.8725 71.7275,112.4037 Q71.0712,110.9194 71.0712,108.9506 Q71.0712,107.5287 71.4619,106.3569 Q71.8681,105.1694 72.6494,104.2944 Q73.4306,103.4194 74.5712,102.9506 Q75.7119,102.4662 77.1806,102.4662 Q78.1337,102.4662 79.0244,102.6694 Q79.9306,102.8569 80.8681,103.3256 L80.04,105.1069 Q79.2587,104.7319 78.6025,104.5444 Q77.9462,104.3412 77.1494,104.3412 Z " fill="#000000"/><text fill="#000000" font-family="sans-serif" font-size="14" lengthAdjust="spacing" textLength="57.0778" x="91.04" y="114.242">AppSpec</text><line style="stroke:#181818;stroke-width:0.5;" x1="63.04" x2="150.1178" y1="124.81" y2="124.81"/><text fill="#000000" font-family="sans-serif" font-size="14" lengthAdjust="spacing" textLength="56.3498" x="68.04" y="143.7759">root : str</text><line style="stroke:#181818;stroke-width:0.5;" x1="63.04" x2="150.1178" y1="151.8779" y2="151.8779"/></g><!--class setup_filebrowser_access.AuthSpec--><g class="entity" data-qualified-name="setup_filebrowser_access.AuthSpec" data-source-line="5" id="ent0003"><rect fill="#F1F1F1" height="124.2717" rx="2.5" ry="2.5" style="stroke:#181818;stroke-width:0.5;" width="201.3773" x="185.89" y="64.2"/><ellipse cx="251.2208" cy="80.2" fill="#ADD1B2" rx="11" ry="11" style="stroke:#181818;stroke-width:1;"/><path d="M251.3301,75.7312 Q250.4083,75.7312 249.6739,76.0437 Q248.9551,76.3562 248.4551,76.95 Q247.9551,77.5281 247.6739,78.4031 Q247.4083,79.2781 247.4083,80.3719 Q247.4083,81.8094 247.8458,82.8562 Q248.2989,83.9031 249.1426,84.45 Q250.002,84.9969 251.3145,84.9969 Q252.0958,84.9969 252.7833,84.8719 Q253.4864,84.7312 254.4864,84.4187 L254.4864,86.2937 Q253.627,86.6219 252.8614,86.7469 Q252.1114,86.8719 251.0958,86.8719 Q249.1739,86.8719 247.8614,86.075 Q246.5645,85.2625 245.9083,83.7937 Q245.252,82.3094 245.252,80.3406 Q245.252,78.9187 245.6426,77.7469 Q246.0489,76.5594 246.8301,75.6844 Q247.6114,74.8094 248.752,74.3406 Q249.8926,73.8562 251.3614,73.8562 Q252.3145,73.8562 253.2051,74.0594 Q254.1114,74.2469 255.0489,74.7156 L254.2208,76.4969 Q253.4395,76.1219 252.7833,75.9344 Q252.127,75.7312 251.3301,75.7312 Z " fill="#000000"/><text fill="#000000" font-family="sans-serif" font-size="14" lengthAdjust="spacing" textLength="62.2158" x="271.7208" y="85.632">AuthSpec</text><line style="stroke:#181818;stroke-width:0.5;" x1="186.89" x2="386.2673" y1="96.2" y2="96.2"/><text fill="#000000" font-family="sans-serif" font-size="14" lengthAdjust="spacing" textLength="158.8434" x="191.89" y="115.1659">hide_login_button : bool</text><text fill="#000000" font-family="sans-serif" font-size="14" lengthAdjust="spacing" textLength="80.3457" x="191.89" y="134.2339">method : str</text><text fill="#000000" font-family="sans-serif" font-size="14" lengthAdjust="spacing" textLength="169.5394" x="191.89" y="153.3018">proxy_header : str | None</text><text fill="#000000" font-family="sans-serif" font-size="14" lengthAdjust="spacing" textLength="189.3773" x="191.89" y="172.3697">proxy_username : str | None</text><line style="stroke:#181818;stroke-width:0.5;" x1="186.89" x2="386.2673" y1="180.4717" y2="180.4717"/></g><!--class setup_bind_share.ConfigError--><g class="entity" data-qualified-name="setup_bind_share.ConfigError" data-source-line="11" id="ent0004"><rect fill="#F1F1F1" height="48" rx="2.5" ry="2.5" style="stroke:#181818;stroke-width:0.5;" width="108.6077" x="422.27" y="102.34"/><ellipse cx="437.27" cy="118.34" fill="#ADD1B2" rx="11" ry="11" style="stroke:#181818;stroke-width:1;"/><path d="M437.3794,113.8712 Q436.4575,113.8712 435.7231,114.1837 Q435.0044,114.4962 434.5044,115.09 Q434.0044,115.6681 433.7231,116.5431 Q433.4575,117.4181 433.4575,118.5119 Q433.4575,119.9494 433.895,120.9962 Q434.3481,122.0431 435.1919,122.59 Q436.0513,123.1369 437.3638,123.1369 Q438.145,123.1369 438.8325,123.0119 Q439.5356,122.8712 440.5356,122.5587 L440.5356,124.4337 Q439.6763,124.7619 438.9106,124.8869 Q438.1606,125.0119 437.145,125.0119 Q435.2231,125.0119 433.9106,124.215 Q432.6138,123.4025 431.9575,121.9337 Q431.3013,120.4494 431.3013,118.4806 Q431.3013,117.0587 431.6919,115.8869 Q432.0981,114.6994 432.8794,113.8244 Q433.6606,112.9494 434.8013,112.4806 Q435.9419,111.9962 437.4106,111.9962 Q438.3638,111.9962 439.2544,112.1994 Q440.1606,112.3869 441.0981,112.8556 L440.27,114.6369 Q439.4888,114.2619 438.8325,114.0744 Q438.1763,113.8712 437.3794,113.8712 Z " fill="#000000"/><text fill="#FF0000" font-family="sans-serif" font-size="14" lengthAdjust="spacing" textLength="76.6077" x="451.27" y="123.772">ConfigError</text><line style="stroke:#181818;stroke-width:0.5;" x1="423.27" x2="529.8777" y1="134.34" y2="134.34"/><line style="stroke:#181818;stroke-width:0.5;" x1="423.27" x2="529.8777" y1="142.34" y2="142.34"/></g><!--class setup_bind_share.FolderMount--><g class="entity" data-qualified-name="setup_bind_share.FolderMount" data-source-line="13" id="ent0005"><rect fill="#F1F1F1" height="238.6792" rx="2.5" ry="2.5" style="stroke:#181818;stroke-width:0.5;" width="213.8092" x="565.67" y="7"/><ellipse cx="625.7438" cy="23" fill="#ADD1B2" rx="11" ry="11" style="stroke:#181818;stroke-width:1;"/><path d="M625.8532,18.5313 Q624.9313,18.5313 624.1969,18.8438 Q623.4782,19.1563 622.9782,19.75 Q622.4782,20.3281 622.1969,21.2031 Q621.9313,22.0781 621.9313,23.1719 Q621.9313,24.6094 622.3688,25.6563 Q622.8219,26.7031 623.6657,27.25 Q624.525,27.7969 625.8375,27.7969 Q626.6188,27.7969 627.3063,27.6719 Q628.0094,27.5313 629.0094,27.2188 L629.0094,29.0938 Q628.15,29.4219 627.3844,29.5469 Q626.6344,29.6719 625.6188,29.6719 Q623.6969,29.6719 622.3844,28.875 Q621.0875,28.0625 620.4313,26.5938 Q619.775,25.1094 619.775,23.1406 Q619.775,21.7188 620.1657,20.5469 Q620.5719,19.3594 621.3532,18.4844 Q622.1344,17.6094 623.275,17.1406 Q624.4157,16.6563 625.8844,16.6563 Q626.8375,16.6563 627.7282,16.8594 Q628.6344,17.0469 629.5719,17.5156 L628.7438,19.2969 Q627.9625,18.9219 627.3063,18.7344 Q626.65,18.5313 625.8532,18.5313 Z " fill="#000000"/><text fill="#000000" font-family="sans-serif" font-size="14" lengthAdjust="spacing" textLength="85.1617" x="646.2438" y="28.432">FolderMount</text><line style="stroke:#181818;stroke-width:0.5;" x1="566.67" x2="778.4792" y1="39" y2="39"/><text fill="#000000" font-family="sans-serif" font-size="14" lengthAdjust="spacing" textLength="91.0417" x="571.67" y="57.9659">acl_mode : str</text><text fill="#000000" font-family="sans-serif" font-size="14" lengthAdjust="spacing" textLength="189.0413" x="571.67" y="77.0339">create_missing_source : bool</text><text fill="#000000" font-family="sans-serif" font-size="14" lengthAdjust="spacing" textLength="143.7514" x="571.67" y="96.1018">default_acl_mode : str</text><text fill="#000000" font-family="sans-serif" font-size="14" lengthAdjust="spacing" textLength="186.5073" x="571.67" y="115.1697">grant_parent_traverse : bool</text><text fill="#000000" font-family="sans-serif" font-size="14" lengthAdjust="spacing" textLength="66.0658" x="571.67" y="134.2376">name : str</text><text fill="#000000" font-family="sans-serif" font-size="14" lengthAdjust="spacing" textLength="84.5597" x="571.67" y="153.3055">persist : bool</text><text fill="#000000" font-family="sans-serif" font-size="14" lengthAdjust="spacing" textLength="124.7535" x="571.67" y="172.3734">recursive_acl : bool</text><text fill="#000000" font-family="sans-serif" font-size="14" lengthAdjust="spacing" textLength="85.2877" x="571.67" y="191.4414">source : Path</text><text fill="#000000" font-family="sans-serif" font-size="14" lengthAdjust="spacing" textLength="117.6976" x="571.67" y="210.5093">target_path : Path</text><text fill="#000000" font-family="sans-serif" font-size="14" lengthAdjust="spacing" textLength="201.8092" x="571.67" y="229.5772">target_relative : PurePosixPath</text><line style="stroke:#181818;stroke-width:0.5;" x1="566.67" x2="778.4792" y1="237.6792" y2="237.6792"/></g><!--class setup_bind_share.GlobalSettings--><g class="entity" data-qualified-name="setup_bind_share.GlobalSettings" data-source-line="25" id="ent0006"><rect fill="#F1F1F1" height="181.4754" rx="2.5" ry="2.5" style="stroke:#181818;stroke-width:0.5;" width="155.7514" x="28.7" y="315.21"/><ellipse cx="56.3593" cy="331.21" fill="#ADD1B2" rx="11" ry="11" style="stroke:#181818;stroke-width:1;"/><path d="M56.4687,326.7412 Q55.5468,326.7412 54.8124,327.0537 Q54.0937,327.3662 53.5937,327.96 Q53.0937,328.5381 52.8124,329.4131 Q52.5468,330.2881 52.5468,331.3819 Q52.5468,332.8194 52.9843,333.8662 Q53.4374,334.9131 54.2812,335.46 Q55.1406,336.0069 56.4531,336.0069 Q57.2343,336.0069 57.9218,335.8819 Q58.6249,335.7412 59.6249,335.4287 L59.6249,337.3037 Q58.7656,337.6319 57.9999,337.7569 Q57.2499,337.8819 56.2343,337.8819 Q54.3124,337.8819 52.9999,337.085 Q51.7031,336.2725 51.0468,334.8037 Q50.3906,333.3194 50.3906,331.3506 Q50.3906,329.9287 50.7812,328.7569 Q51.1874,327.5694 51.9687,326.6944 Q52.7499,325.8194 53.8906,325.3506 Q55.0312,324.8662 56.4999,324.8662 Q57.4531,324.8662 58.3437,325.0694 Q59.2499,325.2569 60.1874,325.7256 L59.3593,327.5069 Q58.5781,327.1319 57.9218,326.9444 Q57.2656,326.7412 56.4687,326.7412 Z " fill="#000000"/><text fill="#000000" font-family="sans-serif" font-size="14" lengthAdjust="spacing" textLength="95.6196" x="73.1725" y="336.642">GlobalSettings</text><line style="stroke:#181818;stroke-width:0.5;" x1="29.7" x2="183.4514" y1="347.21" y2="347.21"/><text fill="#000000" font-family="sans-serif" font-size="14" lengthAdjust="spacing" textLength="143.7514" x="34.7" y="366.1759">acl_group : str | None</text><text fill="#000000" font-family="sans-serif" font-size="14" lengthAdjust="spacing" textLength="82.0117" x="34.7" y="385.2439">acl_user : str</text><text fill="#000000" font-family="sans-serif" font-size="14" lengthAdjust="spacing" textLength="140.7695" x="34.7" y="404.3118">mount_dir_mode : int</text><text fill="#000000" font-family="sans-serif" font-size="14" lengthAdjust="spacing" textLength="111.9436" x="34.7" y="423.3797">share_root : Path</text><text fill="#000000" font-family="sans-serif" font-size="14" lengthAdjust="spacing" textLength="143.5135" x="34.7" y="442.4476">share_root_mode : int</text><text fill="#000000" font-family="sans-serif" font-size="14" lengthAdjust="spacing" textLength="103.3196" x="34.7" y="461.5155">smb_group : str</text><text fill="#000000" font-family="sans-serif" font-size="14" lengthAdjust="spacing" textLength="92.2317" x="34.7" y="480.5834">smb_user : str</text><line style="stroke:#181818;stroke-width:0.5;" x1="29.7" x2="183.4514" y1="488.6854" y2="488.6854"/></g><!--class export_caddy_mtls_profile.IdentityPaths--><g class="entity" data-qualified-name="export_caddy_mtls_profile.IdentityPaths" data-source-line="34" id="ent0007"><rect fill="#F1F1F1" height="200.5433" rx="2.5" ry="2.5" style="stroke:#181818;stroke-width:0.5;" width="183.1914" x="218.98" y="305.68"/><ellipse cx="262.6413" cy="321.68" fill="#ADD1B2" rx="11" ry="11" style="stroke:#181818;stroke-width:1;"/><path d="M262.7506,317.2112 Q261.8288,317.2112 261.0944,317.5237 Q260.3756,317.8362 259.8756,318.43 Q259.3756,319.0081 259.0944,319.8831 Q258.8288,320.7581 258.8288,321.8519 Q258.8288,323.2894 259.2663,324.3362 Q259.7194,325.3831 260.5631,325.93 Q261.4225,326.4769 262.735,326.4769 Q263.5163,326.4769 264.2038,326.3519 Q264.9069,326.2112 265.9069,325.8987 L265.9069,327.7737 Q265.0475,328.1019 264.2819,328.2269 Q263.5319,328.3519 262.5163,328.3519 Q260.5944,328.3519 259.2819,327.555 Q257.985,326.7425 257.3288,325.2737 Q256.6725,323.7894 256.6725,321.8206 Q256.6725,320.3987 257.0631,319.2269 Q257.4694,318.0394 258.2506,317.1644 Q259.0319,316.2894 260.1725,315.8206 Q261.3131,315.3362 262.7819,315.3362 Q263.735,315.3362 264.6256,315.5394 Q265.5319,315.7269 266.4694,316.1956 L265.6413,317.9769 Q264.86,317.6019 264.2038,317.4144 Q263.5475,317.2112 262.7506,317.2112 Z " fill="#000000"/><text fill="#000000" font-family="sans-serif" font-size="14" lengthAdjust="spacing" textLength="87.4997" x="283.0104" y="327.112">IdentityPaths</text><line style="stroke:#181818;stroke-width:0.5;" x1="219.98" x2="401.1714" y1="337.68" y2="337.68"/><text fill="#000000" font-family="sans-serif" font-size="14" lengthAdjust="spacing" textLength="102.8996" x="224.98" y="356.6459">cert_path : Path</text><text fill="#000000" font-family="sans-serif" font-size="14" lengthAdjust="spacing" textLength="99.9596" x="224.98" y="375.7139">key_path : Path</text><text fill="#000000" font-family="sans-serif" font-size="14" lengthAdjust="spacing" textLength="102.0736" x="224.98" y="394.7818">p12_path : Path</text><text fill="#000000" font-family="sans-serif" font-size="14" lengthAdjust="spacing" textLength="152.8234" x="224.98" y="413.8497">passphrase_path : Path</text><text fill="#000000" font-family="sans-serif" font-size="14" lengthAdjust="spacing" textLength="112.9096" x="224.98" y="432.9176">serial_path : Path</text><text fill="#000000" font-family="sans-serif" font-size="14" lengthAdjust="spacing" textLength="56.1538" x="224.98" y="451.9855">slug : str</text><text fill="#000000" font-family="sans-serif" font-size="14" lengthAdjust="spacing" textLength="153.0194" x="224.98" y="471.0534">staged_p12_path : Path</text><text fill="#000000" font-family="sans-serif" font-size="14" lengthAdjust="spacing" textLength="171.1914" x="224.98" y="490.1214">staged_profile_path : Path</text><line style="stroke:#181818;stroke-width:0.5;" x1="219.98" x2="401.1714" y1="498.2233" y2="498.2233"/></g><!--class export_caddy_mtls_profile.Ownership--><g class="entity" data-qualified-name="export_caddy_mtls_profile.Ownership" data-source-line="44" id="ent0008"><rect fill="#F1F1F1" height="124.2717" rx="2.5" ry="2.5" style="stroke:#181818;stroke-width:0.5;" width="126.0856" x="437.53" y="343.82"/><ellipse cx="462.537" cy="359.82" fill="#ADD1B2" rx="11" ry="11" style="stroke:#181818;stroke-width:1;"/><path d="M462.6464,355.3512 Q461.7245,355.3512 460.9902,355.6637 Q460.2714,355.9762 459.7714,356.57 Q459.2714,357.1481 458.9902,358.0231 Q458.7245,358.8981 458.7245,359.9919 Q458.7245,361.4294 459.162,362.4762 Q459.6152,363.5231 460.4589,364.07 Q461.3183,364.6169 462.6308,364.6169 Q463.412,364.6169 464.0995,364.4919 Q464.8027,364.3512 465.8027,364.0387 L465.8027,365.9137 Q464.9433,366.2419 464.1777,366.3669 Q463.4277,366.4919 462.412,366.4919 Q460.4902,366.4919 459.1777,365.695 Q457.8808,364.8825 457.2245,363.4137 Q456.5683,361.9294 456.5683,359.9606 Q456.5683,358.5387 456.9589,357.3669 Q457.3652,356.1794 458.1464,355.3044 Q458.9277,354.4294 460.0683,353.9606 Q461.2089,353.4762 462.6777,353.4762 Q463.6308,353.4762 464.5214,353.6794 Q465.4277,353.8669 466.3652,354.3356 L465.537,356.1169 Q464.7558,355.7419 464.0995,355.5544 Q463.4433,355.3512 462.6464,355.3512 Z " fill="#000000"/><text fill="#000000" font-family="sans-serif" font-size="14" lengthAdjust="spacing" textLength="71.8477" x="478.7608" y="365.252">Ownership</text><line style="stroke:#181818;stroke-width:0.5;" x1="438.53" x2="562.6156" y1="375.82" y2="375.82"/><text fill="#000000" font-family="sans-serif" font-size="14" lengthAdjust="spacing" textLength="49.1818" x="443.53" y="394.7859">gid : int</text><text fill="#000000" font-family="sans-serif" font-size="14" lengthAdjust="spacing" textLength="112.4056" x="443.53" y="413.8539">group_name : str</text><text fill="#000000" font-family="sans-serif" font-size="14" lengthAdjust="spacing" textLength="114.0856" x="443.53" y="432.9218">owner_name : str</text><text fill="#000000" font-family="sans-serif" font-size="14" lengthAdjust="spacing" textLength="49.2238" x="443.53" y="451.9897">uid : int</text><line style="stroke:#181818;stroke-width:0.5;" x1="438.53" x2="562.6156" y1="460.0917" y2="460.0917"/></g><!--class export_caddy_root_profile.Ownership--><g class="entity" data-qualified-name="export_caddy_root_profile.Ownership" data-source-line="50" id="ent0009"><rect fill="#F1F1F1" height="124.2717" rx="2.5" ry="2.5" style="stroke:#181818;stroke-width:0.5;" width="126.0856" x="598.53" y="343.82"/><ellipse cx="623.537" cy="359.82" fill="#ADD1B2" rx="11" ry="11" style="stroke:#181818;stroke-width:1;"/><path d="M623.6464,355.3512 Q622.7245,355.3512 621.9902,355.6637 Q621.2714,355.9762 620.7714,356.57 Q620.2714,357.1481 619.9902,358.0231 Q619.7245,358.8981 619.7245,359.9919 Q619.7245,361.4294 620.162,362.4762 Q620.6152,363.5231 621.4589,364.07 Q622.3183,364.6169 623.6308,364.6169 Q624.412,364.6169 625.0995,364.4919 Q625.8027,364.3512 626.8027,364.0387 L626.8027,365.9137 Q625.9433,366.2419 625.1777,366.3669 Q624.4277,366.4919 623.412,366.4919 Q621.4902,366.4919 620.1777,365.695 Q618.8808,364.8825 618.2245,363.4137 Q617.5683,361.9294 617.5683,359.9606 Q617.5683,358.5387 617.9589,357.3669 Q618.3652,356.1794 619.1464,355.3044 Q619.9277,354.4294 621.0683,353.9606 Q622.2089,353.4762 623.6777,353.4762 Q624.6308,353.4762 625.5214,353.6794 Q626.4277,353.8669 627.3652,354.3356 L626.537,356.1169 Q625.7558,355.7419 625.0995,355.5544 Q624.4433,355.3512 623.6464,355.3512 Z " fill="#000000"/><text fill="#000000" font-family="sans-serif" font-size="14" lengthAdjust="spacing" textLength="71.8477" x="639.7608" y="365.252">Ownership</text><line style="stroke:#181818;stroke-width:0.5;" x1="599.53" x2="723.6156" y1="375.82" y2="375.82"/><text fill="#000000" font-family="sans-serif" font-size="14" lengthAdjust="spacing" textLength="49.1818" x="604.53" y="394.7859">gid : int</text><text fill="#000000" font-family="sans-serif" font-size="14" lengthAdjust="spacing" textLength="112.4056" x="604.53" y="413.8539">group_name : str</text><text fill="#000000" font-family="sans-serif" font-size="14" lengthAdjust="spacing" textLength="114.0856" x="604.53" y="432.9218">owner_name : str</text><text fill="#000000" font-family="sans-serif" font-size="14" lengthAdjust="spacing" textLength="49.2238" x="604.53" y="451.9897">uid : int</text><line style="stroke:#181818;stroke-width:0.5;" x1="599.53" x2="723.6156" y1="460.0917" y2="460.0917"/></g><!--class setup_filebrowser_access.RuntimeSpec--><g class="entity" data-qualified-name="setup_filebrowser_access.RuntimeSpec" data-source-line="56" id="ent0010"><rect fill="#F1F1F1" height="276.815" rx="2.5" ry="2.5" style="stroke:#181818;stroke-width:0.5;" width="199.1512" x="7" y="566.22"/><ellipse cx="59.0378" cy="582.22" fill="#ADD1B2" rx="11" ry="11" style="stroke:#181818;stroke-width:1;"/><path d="M59.1472,577.7513 Q58.2253,577.7513 57.4909,578.0638 Q56.7722,578.3763 56.2722,578.97 Q55.7722,579.5481 55.4909,580.4231 Q55.2253,581.2981 55.2253,582.3919 Q55.2253,583.8294 55.6628,584.8763 Q56.1159,585.9231 56.9597,586.47 Q57.819,587.0169 59.1315,587.0169 Q59.9128,587.0169 60.6003,586.8919 Q61.3034,586.7513 62.3034,586.4388 L62.3034,588.3138 Q61.444,588.6419 60.6784,588.7669 Q59.9284,588.8919 58.9128,588.8919 Q56.9909,588.8919 55.6784,588.095 Q54.3815,587.2825 53.7253,585.8138 Q53.069,584.3294 53.069,582.3606 Q53.069,580.9388 53.4597,579.7669 Q53.8659,578.5794 54.6472,577.7044 Q55.4284,576.8294 56.569,576.3606 Q57.7097,575.8763 59.1784,575.8763 Q60.1315,575.8763 61.0222,576.0794 Q61.9284,576.2669 62.8659,576.7356 L62.0378,578.5169 Q61.2565,578.1419 60.6003,577.9544 Q59.944,577.7513 59.1472,577.7513 Z " fill="#000000"/><text fill="#000000" font-family="sans-serif" font-size="14" lengthAdjust="spacing" textLength="86.5757" x="79.5378" y="587.652">RuntimeSpec</text><line style="stroke:#181818;stroke-width:0.5;" x1="8" x2="205.1512" y1="598.22" y2="598.22"/><text fill="#000000" font-family="sans-serif" font-size="14" lengthAdjust="spacing" textLength="134.9735" x="13" y="617.1859">container_name : str</text><text fill="#000000" font-family="sans-serif" font-size="14" lengthAdjust="spacing" textLength="150.2194" x="13" y="636.2539">container_runtime : str</text><text fill="#000000" font-family="sans-serif" font-size="14" lengthAdjust="spacing" textLength="125.3976" x="13" y="655.3218">database_path : str</text><text fill="#000000" font-family="sans-serif" font-size="14" lengthAdjust="spacing" textLength="150.0374" x="13" y="674.3897">filebrowser_image : str</text><text fill="#000000" font-family="sans-serif" font-size="14" lengthAdjust="spacing" textLength="66.6398" x="13" y="693.4576">mode : str</text><text fill="#000000" font-family="sans-serif" font-size="14" lengthAdjust="spacing" textLength="133.0135" x="13" y="712.5255">restart_strategy : str</text><text fill="#000000" font-family="sans-serif" font-size="14" lengthAdjust="spacing" textLength="130.7735" x="13" y="731.5934">run_as_account : str</text><text fill="#000000" font-family="sans-serif" font-size="14" lengthAdjust="spacing" textLength="169.4274" x="13" y="750.6614">run_as_group : str | None</text><text fill="#000000" font-family="sans-serif" font-size="14" lengthAdjust="spacing" textLength="151.9834" x="13" y="769.7293">share_mount_path : str</text><text fill="#000000" font-family="sans-serif" font-size="14" lengthAdjust="spacing" textLength="187.1512" x="13" y="788.7972">sync_web_env_uid_gid : bool</text><text fill="#000000" font-family="sans-serif" font-size="14" lengthAdjust="spacing" textLength="124.5995" x="13" y="807.8651">web_env_file : Path</text><text fill="#000000" font-family="sans-serif" font-size="14" lengthAdjust="spacing" textLength="154.4054" x="13" y="826.933">web_setup_script : Path</text><line style="stroke:#181818;stroke-width:0.5;" x1="8" x2="205.1512" y1="835.035" y2="835.035"/></g><!--class export_caddy_mtls_profile.SetupError--><g class="entity" data-qualified-name="export_caddy_mtls_profile.SetupError" data-source-line="70" id="ent0011"><rect fill="#F1F1F1" height="48" rx="2.5" ry="2.5" style="stroke:#181818;stroke-width:0.5;" width="103.4977" x="240.83" y="680.63"/><ellipse cx="255.83" cy="696.63" fill="#ADD1B2" rx="11" ry="11" style="stroke:#181818;stroke-width:1;"/><path d="M255.9394,692.1612 Q255.0175,692.1612 254.2831,692.4737 Q253.5644,692.7862 253.0644,693.38 Q252.5644,693.9581 252.2831,694.8331 Q252.0175,695.7081 252.0175,696.8019 Q252.0175,698.2394 252.455,699.2862 Q252.9081,700.3331 253.7519,700.88 Q254.6113,701.4269 255.9238,701.4269 Q256.705,701.4269 257.3925,701.3019 Q258.0956,701.1612 259.0956,700.8487 L259.0956,702.7237 Q258.2363,703.0519 257.4706,703.1769 Q256.7206,703.3019 255.705,703.3019 Q253.7831,703.3019 252.4706,702.505 Q251.1738,701.6925 250.5175,700.2237 Q249.8613,698.7394 249.8613,696.7706 Q249.8613,695.3487 250.2519,694.1769 Q250.6581,692.9894 251.4394,692.1144 Q252.2206,691.2394 253.3613,690.7706 Q254.5019,690.2862 255.9706,690.2862 Q256.9238,690.2862 257.8144,690.4894 Q258.7206,690.6769 259.6581,691.1456 L258.83,692.9269 Q258.0488,692.5519 257.3925,692.3644 Q256.7363,692.1612 255.9394,692.1612 Z " fill="#000000"/><text fill="#FF0000" font-family="sans-serif" font-size="14" lengthAdjust="spacing" textLength="71.4977" x="269.83" y="702.062">SetupError</text><line style="stroke:#181818;stroke-width:0.5;" x1="241.83" x2="343.3277" y1="712.63" y2="712.63"/><line style="stroke:#181818;stroke-width:0.5;" x1="241.83" x2="343.3277" y1="720.63" y2="720.63"/></g><!--class export_caddy_root_profile.SetupError--><g class="entity" data-qualified-name="export_caddy_root_profile.SetupError" data-source-line="72" id="ent0012"><rect fill="#F1F1F1" height="48" rx="2.5" ry="2.5" style="stroke:#181818;stroke-width:0.5;" width="103.4977" x="378.83" y="680.63"/><ellipse cx="393.83" cy="696.63" fill="#ADD1B2" rx="11" ry="11" style="stroke:#181818;stroke-width:1;"/><path d="M393.9394,692.1612 Q393.0175,692.1612 392.2831,692.4737 Q391.5644,692.7862 391.0644,693.38 Q390.5644,693.9581 390.2831,694.8331 Q390.0175,695.7081 390.0175,696.8019 Q390.0175,698.2394 390.455,699.2862 Q390.9081,700.3331 391.7519,700.88 Q392.6113,701.4269 393.9238,701.4269 Q394.705,701.4269 395.3925,701.3019 Q396.0956,701.1612 397.0956,700.8487 L397.0956,702.7237 Q396.2363,703.0519 395.4706,703.1769 Q394.7206,703.3019 393.705,703.3019 Q391.7831,703.3019 390.4706,702.505 Q389.1738,701.6925 388.5175,700.2237 Q387.8613,698.7394 387.8613,696.7706 Q387.8613,695.3487 388.2519,694.1769 Q388.6581,692.9894 389.4394,692.1144 Q390.2206,691.2394 391.3613,690.7706 Q392.5019,690.2862 393.9706,690.2862 Q394.9238,690.2862 395.8144,690.4894 Q396.7206,690.6769 397.6581,691.1456 L396.83,692.9269 Q396.0488,692.5519 395.3925,692.3644 Q394.7363,692.1612 393.9394,692.1612 Z " fill="#000000"/><text fill="#FF0000" font-family="sans-serif" font-size="14" lengthAdjust="spacing" textLength="71.4977" x="407.83" y="702.062">SetupError</text><line style="stroke:#181818;stroke-width:0.5;" x1="379.83" x2="481.3277" y1="712.63" y2="712.63"/><line style="stroke:#181818;stroke-width:0.5;" x1="379.83" x2="481.3277" y1="720.63" y2="720.63"/></g><!--class setup_filebrowser_access.SetupError--><g class="entity" data-qualified-name="setup_filebrowser_access.SetupError" data-source-line="74" id="ent0013"><rect fill="#F1F1F1" height="48" rx="2.5" ry="2.5" style="stroke:#181818;stroke-width:0.5;" width="103.4977" x="516.83" y="680.63"/><ellipse cx="531.83" cy="696.63" fill="#ADD1B2" rx="11" ry="11" style="stroke:#181818;stroke-width:1;"/><path d="M531.9394,692.1612 Q531.0175,692.1612 530.2831,692.4737 Q529.5644,692.7862 529.0644,693.38 Q528.5644,693.9581 528.2831,694.8331 Q528.0175,695.7081 528.0175,696.8019 Q528.0175,698.2394 528.455,699.2862 Q528.9081,700.3331 529.7519,700.88 Q530.6112,701.4269 531.9237,701.4269 Q532.705,701.4269 533.3925,701.3019 Q534.0956,701.1612 535.0956,700.8487 L535.0956,702.7237 Q534.2362,703.0519 533.4706,703.1769 Q532.7206,703.3019 531.705,703.3019 Q529.7831,703.3019 528.4706,702.505 Q527.1737,701.6925 526.5175,700.2237 Q525.8612,698.7394 525.8612,696.7706 Q525.8612,695.3487 526.2519,694.1769 Q526.6581,692.9894 527.4394,692.1144 Q528.2206,691.2394 529.3612,690.7706 Q530.5019,690.2862 531.9706,690.2862 Q532.9237,690.2862 533.8144,690.4894 Q534.7206,690.6769 535.6581,691.1456 L534.83,692.9269 Q534.0487,692.5519 533.3925,692.3644 Q532.7362,692.1612 531.9394,692.1612 Z " fill="#000000"/><text fill="#FF0000" font-family="sans-serif" font-size="14" lengthAdjust="spacing" textLength="71.4977" x="545.83" y="702.062">SetupError</text><line style="stroke:#181818;stroke-width:0.5;" x1="517.83" x2="619.3277" y1="712.63" y2="712.63"/><line style="stroke:#181818;stroke-width:0.5;" x1="517.83" x2="619.3277" y1="720.63" y2="720.63"/></g><!--class setup_filebrowser_access.UserSpec--><g class="entity" data-qualified-name="setup_filebrowser_access.UserSpec" data-source-line="76" id="ent0014"><rect fill="#F1F1F1" height="124.2717" rx="2.5" ry="2.5" style="stroke:#181818;stroke-width:0.5;" width="107.1016" x="53.02" y="903.04"/><ellipse cx="74.1273" cy="919.04" fill="#ADD1B2" rx="11" ry="11" style="stroke:#181818;stroke-width:1;"/><path d="M74.2367,914.5713 Q73.3148,914.5713 72.5805,914.8838 Q71.8617,915.1963 71.3617,915.79 Q70.8617,916.3681 70.5805,917.2431 Q70.3148,918.1181 70.3148,919.2119 Q70.3148,920.6494 70.7523,921.6963 Q71.2055,922.7431 72.0492,923.29 Q72.9086,923.8369 74.2211,923.8369 Q75.0023,923.8369 75.6898,923.7119 Q76.393,923.5713 77.393,923.2588 L77.393,925.1338 Q76.5336,925.4619 75.768,925.5869 Q75.018,925.7119 74.0023,925.7119 Q72.0805,925.7119 70.768,924.915 Q69.4711,924.1025 68.8148,922.6338 Q68.1586,921.1494 68.1586,919.1806 Q68.1586,917.7588 68.5492,916.5869 Q68.9555,915.3994 69.7367,914.5244 Q70.518,913.6494 71.6586,913.1806 Q72.7992,912.6963 74.268,912.6963 Q75.2211,912.6963 76.1117,912.8994 Q77.018,913.0869 77.9555,913.5556 L77.1273,915.3369 Q76.3461,914.9619 75.6898,914.7744 Q75.0336,914.5713 74.2367,914.5713 Z " fill="#000000"/><text fill="#000000" font-family="sans-serif" font-size="14" lengthAdjust="spacing" textLength="61.5298" x="89.4845" y="924.472">UserSpec</text><line style="stroke:#181818;stroke-width:0.5;" x1="54.02" x2="159.1216" y1="935.04" y2="935.04"/><text fill="#000000" font-family="sans-serif" font-size="14" lengthAdjust="spacing" textLength="82.0117" x="59.02" y="954.0059">admin : bool</text><text fill="#000000" font-family="sans-serif" font-size="14" lengthAdjust="spacing" textLength="92.3157" x="59.02" y="973.0739">password : str</text><text fill="#000000" font-family="sans-serif" font-size="14" lengthAdjust="spacing" textLength="66.9758" x="59.02" y="992.1418">scope : str</text><text fill="#000000" font-family="sans-serif" font-size="14" lengthAdjust="spacing" textLength="95.1016" x="59.02" y="1011.2097">username : str</text><line style="stroke:#181818;stroke-width:0.5;" x1="54.02" x2="159.1216" y1="1019.3117" y2="1019.3117"/></g><?plantuml-src jLLHRzGm37w_Nn7j1mp1upHDGWZG7e294yzHcdXjH1f7ZhlR2VRVITgxDEtTj874KzNFZktli-D4OE5L3p4e3Li8YXGZ2OyUDjgf6CN5-n2s0VI5K554u278U-kW8Tn58AcqXXWl3qxYrqO8GcHn9IBJvga46RXxHPI3rnYcimQamzPwsGpCw5FC1j4bKm_SeJda428GFkvb1ye0JQ3uBRvc2aVRa99acajhgUvQeqEw8Z0t7z3Vs_OZ4TBrcn6-gMfkh3SoTehWid9CvPPGdz2bAhxWuFdykSfXfAcqapqQA6mqWMAGlOtH-bP674Z3pDt0lHeSovDpBIdFCdKGqeT9FG35wjnCFwkIR3RoR2NGGu8U8CUTuPByJd6N_bbH2pa9ToSWWLES8cJ3G727qJwE7aMRpmuRvRR0d8Z5y_8iVOf2BU4GrhtDXjpPGglFgafZwQYCzPnPvCZoC9Q7ecTivTitTR83KcKfR6vD4jhoFWUSoC1ZG6AfbJ5xsREBCarV7lFBXUz8IWEjTVm9-nKIthvR8obrw4X5M1bIWLQvDUY6TkR1gWKZJsCU3LEj2sCX-stdqyXqDhn0jFYD95jhYh2Zg78nXPYTbz1GJhmczTY-_vZwUnedsyFBYwjodBgBdfKzIJ73D1qe5gDODLLN9xJEPFlKfMhIgvjFa5gOH4b_QNEq-zamUAbYBd9SDolux9sQxiLqaHQrnBtNSWUD1FyWarPoKlYmA8w6NF4yMHcTD8kQRE2JiQeMxpRxdUxTvqTjFb3ltx-Ck9YWVutux5YS3_WZURmyKaUlQGMQtbRlNzu2EwJv1OmQGpN9YzTky_G7?></g></svg>
