<?plantuml 1.2026.2?><svg xmlns="http://www.w3.org/2000/svg" xmlns:xlink="http://www.w3.org/1999/xlink" contentStyleType="text/css" data-diagram-type="CLASS" height="1074px" preserveAspectRatio="none" style="width:1358px;height:1074px;background:#FFFFFF;" version="1.1" viewBox="0 0 1358 1074" width="1358px" zoomAndPan="magnify"><defs/><g><!--class setup_filebrowser_access.AppSpec--><g class="entity" data-qualified-name="setup_filebrowser_access.AppSpec" data-source-line="2" id="ent0002"><rect fill="#F1F1F1" height="67.0679" rx="2.5" ry="2.5" style="stroke:#181818;stroke-width:0.5;" width="89.0778" x="40.34" y="92.81"/><ellipse cx="55.34" cy="108.81" fill="#ADD1B2" rx="11" ry="11" style="stroke:#181818;stroke-width:1;"/><path d="M55.4494,104.0913 Q54.5275,104.0913 53.7931,104.4038 Q53.0744,104.7163 52.5744,105.31 Q52.0744,105.8881 51.7931,106.7631 Q51.5275,107.6381 51.5275,108.7319 Q51.5275,110.1694 51.965,111.2163 Q52.4181,112.2631 53.2619,112.81 Q54.1213,113.3569 55.4338,113.3569 Q56.215,113.3569 56.9025,113.2319 Q57.6056,113.0913 58.6056,112.7788 L58.6056,114.6538 Q57.7463,114.9819 56.9806,115.1069 Q56.2306,115.2319 55.215,115.2319 Q53.2931,115.2319 51.9806,114.435 Q50.6838,113.6225 50.0275,112.1538 Q49.3713,110.6694 49.3713,108.7006 Q49.3713,107.2788 49.7619,106.1069 Q50.1681,104.9194 50.9494,104.0444 Q51.7306,103.1694 52.8713,102.7006 Q54.0119,102.2163 55.4806,102.2163 Q56.4338,102.2163 57.3244,102.4194 Q58.2306,102.6069 59.1681,103.0756 L58.34,104.8569 Q57.5588,104.4819 56.9025,104.2944 Q56.2463,104.0913 55.4494,104.0913 Z " fill="#000000"/><text fill="#000000" font-family="sans-serif" font-size="14" lengthAdjust="spacing" textLength="57.0778" x="69.34" y="114.242">AppSpec</text><line style="stroke:#181818;stroke-width:0.5;" x1="41.34" x2="128.4178" y1="124.81" y2="124.81"/><text fill="#000000" font-family="sans-serif" font-size="14" lengthAdjust="spacing" textLength="56.3498" x="46.34" y="143.7759">root : str</text><line style="stroke:#181818;stroke-width:0.5;" x1="41.34" x2="128.4178" y1="151.8779" y2="151.8779"/></g><!--class setup_filebrowser_access.AuthSpec--><g class="entity" data-qualified-name="setup_filebrowser_access.AuthSpec" data-source-line="5" id="ent0003"><rect fill="#F1F1F1" height="124.2717" rx="2.5" ry="2.5" style="stroke:#181818;stroke-width:0.5;" width="201.3773" x="164.19" y="64.21"/><ellipse cx="229.5208" cy="80.21" fill="#ADD1B2" rx="11" ry="11" style="stroke:#181818;stroke-width:1;"/><path d="M229.6301,75.4913 Q228.7083,75.4913 227.9739,75.8038 Q227.2551,76.1163 226.7551,76.71 Q226.2551,77.2881 225.9739,78.1631 Q225.7083,79.0381 225.7083,80.1319 Q225.7083,81.5694 226.1458,82.6163 Q226.5989,83.6631 227.4426,84.21 Q228.302,84.7569 229.6145,84.7569 Q230.3958,84.7569 231.0833,84.6319 Q231.7864,84.4913 232.7864,84.1788 L232.7864,86.0538 Q231.927,86.3819 231.1614,86.5069 Q230.4114,86.6319 229.3958,86.6319 Q227.4739,86.6319 226.1614,85.835 Q224.8645,85.0225 224.2083,83.5538 Q223.552,82.0694 223.552,80.1006 Q223.552,78.6788 223.9426,77.5069 Q224.3489,76.3194 225.1301,75.4444 Q225.9114,74.5694 227.052,74.1006 Q228.1926,73.6163 229.6614,73.6163 Q230.6145,73.6163 231.5051,73.8194 Q232.4114,74.0069 233.3489,74.4756 L232.5208,76.2569 Q231.7395,75.8819 231.0833,75.6944 Q230.427,75.4913 229.6301,75.4913 Z " fill="#000000"/><text fill="#000000" font-family="sans-serif" font-size="14" lengthAdjust="spacing" textLength="62.2158" x="250.0208" y="85.642">AuthSpec</text><line style="stroke:#181818;stroke-width:0.5;" x1="165.19" x2="364.5673" y1="96.21" y2="96.21"/><text fill="#000000" font-family="sans-serif" font-size="14" lengthAdjust="spacing" textLength="158.8434" x="170.19" y="115.1759">hide_login_button : bool</text><text fill="#000000" font-family="sans-serif" font-size="14" lengthAdjust="spacing" textLength="80.3457" x="170.19" y="134.2439">method : str</text><text fill="#000000" font-family="sans-serif" font-size="14" lengthAdjust="spacing" textLength="169.5394" x="170.19" y="153.3118">proxy_header : str | None</text><text fill="#000000" font-family="sans-serif" font-size="14" lengthAdjust="spacing" textLength="189.3773" x="170.19" y="172.3797">proxy_username : str | None</text><line style="stroke:#181818;stroke-width:0.5;" x1="165.19" x2="364.5673" y1="180.4817" y2="180.4817"/></g><!--class setup_bind_share.ConfigError--><g class="entity" data-qualified-name="setup_bind_share.ConfigError" data-source-line="11" id="ent0004"><rect fill="#F1F1F1" height="48" rx="2.5" ry="2.5" style="stroke:#181818;stroke-width:0.5;" width="108.6077" x="400.57" y="102.34"/><ellipse cx="415.57" cy="118.34" fill="#ADD1B2" rx="11" ry="11" style="stroke:#181818;stroke-width:1;"/><path d="M415.6794,113.6213 Q414.7575,113.6213 414.0231,113.9338 Q413.3044,114.2463 412.8044,114.84 Q412.3044,115.4181 412.0231,116.2931 Q411.7575,117.1681 411.7575,118.2619 Q411.7575,119.6994 412.195,120.7463 Q412.6481,121.7931 413.4919,122.34 Q414.3513,122.8869 415.6638,122.8869 Q416.445,122.8869 417.1325,122.7619 Q417.8356,122.6213 418.8356,122.3088 L418.8356,124.1838 Q417.9763,124.5119 417.2106,124.6369 Q416.4606,124.7619 415.445,124.7619 Q413.5231,124.7619 412.2106,123.965 Q410.9138,123.1525 410.2575,121.6838 Q409.6013,120.1994 409.6013,118.2306 Q409.6013,116.8088 409.9919,115.6369 Q410.3981,114.4494 411.1794,113.5744 Q411.9606,112.6994 413.1013,112.2306 Q414.2419,111.7463 415.7106,111.7463 Q416.6638,111.7463 417.5544,111.9494 Q418.4606,112.1369 419.3981,112.6056 L418.57,114.3869 Q417.7888,114.0119 417.1325,113.8244 Q416.4763,113.6213 415.6794,113.6213 Z " fill="#000000"/><text fill="#FF0000" font-family="sans-serif" font-size="14" lengthAdjust="spacing" textLength="76.6077" x="429.57" y="123.772">ConfigError</text><line style="stroke:#181818;stroke-width:0.5;" x1="401.57" x2="508.1777" y1="134.34" y2="134.34"/><line style="stroke:#181818;stroke-width:0.5;" x1="401.57" x2="508.1777" y1="142.34" y2="142.34"/></g><!--class check_wireguard_endpoint.EmailConfig--><g class="entity" data-qualified-name="check_wireguard_endpoint.EmailConfig" data-source-line="13" id="ent0005"><rect fill="#F1F1F1" height="124.2717" rx="2.5" ry="2.5" style="stroke:#181818;stroke-width:0.5;" width="141.3035" x="1034.22" y="372.35"/><ellipse cx="1062.8747" cy="388.35" fill="#ADD1B2" rx="11" ry="11" style="stroke:#181818;stroke-width:1;"/><path d="M1062.9841,383.6313 Q1062.0622,383.6313 1061.3278,383.9438 Q1060.6091,384.2563 1060.1091,384.85 Q1059.6091,385.4281 1059.3278,386.3031 Q1059.0622,387.1781 1059.0622,388.2719 Q1059.0622,389.7094 1059.4997,390.7563 Q1059.9528,391.8031 1060.7966,392.35 Q1061.656,392.8969 1062.9685,392.8969 Q1063.7497,392.8969 1064.4372,392.7719 Q1065.1403,392.6313 1066.1403,392.3188 L1066.1403,394.1938 Q1065.281,394.5219 1064.5153,394.6469 Q1063.7653,394.7719 1062.7497,394.7719 Q1060.8278,394.7719 1059.5153,393.975 Q1058.2185,393.1625 1057.5622,391.6938 Q1056.906,390.2094 1056.906,388.2406 Q1056.906,386.8188 1057.2966,385.6469 Q1057.7028,384.4594 1058.4841,383.5844 Q1059.2653,382.7094 1060.406,382.2406 Q1061.5466,381.7563 1063.0153,381.7563 Q1063.9685,381.7563 1064.8591,381.9594 Q1065.7653,382.1469 1066.7028,382.6156 L1065.8747,384.3969 Q1065.0935,384.0219 1064.4372,383.8344 Q1063.781,383.6313 1062.9841,383.6313 Z " fill="#000000"/><text fill="#000000" font-family="sans-serif" font-size="14" lengthAdjust="spacing" textLength="78.9597" x="1079.9091" y="393.782">EmailConfig</text><line style="stroke:#181818;stroke-width:0.5;" x1="1035.22" x2="1174.5235" y1="404.35" y2="404.35"/><text fill="#000000" font-family="sans-serif" font-size="14" lengthAdjust="spacing" textLength="118.3275" x="1040.22" y="423.3159">config_path : Path</text><text fill="#000000" font-family="sans-serif" font-size="14" lengthAdjust="spacing" textLength="93.3236" x="1040.22" y="442.3839">enabled : bool</text><text fill="#000000" font-family="sans-serif" font-size="14" lengthAdjust="spacing" textLength="129.3035" x="1040.22" y="461.4518">sender_script : Path</text><text fill="#000000" font-family="sans-serif" font-size="14" lengthAdjust="spacing" textLength="100.4776" x="1040.22" y="480.5197">to_address : str</text><line style="stroke:#181818;stroke-width:0.5;" x1="1035.22" x2="1174.5235" y1="488.6217" y2="488.6217"/></g><!--class check_wireguard_endpoint.EndpointValue--><g class="entity" data-qualified-name="check_wireguard_endpoint.EndpointValue" data-source-line="19" id="ent0006"><rect fill="#F1F1F1" height="105.2038" rx="2.5" ry="2.5" style="stroke:#181818;stroke-width:0.5;" width="127.8576" x="543.95" y="73.74"/><ellipse cx="558.95" cy="89.74" fill="#ADD1B2" rx="11" ry="11" style="stroke:#181818;stroke-width:1;"/><path d="M559.0594,85.0213 Q558.1375,85.0213 557.4031,85.3338 Q556.6844,85.6463 556.1844,86.24 Q555.6844,86.8181 555.4031,87.6931 Q555.1375,88.5681 555.1375,89.6619 Q555.1375,91.0994 555.575,92.1463 Q556.0281,93.1931 556.8719,93.74 Q557.7313,94.2869 559.0438,94.2869 Q559.825,94.2869 560.5125,94.1619 Q561.2156,94.0213 562.2156,93.7088 L562.2156,95.5838 Q561.3563,95.9119 560.5906,96.0369 Q559.8406,96.1619 558.825,96.1619 Q556.9031,96.1619 555.5906,95.365 Q554.2938,94.5525 553.6375,93.0838 Q552.9813,91.5994 552.9813,89.6306 Q552.9813,88.2088 553.3719,87.0369 Q553.7781,85.8494 554.5594,84.9744 Q555.3406,84.0994 556.4813,83.6306 Q557.6219,83.1463 559.0906,83.1463 Q560.0438,83.1463 560.9344,83.3494 Q561.8406,83.5369 562.7781,84.0056 L561.95,85.7869 Q561.1688,85.4119 560.5125,85.2244 Q559.8563,85.0213 559.0594,85.0213 Z " fill="#000000"/><text fill="#000000" font-family="sans-serif" font-size="14" lengthAdjust="spacing" textLength="95.8576" x="572.95" y="95.172">EndpointValue</text><line style="stroke:#181818;stroke-width:0.5;" x1="544.95" x2="670.8076" y1="105.74" y2="105.74"/><text fill="#000000" font-family="sans-serif" font-size="14" lengthAdjust="spacing" textLength="57.4558" x="549.95" y="124.7059">host : str</text><text fill="#000000" font-family="sans-serif" font-size="14" lengthAdjust="spacing" textLength="106.9176" x="549.95" y="143.7739">port : int | None</text><line style="stroke:#181818;stroke-width:0.5;" x1="544.95" x2="670.8076" y1="151.8758" y2="151.8758"/><text fill="#000000" font-family="sans-serif" font-size="14" lengthAdjust="spacing" textLength="90.3557" x="549.95" y="170.8418">render() -&gt; str</text></g><!--class setup_bind_share.FolderMount--><g class="entity" data-qualified-name="setup_bind_share.FolderMount" data-source-line="24" id="ent0007"><rect fill="#F1F1F1" height="238.6792" rx="2.5" ry="2.5" style="stroke:#181818;stroke-width:0.5;" width="213.8092" x="706.97" y="7"/><ellipse cx="767.0438" cy="23" fill="#ADD1B2" rx="11" ry="11" style="stroke:#181818;stroke-width:1;"/><path d="M767.1532,18.2813 Q766.2313,18.2813 765.4969,18.5938 Q764.7782,18.9063 764.2782,19.5 Q763.7782,20.0781 763.4969,20.9531 Q763.2313,21.8281 763.2313,22.9219 Q763.2313,24.3594 763.6688,25.4063 Q764.1219,26.4531 764.9657,27 Q765.825,27.5469 767.1375,27.5469 Q767.9188,27.5469 768.6063,27.4219 Q769.3094,27.2813 770.3094,26.9688 L770.3094,28.8438 Q769.45,29.1719 768.6844,29.2969 Q767.9344,29.4219 766.9188,29.4219 Q764.9969,29.4219 763.6844,28.625 Q762.3875,27.8125 761.7313,26.3438 Q761.075,24.8594 761.075,22.8906 Q761.075,21.4688 761.4657,20.2969 Q761.8719,19.1094 762.6532,18.2344 Q763.4344,17.3594 764.575,16.8906 Q765.7157,16.4063 767.1844,16.4063 Q768.1375,16.4063 769.0282,16.6094 Q769.9344,16.7969 770.8719,17.2656 L770.0438,19.0469 Q769.2625,18.6719 768.6063,18.4844 Q767.95,18.2813 767.1532,18.2813 Z " fill="#000000"/><text fill="#000000" font-family="sans-serif" font-size="14" lengthAdjust="spacing" textLength="85.1617" x="787.5438" y="28.432">FolderMount</text><line style="stroke:#181818;stroke-width:0.5;" x1="707.97" x2="919.7792" y1="39" y2="39"/><text fill="#000000" font-family="sans-serif" font-size="14" lengthAdjust="spacing" textLength="91.0417" x="712.97" y="57.9659">acl_mode : str</text><text fill="#000000" font-family="sans-serif" font-size="14" lengthAdjust="spacing" textLength="189.0413" x="712.97" y="77.0339">create_missing_source : bool</text><text fill="#000000" font-family="sans-serif" font-size="14" lengthAdjust="spacing" textLength="143.7514" x="712.97" y="96.1018">default_acl_mode : str</text><text fill="#000000" font-family="sans-serif" font-size="14" lengthAdjust="spacing" textLength="186.5073" x="712.97" y="115.1697">grant_parent_traverse : bool</text><text fill="#000000" font-family="sans-serif" font-size="14" lengthAdjust="spacing" textLength="66.0658" x="712.97" y="134.2376">name : str</text><text fill="#000000" font-family="sans-serif" font-size="14" lengthAdjust="spacing" textLength="84.5597" x="712.97" y="153.3055">persist : bool</text><text fill="#000000" font-family="sans-serif" font-size="14" lengthAdjust="spacing" textLength="124.7535" x="712.97" y="172.3734">recursive_acl : bool</text><text fill="#000000" font-family="sans-serif" font-size="14" lengthAdjust="spacing" textLength="85.2877" x="712.97" y="191.4414">source : Path</text><text fill="#000000" font-family="sans-serif" font-size="14" lengthAdjust="spacing" textLength="117.6976" x="712.97" y="210.5093">target_path : Path</text><text fill="#000000" font-family="sans-serif" font-size="14" lengthAdjust="spacing" textLength="201.8092" x="712.97" y="229.5772">target_relative : PurePosixPath</text><line style="stroke:#181818;stroke-width:0.5;" x1="707.97" x2="919.7792" y1="237.6792" y2="237.6792"/></g><!--class setup_bind_share.GlobalSettings--><g class="entity" data-qualified-name="setup_bind_share.GlobalSettings" data-source-line="36" id="ent0008"><rect fill="#F1F1F1" height="181.4754" rx="2.5" ry="2.5" style="stroke:#181818;stroke-width:0.5;" width="155.7514" x="7" y="343.75"/><ellipse cx="34.6593" cy="359.75" fill="#ADD1B2" rx="11" ry="11" style="stroke:#181818;stroke-width:1;"/><path d="M34.7687,355.0313 Q33.8468,355.0313 33.1124,355.3438 Q32.3937,355.6563 31.8937,356.25 Q31.3937,356.8281 31.1124,357.7031 Q30.8468,358.5781 30.8468,359.6719 Q30.8468,361.1094 31.2843,362.1563 Q31.7374,363.2031 32.5812,363.75 Q33.4406,364.2969 34.7531,364.2969 Q35.5343,364.2969 36.2218,364.1719 Q36.9249,364.0313 37.9249,363.7188 L37.9249,365.5938 Q37.0656,365.9219 36.2999,366.0469 Q35.5499,366.1719 34.5343,366.1719 Q32.6124,366.1719 31.2999,365.375 Q30.0031,364.5625 29.3468,363.0938 Q28.6906,361.6094 28.6906,359.6406 Q28.6906,358.2188 29.0812,357.0469 Q29.4874,355.8594 30.2687,354.9844 Q31.0499,354.1094 32.1906,353.6406 Q33.3312,353.1563 34.7999,353.1563 Q35.7531,353.1563 36.6437,353.3594 Q37.5499,353.5469 38.4874,354.0156 L37.6593,355.7969 Q36.8781,355.4219 36.2218,355.2344 Q35.5656,355.0313 34.7687,355.0313 Z " fill="#000000"/><text fill="#000000" font-family="sans-serif" font-size="14" lengthAdjust="spacing" textLength="95.6196" x="51.4725" y="365.182">GlobalSettings</text><line style="stroke:#181818;stroke-width:0.5;" x1="8" x2="161.7514" y1="375.75" y2="375.75"/><text fill="#000000" font-family="sans-serif" font-size="14" lengthAdjust="spacing" textLength="143.7514" x="13" y="394.7159">acl_group : str | None</text><text fill="#000000" font-family="sans-serif" font-size="14" lengthAdjust="spacing" textLength="82.0117" x="13" y="413.7839">acl_user : str</text><text fill="#000000" font-family="sans-serif" font-size="14" lengthAdjust="spacing" textLength="140.7695" x="13" y="432.8518">mount_dir_mode : int</text><text fill="#000000" font-family="sans-serif" font-size="14" lengthAdjust="spacing" textLength="111.9436" x="13" y="451.9197">share_root : Path</text><text fill="#000000" font-family="sans-serif" font-size="14" lengthAdjust="spacing" textLength="143.5135" x="13" y="470.9876">share_root_mode : int</text><text fill="#000000" font-family="sans-serif" font-size="14" lengthAdjust="spacing" textLength="103.3196" x="13" y="490.0555">smb_group : str</text><text fill="#000000" font-family="sans-serif" font-size="14" lengthAdjust="spacing" textLength="92.2317" x="13" y="509.1234">smb_user : str</text><line style="stroke:#181818;stroke-width:0.5;" x1="8" x2="161.7514" y1="517.2254" y2="517.2254"/></g><!--class export_caddy_mtls_profile.IdentityPaths--><g class="entity" data-qualified-name="export_caddy_mtls_profile.IdentityPaths" data-source-line="45" id="ent0009"><rect fill="#F1F1F1" height="200.5433" rx="2.5" ry="2.5" style="stroke:#181818;stroke-width:0.5;" width="183.1914" x="197.28" y="334.22"/><ellipse cx="240.9413" cy="350.22" fill="#ADD1B2" rx="11" ry="11" style="stroke:#181818;stroke-width:1;"/><path d="M241.0506,345.5013 Q240.1288,345.5013 239.3944,345.8138 Q238.6756,346.1263 238.1756,346.72 Q237.6756,347.2981 237.3944,348.1731 Q237.1288,349.0481 237.1288,350.1419 Q237.1288,351.5794 237.5663,352.6263 Q238.0194,353.6731 238.8631,354.22 Q239.7225,354.7669 241.035,354.7669 Q241.8163,354.7669 242.5038,354.6419 Q243.2069,354.5013 244.2069,354.1888 L244.2069,356.0638 Q243.3475,356.3919 242.5819,356.5169 Q241.8319,356.6419 240.8163,356.6419 Q238.8944,356.6419 237.5819,355.845 Q236.285,355.0325 235.6288,353.5638 Q234.9725,352.0794 234.9725,350.1106 Q234.9725,348.6888 235.3631,347.5169 Q235.7694,346.3294 236.5506,345.4544 Q237.3319,344.5794 238.4725,344.1106 Q239.6131,343.6263 241.0819,343.6263 Q242.035,343.6263 242.9256,343.8294 Q243.8319,344.0169 244.7694,344.4856 L243.9413,346.2669 Q243.16,345.8919 242.5038,345.7044 Q241.8475,345.5013 241.0506,345.5013 Z " fill="#000000"/><text fill="#000000" font-family="sans-serif" font-size="14" lengthAdjust="spacing" textLength="87.4997" x="261.3104" y="355.652">IdentityPaths</text><line style="stroke:#181818;stroke-width:0.5;" x1="198.28" x2="379.4714" y1="366.22" y2="366.22"/><text fill="#000000" font-family="sans-serif" font-size="14" lengthAdjust="spacing" textLength="102.8996" x="203.28" y="385.1859">cert_path : Path</text><text fill="#000000" font-family="sans-serif" font-size="14" lengthAdjust="spacing" textLength="99.9596" x="203.28" y="404.2539">key_path : Path</text><text fill="#000000" font-family="sans-serif" font-size="14" lengthAdjust="spacing" textLength="102.0736" x="203.28" y="423.3218">p12_path : Path</text><text fill="#000000" font-family="sans-serif" font-size="14" lengthAdjust="spacing" textLength="152.8234" x="203.28" y="442.3897">passphrase_path : Path</text><text fill="#000000" font-family="sans-serif" font-size="14" lengthAdjust="spacing" textLength="112.9096" x="203.28" y="461.4576">serial_path : Path</text><text fill="#000000" font-family="sans-serif" font-size="14" lengthAdjust="spacing" textLength="56.1538" x="203.28" y="480.5255">slug : str</text><text fill="#000000" font-family="sans-serif" font-size="14" lengthAdjust="spacing" textLength="153.0194" x="203.28" y="499.5934">staged_p12_path : Path</text><text fill="#000000" font-family="sans-serif" font-size="14" lengthAdjust="spacing" textLength="171.1914" x="203.28" y="518.6614">staged_profile_path : Path</text><line style="stroke:#181818;stroke-width:0.5;" x1="198.28" x2="379.4714" y1="526.7633" y2="526.7633"/></g><!--class check_wireguard_endpoint.MonitorConfig--><g class="entity" data-qualified-name="check_wireguard_endpoint.MonitorConfig" data-source-line="55" id="ent0010"><rect fill="#F1F1F1" height="219.6113" rx="2.5" ry="2.5" style="stroke:#181818;stroke-width:0.5;" width="242.9851" x="1071.38" y="16.54"/><ellipse cx="1140.7497" cy="32.54" fill="#ADD1B2" rx="11" ry="11" style="stroke:#181818;stroke-width:1;"/><path d="M1140.8591,27.8213 Q1139.9372,27.8213 1139.2029,28.1338 Q1138.4841,28.4463 1137.9841,29.04 Q1137.4841,29.6181 1137.2029,30.4931 Q1136.9372,31.3681 1136.9372,32.4619 Q1136.9372,33.8994 1137.3747,34.9463 Q1137.8279,35.9931 1138.6716,36.54 Q1139.531,37.0869 1140.8435,37.0869 Q1141.6247,37.0869 1142.3122,36.9619 Q1143.0154,36.8213 1144.0154,36.5088 L1144.0154,38.3838 Q1143.156,38.7119 1142.3904,38.8369 Q1141.6404,38.9619 1140.6247,38.9619 Q1138.7029,38.9619 1137.3904,38.165 Q1136.0935,37.3525 1135.4372,35.8838 Q1134.781,34.3994 1134.781,32.4306 Q1134.781,31.0088 1135.1716,29.8369 Q1135.5779,28.6494 1136.3591,27.7744 Q1137.1404,26.8994 1138.281,26.4306 Q1139.4216,25.9463 1140.8904,25.9463 Q1141.8435,25.9463 1142.7341,26.1494 Q1143.6404,26.3369 1144.5779,26.8056 L1143.7497,28.5869 Q1142.9685,28.2119 1142.3122,28.0244 Q1141.656,27.8213 1140.8591,27.8213 Z " fill="#000000"/><text fill="#000000" font-family="sans-serif" font-size="14" lengthAdjust="spacing" textLength="95.7456" x="1161.2497" y="37.972">MonitorConfig</text><line style="stroke:#181818;stroke-width:0.5;" x1="1072.38" x2="1313.3651" y1="48.54" y2="48.54"/><text fill="#000000" font-family="sans-serif" font-size="14" lengthAdjust="spacing" textLength="173.2073" x="1077.38" y="67.5059">bind_interface : str | None</text><text fill="#000000" font-family="sans-serif" font-size="14" lengthAdjust="spacing" textLength="118.3275" x="1077.38" y="86.5739">config_path : Path</text><text fill="#000000" font-family="sans-serif" font-size="14" lengthAdjust="spacing" textLength="36.0639" x="1077.38" y="105.6418">email</text><text fill="#000000" font-family="sans-serif" font-size="14" lengthAdjust="spacing" textLength="95.2556" x="1077.38" y="124.7097">host_label : str</text><text fill="#000000" font-family="sans-serif" font-size="14" lengthAdjust="spacing" textLength="207.8852" x="1077.38" y="143.7776">profiles : tuple[ProfileConfig, ...]</text><text fill="#000000" font-family="sans-serif" font-size="14" lengthAdjust="spacing" textLength="230.9851" x="1077.38" y="162.8455">public_ip_lookup_urls : tuple[str, ...]</text><text fill="#000000" font-family="sans-serif" font-size="14" lengthAdjust="spacing" textLength="151.5774" x="1077.38" y="181.9134">shock_relay_root : Path</text><text fill="#000000" font-family="sans-serif" font-size="14" lengthAdjust="spacing" textLength="39.0459" x="1077.38" y="200.9814">signal</text><text fill="#000000" font-family="sans-serif" font-size="14" lengthAdjust="spacing" textLength="99.7776" x="1077.38" y="220.0493">state_file : Path</text><line style="stroke:#181818;stroke-width:0.5;" x1="1072.38" x2="1313.3651" y1="228.1513" y2="228.1513"/></g><!--class check_wireguard_endpoint.MonitorError--><g class="entity" data-qualified-name="check_wireguard_endpoint.MonitorError" data-source-line="66" id="ent0011"><rect fill="#F1F1F1" height="48" rx="2.5" ry="2.5" style="stroke:#181818;stroke-width:0.5;" width="118.3377" x="415.71" y="410.49"/><ellipse cx="430.71" cy="426.49" fill="#ADD1B2" rx="11" ry="11" style="stroke:#181818;stroke-width:1;"/><path d="M430.8194,421.7713 Q429.8975,421.7713 429.1631,422.0838 Q428.4444,422.3963 427.9444,422.99 Q427.4444,423.5681 427.1631,424.4431 Q426.8975,425.3181 426.8975,426.4119 Q426.8975,427.8494 427.335,428.8963 Q427.7881,429.9431 428.6319,430.49 Q429.4913,431.0369 430.8038,431.0369 Q431.585,431.0369 432.2725,430.9119 Q432.9756,430.7713 433.9756,430.4588 L433.9756,432.3338 Q433.1163,432.6619 432.3506,432.7869 Q431.6006,432.9119 430.585,432.9119 Q428.6631,432.9119 427.3506,432.115 Q426.0538,431.3025 425.3975,429.8338 Q424.7413,428.3494 424.7413,426.3806 Q424.7413,424.9588 425.1319,423.7869 Q425.5381,422.5994 426.3194,421.7244 Q427.1006,420.8494 428.2413,420.3806 Q429.3819,419.8963 430.8506,419.8963 Q431.8038,419.8963 432.6944,420.0994 Q433.6006,420.2869 434.5381,420.7556 L433.71,422.5369 Q432.9288,422.1619 432.2725,421.9744 Q431.6163,421.7713 430.8194,421.7713 Z " fill="#000000"/><text fill="#FF0000" font-family="sans-serif" font-size="14" lengthAdjust="spacing" textLength="86.3377" x="444.71" y="431.922">MonitorError</text><line style="stroke:#181818;stroke-width:0.5;" x1="416.71" x2="533.0477" y1="442.49" y2="442.49"/><line style="stroke:#181818;stroke-width:0.5;" x1="416.71" x2="533.0477" y1="450.49" y2="450.49"/></g><!--class check_wireguard_endpoint.MonitorOutcome--><g class="entity" data-qualified-name="check_wireguard_endpoint.MonitorOutcome" data-source-line="68" id="ent0012"><rect fill="#F1F1F1" height="219.6113" rx="2.5" ry="2.5" style="stroke:#181818;stroke-width:0.5;" width="268.773" x="569.49" y="324.68"/><ellipse cx="642.8497" cy="340.68" fill="#ADD1B2" rx="11" ry="11" style="stroke:#181818;stroke-width:1;"/><path d="M642.9591,335.9613 Q642.0372,335.9613 641.3028,336.2738 Q640.5841,336.5863 640.0841,337.18 Q639.5841,337.7581 639.3028,338.6331 Q639.0372,339.5081 639.0372,340.6019 Q639.0372,342.0394 639.4747,343.0863 Q639.9278,344.1331 640.7716,344.68 Q641.631,345.2269 642.9435,345.2269 Q643.7247,345.2269 644.4122,345.1019 Q645.1153,344.9613 646.1153,344.6488 L646.1153,346.5238 Q645.256,346.8519 644.4903,346.9769 Q643.7403,347.1019 642.7247,347.1019 Q640.8028,347.1019 639.4903,346.305 Q638.1935,345.4925 637.5372,344.0238 Q636.881,342.5394 636.881,340.5706 Q636.881,339.1488 637.2716,337.9769 Q637.6778,336.7894 638.4591,335.9144 Q639.2403,335.0394 640.381,334.5706 Q641.5216,334.0863 642.9903,334.0863 Q643.9435,334.0863 644.8341,334.2894 Q645.7403,334.4769 646.6778,334.9456 L645.8497,336.7269 Q645.0685,336.3519 644.4122,336.1644 Q643.756,335.9613 642.9591,335.9613 Z " fill="#000000"/><text fill="#000000" font-family="sans-serif" font-size="14" lengthAdjust="spacing" textLength="113.5536" x="663.3497" y="346.112">MonitorOutcome</text><line style="stroke:#181818;stroke-width:0.5;" x1="570.49" x2="837.263" y1="356.68" y2="356.68"/><text fill="#000000" font-family="sans-serif" font-size="14" lengthAdjust="spacing" textLength="142.8835" x="575.49" y="375.6459">current_endpoint : str</text><text fill="#000000" font-family="sans-serif" font-size="14" lengthAdjust="spacing" textLength="169.9033" x="575.49" y="394.7139">email_retry_needed : bool</text><text fill="#000000" font-family="sans-serif" font-size="14" lengthAdjust="spacing" textLength="110.7816" x="575.49" y="413.7818">email_sent : bool</text><text fill="#000000" font-family="sans-serif" font-size="14" lengthAdjust="spacing" textLength="162.9594" x="575.49" y="432.8497">endpoint_changed : bool</text><text fill="#000000" font-family="sans-serif" font-size="14" lengthAdjust="spacing" textLength="256.773" x="575.49" y="451.9176">profile_outcomes : list[ProfileOutcome]</text><text fill="#000000" font-family="sans-serif" font-size="14" lengthAdjust="spacing" textLength="86.8277" x="575.49" y="470.9855">public_ip : str</text><text fill="#000000" font-family="sans-serif" font-size="14" lengthAdjust="spacing" textLength="178.4993" x="575.49" y="490.0534">regenerated_qrs : list[Path]</text><text fill="#000000" font-family="sans-serif" font-size="14" lengthAdjust="spacing" textLength="172.8853" x="575.49" y="509.1214">signal_retry_needed : bool</text><text fill="#000000" font-family="sans-serif" font-size="14" lengthAdjust="spacing" textLength="113.7636" x="575.49" y="528.1893">signal_sent : bool</text><line style="stroke:#181818;stroke-width:0.5;" x1="570.49" x2="837.263" y1="536.2913" y2="536.2913"/></g><!--class export_caddy_mtls_profile.Ownership--><g class="entity" data-qualified-name="export_caddy_mtls_profile.Ownership" data-source-line="79" id="ent0013"><rect fill="#F1F1F1" height="124.2717" rx="2.5" ry="2.5" style="stroke:#181818;stroke-width:0.5;" width="126.0856" x="872.83" y="372.35"/><ellipse cx="897.837" cy="388.35" fill="#ADD1B2" rx="11" ry="11" style="stroke:#181818;stroke-width:1;"/><path d="M897.9464,383.6313 Q897.0245,383.6313 896.2902,383.9438 Q895.5714,384.2563 895.0714,384.85 Q894.5714,385.4281 894.2902,386.3031 Q894.0245,387.1781 894.0245,388.2719 Q894.0245,389.7094 894.462,390.7563 Q894.9152,391.8031 895.7589,392.35 Q896.6183,392.8969 897.9308,392.8969 Q898.712,392.8969 899.3995,392.7719 Q900.1027,392.6313 901.1027,392.3188 L901.1027,394.1938 Q900.2433,394.5219 899.4777,394.6469 Q898.7277,394.7719 897.712,394.7719 Q895.7902,394.7719 894.4777,393.975 Q893.1808,393.1625 892.5245,391.6938 Q891.8683,390.2094 891.8683,388.2406 Q891.8683,386.8188 892.2589,385.6469 Q892.6652,384.4594 893.4464,383.5844 Q894.2277,382.7094 895.3683,382.2406 Q896.5089,381.7563 897.9777,381.7563 Q898.9308,381.7563 899.8214,381.9594 Q900.7277,382.1469 901.6652,382.6156 L900.837,384.3969 Q900.0558,384.0219 899.3995,383.8344 Q898.7433,383.6313 897.9464,383.6313 Z " fill="#000000"/><text fill="#000000" font-family="sans-serif" font-size="14" lengthAdjust="spacing" textLength="71.8477" x="914.0608" y="393.782">Ownership</text><line style="stroke:#181818;stroke-width:0.5;" x1="873.83" x2="997.9156" y1="404.35" y2="404.35"/><text fill="#000000" font-family="sans-serif" font-size="14" lengthAdjust="spacing" textLength="49.1818" x="878.83" y="423.3159">gid : int</text><text fill="#000000" font-family="sans-serif" font-size="14" lengthAdjust="spacing" textLength="112.4056" x="878.83" y="442.3839">group_name : str</text><text fill="#000000" font-family="sans-serif" font-size="14" lengthAdjust="spacing" textLength="114.0856" x="878.83" y="461.4518">owner_name : str</text><text fill="#000000" font-family="sans-serif" font-size="14" lengthAdjust="spacing" textLength="49.2238" x="878.83" y="480.5197">uid : int</text><line style="stroke:#181818;stroke-width:0.5;" x1="873.83" x2="997.9156" y1="488.6217" y2="488.6217"/></g><!--class export_caddy_root_profile.Ownership--><g class="entity" data-qualified-name="export_caddy_root_profile.Ownership" data-source-line="85" id="ent0014"><rect fill="#F1F1F1" height="124.2717" rx="2.5" ry="2.5" style="stroke:#181818;stroke-width:0.5;" width="126.0856" x="21.83" y="681.57"/><ellipse cx="46.837" cy="697.57" fill="#ADD1B2" rx="11" ry="11" style="stroke:#181818;stroke-width:1;"/><path d="M46.9464,692.8513 Q46.0245,692.8513 45.2902,693.1638 Q44.5714,693.4763 44.0714,694.07 Q43.5714,694.6481 43.2902,695.5231 Q43.0245,696.3981 43.0245,697.4919 Q43.0245,698.9294 43.462,699.9763 Q43.9152,701.0231 44.7589,701.57 Q45.6183,702.1169 46.9308,702.1169 Q47.712,702.1169 48.3995,701.9919 Q49.1027,701.8513 50.1027,701.5388 L50.1027,703.4138 Q49.2433,703.7419 48.4777,703.8669 Q47.7277,703.9919 46.712,703.9919 Q44.7902,703.9919 43.4777,703.195 Q42.1808,702.3825 41.5245,700.9138 Q40.8683,699.4294 40.8683,697.4606 Q40.8683,696.0388 41.2589,694.8669 Q41.6652,693.6794 42.4464,692.8044 Q43.2277,691.9294 44.3683,691.4606 Q45.5089,690.9763 46.9777,690.9763 Q47.9308,690.9763 48.8214,691.1794 Q49.7277,691.3669 50.6652,691.8356 L49.837,693.6169 Q49.0558,693.2419 48.3995,693.0544 Q47.7433,692.8513 46.9464,692.8513 Z " fill="#000000"/><text fill="#000000" font-family="sans-serif" font-size="14" lengthAdjust="spacing" textLength="71.8477" x="63.0608" y="703.002">Ownership</text><line style="stroke:#181818;stroke-width:0.5;" x1="22.83" x2="146.9156" y1="713.57" y2="713.57"/><text fill="#000000" font-family="sans-serif" font-size="14" lengthAdjust="spacing" textLength="49.1818" x="27.83" y="732.5359">gid : int</text><text fill="#000000" font-family="sans-serif" font-size="14" lengthAdjust="spacing" textLength="112.4056" x="27.83" y="751.6039">group_name : str</text><text fill="#000000" font-family="sans-serif" font-size="14" lengthAdjust="spacing" textLength="114.0856" x="27.83" y="770.6718">owner_name : str</text><text fill="#000000" font-family="sans-serif" font-size="14" lengthAdjust="spacing" textLength="49.2238" x="27.83" y="789.7397">uid : int</text><line style="stroke:#181818;stroke-width:0.5;" x1="22.83" x2="146.9156" y1="797.8417" y2="797.8417"/></g><!--class check_wireguard_endpoint.ProfileConfig--><g class="entity" data-qualified-name="check_wireguard_endpoint.ProfileConfig" data-source-line="91" id="ent0015"><rect fill="#F1F1F1" height="105.2038" rx="2.5" ry="2.5" style="stroke:#181818;stroke-width:0.5;" width="130.3275" x="182.71" y="691.1"/><ellipse cx="203.4078" cy="707.1" fill="#ADD1B2" rx="11" ry="11" style="stroke:#181818;stroke-width:1;"/><path d="M203.5172,702.3813 Q202.5953,702.3813 201.861,702.6938 Q201.1422,703.0063 200.6422,703.6 Q200.1422,704.1781 199.861,705.0531 Q199.5953,705.9281 199.5953,707.0219 Q199.5953,708.4594 200.0328,709.5063 Q200.486,710.5531 201.3297,711.1 Q202.1891,711.6469 203.5016,711.6469 Q204.2828,711.6469 204.9703,711.5219 Q205.6735,711.3813 206.6735,711.0688 L206.6735,712.9438 Q205.8141,713.2719 205.0485,713.3969 Q204.2985,713.5219 203.2828,713.5219 Q201.361,713.5219 200.0485,712.725 Q198.7516,711.9125 198.0953,710.4438 Q197.4391,708.9594 197.4391,706.9906 Q197.4391,705.5688 197.8297,704.3969 Q198.236,703.2094 199.0172,702.3344 Q199.7985,701.4594 200.9391,700.9906 Q202.0797,700.5063 203.5485,700.5063 Q204.5016,700.5063 205.3922,700.7094 Q206.2985,700.8969 207.236,701.3656 L206.4078,703.1469 Q205.6266,702.7719 204.9703,702.5844 Q204.3141,702.3813 203.5172,702.3813 Z " fill="#000000"/><text fill="#000000" font-family="sans-serif" font-size="14" lengthAdjust="spacing" textLength="85.6657" x="218.674" y="712.532">ProfileConfig</text><line style="stroke:#181818;stroke-width:0.5;" x1="183.71" x2="312.0375" y1="723.1" y2="723.1"/><text fill="#000000" font-family="sans-serif" font-size="14" lengthAdjust="spacing" textLength="118.3275" x="188.71" y="742.0659">config_path : Path</text><text fill="#000000" font-family="sans-serif" font-size="14" lengthAdjust="spacing" textLength="66.0658" x="188.71" y="761.1339">name : str</text><text fill="#000000" font-family="sans-serif" font-size="14" lengthAdjust="spacing" textLength="91.8397" x="188.71" y="780.2018">qr_path : Path</text><line style="stroke:#181818;stroke-width:0.5;" x1="183.71" x2="312.0375" y1="788.3038" y2="788.3038"/></g><!--class check_wireguard_endpoint.ProfileOutcome--><g class="entity" data-qualified-name="check_wireguard_endpoint.ProfileOutcome" data-source-line="96" id="ent0016"><rect fill="#F1F1F1" height="162.4075" rx="2.5" ry="2.5" style="stroke:#181818;stroke-width:0.5;" width="135.4736" x="348.14" y="662.5"/><ellipse cx="363.14" cy="678.5" fill="#ADD1B2" rx="11" ry="11" style="stroke:#181818;stroke-width:1;"/><path d="M363.2494,673.7813 Q362.3275,673.7813 361.5931,674.0938 Q360.8744,674.4063 360.3744,675 Q359.8744,675.5781 359.5931,676.4531 Q359.3275,677.3281 359.3275,678.4219 Q359.3275,679.8594 359.765,680.9063 Q360.2181,681.9531 361.0619,682.5 Q361.9213,683.0469 363.2338,683.0469 Q364.015,683.0469 364.7025,682.9219 Q365.4056,682.7813 366.4056,682.4688 L366.4056,684.3438 Q365.5463,684.6719 364.7806,684.7969 Q364.0306,684.9219 363.015,684.9219 Q361.0931,684.9219 359.7806,684.125 Q358.4838,683.3125 357.8275,681.8438 Q357.1713,680.3594 357.1713,678.3906 Q357.1713,676.9688 357.5619,675.7969 Q357.9681,674.6094 358.7494,673.7344 Q359.5306,672.8594 360.6713,672.3906 Q361.8119,671.9063 363.2806,671.9063 Q364.2338,671.9063 365.1244,672.1094 Q366.0306,672.2969 366.9681,672.7656 L366.14,674.5469 Q365.3588,674.1719 364.7025,673.9844 Q364.0463,673.7813 363.2494,673.7813 Z " fill="#000000"/><text fill="#000000" font-family="sans-serif" font-size="14" lengthAdjust="spacing" textLength="103.4736" x="377.14" y="683.932">ProfileOutcome</text><line style="stroke:#181818;stroke-width:0.5;" x1="349.14" x2="482.6136" y1="694.5" y2="694.5"/><text fill="#000000" font-family="sans-serif" font-size="14" lengthAdjust="spacing" textLength="97.1876" x="354.14" y="713.4659">changed : bool</text><text fill="#000000" font-family="sans-serif" font-size="14" lengthAdjust="spacing" textLength="118.3275" x="354.14" y="732.5339">config_path : Path</text><text fill="#000000" font-family="sans-serif" font-size="14" lengthAdjust="spacing" textLength="66.0658" x="354.14" y="751.6018">name : str</text><text fill="#000000" font-family="sans-serif" font-size="14" lengthAdjust="spacing" textLength="121.8975" x="354.14" y="770.6697">new_endpoint : str</text><text fill="#000000" font-family="sans-serif" font-size="14" lengthAdjust="spacing" textLength="115.0376" x="354.14" y="789.7376">old_endpoint : str</text><text fill="#000000" font-family="sans-serif" font-size="14" lengthAdjust="spacing" textLength="91.8397" x="354.14" y="808.8055">qr_path : Path</text><line style="stroke:#181818;stroke-width:0.5;" x1="349.14" x2="482.6136" y1="816.9075" y2="816.9075"/></g><!--class setup_filebrowser_access.RuntimeSpec--><g class="entity" data-qualified-name="setup_filebrowser_access.RuntimeSpec" data-source-line="104" id="ent0017"><rect fill="#F1F1F1" height="276.815" rx="2.5" ry="2.5" style="stroke:#181818;stroke-width:0.5;" width="212.6892" x="518.53" y="605.29"/><ellipse cx="577.3368" cy="621.29" fill="#ADD1B2" rx="11" ry="11" style="stroke:#181818;stroke-width:1;"/><path d="M577.4462,616.5713 Q576.5243,616.5713 575.7899,616.8838 Q575.0712,617.1963 574.5712,617.79 Q574.0712,618.3681 573.7899,619.2431 Q573.5243,620.1181 573.5243,621.2119 Q573.5243,622.6494 573.9618,623.6963 Q574.4149,624.7431 575.2587,625.29 Q576.118,625.8369 577.4305,625.8369 Q578.2118,625.8369 578.8993,625.7119 Q579.6024,625.5713 580.6024,625.2588 L580.6024,627.1338 Q579.743,627.4619 578.9774,627.5869 Q578.2274,627.7119 577.2118,627.7119 Q575.2899,627.7119 573.9774,626.915 Q572.6805,626.1025 572.0243,624.6338 Q571.368,623.1494 571.368,621.1806 Q571.368,619.7588 571.7587,618.5869 Q572.1649,617.3994 572.9462,616.5244 Q573.7274,615.6494 574.868,615.1806 Q576.0087,614.6963 577.4774,614.6963 Q578.4305,614.6963 579.3212,614.8994 Q580.2274,615.0869 581.1649,615.5556 L580.3368,617.3369 Q579.5555,616.9619 578.8993,616.7744 Q578.243,616.5713 577.4462,616.5713 Z " fill="#000000"/><text fill="#000000" font-family="sans-serif" font-size="14" lengthAdjust="spacing" textLength="86.5757" x="597.8368" y="626.722">RuntimeSpec</text><line style="stroke:#181818;stroke-width:0.5;" x1="519.53" x2="730.2192" y1="637.29" y2="637.29"/><text fill="#000000" font-family="sans-serif" font-size="14" lengthAdjust="spacing" textLength="134.9735" x="524.53" y="656.2559">container_name : str</text><text fill="#000000" font-family="sans-serif" font-size="14" lengthAdjust="spacing" textLength="150.2194" x="524.53" y="675.3239">container_runtime : str</text><text fill="#000000" font-family="sans-serif" font-size="14" lengthAdjust="spacing" textLength="125.3976" x="524.53" y="694.3918">database_path : str</text><text fill="#000000" font-family="sans-serif" font-size="14" lengthAdjust="spacing" textLength="200.6892" x="524.53" y="713.4597">filebrowser_image : str | None</text><text fill="#000000" font-family="sans-serif" font-size="14" lengthAdjust="spacing" textLength="66.6398" x="524.53" y="732.5276">mode : str</text><text fill="#000000" font-family="sans-serif" font-size="14" lengthAdjust="spacing" textLength="133.0135" x="524.53" y="751.5955">restart_strategy : str</text><text fill="#000000" font-family="sans-serif" font-size="14" lengthAdjust="spacing" textLength="130.7735" x="524.53" y="770.6634">run_as_account : str</text><text fill="#000000" font-family="sans-serif" font-size="14" lengthAdjust="spacing" textLength="169.4274" x="524.53" y="789.7314">run_as_group : str | None</text><text fill="#000000" font-family="sans-serif" font-size="14" lengthAdjust="spacing" textLength="151.9834" x="524.53" y="808.7993">share_mount_path : str</text><text fill="#000000" font-family="sans-serif" font-size="14" lengthAdjust="spacing" textLength="187.1512" x="524.53" y="827.8672">sync_web_env_uid_gid : bool</text><text fill="#000000" font-family="sans-serif" font-size="14" lengthAdjust="spacing" textLength="124.5995" x="524.53" y="846.9351">web_env_file : Path</text><text fill="#000000" font-family="sans-serif" font-size="14" lengthAdjust="spacing" textLength="154.4054" x="524.53" y="866.003">web_setup_script : Path</text><line style="stroke:#181818;stroke-width:0.5;" x1="519.53" x2="730.2192" y1="874.105" y2="874.105"/></g><!--class export_caddy_mtls_profile.SetupError--><g class="entity" data-qualified-name="export_caddy_mtls_profile.SetupError" data-source-line="118" id="ent0018"><rect fill="#F1F1F1" height="48" rx="2.5" ry="2.5" style="stroke:#181818;stroke-width:0.5;" width="103.4977" x="766.13" y="719.7"/><ellipse cx="781.13" cy="735.7" fill="#ADD1B2" rx="11" ry="11" style="stroke:#181818;stroke-width:1;"/><path d="M781.2394,730.9813 Q780.3175,730.9813 779.5831,731.2938 Q778.8644,731.6063 778.3644,732.2 Q777.8644,732.7781 777.5831,733.6531 Q777.3175,734.5281 777.3175,735.6219 Q777.3175,737.0594 777.755,738.1063 Q778.2081,739.1531 779.0519,739.7 Q779.9113,740.2469 781.2238,740.2469 Q782.005,740.2469 782.6925,740.1219 Q783.3956,739.9813 784.3956,739.6688 L784.3956,741.5438 Q783.5363,741.8719 782.7706,741.9969 Q782.0206,742.1219 781.005,742.1219 Q779.0831,742.1219 777.7706,741.325 Q776.4738,740.5125 775.8175,739.0438 Q775.1613,737.5594 775.1613,735.5906 Q775.1613,734.1688 775.5519,732.9969 Q775.9581,731.8094 776.7394,730.9344 Q777.5206,730.0594 778.6613,729.5906 Q779.8019,729.1063 781.2706,729.1063 Q782.2238,729.1063 783.1144,729.3094 Q784.0206,729.4969 784.9581,729.9656 L784.13,731.7469 Q783.3488,731.3719 782.6925,731.1844 Q782.0363,730.9813 781.2394,730.9813 Z " fill="#000000"/><text fill="#FF0000" font-family="sans-serif" font-size="14" lengthAdjust="spacing" textLength="71.4977" x="795.13" y="741.132">SetupError</text><line style="stroke:#181818;stroke-width:0.5;" x1="767.13" x2="868.6277" y1="751.7" y2="751.7"/><line style="stroke:#181818;stroke-width:0.5;" x1="767.13" x2="868.6277" y1="759.7" y2="759.7"/></g><!--class export_caddy_root_profile.SetupError--><g class="entity" data-qualified-name="export_caddy_root_profile.SetupError" data-source-line="120" id="ent0019"><rect fill="#F1F1F1" height="48" rx="2.5" ry="2.5" style="stroke:#181818;stroke-width:0.5;" width="103.4977" x="33.13" y="981.24"/><ellipse cx="48.13" cy="997.24" fill="#ADD1B2" rx="11" ry="11" style="stroke:#181818;stroke-width:1;"/><path d="M48.2394,992.5213 Q47.3175,992.5213 46.5831,992.8338 Q45.8644,993.1463 45.3644,993.74 Q44.8644,994.3181 44.5831,995.1931 Q44.3175,996.0681 44.3175,997.1619 Q44.3175,998.5994 44.755,999.6463 Q45.2081,1000.6931 46.0519,1001.24 Q46.9112,1001.7869 48.2237,1001.7869 Q49.005,1001.7869 49.6925,1001.6619 Q50.3956,1001.5213 51.3956,1001.2088 L51.3956,1003.0838 Q50.5362,1003.4119 49.7706,1003.5369 Q49.0206,1003.6619 48.005,1003.6619 Q46.0831,1003.6619 44.7706,1002.865 Q43.4737,1002.0525 42.8175,1000.5838 Q42.1612,999.0994 42.1612,997.1306 Q42.1612,995.7088 42.5519,994.5369 Q42.9581,993.3494 43.7394,992.4744 Q44.5206,991.5994 45.6612,991.1306 Q46.8019,990.6463 48.2706,990.6463 Q49.2237,990.6463 50.1144,990.8494 Q51.0206,991.0369 51.9581,991.5056 L51.13,993.2869 Q50.3487,992.9119 49.6925,992.7244 Q49.0362,992.5213 48.2394,992.5213 Z " fill="#000000"/><text fill="#FF0000" font-family="sans-serif" font-size="14" lengthAdjust="spacing" textLength="71.4977" x="62.13" y="1002.672">SetupError</text><line style="stroke:#181818;stroke-width:0.5;" x1="34.13" x2="135.6277" y1="1013.24" y2="1013.24"/><line style="stroke:#181818;stroke-width:0.5;" x1="34.13" x2="135.6277" y1="1021.24" y2="1021.24"/></g><!--class setup_filebrowser_access.SetupError--><g class="entity" data-qualified-name="setup_filebrowser_access.SetupError" data-source-line="122" id="ent0020"><rect fill="#F1F1F1" height="48" rx="2.5" ry="2.5" style="stroke:#181818;stroke-width:0.5;" width="103.4977" x="171.13" y="981.24"/><ellipse cx="186.13" cy="997.24" fill="#ADD1B2" rx="11" ry="11" style="stroke:#181818;stroke-width:1;"/><path d="M186.2394,992.5213 Q185.3175,992.5213 184.5831,992.8338 Q183.8644,993.1463 183.3644,993.74 Q182.8644,994.3181 182.5831,995.1931 Q182.3175,996.0681 182.3175,997.1619 Q182.3175,998.5994 182.755,999.6463 Q183.2081,1000.6931 184.0519,1001.24 Q184.9113,1001.7869 186.2238,1001.7869 Q187.005,1001.7869 187.6925,1001.6619 Q188.3956,1001.5213 189.3956,1001.2088 L189.3956,1003.0838 Q188.5363,1003.4119 187.7706,1003.5369 Q187.0206,1003.6619 186.005,1003.6619 Q184.0831,1003.6619 182.7706,1002.865 Q181.4738,1002.0525 180.8175,1000.5838 Q180.1613,999.0994 180.1613,997.1306 Q180.1613,995.7088 180.5519,994.5369 Q180.9581,993.3494 181.7394,992.4744 Q182.5206,991.5994 183.6613,991.1306 Q184.8019,990.6463 186.2706,990.6463 Q187.2238,990.6463 188.1144,990.8494 Q189.0206,991.0369 189.9581,991.5056 L189.13,993.2869 Q188.3488,992.9119 187.6925,992.7244 Q187.0363,992.5213 186.2394,992.5213 Z " fill="#000000"/><text fill="#FF0000" font-family="sans-serif" font-size="14" lengthAdjust="spacing" textLength="71.4977" x="200.13" y="1002.672">SetupError</text><line style="stroke:#181818;stroke-width:0.5;" x1="172.13" x2="273.6277" y1="1013.24" y2="1013.24"/><line style="stroke:#181818;stroke-width:0.5;" x1="172.13" x2="273.6277" y1="1021.24" y2="1021.24"/></g><!--class check_wireguard_endpoint.SignalConfig--><g class="entity" data-qualified-name="check_wireguard_endpoint.SignalConfig" data-source-line="124" id="ent0021"><rect fill="#F1F1F1" height="143.3396" rx="2.5" ry="2.5" style="stroke:#181818;stroke-width:0.5;" width="141.3035" x="1210.22" y="362.82"/><ellipse cx="1237.0414" cy="378.82" fill="#ADD1B2" rx="11" ry="11" style="stroke:#181818;stroke-width:1;"/><path d="M1237.1508,374.1013 Q1236.2289,374.1013 1235.4946,374.4138 Q1234.7758,374.7263 1234.2758,375.32 Q1233.7758,375.8981 1233.4946,376.7731 Q1233.2289,377.6481 1233.2289,378.7419 Q1233.2289,380.1794 1233.6664,381.2263 Q1234.1196,382.2731 1234.9633,382.82 Q1235.8227,383.3669 1237.1352,383.3669 Q1237.9164,383.3669 1238.6039,383.2419 Q1239.3071,383.1013 1240.3071,382.7888 L1240.3071,384.6638 Q1239.4477,384.9919 1238.6821,385.1169 Q1237.9321,385.2419 1236.9164,385.2419 Q1234.9946,385.2419 1233.6821,384.445 Q1232.3852,383.6325 1231.7289,382.1638 Q1231.0727,380.6794 1231.0727,378.7106 Q1231.0727,377.2888 1231.4633,376.1169 Q1231.8696,374.9294 1232.6508,374.0544 Q1233.4321,373.1794 1234.5727,372.7106 Q1235.7133,372.2263 1237.1821,372.2263 Q1238.1352,372.2263 1239.0258,372.4294 Q1239.9321,372.6169 1240.8696,373.0856 L1240.0414,374.8669 Q1239.2602,374.4919 1238.6039,374.3044 Q1237.9477,374.1013 1237.1508,374.1013 Z " fill="#000000"/><text fill="#000000" font-family="sans-serif" font-size="14" lengthAdjust="spacing" textLength="83.0337" x="1253.6684" y="384.252">SignalConfig</text><line style="stroke:#181818;stroke-width:0.5;" x1="1211.22" x2="1350.5235" y1="394.82" y2="394.82"/><text fill="#000000" font-family="sans-serif" font-size="14" lengthAdjust="spacing" textLength="118.3275" x="1216.22" y="413.7859">config_path : Path</text><text fill="#000000" font-family="sans-serif" font-size="14" lengthAdjust="spacing" textLength="93.3236" x="1216.22" y="432.8539">enabled : bool</text><text fill="#000000" font-family="sans-serif" font-size="14" lengthAdjust="spacing" textLength="119.2515" x="1216.22" y="451.9218">note_to_self : bool</text><text fill="#000000" font-family="sans-serif" font-size="14" lengthAdjust="spacing" textLength="86.4077" x="1216.22" y="470.9897">recipient : str</text><text fill="#000000" font-family="sans-serif" font-size="14" lengthAdjust="spacing" textLength="129.3035" x="1216.22" y="490.0576">sender_script : Path</text><line style="stroke:#181818;stroke-width:0.5;" x1="1211.22" x2="1350.5235" y1="498.1596" y2="498.1596"/></g><!--class setup_filebrowser_access.UserSpec--><g class="entity" data-qualified-name="setup_filebrowser_access.UserSpec" data-source-line="131" id="ent0022"><rect fill="#F1F1F1" height="124.2717" rx="2.5" ry="2.5" style="stroke:#181818;stroke-width:0.5;" width="107.1016" x="309.32" y="943.11"/><ellipse cx="330.4273" cy="959.11" fill="#ADD1B2" rx="11" ry="11" style="stroke:#181818;stroke-width:1;"/><path d="M330.5367,954.3913 Q329.6148,954.3913 328.8805,954.7038 Q328.1617,955.0163 327.6617,955.61 Q327.1617,956.1881 326.8805,957.0631 Q326.6148,957.9381 326.6148,959.0319 Q326.6148,960.4694 327.0523,961.5163 Q327.5055,962.5631 328.3492,963.11 Q329.2086,963.6569 330.5211,963.6569 Q331.3023,963.6569 331.9898,963.5319 Q332.693,963.3913 333.693,963.0788 L333.693,964.9538 Q332.8336,965.2819 332.068,965.4069 Q331.318,965.5319 330.3023,965.5319 Q328.3805,965.5319 327.068,964.735 Q325.7711,963.9225 325.1148,962.4538 Q324.4586,960.9694 324.4586,959.0006 Q324.4586,957.5788 324.8492,956.4069 Q325.2555,955.2194 326.0367,954.3444 Q326.818,953.4694 327.9586,953.0006 Q329.0992,952.5163 330.568,952.5163 Q331.5211,952.5163 332.4117,952.7194 Q333.318,952.9069 334.2555,953.3756 L333.4273,955.1569 Q332.6461,954.7819 331.9898,954.5944 Q331.3336,954.3913 330.5367,954.3913 Z " fill="#000000"/><text fill="#000000" font-family="sans-serif" font-size="14" lengthAdjust="spacing" textLength="61.5298" x="345.7845" y="964.542">UserSpec</text><line style="stroke:#181818;stroke-width:0.5;" x1="310.32" x2="415.4216" y1="975.11" y2="975.11"/><text fill="#000000" font-family="sans-serif" font-size="14" lengthAdjust="spacing" textLength="82.0117" x="315.32" y="994.0759">admin : bool</text><text fill="#000000" font-family="sans-serif" font-size="14" lengthAdjust="spacing" textLength="92.3157" x="315.32" y="1013.1439">password : str</text><text fill="#000000" font-family="sans-serif" font-size="14" lengthAdjust="spacing" textLength="66.9758" x="315.32" y="1032.2118">scope : str</text><text fill="#000000" font-family="sans-serif" font-size="14" lengthAdjust="spacing" textLength="95.1016" x="315.32" y="1051.2797">username : str</text><line style="stroke:#181818;stroke-width:0.5;" x1="310.32" x2="415.4216" y1="1059.3817" y2="1059.3817"/></g><!--link check_wireguard_endpoint.MonitorConfig to check_wireguard_endpoint.EmailConfig--><g class="link" data-entity-1="ent0010" data-entity-2="ent0005" data-link-type="dependency" data-source-line="137" id="lnk23"><path codeLine="137" d="M1161.48,236.57 C1148.4,282.08 1135.3474,327.4634 1124.2074,366.2234" fill="none" id="check_wireguard_endpoint.MonitorConfig-to-check_wireguard_endpoint.EmailConfig" style="stroke:#181818;stroke-width:1;"/><polygon fill="#181818" points="1122.55,371.99,1128.8804,364.4451,1123.9311,367.1845,1121.1917,362.2353,1122.55,371.99" style="stroke:#181818;stroke-width:1;"/><text fill="#000000" font-family="sans-serif" font-size="13" lengthAdjust="spacing" textLength="33.488" x="1149.88" y="290.577">email</text></g><!--link check_wireguard_endpoint.MonitorConfig to check_wireguard_endpoint.SignalConfig--><g class="link" data-entity-1="ent0010" data-entity-2="ent0021" data-link-type="dependency" data-source-line="138" id="lnk24"><path codeLine="138" d="M1224.27,236.57 C1236.32,278.47 1248.0821,319.3936 1258.8321,356.7836" fill="none" id="check_wireguard_endpoint.MonitorConfig-to-check_wireguard_endpoint.SignalConfig" style="stroke:#181818;stroke-width:1;"/><polygon fill="#181818" points="1260.49,362.55,1261.8474,352.7951,1259.1084,357.7447,1254.1589,355.0057,1260.49,362.55" style="stroke:#181818;stroke-width:1;"/><text fill="#000000" font-family="sans-serif" font-size="13" lengthAdjust="spacing" textLength="36.257" x="1240.51" y="290.577">signal</text></g><?plantuml-src jLTDZ-Gq4BtFhuZs11BR28wZrKW83OZ3iYDQS44hot6g4siSErksfwS5_7VASUBOIJVTY-0qqrNFzV5SLQvOS9NcFTY12zZ3m94xWvKs6kw4ujPMRxuRXlq0uat5RMN1-O4Tf88QpT42CYu4MBkRGDKVTrM5nhZglh8Ex_vAHhphRh0oeKOpdMo0ATDApMhldD5aipP6aQe7rvbcyb5L0vhN4-k0Du1HMFrP_HnIc7MUd8GqIssAxfqmok0zGlFmlT47sJuY6dptzIX-o6AkfMwOxJZ2BWDIkCdKOy-bYhhndEX0FBEZH6WznuQ1RWOZjTjbm35TCVxB1kuwYlA9_f0GDAyLD4lcbiuJNrQW7Do2SuRnfa7YS4tyu-JlDwuyN8aeXyOhCDOjB1iCFmYmi8jZE5zyMRrzADt-O1GftXkltNdwCi3eYWl5UjD0SYSGk0FMIskbRfar7WKiH3Hmu5uvjZdN8jUEQAJG77F8Nm1jTcwfWf0IwUIOugH549v4Bn3iPgpFpcUwERRWLdSr2H4KTsGXA3p2ax7oTKGaRdvKfkPg3yvHOlOyFIKcCTIYySEwn8CY57XAgm-iiaRYp0pTMSWYM6PJTqv1Bx8LjgzpPvCayvAo-QaXegKx1OCn6NWDfS84LUI9zKvPHaqOkdrNO6FL0wvvV8RJIZ9yy-rQGgw73hc5bO82b5ojXSgtInwEjz2mhSrP4MCjb2dPzqPBce-tz7S17NCThvTKW0SkO7sBv_i_38cf4PdYDQXyw8KuGyDJxIZu_IaAeiElgjrkzp70VAsaO7AWKMgUgSWygkKCcKf8sndA99JlQLqaijLSHOge9OEN3JFP29qotyxGQrnjXkaa_-2TC3tSP6F2nkBoE4w16PEu6scbL1sUc0PeyWaRTJHdix4m6s2YuxhDqNErcEWsCAjeeioNCKLJN4IAWb803VJWKjLzmkKeyVeniNuXoacPXvbO-t0agxQJmvLkJBYHh5OsgVl7pcV5g3G1N8fyEd6Bwt76_8-kY_B_vr8fe9SVtyBZ9pm_4SgBliblKQBhWheUYORZjgBfDTqAByNy2pqFieVh-rW6d6boN6vkOn5ZF90q3NUypgPqbEQUP4zJTpqBYmUTjXfwMXsZNzGgxMbHUCsu3R6EMyHAVFQfZCzTV1-BaEn92tQ4caXyOLHTBDRaT2cp8fzyKHgfAzUnSpDn7t3RYNYvEPS3-K3yJ8j5p_rRYnUhuxp1_JYPRcd37FaPAx0sz0RHmcj17OhDJGuIiZeukogdC7-bHAutm8oA2rZJo-mZ9EmWHuFBPuWLPiX6LF794HpVjYcyfLNwfe-6-sax-2_i5bTnFxqkVmC0?></g></svg>
