<?plantuml 1.2026.2?><svg xmlns="http://www.w3.org/2000/svg" xmlns:xlink="http://www.w3.org/1999/xlink" contentStyleType="text/css" data-diagram-type="DESCRIPTION" height="678px" preserveAspectRatio="none" style="width:925px;height:678px;background:#FFFFFF;" version="1.1" viewBox="0 0 925 678" width="925px" zoomAndPan="magnify"><title>snowbridge Repository Architecture</title><defs/><g><g class="title" data-source-line="2"><text fill="#000000" font-family="Monospace" font-size="14" font-weight="bold" lengthAdjust="spacing" textLength="250.4451" x="329.2775" y="24.9659">snowbridge&#160;Repository&#160;Architecture</text></g><!--cluster Access Boundary--><g class="cluster" data-qualified-name="Access Boundary" data-source-line="10" id="ent0004"><rect fill="#F8FAFC" height="96" rx="2.5" ry="2.5" style="stroke:#181818;stroke-width:1;" width="182" x="140" y="274.0679"/><text fill="#000000" font-family="Monospace" font-size="14" font-weight="bold" lengthAdjust="spacing" textLength="117.7186" x="172.1407" y="291.0339">Access&#160;Boundary</text></g><!--cluster snowbridge Repo--><g class="cluster" data-qualified-name="snowbridge Repo" data-source-line="14" id="ent0006"><rect fill="#F8FAFC" height="316.5" rx="2.5" ry="2.5" style="stroke:#181818;stroke-width:1;" width="252" x="330" y="44.0679"/><text fill="#000000" font-family="Monospace" font-size="14" font-weight="bold" lengthAdjust="spacing" textLength="121.4006" x="395.2997" y="61.0339">snowbridge&#160;Repo</text></g><!--cluster Host Runtime--><g class="cluster" data-qualified-name="Host Runtime" data-source-line="20" id="ent0010"><rect fill="#F8FAFC" height="190" rx="2.5" ry="2.5" style="stroke:#181818;stroke-width:1;" width="356" x="14" y="378.0679"/><text fill="#000000" font-family="Monospace" font-size="14" font-weight="bold" lengthAdjust="spacing" textLength="94.7202" x="144.6399" y="395.0339">Host&#160;Runtime</text></g><!--cluster Host-Only State--><g class="cluster" data-qualified-name="Host-Only State" data-source-line="26" id="ent0014"><rect fill="#F8FAFC" height="96" rx="2.5" ry="2.5" style="stroke:#181818;stroke-width:1;" width="354" x="166" y="576.0679"/><text fill="#000000" font-family="Monospace" font-size="14" font-weight="bold" lengthAdjust="spacing" textLength="108.7586" x="288.6207" y="593.0339">Host-Only&#160;State</text></g><!--entity iphone--><g class="entity" data-qualified-name="iphone" data-source-line="7" id="ent0002"><ellipse cx="98.0988" cy="195.5679" fill="#F1F1F1" rx="8" ry="8" style="stroke:#181818;stroke-width:0.5;"/><path d="M98.0988,203.5679 L98.0988,230.5679 M85.0988,211.5679 L111.0988,211.5679 M98.0988,230.5679 L85.0988,245.5679 M98.0988,230.5679 L111.0988,245.5679" fill="none" style="stroke:#181818;stroke-width:0.5;"/><text fill="#000000" font-family="Monospace" font-size="14" lengthAdjust="spacing" textLength="107.1976" x="44.5" y="262.0339">iPhone&#160;Files&#160;app</text></g><!--entity other_clients--><g class="entity" data-qualified-name="other_clients" data-source-line="8" id="ent0003"><ellipse cx="240.9517" cy="195.5679" fill="#F1F1F1" rx="8" ry="8" style="stroke:#181818;stroke-width:0.5;"/><path d="M240.9517,203.5679 L240.9517,230.5679 M227.9517,211.5679 L253.9517,211.5679 M240.9517,230.5679 L227.9517,245.5679 M240.9517,230.5679 L253.9517,245.5679" fill="none" style="stroke:#181818;stroke-width:0.5;"/><text fill="#000000" font-family="Monospace" font-size="14" lengthAdjust="spacing" textLength="141.9035" x="170" y="262.0339">Other&#160;trusted&#160;devices</text></g><g class="entity" data-qualified-name="GMN27" data-source-line="45" id="ent0028"><path d="M592,310.5679 L592,355.9799 A0,0 0 0 0 592,355.9799 L918.4872,355.9799 A0,0 0 0 0 918.4872,355.9799 L918.4872,320.5679 L908.4872,310.5679 L709.5855,310.5679 L265.9458,303.7492 L701.5855,310.5679 L592,310.5679 A0,0 0 0 0 592,310.5679" fill="#FEFFDD" style="stroke:#181818;stroke-width:0.5;"/><path d="M908.4872,310.5679 L908.4872,320.5679 L918.4872,320.5679 L908.4872,310.5679" fill="#FEFFDD" style="stroke:#181818;stroke-width:0.5;"/><text fill="#000000" font-family="Monospace" font-size="13" lengthAdjust="spacing" textLength="302.8743" x="598" y="329.4649">Do&#160;not&#160;expose&#160;SMB&#160;directly&#160;to&#160;the&#160;public&#160;internet.</text><text fill="#000000" font-family="Monospace" font-size="13" lengthAdjust="spacing" textLength="305.4872" x="598" y="347.1709">Remote&#160;access&#160;should&#160;traverse&#160;a&#160;private&#160;VPN&#160;first.</text></g><g class="entity" data-qualified-name="GMN30" data-source-line="50" id="ent0031"><path d="M418.5,517.0679 L418.5,527.0679 L362.2715,531.0679 L418.5,535.0679 L418.5,544.7739 A0,0 0 0 0 418.5,544.7739 L729.8033,544.7739 A0,0 0 0 0 729.8033,544.7739 L729.8033,527.0679 L719.8033,517.0679 L418.5,517.0679 A0,0 0 0 0 418.5,517.0679" fill="#FEFFDD" style="stroke:#181818;stroke-width:0.5;"/><path d="M719.8033,517.0679 L719.8033,527.0679 L729.8033,527.0679 L719.8033,517.0679" fill="#FEFFDD" style="stroke:#181818;stroke-width:0.5;"/><text fill="#000000" font-family="Monospace" font-size="13" lengthAdjust="spacing" textLength="290.3033" x="424.5" y="535.9649">The&#160;share&#160;root&#160;and&#160;file&#160;contents&#160;live&#160;outside&#160;git.</text></g><!--entity access_boundary--><g class="entity" data-qualified-name="Access Boundary.access_boundary" data-source-line="11" id="ent0005"><rect fill="#FCE7F3" height="58.1358" rx="2.5" ry="2.5" style="stroke:#181818;stroke-width:0.5;" width="166.4674" x="148" y="304.0679"/><text fill="#000000" font-family="Monospace" font-size="14" lengthAdjust="spacing" textLength="70.3917" x="158" y="329.0339">Home&#160;LAN</text><text fill="#000000" font-family="Monospace" font-size="14" lengthAdjust="spacing" textLength="146.4674" x="158" y="348.1018">or&#160;private&#160;VPN&#160;overlay</text></g><!--entity repo_docs--><g class="entity" data-qualified-name="snowbridge Repo.repo_docs" data-source-line="15" id="ent0007"><rect fill="#E2E8F0" height="77.2038" rx="2.5" ry="2.5" style="stroke:#181818;stroke-width:0.5;" width="166.6214" x="372.5" y="74.0679"/><text fill="#000000" font-family="Monospace" font-size="14" lengthAdjust="spacing" textLength="81.5917" x="382.5" y="99.0339">README.md</text><text fill="#000000" font-family="Monospace" font-size="14" lengthAdjust="spacing" textLength="78.4837" x="382.5" y="118.1018">AGENTS.md</text><text fill="#000000" font-family="Monospace" font-size="14" lengthAdjust="spacing" textLength="146.6214" x="382.5" y="137.1697">LESSONSLEARNED.md</text></g><!--entity ops_docs--><g class="entity" data-qualified-name="snowbridge Repo.ops_docs" data-source-line="16" id="ent0008"><rect fill="#DBEAFE" height="58.1358" rx="2.5" ry="2.5" style="stroke:#181818;stroke-width:0.5;" width="163.7934" x="374" y="197.5679"/><text fill="#000000" font-family="Monospace" font-size="14" lengthAdjust="spacing" textLength="131.4735" x="384" y="222.5339">docs/host-setup.md</text><text fill="#000000" font-family="Monospace" font-size="14" lengthAdjust="spacing" textLength="143.7934" x="384" y="241.6018">architecture&#160;blueprint</text></g><!--entity smb_template--><g class="entity" data-qualified-name="snowbridge Repo.smb_template" data-source-line="17" id="ent0009"><rect fill="#E0F2FE" height="39.0679" rx="2.5" ry="2.5" style="stroke:#181818;stroke-width:0.5;" width="236.3412" x="338" y="313.5679"/><text fill="#000000" font-family="Monospace" font-size="14" lengthAdjust="spacing" textLength="216.3412" x="348" y="338.5339">config/samba/smb.conf.example</text></g><!--entity samba_service--><g class="entity" data-qualified-name="Host Runtime.samba_service" data-source-line="21" id="ent0011"><rect fill="#DCFCE7" height="58.1358" rx="2.5" ry="2.5" style="stroke:#181818;stroke-width:0.5;" width="114.4576" x="220" y="408.0679"/><text fill="#000000" font-family="Monospace" font-size="14" lengthAdjust="spacing" textLength="94.4576" x="230" y="433.0339">Samba&#160;service</text><text fill="#000000" font-family="Monospace" font-size="14" lengthAdjust="spacing" textLength="77.9097" x="230" y="452.1018">smbd&#160;/&#160;smb</text></g><!--entity smb_user--><g class="entity" data-qualified-name="Host Runtime.smb_user" data-source-line="22" id="ent0012"><rect fill="#DCFCE7" height="58.1358" rx="2.5" ry="2.5" style="stroke:#181818;stroke-width:0.5;" width="152.2715" x="22" y="502.0679"/><text fill="#000000" font-family="Monospace" font-size="14" lengthAdjust="spacing" textLength="132.2715" x="32" y="527.0339">Dedicated&#160;SMB&#160;user</text><text fill="#000000" font-family="Monospace" font-size="14" lengthAdjust="spacing" textLength="77.9517" x="32" y="546.1018">snowbridge</text></g><!--entity share_root--><g class="entity" data-qualified-name="Host Runtime.share_root" data-source-line="23" id="ent0013"><rect fill="#FEF3C7" height="58.1358" rx="2.5" ry="2.5" style="stroke:#181818;stroke-width:0.5;" width="170.0654" x="192" y="502.0679"/><text fill="#000000" font-family="Monospace" font-size="14" lengthAdjust="spacing" textLength="69.2858" x="202" y="527.0339">Share&#160;root</text><text fill="#000000" font-family="Monospace" font-size="14" lengthAdjust="spacing" textLength="150.0654" x="202" y="546.1018">/srv/snowbridge/share</text></g><!--entity shared_files--><g class="entity" data-qualified-name="Host-Only State.shared_files" data-source-line="27" id="ent0015"><rect fill="#FEF3C7" height="39.0679" rx="2.5" ry="2.5" style="stroke:#181818;stroke-width:0.5;" width="140.2595" x="174" y="615.5679"/><text fill="#000000" font-family="Monospace" font-size="14" lengthAdjust="spacing" textLength="120.2595" x="184" y="640.5339">Actual&#160;shared&#160;files</text></g><!--entity host_state--><g class="entity" data-qualified-name="Host-Only State.host_state" data-source-line="28" id="ent0016"><rect fill="#FDE68A" height="58.1358" rx="2.5" ry="2.5" style="stroke:#181818;stroke-width:0.5;" width="179.5294" x="332" y="606.0679"/><text fill="#000000" font-family="Monospace" font-size="14" lengthAdjust="spacing" textLength="95.8297" x="342" y="631.0339">Samba&#160;passdb</text><text fill="#000000" font-family="Monospace" font-size="14" lengthAdjust="spacing" textLength="159.5294" x="342" y="650.1018">logs&#160;/&#160;runtime&#160;metadata</text></g><g class="link" data-entity-1="ent0002" data-entity-2="ent0005" data-link-type="dependency" id="lnk17"><polygon fill="#181818" points="195.353,304.0595,190.7474,295.3539,191.4214,300.9704,185.8048,301.6444,195.353,304.0595" style="stroke:#181818;stroke-width:1;"/><path d="M147.1464,266.183 C163.1299,278.7414 175.8335,288.7228 190.6351,300.3526" fill="none" style="stroke:#181818;stroke-width:1;"/></g><g class="link" data-entity-1="ent0003" data-entity-2="ent0005" data-link-type="dependency" id="lnk18"><polygon fill="#181818" points="233.6802,304.0595,238.5194,295.4815,234.1565,299.0823,230.5557,294.7194,233.6802,304.0595" style="stroke:#181818;stroke-width:1;"/><path d="M237.3048,266.183 C236.103,278.7414 235.3647,286.457 234.2518,298.0868" fill="none" style="stroke:#181818;stroke-width:1;"/></g><g class="link" data-entity-1="ent0005" data-entity-2="ent0011" data-link-type="dependency" id="lnk19"><polygon fill="#181818" points="264.3499,408.0178,264.2963,398.1691,262.2944,403.4599,257.0036,401.458,264.3499,408.0178" style="stroke:#181818;stroke-width:1;"/><path d="M243.6915,362.2099 C250.127,376.48 255.4536,388.2911 261.8833,402.5483" fill="none" style="stroke:#181818;stroke-width:1;"/></g><g class="link" data-entity-1="ent0007" data-entity-2="ent0008" data-link-type="dependency" id="lnk20"><polygon fill="#181818" points="456,197.449,460,188.449,456,192.449,452,188.449,456,197.449" style="stroke:#181818;stroke-width:1;"/><path d="M456,151.1739 C456,166.2986 456,177.4371 456,191.449" fill="none" style="stroke:#181818;stroke-width:1;"/></g><g class="link" data-entity-1="ent0008" data-entity-2="ent0009" data-link-type="dependency" id="lnk21"><polygon fill="#181818" points="456,313.5509,460,304.5509,456,308.5509,452,304.5509,456,313.5509" style="stroke:#181818;stroke-width:1;"/><path d="M456,255.572 C456,273.951 456,291.4728 456,307.5509" fill="none" style="stroke:#181818;stroke-width:1;"/></g><g class="link" data-entity-1="ent0009" data-entity-2="ent0011" data-link-type="dependency" id="lnk22"><polygon fill="#181818" points="326.1752,408.0463,335.9751,407.0658,330.5194,405.5708,332.0144,400.1151,326.1752,408.0463" style="stroke:#181818;stroke-width:1;"/><path d="M423.1686,352.7763 C396.0187,368.2472 362.2627,387.4825 331.3883,405.0757" fill="none" style="stroke:#181818;stroke-width:1;"/></g><g class="link" data-entity-1="ent0011" data-entity-2="ent0012" data-link-type="dependency" id="lnk23"><polygon fill="#181818" points="152.6519,501.9787,162.485,501.4222,157.0989,499.6931,158.828,494.307,152.6519,501.9787" style="stroke:#181818;stroke-width:1;"/><path d="M222.3215,466.1708 C200.2165,477.5321 180.0905,487.8761 157.9883,499.2359" fill="none" style="stroke:#181818;stroke-width:1;"/></g><g class="link" data-entity-1="ent0011" data-entity-2="ent0013" data-link-type="dependency" id="lnk24"><polygon fill="#181818" points="277,501.8201,281,492.8201,277,496.8201,273,492.8201,277,501.8201" style="stroke:#181818;stroke-width:1;"/><path d="M277,466.1708 C277,477.4792 277,484.4972 277,495.8201" fill="none" style="stroke:#181818;stroke-width:1;"/></g><g class="link" data-entity-1="ent0013" data-entity-2="ent0015" data-link-type="dependency" id="lnk25"><polygon fill="#181818" points="250.0542,615.3549,256.6304,608.0232,251.5933,610.5977,249.0188,605.5606,250.0542,615.3549" style="stroke:#181818;stroke-width:1;"/><path d="M267.8952,560.2099 C262.2101,577.7822 256.895,594.2108 251.9011,609.6462" fill="none" style="stroke:#181818;stroke-width:1;"/></g><g class="link" data-entity-1="ent0011" data-entity-2="ent0016" data-link-type="dependency" id="lnk26"><polygon fill="#181818" points="416.3015,605.8255,418.082,596.1389,415.1303,600.9646,410.3046,598.0128,416.3015,605.8255" style="stroke:#181818;stroke-width:1;"/><path d="M330.3811,466.3431 C345.0565,476.1081 359.9539,488.1501 371,502.0679 C395.5893,533.0498 408.0161,571.4383 414.896,599.9924" fill="none" style="stroke:#181818;stroke-width:1;"/></g><?plantuml-src TLJ1JkCm4BtxAsRBkIq2QU6qKcYJvG05DMXFbQ9fF4qj4ZkodKArsd_VSLBQ1CejySoyD_FcsJzgYqM5KEBUD1vSHHur2gzyIU2qULjR9Gk29TN6AM_i7YARRvMdt3UMX7jLkaQB5RWjIlEcT04RB5q_8cc3JUaJe_q2Au97eushCU_dyEyh5fJwFVDQ1aTTb2G4vim98_MyDPeWKIKvmBeU0JfGTJZyI7doMxBWRUCyIURSgPnScsT29CjBHTex8GvKC8fopd1mPnejqUv7S97S9b4oWxy2JZt0wDvmqm_HOgMPfxPgXvxWp_C2p8ui2zUIO0kMhGzWZ3MBRv9hyQz7-4dFRmcNSJH_Z2ULNEdeTxnuITlFXpXDdnRfGnmj5_6SZrfUoq2PDBc3Y_WglaqkXr0XCjqQvyUEV5EtGDXR8ApBXdWcxJkfQdS0cz_5KH8FmNAZDwgOEgpME7NLUX8E9lIELLrIMy-7cIV-3H9Tn9V95MFq9RZdLc3PQAyg-dR-D1208njskD8CAc4Qi3kE4CqEKMvq5fGU0in9gXo33zB7EsWubr6EuXyx3O7p0EaMMHjhZ5_fgRExwQbwwaAimmXVMSZYIUBaUdRpPTRnaoxta7fkvjjn8zu4bXsQX4tm-0bUPkt1aU2CK3Kw9zShNPh2iKwsKnV2LPReiSKA5iYSRzUIpEEVjr5ejRj1C1x_-knVCRWqPpC-Epxa37OZnCcS8VXXBd5qMLlIiumO-ESCu73t7-LXZ-T2n_M8tgQEaOEoPmfFOWcX3NTYLR7rO3PVD02O6-0Ke7T-7wcrcrHXGxnrRu15XBfPboe7lc9aDVa95osf2h0T6dTZcbBoquNydZ083XwPZRAEYqZBGFIbezwG02zCvuxM1TITdO3lgM_tMAeT0J_qJac2GlLm_mC0?></g></svg>