<?xml version="1.0" encoding="UTF-8"?>
<!DOCTYPE svg PUBLIC "-//W3C//DTD SVG 1.1//EN" "http://www.w3.org/Graphics/SVG/1.1/DTD/svg11.dtd">
<svg xmlns="http://www.w3.org/2000/svg" xmlns:xlink="http://www.w3.org/1999/xlink" version="1.1" width="1742px" height="1232px" viewBox="-0.5 -0.5 1742 1232"><defs/><g><g data-cell-id="0"><g data-cell-id="1"><g data-cell-id="title"><g><rect x="0" y="0" width="1740" height="80" fill="#1f2937" stroke="#111827" pointer-events="all"/></g><g><g transform="translate(-0.5 -0.5)"><switch><foreignObject pointer-events="none" width="100%" height="100%" requiredFeatures="http://www.w3.org/TR/SVG11/feature#Extensibility" style="overflow: visible; text-align: left;"><div xmlns="http://www.w3.org/1999/xhtml" style="display: flex; align-items: unsafe center; justify-content: unsafe center; width: 1722px; height: 1px; padding-top: 40px; margin-left: 9px;"><div data-drawio-colors="color: #FFFFFF; " style="box-sizing: border-box; font-size: 0px; text-align: center;"><div style="display: inline-block; font-size: 26px; font-family: Helvetica; color: rgb(255, 255, 255); line-height: 1.2; pointer-events: all; font-weight: bold; white-space: normal; overflow-wrap: normal;">snowbridge Repository Architecture</div></div></div></foreignObject><text x="870" y="48" fill="#FFFFFF" font-family="&quot;Helvetica&quot;" font-size="26px" text-anchor="middle" font-weight="bold">snowbridge Repository Architecture</text></switch></g></g></g><g data-cell-id="panel_clients"><g><rect x="10" y="120" width="320" height="350" rx="48" ry="48" fill="#f8fafc" stroke="#cbd5e1" pointer-events="all"/></g><g><g transform="translate(-0.5 -0.5)"><switch><foreignObject pointer-events="none" width="100%" height="100%" requiredFeatures="http://www.w3.org/TR/SVG11/feature#Extensibility" style="overflow: visible; text-align: left;"><div xmlns="http://www.w3.org/1999/xhtml" style="display: flex; align-items: unsafe flex-start; justify-content: unsafe center; width: 318px; height: 1px; padding-top: 139px; margin-left: 11px;"><div data-drawio-colors="color: #0F172A; " style="box-sizing: border-box; font-size: 0px; text-align: center;"><div style="display: inline-block; font-size: 22px; font-family: Helvetica; color: rgb(15, 23, 42); line-height: 1.2; pointer-events: all; font-weight: bold; white-space: normal; overflow-wrap: normal;">Clients</div></div></div></foreignObject><text x="170" y="161" fill="#0F172A" font-family="&quot;Helvetica&quot;" font-size="22px" text-anchor="middle" font-weight="bold">Clients</text></switch></g></g></g><g data-cell-id="smb_clients"><g><rect x="40" y="190" width="260" height="90" rx="13.5" ry="13.5" fill="#fce7f3" stroke="#f472b6" pointer-events="all"/></g><g><g transform="translate(-0.5 -0.5)"><switch><foreignObject pointer-events="none" width="100%" height="100%" requiredFeatures="http://www.w3.org/TR/SVG11/feature#Extensibility" style="overflow: visible; text-align: left;"><div xmlns="http://www.w3.org/1999/xhtml" style="display: flex; align-items: unsafe center; justify-content: unsafe center; width: 246px; height: 1px; padding-top: 235px; margin-left: 47px;"><div data-drawio-colors="color: #1F2937; " style="box-sizing: border-box; font-size: 0px; text-align: center;"><div style="display: inline-block; font-size: 18px; font-family: Helvetica; color: rgb(31, 41, 55); line-height: 1.2; pointer-events: all; font-weight: bold; white-space: normal; overflow-wrap: normal;">SMB clients<br />iPhone Files app<br />trusted devices</div></div></div></foreignObject><text x="170" y="240" fill="#1F2937" font-family="&quot;Helvetica&quot;" font-size="18px" text-anchor="middle" font-weight="bold">SMB clients...</text></switch></g></g></g><g data-cell-id="browser_clients"><g><rect x="40" y="340" width="260" height="90" rx="13.5" ry="13.5" fill="#fce7f3" stroke="#f472b6" pointer-events="all"/></g><g><g transform="translate(-0.5 -0.5)"><switch><foreignObject pointer-events="none" width="100%" height="100%" requiredFeatures="http://www.w3.org/TR/SVG11/feature#Extensibility" style="overflow: visible; text-align: left;"><div xmlns="http://www.w3.org/1999/xhtml" style="display: flex; align-items: unsafe center; justify-content: unsafe center; width: 246px; height: 1px; padding-top: 385px; margin-left: 47px;"><div data-drawio-colors="color: #1F2937; " style="box-sizing: border-box; font-size: 0px; text-align: center;"><div style="display: inline-block; font-size: 18px; font-family: Helvetica; color: rgb(31, 41, 55); line-height: 1.2; pointer-events: all; font-weight: bold; white-space: normal; overflow-wrap: normal;">Browser clients<br />iPhone Safari<br />laptop browser</div></div></div></foreignObject><text x="170" y="390" fill="#1F2937" font-family="&quot;Helvetica&quot;" font-size="18px" text-anchor="middle" font-weight="bold">Browser clients...</text></switch></g></g></g><g data-cell-id="panel_access"><g><rect x="370" y="120" width="360" height="485" rx="54" ry="54" fill="#f8fafc" stroke="#cbd5e1" pointer-events="all"/></g><g><g transform="translate(-0.5 -0.5)"><switch><foreignObject pointer-events="none" width="100%" height="100%" requiredFeatures="http://www.w3.org/TR/SVG11/feature#Extensibility" style="overflow: visible; text-align: left;"><div xmlns="http://www.w3.org/1999/xhtml" style="display: flex; align-items: unsafe flex-start; justify-content: unsafe center; width: 358px; height: 1px; padding-top: 139px; margin-left: 371px;"><div data-drawio-colors="color: #0F172A; " style="box-sizing: border-box; font-size: 0px; text-align: center;"><div style="display: inline-block; font-size: 22px; font-family: Helvetica; color: rgb(15, 23, 42); line-height: 1.2; pointer-events: all; font-weight: bold; white-space: normal; overflow-wrap: normal;">Access Profiles</div></div></div></foreignObject><text x="550" y="161" fill="#0F172A" font-family="&quot;Helvetica&quot;" font-size="22px" text-anchor="middle" font-weight="bold">Access Profiles</text></switch></g></g></g><g data-cell-id="lan_smb"><g><rect x="400" y="185" width="300" height="80" rx="12" ry="12" fill="#fce7f3" stroke="#f472b6" pointer-events="all"/></g><g><g transform="translate(-0.5 -0.5)"><switch><foreignObject pointer-events="none" width="100%" height="100%" requiredFeatures="http://www.w3.org/TR/SVG11/feature#Extensibility" style="overflow: visible; text-align: left;"><div xmlns="http://www.w3.org/1999/xhtml" style="display: flex; align-items: unsafe center; justify-content: unsafe center; width: 286px; height: 1px; padding-top: 225px; margin-left: 407px;"><div data-drawio-colors="color: #1F2937; " style="box-sizing: border-box; font-size: 0px; text-align: center;"><div style="display: inline-block; font-size: 17px; font-family: Helvetica; color: rgb(31, 41, 55); line-height: 1.2; pointer-events: all; font-weight: bold; white-space: normal; overflow-wrap: normal;">LAN SMB<br />local hostname / private IP</div></div></div></foreignObject><text x="550" y="230" fill="#1F2937" font-family="&quot;Helvetica&quot;" font-size="17px" text-anchor="middle" font-weight="bold">LAN SMB...</text></switch></g></g></g><g data-cell-id="wireguard_profiles"><g><rect x="400" y="325" width="300" height="100" rx="15" ry="15" fill="#fce7f3" stroke="#f472b6" pointer-events="all"/></g><g><g transform="translate(-0.5 -0.5)"><switch><foreignObject pointer-events="none" width="100%" height="100%" requiredFeatures="http://www.w3.org/TR/SVG11/feature#Extensibility" style="overflow: visible; text-align: left;"><div xmlns="http://www.w3.org/1999/xhtml" style="display: flex; align-items: unsafe center; justify-content: unsafe center; width: 286px; height: 1px; padding-top: 375px; margin-left: 407px;"><div data-drawio-colors="color: #1F2937; " style="box-sizing: border-box; font-size: 0px; text-align: center;"><div style="display: inline-block; font-size: 17px; font-family: Helvetica; color: rgb(31, 41, 55); line-height: 1.2; pointer-events: all; font-weight: bold; white-space: normal; overflow-wrap: normal;">WireGuard VPN<br />wireguard-public-vpn | wireguard-lan-vpn<br />split DNS + firewall rules</div></div></div></foreignObject><text x="550" y="380" fill="#1F2937" font-family="&quot;Helvetica&quot;" font-size="17px" text-anchor="middle" font-weight="bold">WireGuard VPN...</text></switch></g></g></g><g data-cell-id="https_profiles"><g><rect x="400" y="485" width="300" height="80" rx="12" ry="12" fill="#fce7f3" stroke="#f472b6" pointer-events="all"/></g><g><g transform="translate(-0.5 -0.5)"><switch><foreignObject pointer-events="none" width="100%" height="100%" requiredFeatures="http://www.w3.org/TR/SVG11/feature#Extensibility" style="overflow: visible; text-align: left;"><div xmlns="http://www.w3.org/1999/xhtml" style="display: flex; align-items: unsafe center; justify-content: unsafe center; width: 286px; height: 1px; padding-top: 525px; margin-left: 407px;"><div data-drawio-colors="color: #1F2937; " style="box-sizing: border-box; font-size: 0px; text-align: center;"><div style="display: inline-block; font-size: 17px; font-family: Helvetica; color: rgb(31, 41, 55); line-height: 1.2; pointer-events: all; font-weight: bold; white-space: normal; overflow-wrap: normal;">HTTPS profiles<br />private-vpn | private-vpn-mtls<br />public | public-private-ip</div></div></div></foreignObject><text x="550" y="530" fill="#1F2937" font-family="&quot;Helvetica&quot;" font-size="17px" text-anchor="middle" font-weight="bold">HTTPS profiles...</text></switch></g></g></g><g data-cell-id="panel_repo"><g><rect x="770" y="120" width="420" height="500" rx="63" ry="63" fill="#f8fafc" stroke="#cbd5e1" pointer-events="all"/></g><g><g transform="translate(-0.5 -0.5)"><switch><foreignObject pointer-events="none" width="100%" height="100%" requiredFeatures="http://www.w3.org/TR/SVG11/feature#Extensibility" style="overflow: visible; text-align: left;"><div xmlns="http://www.w3.org/1999/xhtml" style="display: flex; align-items: unsafe flex-start; justify-content: unsafe center; width: 418px; height: 1px; padding-top: 139px; margin-left: 771px;"><div data-drawio-colors="color: #0F172A; " style="box-sizing: border-box; font-size: 0px; text-align: center;"><div style="display: inline-block; font-size: 22px; font-family: Helvetica; color: rgb(15, 23, 42); line-height: 1.2; pointer-events: all; font-weight: bold; white-space: normal; overflow-wrap: normal;">snowbridge Repo</div></div></div></foreignObject><text x="980" y="161" fill="#0F172A" font-family="&quot;Helvetica&quot;" font-size="22px" text-anchor="middle" font-weight="bold">snowbridge Repo</text></switch></g></g></g><g data-cell-id="repo_docs"><g><rect x="800" y="185" width="360" height="90" rx="13.5" ry="13.5" fill="#e2e8f0" stroke="#94a3b8" pointer-events="all"/></g><g><g transform="translate(-0.5 -0.5)"><switch><foreignObject pointer-events="none" width="100%" height="100%" requiredFeatures="http://www.w3.org/TR/SVG11/feature#Extensibility" style="overflow: visible; text-align: left;"><div xmlns="http://www.w3.org/1999/xhtml" style="display: flex; align-items: unsafe center; justify-content: unsafe center; width: 346px; height: 1px; padding-top: 230px; margin-left: 807px;"><div data-drawio-colors="color: #1F2937; " style="box-sizing: border-box; font-size: 0px; text-align: center;"><div style="display: inline-block; font-size: 17px; font-family: Helvetica; color: rgb(31, 41, 55); line-height: 1.2; pointer-events: all; font-weight: bold; white-space: normal; overflow-wrap: normal;">README.md<br />docs/host-setup.md<br />docs/access-patterns.md<br />architecture blueprint</div></div></div></foreignObject><text x="980" y="235" fill="#1F2937" font-family="&quot;Helvetica&quot;" font-size="17px" text-anchor="middle" font-weight="bold">README.md...</text></switch></g></g></g><g data-cell-id="repo_config"><g><rect x="800" y="335" width="360" height="90" rx="13.5" ry="13.5" fill="#dbeafe" stroke="#60a5fa" pointer-events="all"/></g><g><g transform="translate(-0.5 -0.5)"><switch><foreignObject pointer-events="none" width="100%" height="100%" requiredFeatures="http://www.w3.org/TR/SVG11/feature#Extensibility" style="overflow: visible; text-align: left;"><div xmlns="http://www.w3.org/1999/xhtml" style="display: flex; align-items: unsafe center; justify-content: unsafe center; width: 346px; height: 1px; padding-top: 380px; margin-left: 807px;"><div data-drawio-colors="color: #1F2937; " style="box-sizing: border-box; font-size: 0px; text-align: center;"><div style="display: inline-block; font-size: 17px; font-family: Helvetica; color: rgb(31, 41, 55); line-height: 1.2; pointer-events: all; font-weight: bold; white-space: normal; overflow-wrap: normal;">config/share-layout<br />config/samba<br />config/access<br />config/web</div></div></div></foreignObject><text x="980" y="385" fill="#1F2937" font-family="&quot;Helvetica&quot;" font-size="17px" text-anchor="middle" font-weight="bold">config/share-layout...</text></switch></g></g></g><g data-cell-id="repo_scripts"><g><rect x="800" y="485" width="360" height="95" rx="14.25" ry="14.25" fill="#dbeafe" stroke="#60a5fa" pointer-events="all"/></g><g><g transform="translate(-0.5 -0.5)"><switch><foreignObject pointer-events="none" width="100%" height="100%" requiredFeatures="http://www.w3.org/TR/SVG11/feature#Extensibility" style="overflow: visible; text-align: left;"><div xmlns="http://www.w3.org/1999/xhtml" style="display: flex; align-items: unsafe center; justify-content: unsafe center; width: 346px; height: 1px; padding-top: 533px; margin-left: 807px;"><div data-drawio-colors="color: #1F2937; " style="box-sizing: border-box; font-size: 0px; text-align: center;"><div style="display: inline-block; font-size: 16px; font-family: Helvetica; color: rgb(31, 41, 55); line-height: 1.2; pointer-events: all; font-weight: bold; white-space: normal; overflow-wrap: normal;">setup_bind_share.py<br />setup_wireguard.sh<br />setup_caddy_filebrowser.sh<br />setup_filebrowser_access.py<br />export_caddy_*_profile.py<br />debug_private_access.sh</div></div></div></foreignObject><text x="980" y="537" fill="#1F2937" font-family="&quot;Helvetica&quot;" font-size="16px" text-anchor="middle" font-weight="bold">setup_bind_share.py...</text></switch></g></g></g><g data-cell-id="panel_runtime"><g><rect x="1230" y="120" width="500" height="635" rx="75" ry="75" fill="#f8fafc" stroke="#cbd5e1" pointer-events="all"/></g><g><g transform="translate(-0.5 -0.5)"><switch><foreignObject pointer-events="none" width="100%" height="100%" requiredFeatures="http://www.w3.org/TR/SVG11/feature#Extensibility" style="overflow: visible; text-align: left;"><div xmlns="http://www.w3.org/1999/xhtml" style="display: flex; align-items: unsafe flex-start; justify-content: unsafe center; width: 498px; height: 1px; padding-top: 139px; margin-left: 1231px;"><div data-drawio-colors="color: #0F172A; " style="box-sizing: border-box; font-size: 0px; text-align: center;"><div style="display: inline-block; font-size: 22px; font-family: Helvetica; color: rgb(15, 23, 42); line-height: 1.2; pointer-events: all; font-weight: bold; white-space: normal; overflow-wrap: normal;">Host Runtime</div></div></div></foreignObject><text x="1480" y="161" fill="#0F172A" font-family="&quot;Helvetica&quot;" font-size="22px" text-anchor="middle" font-weight="bold">Host Runtime</text></switch></g></g></g><g data-cell-id="samba_service"><g><rect x="1260" y="185" width="440" height="80" rx="12" ry="12" fill="#dcfce7" stroke="#4ade80" pointer-events="all"/></g><g><g transform="translate(-0.5 -0.5)"><switch><foreignObject pointer-events="none" width="100%" height="100%" requiredFeatures="http://www.w3.org/TR/SVG11/feature#Extensibility" style="overflow: visible; text-align: left;"><div xmlns="http://www.w3.org/1999/xhtml" style="display: flex; align-items: unsafe center; justify-content: unsafe center; width: 426px; height: 1px; padding-top: 225px; margin-left: 1267px;"><div data-drawio-colors="color: #1F2937; " style="box-sizing: border-box; font-size: 0px; text-align: center;"><div style="display: inline-block; font-size: 17px; font-family: Helvetica; color: rgb(31, 41, 55); line-height: 1.2; pointer-events: all; font-weight: bold; white-space: normal; overflow-wrap: normal;">Samba service<br />dedicated SMB user</div></div></div></foreignObject><text x="1480" y="230" fill="#1F2937" font-family="&quot;Helvetica&quot;" font-size="17px" text-anchor="middle" font-weight="bold">Samba service...</text></switch></g></g></g><g data-cell-id="share_root"><g><rect x="1260" y="325" width="440" height="90" rx="13.5" ry="13.5" fill="#fef3c7" stroke="#f59e0b" pointer-events="all"/></g><g><g transform="translate(-0.5 -0.5)"><switch><foreignObject pointer-events="none" width="100%" height="100%" requiredFeatures="http://www.w3.org/TR/SVG11/feature#Extensibility" style="overflow: visible; text-align: left;"><div xmlns="http://www.w3.org/1999/xhtml" style="display: flex; align-items: unsafe center; justify-content: unsafe center; width: 426px; height: 1px; padding-top: 370px; margin-left: 1267px;"><div data-drawio-colors="color: #1F2937; " style="box-sizing: border-box; font-size: 0px; text-align: center;"><div style="display: inline-block; font-size: 17px; font-family: Helvetica; color: rgb(31, 41, 55); line-height: 1.2; pointer-events: all; font-weight: bold; white-space: normal; overflow-wrap: normal;">Share root<br />/srv/snowbridge/share<br />bind-mounted folders</div></div></div></foreignObject><text x="1480" y="375" fill="#1F2937" font-family="&quot;Helvetica&quot;" font-size="17px" text-anchor="middle" font-weight="bold">Share root...</text></switch></g></g></g><g data-cell-id="private_access"><g><rect x="1260" y="475" width="440" height="90" rx="13.5" ry="13.5" fill="#dcfce7" stroke="#4ade80" pointer-events="all"/></g><g><g transform="translate(-0.5 -0.5)"><switch><foreignObject pointer-events="none" width="100%" height="100%" requiredFeatures="http://www.w3.org/TR/SVG11/feature#Extensibility" style="overflow: visible; text-align: left;"><div xmlns="http://www.w3.org/1999/xhtml" style="display: flex; align-items: unsafe center; justify-content: unsafe center; width: 426px; height: 1px; padding-top: 520px; margin-left: 1267px;"><div data-drawio-colors="color: #1F2937; " style="box-sizing: border-box; font-size: 0px; text-align: center;"><div style="display: inline-block; font-size: 17px; font-family: Helvetica; color: rgb(31, 41, 55); line-height: 1.2; pointer-events: all; font-weight: bold; white-space: normal; overflow-wrap: normal;">WireGuard + dnsmasq + firewalld<br />private routing and DNS</div></div></div></foreignObject><text x="1480" y="525" fill="#1F2937" font-family="&quot;Helvetica&quot;" font-size="17px" text-anchor="middle" font-weight="bold">WireGuard + dnsmasq + firewalld...</text></switch></g></g></g><g data-cell-id="web_stack"><g><rect x="1260" y="625" width="440" height="90" rx="13.5" ry="13.5" fill="#dcfce7" stroke="#4ade80" pointer-events="all"/></g><g><g transform="translate(-0.5 -0.5)"><switch><foreignObject pointer-events="none" width="100%" height="100%" requiredFeatures="http://www.w3.org/TR/SVG11/feature#Extensibility" style="overflow: visible; text-align: left;"><div xmlns="http://www.w3.org/1999/xhtml" style="display: flex; align-items: unsafe center; justify-content: unsafe center; width: 426px; height: 1px; padding-top: 670px; margin-left: 1267px;"><div data-drawio-colors="color: #1F2937; " style="box-sizing: border-box; font-size: 0px; text-align: center;"><div style="display: inline-block; font-size: 17px; font-family: Helvetica; color: rgb(31, 41, 55); line-height: 1.2; pointer-events: all; font-weight: bold; white-space: normal; overflow-wrap: normal;">Caddy + File Browser<br />optional browser access<br />proxy auth or mTLS at edge</div></div></div></foreignObject><text x="1480" y="675" fill="#1F2937" font-family="&quot;Helvetica&quot;" font-size="17px" text-anchor="middle" font-weight="bold">Caddy + File Browser...</text></switch></g></g></g><g data-cell-id="shared_files"><g><rect x="370" y="675" width="360" height="90" rx="13.5" ry="13.5" fill="#fef3c7" stroke="#f59e0b" pointer-events="all"/></g><g><g transform="translate(-0.5 -0.5)"><switch><foreignObject pointer-events="none" width="100%" height="100%" requiredFeatures="http://www.w3.org/TR/SVG11/feature#Extensibility" style="overflow: visible; text-align: left;"><div xmlns="http://www.w3.org/1999/xhtml" style="display: flex; align-items: unsafe center; justify-content: unsafe center; width: 346px; height: 1px; padding-top: 720px; margin-left: 377px;"><div data-drawio-colors="color: #1F2937; " style="box-sizing: border-box; font-size: 0px; text-align: center;"><div style="display: inline-block; font-size: 17px; font-family: Helvetica; color: rgb(31, 41, 55); line-height: 1.2; pointer-events: all; font-weight: bold; white-space: normal; overflow-wrap: normal;">External source folders<br />/home/... /mnt/...</div></div></div></foreignObject><text x="550" y="725" fill="#1F2937" font-family="&quot;Helvetica&quot;" font-size="17px" text-anchor="middle" font-weight="bold">External source folders...</text></switch></g></g></g><g data-cell-id="host_state"><g><rect x="800" y="670" width="390" height="90" rx="13.5" ry="13.5" fill="#fde68a" stroke="#f59e0b" pointer-events="all"/></g><g><g transform="translate(-0.5 -0.5)"><switch><foreignObject pointer-events="none" width="100%" height="100%" requiredFeatures="http://www.w3.org/TR/SVG11/feature#Extensibility" style="overflow: visible; text-align: left;"><div xmlns="http://www.w3.org/1999/xhtml" style="display: flex; align-items: unsafe center; justify-content: unsafe center; width: 376px; height: 1px; padding-top: 715px; margin-left: 807px;"><div data-drawio-colors="color: #1F2937; " style="box-sizing: border-box; font-size: 0px; text-align: center;"><div style="display: inline-block; font-size: 17px; font-family: Helvetica; color: rgb(31, 41, 55); line-height: 1.2; pointer-events: all; font-weight: bold; white-space: normal; overflow-wrap: normal;">Local configs / passdb / Caddy PKI<br />runtime metadata / debug reports</div></div></div></foreignObject><text x="995" y="720" fill="#1F2937" font-family="&quot;Helvetica&quot;" font-size="17px" text-anchor="middle" font-weight="bold">Local configs / passdb / Caddy PKI...</text></switch></g></g></g><g data-cell-id="staged_profiles"><g><rect x="1260" y="790" width="440" height="90" rx="13.5" ry="13.5" fill="#fde68a" stroke="#f59e0b" pointer-events="all"/></g><g><g transform="translate(-0.5 -0.5)"><switch><foreignObject pointer-events="none" width="100%" height="100%" requiredFeatures="http://www.w3.org/TR/SVG11/feature#Extensibility" style="overflow: visible; text-align: left;"><div xmlns="http://www.w3.org/1999/xhtml" style="display: flex; align-items: unsafe center; justify-content: unsafe center; width: 426px; height: 1px; padding-top: 835px; margin-left: 1267px;"><div data-drawio-colors="color: #1F2937; " style="box-sizing: border-box; font-size: 0px; text-align: center;"><div style="display: inline-block; font-size: 17px; font-family: Helvetica; color: rgb(31, 41, 55); line-height: 1.2; pointer-events: all; font-weight: bold; white-space: normal; overflow-wrap: normal;">Staged install artifacts<br />tmp/*.mobileconfig<br />CA + client profiles</div></div></div></foreignObject><text x="1480" y="840" fill="#1F2937" font-family="&quot;Helvetica&quot;" font-size="17px" text-anchor="middle" font-weight="bold">Staged install artifacts...</text></switch></g></g></g><g data-cell-id="note_boundary"><g><rect x="220" y="1110" width="1480" height="120" rx="18" ry="18" fill="#fff7ed" stroke="#fdba74" pointer-events="all"/></g><g><g transform="translate(-0.5 -0.5)"><switch><foreignObject pointer-events="none" width="100%" height="100%" requiredFeatures="http://www.w3.org/TR/SVG11/feature#Extensibility" style="overflow: visible; text-align: left;"><div xmlns="http://www.w3.org/1999/xhtml" style="display: flex; align-items: unsafe center; justify-content: unsafe flex-start; width: 1462px; height: 1px; padding-top: 1170px; margin-left: 230px;"><div data-drawio-colors="color: #1F2937; " style="box-sizing: border-box; font-size: 0px; text-align: left;"><div style="display: inline-block; font-size: 16px; font-family: Helvetica; color: rgb(31, 41, 55); line-height: 1.2; pointer-events: all; white-space: normal; overflow-wrap: normal;">Keep SMB, VPN, and HTTPS as separate access profiles.<br />private-vpn-mtls terminates device certificates at Caddy while File Browser can stay on proxy-auth mode behind that edge.<br />The share root is a bind-mounted staging tree, not the canonical file location, and host-only secrets or reports stay out of commits.</div></div></div></foreignObject><text x="230" y="1175" fill="#1F2937" font-family="&quot;Helvetica&quot;" font-size="16px">Keep SMB, VPN, and HTTPS as separate access profiles....</text></switch></g></g></g><g data-cell-id="e1"><g><path d="M 300 230 L 324 230 L 324 207 L 376 207 L 376 225 L 389.76 225" fill="none" stroke="#1f2937" stroke-width="2" stroke-miterlimit="10" pointer-events="stroke"/><path d="M 397.76 225 L 389.76 229 L 389.76 221 Z" fill="#1f2937" stroke="#1f2937" stroke-width="2" stroke-miterlimit="10" pointer-events="all"/></g></g><g data-cell-id="e2"><g><path d="M 300 240 L 324 240 L 324 296 L 376 296 L 376 365 L 389.76 365" fill="none" stroke="#1f2937" stroke-width="2" stroke-miterlimit="10" pointer-events="stroke"/><path d="M 397.76 365 L 389.76 369 L 389.76 361 Z" fill="#1f2937" stroke="#1f2937" stroke-width="2" stroke-miterlimit="10" pointer-events="all"/></g></g><g data-cell-id="e3"><g><path d="M 300 380 L 324 380 L 324 314 L 376 314 L 376 385 L 389.76 385" fill="none" stroke="#1f2937" stroke-width="2" stroke-miterlimit="10" pointer-events="stroke"/><path d="M 397.76 385 L 389.76 389 L 389.76 381 Z" fill="#1f2937" stroke="#1f2937" stroke-width="2" stroke-miterlimit="10" pointer-events="all"/></g></g><g data-cell-id="e4"><g><path d="M 300 390 L 324 390 L 324 525 L 389.76 525" fill="none" stroke="#1f2937" stroke-width="2" stroke-miterlimit="10" pointer-events="stroke"/><path d="M 397.76 525 L 389.76 529 L 389.76 521 Z" fill="#1f2937" stroke="#1f2937" stroke-width="2" stroke-miterlimit="10" pointer-events="all"/></g></g><g data-cell-id="e5"><g><path d="M 700 225 L 1249.76 225" fill="none" stroke="#1f2937" stroke-width="2" stroke-miterlimit="10" pointer-events="stroke"/><path d="M 1257.76 225 L 1249.76 229 L 1249.76 221 Z" fill="#1f2937" stroke="#1f2937" stroke-width="2" stroke-miterlimit="10" pointer-events="all"/></g></g><g data-cell-id="e6"><g><path d="M 700 365 L 724 365 L 724 243 L 1236 243 L 1236 225 L 1249.76 225" fill="none" stroke="#1f2937" stroke-width="2" stroke-miterlimit="10" pointer-events="stroke"/><path d="M 1257.76 225 L 1249.76 229 L 1249.76 221 Z" fill="#1f2937" stroke="#1f2937" stroke-width="2" stroke-miterlimit="10" pointer-events="all"/></g></g><g data-cell-id="e7"><g><path d="M 700 385 L 724 385 L 724 440 L 1236 440 L 1236 515 L 1249.76 515" fill="none" stroke="#1f2937" stroke-width="2" stroke-miterlimit="10" pointer-events="stroke"/><path d="M 1257.76 515 L 1249.76 519 L 1249.76 511 Z" fill="#1f2937" stroke="#1f2937" stroke-width="2" stroke-miterlimit="10" pointer-events="all"/></g></g><g data-cell-id="e8"><g><path d="M 1300 565 L 1300 589 L 1462 589 L 1462 601 L 1480 601 L 1480 614.76" fill="none" stroke="#1f2937" stroke-width="2" stroke-miterlimit="10" pointer-events="stroke"/><path d="M 1480 622.76 L 1476 614.76 L 1484 614.76 Z" fill="#1f2937" stroke="#1f2937" stroke-width="2" stroke-miterlimit="10" pointer-events="all"/></g></g><g data-cell-id="e9"><g><path d="M 700 525 L 724 525 L 724 603 L 1236 603 L 1236 665 L 1249.76 665" fill="none" stroke="#1f2937" stroke-width="2" stroke-miterlimit="10" pointer-events="stroke"/><path d="M 1257.76 665 L 1249.76 669 L 1249.76 661 Z" fill="#1f2937" stroke="#1f2937" stroke-width="2" stroke-miterlimit="10" pointer-events="all"/></g></g><g data-cell-id="e10"><g><path d="M 840 275 L 840 299 L 962 299 L 962 311 L 980 311 L 980 324.76" fill="none" stroke="#1f2937" stroke-width="2" stroke-miterlimit="10" pointer-events="stroke"/><path d="M 980 332.76 L 976 324.76 L 984 324.76 Z" fill="#1f2937" stroke="#1f2937" stroke-width="2" stroke-miterlimit="10" pointer-events="all"/></g></g><g data-cell-id="e11"><g><path d="M 1120 275 L 1120 299 L 980 299 L 980 434 C 987.8 434 987.8 446 980 446 L 980 446 L 980 461 L 840 461 L 840 474.76" fill="none" stroke="#1f2937" stroke-width="2" stroke-miterlimit="10" pointer-events="stroke"/><path d="M 840 482.76 L 836 474.76 L 844 474.76 Z" fill="#1f2937" stroke="#1f2937" stroke-width="2" stroke-miterlimit="10" pointer-events="all"/></g></g><g data-cell-id="e12"><g><path d="M 980 425 L 980 434 C 987.8 434 987.8 446 980 446 L 980 446 L 980 449 L 998 449 L 998 461 L 1120 461 L 1120 474.76" fill="none" stroke="#1f2937" stroke-width="2" stroke-miterlimit="10" pointer-events="stroke"/><path d="M 1120 482.76 L 1116 474.76 L 1124 474.76 Z" fill="#1f2937" stroke="#1f2937" stroke-width="2" stroke-miterlimit="10" pointer-events="all"/></g></g><g data-cell-id="e13"><g><path d="M 980 485 L 980 461 L 1219 461 L 1219 446 C 1226.8 446 1226.8 434 1219 434 L 1219 434 L 1219 289 L 1480 289 L 1480 275.24" fill="none" stroke="#1f2937" stroke-width="2" stroke-miterlimit="10" pointer-events="stroke"/><path d="M 1480 267.24 L 1484 275.24 L 1476 275.24 Z" fill="#1f2937" stroke="#1f2937" stroke-width="2" stroke-miterlimit="10" pointer-events="all"/></g></g><g data-cell-id="e14"><g><path d="M 1160 525 L 1184 525 L 1184 467 C 1191.8 467 1191.8 455 1184 455 L 1184 455 L 1184 446 C 1191.8 446 1191.8 434 1184 434 L 1184 434 L 1184 249 C 1191.8 249 1191.8 237 1184 237 L 1184 237 L 1184 231 C 1191.8 231 1191.8 219 1184 219 L 1184 219 L 1184 153 L 1236 153 L 1236 219 C 1243.8 219 1243.8 231 1236 231 L 1236 231 L 1236 283 C 1243.8 283 1243.8 295 1236 295 L 1236 295 L 1236 370 L 1249.76 370" fill="none" stroke="#1f2937" stroke-width="2" stroke-miterlimit="10" pointer-events="stroke"/><path d="M 1257.76 370 L 1249.76 374 L 1249.76 366 Z" fill="#1f2937" stroke="#1f2937" stroke-width="2" stroke-miterlimit="10" pointer-events="all"/></g></g><g data-cell-id="e15"><g><path d="M 1160 532.5 L 1184 532.5 L 1184 461 L 1184 458 L 1213 458 C 1213 450.2 1225 450.2 1225 458 L 1225 458 L 1236 458 L 1236 525 L 1249.76 525" fill="none" stroke="#1f2937" stroke-width="2" stroke-miterlimit="10" pointer-events="stroke"/><path d="M 1257.76 525 L 1249.76 529 L 1249.76 521 Z" fill="#1f2937" stroke="#1f2937" stroke-width="2" stroke-miterlimit="10" pointer-events="all"/></g></g><g data-cell-id="e16"><g><path d="M 1160 540 L 1184 540 L 1184 597 C 1191.8 597 1191.8 609 1184 609 L 1184 609 L 1184 621 L 1236 621 L 1236 675 L 1249.76 675" fill="none" stroke="#1f2937" stroke-width="2" stroke-miterlimit="10" pointer-events="stroke"/><path d="M 1257.76 675 L 1249.76 679 L 1249.76 671 Z" fill="#1f2937" stroke="#1f2937" stroke-width="2" stroke-miterlimit="10" pointer-events="all"/></g></g><g data-cell-id="e17"><g><path d="M 980 580 L 980 603 L 980 604 L 1178 604 C 1178 596.2 1190 596.2 1190 604 L 1190 604 L 1230 604 C 1230 596.2 1242 596.2 1242 604 L 1242 604 L 1480 604 L 1480 779.76" fill="none" stroke="#1f2937" stroke-width="2" stroke-miterlimit="10" pointer-events="stroke"/><path d="M 1480 787.76 L 1476 779.76 L 1484 779.76 Z" fill="#1f2937" stroke="#1f2937" stroke-width="2" stroke-miterlimit="10" pointer-events="all"/></g></g><g data-cell-id="e18"><g><path d="M 1480 265 L 1480 289 L 1498 289 L 1498 301 L 1480 301 L 1480 314.76" fill="none" stroke="#1f2937" stroke-width="2" stroke-miterlimit="10" pointer-events="stroke"/><path d="M 1480 322.76 L 1476 314.76 L 1484 314.76 Z" fill="#1f2937" stroke="#1f2937" stroke-width="2" stroke-miterlimit="10" pointer-events="all"/></g></g><g data-cell-id="e19"><g><path d="M 1260 370 L 1236 370 L 1236 598 C 1243.8 598 1243.8 610 1236 610 L 1236 610 L 1236 912 L 754 912 L 754 720 L 740.24 720" fill="none" stroke="#1f2937" stroke-width="2" stroke-miterlimit="10" pointer-events="stroke"/><path d="M 732.24 720 L 740.24 716 L 740.24 724 Z" fill="#1f2937" stroke="#1f2937" stroke-width="2" stroke-miterlimit="10" pointer-events="all"/></g></g><g data-cell-id="e20"><g><path d="M 1660 565 L 1660 589 L 1242 589 C 1242 581.2 1230 581.2 1230 589 L 1230 589 L 1193 589 L 1193 603 L 1193 604 L 1193 615 C 1200.8 615 1200.8 627 1193 627 L 1193 627 L 1193 646 L 995 646 L 995 659.76" fill="none" stroke="#1f2937" stroke-width="2" stroke-miterlimit="10" pointer-events="stroke"/><path d="M 995 667.76 L 991 659.76 L 999 659.76 Z" fill="#1f2937" stroke="#1f2937" stroke-width="2" stroke-miterlimit="10" pointer-events="all"/></g></g><g data-cell-id="e21"><g><path d="M 1480 625 L 1480 601 L 1237 601 L 1237 595 C 1244.8 595 1244.8 583 1237 583 L 1237 583 L 1237 531 C 1244.8 531 1244.8 519 1237 519 L 1237 519 L 1237 521 C 1244.8 521 1244.8 509 1237 509 L 1237 509 L 1237 439 L 1480 439 L 1480 425.24" fill="none" stroke="#1f2937" stroke-width="2" stroke-miterlimit="10" pointer-events="stroke"/><path d="M 1480 417.24 L 1484 425.24 L 1476 425.24 Z" fill="#1f2937" stroke="#1f2937" stroke-width="2" stroke-miterlimit="10" pointer-events="all"/></g></g><g data-cell-id="e22"><g><path d="M 1260 670 L 1236 670 L 1236 692.5 L 1214 692.5 L 1214 715 L 1200.24 715" fill="none" stroke="#1f2937" stroke-width="2" stroke-miterlimit="10" pointer-events="stroke"/><path d="M 1192.24 715 L 1200.24 711 L 1200.24 719 Z" fill="#1f2937" stroke="#1f2937" stroke-width="2" stroke-miterlimit="10" pointer-events="all"/></g></g><g data-cell-id="e23"><g><path d="M 1190 715 L 1214 715 L 1214 835 L 1230 835 C 1230 827.2 1242 827.2 1242 835 L 1242 835 L 1249.76 835" fill="none" stroke="#1f2937" stroke-width="2" stroke-miterlimit="10" pointer-events="stroke"/><path d="M 1257.76 835 L 1249.76 839 L 1249.76 831 Z" fill="#1f2937" stroke="#1f2937" stroke-width="2" stroke-miterlimit="10" pointer-events="all"/></g></g></g></g></g><switch><g requiredFeatures="http://www.w3.org/TR/SVG11/feature#Extensibility"/><a transform="translate(0,-5)" xlink:href="https://www.drawio.com/doc/faq/svg-export-text-problems" target="_blank"><text text-anchor="middle" font-size="10px" x="50%" y="100%">Text is not SVG - cannot display</text></a></switch></svg>
