<?plantuml 1.2026.2?><svg xmlns="http://www.w3.org/2000/svg" xmlns:xlink="http://www.w3.org/1999/xlink" contentStyleType="text/css" data-diagram-type="DESCRIPTION" height="856px" preserveAspectRatio="none" style="width:2234px;height:856px;background:#FFFFFF;" version="1.1" viewBox="0 0 2234 856" width="2234px" zoomAndPan="magnify"><title>snowbridge Repository Architecture</title><defs/><g><g class="title" data-source-line="2"><text fill="#000000" font-family="Monospace" font-size="14" font-weight="bold" lengthAdjust="spacing" textLength="250.4451" x="984.2775" y="24.9659">snowbridge&#160;Repository&#160;Architecture</text></g><!--cluster Access Profiles--><g class="cluster" data-qualified-name="Access Profiles" data-source-line="11" id="ent0004"><rect fill="#F8FAFC" height="115" rx="2.5" ry="2.5" style="stroke:#181818;stroke-width:1;" width="764" x="14" y="357.5679"/><text fill="#000000" font-family="Monospace" font-size="14" font-weight="bold" lengthAdjust="spacing" textLength="102.8226" x="344.5887" y="374.5339">Access&#160;Profiles</text></g><!--cluster snowbridge Repo--><g class="cluster" data-qualified-name="snowbridge Repo" data-source-line="17" id="ent0008"><rect fill="#F8FAFC" height="457" rx="2.5" ry="2.5" style="stroke:#181818;stroke-width:1;" width="222" x="786" y="44.0679"/><text fill="#000000" font-family="Monospace" font-size="14" font-weight="bold" lengthAdjust="spacing" textLength="121.4006" x="836.2997" y="61.0339">snowbridge&#160;Repo</text></g><!--cluster Host Runtime--><g class="cluster" data-qualified-name="Host Runtime" data-source-line="23" id="ent0012"><rect fill="#F8FAFC" height="341" rx="2.5" ry="2.5" style="stroke:#181818;stroke-width:1;" width="440" x="548" y="509.0679"/><text fill="#000000" font-family="Monospace" font-size="14" font-weight="bold" lengthAdjust="spacing" textLength="94.7202" x="720.6399" y="526.0339">Host&#160;Runtime</text></g><!--cluster Host-Only State--><g class="cluster" data-qualified-name="Host-Only State" data-source-line="31" id="ent0018"><rect fill="#F8FAFC" height="96" rx="2.5" ry="2.5" style="stroke:#181818;stroke-width:1;" width="452" x="996" y="744.5679"/><text fill="#000000" font-family="Monospace" font-size="14" font-weight="bold" lengthAdjust="spacing" textLength="108.7586" x="1167.6207" y="761.5339">Host-Only&#160;State</text></g><!--entity smb_clients--><g class="entity" data-qualified-name="smb_clients" data-source-line="8" id="ent0002"><ellipse cx="288.0988" cy="214.5679" fill="#F1F1F1" rx="8" ry="8" style="stroke:#181818;stroke-width:0.5;"/><path d="M288.0988,222.5679 L288.0988,249.5679 M275.0988,230.5679 L301.0988,230.5679 M288.0988,249.5679 L275.0988,264.5679 M288.0988,249.5679 L301.0988,264.5679" fill="none" style="stroke:#181818;stroke-width:0.5;"/><text fill="#000000" font-family="Monospace" font-size="14" lengthAdjust="spacing" textLength="75.3757" x="234.5" y="281.0339">SMB&#160;clients</text><text fill="#000000" font-family="Monospace" font-size="14" lengthAdjust="spacing" textLength="107.1976" x="234.5" y="300.1018">iPhone&#160;Files&#160;app</text><text fill="#000000" font-family="Monospace" font-size="14" lengthAdjust="spacing" textLength="99.9456" x="234.5" y="319.1697">trusted&#160;devices</text></g><!--entity browser_clients--><g class="entity" data-qualified-name="browser_clients" data-source-line="9" id="ent0003"><ellipse cx="480.8158" cy="214.5679" fill="#F1F1F1" rx="8" ry="8" style="stroke:#181818;stroke-width:0.5;"/><path d="M480.8158,222.5679 L480.8158,249.5679 M467.8158,230.5679 L493.8158,230.5679 M480.8158,249.5679 L467.8158,264.5679 M480.8158,249.5679 L493.8158,264.5679" fill="none" style="stroke:#181818;stroke-width:0.5;"/><text fill="#000000" font-family="Monospace" font-size="14" lengthAdjust="spacing" textLength="100.6316" x="430.5" y="281.0339">Browser&#160;clients</text><text fill="#000000" font-family="Monospace" font-size="14" lengthAdjust="spacing" textLength="86.9957" x="430.5" y="300.1018">iPhone&#160;Safari</text><text fill="#000000" font-family="Monospace" font-size="14" lengthAdjust="spacing" textLength="100.0996" x="430.5" y="319.1697">laptop&#160;browser</text></g><g class="entity" data-qualified-name="GMN44" data-source-line="64" id="ent0045"><path d="M1018.5,403.5679 L1018.5,448.9799 A0,0 0 0 0 1018.5,448.9799 L1407.7643,448.9799 A0,0 0 0 0 1407.7643,448.9799 L1407.7643,413.5679 L1397.7643,403.5679 L1175.4724,403.5679 L705.1853,387.5245 L1167.4724,403.5679 L1018.5,403.5679 A0,0 0 0 0 1018.5,403.5679" fill="#FEFFDD" style="stroke:#181818;stroke-width:0.5;"/><path d="M1397.7643,403.5679 L1397.7643,413.5679 L1407.7643,413.5679 L1397.7643,403.5679" fill="#FEFFDD" style="stroke:#181818;stroke-width:0.5;"/><text fill="#000000" font-family="Monospace" font-size="13" lengthAdjust="spacing" textLength="342.5114" x="1024.5" y="422.4649">private-vpn-mtls&#160;terminates&#160;device&#160;certificates&#160;at&#160;Caddy.</text><text fill="#000000" font-family="Monospace" font-size="13" lengthAdjust="spacing" textLength="368.2643" x="1024.5" y="440.1709">File&#160;Browser&#160;can&#160;stay&#160;on&#160;proxy-auth&#160;mode&#160;behind&#160;that&#160;edge.</text></g><g class="entity" data-qualified-name="GMN47" data-source-line="69" id="ent0048"><path d="M1458,781.0679 L1458,826.4799 A0,0 0 0 0 1458,826.4799 L1840.1143,826.4799 A0,0 0 0 0 1840.1143,826.4799 L1840.1143,791.0679 L1830.1143,781.0679 L1599.0615,781.0679 L943.688,764.899 L1591.0615,781.0679 L1458,781.0679 A0,0 0 0 0 1458,781.0679" fill="#FEFFDD" style="stroke:#181818;stroke-width:0.5;"/><path d="M1830.1143,781.0679 L1830.1143,791.0679 L1840.1143,791.0679 L1830.1143,781.0679" fill="#FEFFDD" style="stroke:#181818;stroke-width:0.5;"/><text fill="#000000" font-family="Monospace" font-size="13" lengthAdjust="spacing" textLength="361.1143" x="1464" y="799.9649">The&#160;share&#160;root&#160;lives&#160;outside&#160;git&#160;and&#160;acts&#160;as&#160;a&#160;bind-mounted</text><text fill="#000000" font-family="Monospace" font-size="13" lengthAdjust="spacing" textLength="299.7023" x="1464" y="817.6709">staging&#160;tree&#160;instead&#160;of&#160;the&#160;canonical&#160;file&#160;location.</text></g><g class="entity" data-qualified-name="GMN50" data-source-line="74" id="ent0051"><path d="M1858,781.0679 L1858,826.4799 A0,0 0 0 0 1858,826.4799 L2227.5823,826.4799 A0,0 0 0 0 2227.5823,826.4799 L2227.5823,791.0679 L2217.5823,781.0679 L1993.8797,781.0679 L1364.6689,774.5026 L1985.8797,781.0679 L1858,781.0679 A0,0 0 0 0 1858,781.0679" fill="#FEFFDD" style="stroke:#181818;stroke-width:0.5;"/><path d="M2217.5823,781.0679 L2217.5823,791.0679 L2227.5823,791.0679 L2217.5823,781.0679" fill="#FEFFDD" style="stroke:#181818;stroke-width:0.5;"/><text fill="#000000" font-family="Monospace" font-size="13" lengthAdjust="spacing" textLength="348.5823" x="1864" y="799.9649">Keep&#160;local&#160;configs,&#160;secrets,&#160;passdb&#160;exports,&#160;cert&#160;material,</text><text fill="#000000" font-family="Monospace" font-size="13" lengthAdjust="spacing" textLength="213.5252" x="1864" y="817.6709">and&#160;debug&#160;reports&#160;out&#160;of&#160;commits.</text></g><!--entity lan_smb--><g class="entity" data-qualified-name="Access Profiles.lan_smb" data-source-line="12" id="ent0005"><rect fill="#FCE7F3" height="58.1358" rx="2.5" ry="2.5" style="stroke:#181818;stroke-width:0.5;" width="195.5453" x="22" y="397.0679"/><text fill="#000000" font-family="Monospace" font-size="14" lengthAdjust="spacing" textLength="60.0458" x="32" y="422.0339">LAN&#160;SMB</text><text fill="#000000" font-family="Monospace" font-size="14" lengthAdjust="spacing" textLength="175.5453" x="32" y="441.1018">local&#160;hostname&#160;/&#160;private&#160;IP</text></g><!--entity wireguard_profiles--><g class="entity" data-qualified-name="Access Profiles.wireguard_profiles" data-source-line="13" id="ent0006"><rect fill="#FCE7F3" height="77.2038" rx="2.5" ry="2.5" style="stroke:#181818;stroke-width:0.5;" width="297.3109" x="236.5" y="387.5679"/><text fill="#000000" font-family="Monospace" font-size="14" lengthAdjust="spacing" textLength="102.5496" x="246.5" y="412.5339">WireGuard&#160;VPN</text><text fill="#000000" font-family="Monospace" font-size="14" lengthAdjust="spacing" textLength="277.3109" x="246.5" y="431.6018">wireguard-public-vpn&#160;|&#160;wireguard-lan-vpn</text><text fill="#000000" font-family="Monospace" font-size="14" lengthAdjust="spacing" textLength="159.5434" x="246.5" y="450.6697">split&#160;DNS&#160;+&#160;firewall&#160;rules</text></g><!--entity https_profiles--><g class="entity" data-qualified-name="Access Profiles.https_profiles" data-source-line="14" id="ent0007"><rect fill="#FCE7F3" height="77.2038" rx="2.5" ry="2.5" style="stroke:#181818;stroke-width:0.5;" width="217.5672" x="552" y="387.5679"/><text fill="#000000" font-family="Monospace" font-size="14" lengthAdjust="spacing" textLength="95.2416" x="562" y="412.5339">HTTPS&#160;profiles</text><text fill="#000000" font-family="Monospace" font-size="14" lengthAdjust="spacing" textLength="197.5672" x="562" y="431.6018">private-vpn&#160;|&#160;private-vpn-mtls</text><text fill="#000000" font-family="Monospace" font-size="14" lengthAdjust="spacing" textLength="161.7834" x="562" y="450.6697">public&#160;|&#160;public-private-ip</text></g><!--entity repo_docs--><g class="entity" data-qualified-name="snowbridge Repo.repo_docs" data-source-line="18" id="ent0009"><rect fill="#E2E8F0" height="96.2717" rx="2.5" ry="2.5" style="stroke:#181818;stroke-width:0.5;" width="183.8834" x="805" y="74.0679"/><text fill="#000000" font-family="Monospace" font-size="14" lengthAdjust="spacing" textLength="81.5917" x="815" y="99.0339">README.md</text><text fill="#000000" font-family="Monospace" font-size="14" lengthAdjust="spacing" textLength="131.4735" x="815" y="118.1018">docs/host-setup.md</text><text fill="#000000" font-family="Monospace" font-size="14" lengthAdjust="spacing" textLength="163.8834" x="815" y="137.1697">docs/access-patterns.md</text><text fill="#000000" font-family="Monospace" font-size="14" lengthAdjust="spacing" textLength="143.7934" x="815" y="156.2376">architecture&#160;blueprint</text></g><!--entity repo_config--><g class="entity" data-qualified-name="snowbridge Repo.repo_config" data-source-line="19" id="ent0010"><rect fill="#DBEAFE" height="96.2717" rx="2.5" ry="2.5" style="stroke:#181818;stroke-width:0.5;" width="148.2675" x="808" y="216.5679"/><text fill="#000000" font-family="Monospace" font-size="14" lengthAdjust="spacing" textLength="128.2675" x="818" y="241.5339">config/share-layout</text><text fill="#000000" font-family="Monospace" font-size="14" lengthAdjust="spacing" textLength="90.2017" x="818" y="260.6018">config/samba</text><text fill="#000000" font-family="Monospace" font-size="14" lengthAdjust="spacing" textLength="88.6897" x="818" y="279.6697">config/access</text><text fill="#000000" font-family="Monospace" font-size="14" lengthAdjust="spacing" textLength="73.5977" x="818" y="298.7376">config/web</text></g><!--entity repo_scripts--><g class="entity" data-qualified-name="snowbridge Repo.repo_scripts" data-source-line="20" id="ent0011"><rect fill="#E0F2FE" height="134.4075" rx="2.5" ry="2.5" style="stroke:#181818;stroke-width:0.5;" width="205.6393" x="794" y="359.0679"/><text fill="#000000" font-family="Monospace" font-size="14" lengthAdjust="spacing" textLength="135.2255" x="804" y="384.0339">setup_bind_share.py</text><text fill="#000000" font-family="Monospace" font-size="14" lengthAdjust="spacing" textLength="130.0455" x="804" y="403.1018">setup_wireguard.sh</text><text fill="#000000" font-family="Monospace" font-size="14" lengthAdjust="spacing" textLength="181.5793" x="804" y="422.1697">setup_caddy_filebrowser.sh</text><text fill="#000000" font-family="Monospace" font-size="14" lengthAdjust="spacing" textLength="185.6393" x="804" y="441.2376">setup_filebrowser_access.py</text><text fill="#000000" font-family="Monospace" font-size="14" lengthAdjust="spacing" textLength="170.8134" x="804" y="460.3055">export_caddy_*_profile.py</text><text fill="#000000" font-family="Monospace" font-size="14" lengthAdjust="spacing" textLength="162.4414" x="804" y="479.3734">debug_private_access.sh</text></g><!--entity samba_service--><g class="entity" data-qualified-name="Host Runtime.samba_service" data-source-line="24" id="ent0013"><rect fill="#DCFCE7" height="58.1358" rx="2.5" ry="2.5" style="stroke:#181818;stroke-width:0.5;" width="150.6615" x="556.5" y="661.5679"/><text fill="#000000" font-family="Monospace" font-size="14" lengthAdjust="spacing" textLength="94.4576" x="566.5" y="686.5339">Samba&#160;service</text><text fill="#000000" font-family="Monospace" font-size="14" lengthAdjust="spacing" textLength="130.6615" x="566.5" y="705.6018">dedicated&#160;SMB&#160;user</text></g><!--entity share_root--><g class="entity" data-qualified-name="Host Runtime.share_root" data-source-line="25" id="ent0014"><rect fill="#FEF3C7" height="77.2038" rx="2.5" ry="2.5" style="stroke:#181818;stroke-width:0.5;" width="170.0654" x="810" y="765.0679"/><text fill="#000000" font-family="Monospace" font-size="14" lengthAdjust="spacing" textLength="69.2858" x="820" y="790.0339">Share&#160;root</text><text fill="#000000" font-family="Monospace" font-size="14" lengthAdjust="spacing" textLength="150.0654" x="820" y="809.1018">/srv/snowbridge/share</text><text fill="#000000" font-family="Monospace" font-size="14" lengthAdjust="spacing" textLength="143.9474" x="820" y="828.1697">bind-mounted&#160;folders</text></g><!--entity private_access--><g class="entity" data-qualified-name="Host Runtime.private_access" data-source-line="26" id="ent0015"><rect fill="#DCFCE7" height="58.1358" rx="2.5" ry="2.5" style="stroke:#181818;stroke-width:0.5;" width="239.0011" x="556.5" y="548.5679"/><text fill="#000000" font-family="Monospace" font-size="14" lengthAdjust="spacing" textLength="219.0011" x="566.5" y="573.5339">WireGuard&#160;+&#160;dnsmasq&#160;+&#160;firewalld</text><text fill="#000000" font-family="Monospace" font-size="14" lengthAdjust="spacing" textLength="159.3334" x="566.5" y="592.6018">private&#160;routing&#160;and&#160;DNS</text></g><!--entity web_stack--><g class="entity" data-qualified-name="Host Runtime.web_stack" data-source-line="27" id="ent0016"><rect fill="#DCFCE7" height="77.2038" rx="2.5" ry="2.5" style="stroke:#181818;stroke-width:0.5;" width="201.8873" x="726" y="652.0679"/><text fill="#000000" font-family="Monospace" font-size="14" lengthAdjust="spacing" textLength="137.1155" x="736" y="677.0339">Caddy&#160;+&#160;File&#160;Browser</text><text fill="#000000" font-family="Monospace" font-size="14" lengthAdjust="spacing" textLength="158.4654" x="736" y="696.1018">optional&#160;browser&#160;access</text><text fill="#000000" font-family="Monospace" font-size="14" lengthAdjust="spacing" textLength="181.8873" x="736" y="715.1697">proxy&#160;auth&#160;or&#160;mTLS&#160;at&#160;edge</text></g><!--entity staged_profiles--><g class="entity" data-qualified-name="Host Runtime.staged_profiles" data-source-line="28" id="ent0017"><rect fill="#FDE68A" height="77.2038" rx="2.5" ry="2.5" style="stroke:#181818;stroke-width:0.5;" width="165.5435" x="814" y="539.0679"/><text fill="#000000" font-family="Monospace" font-size="14" lengthAdjust="spacing" textLength="145.5435" x="824" y="564.0339">Staged&#160;install&#160;artifacts</text><text fill="#000000" font-family="Monospace" font-size="14" lengthAdjust="spacing" textLength="129.5975" x="824" y="583.1018">tmp/*.mobileconfig</text><text fill="#000000" font-family="Monospace" font-size="14" lengthAdjust="spacing" textLength="121.7715" x="824" y="602.1697">CA&#160;+&#160;client&#160;profiles</text></g><!--entity shared_files--><g class="entity" data-qualified-name="Host-Only State.shared_files" data-source-line="32" id="ent0019"><rect fill="#FEF3C7" height="58.1358" rx="2.5" ry="2.5" style="stroke:#181818;stroke-width:0.5;" width="171.4374" x="1004.5" y="774.5679"/><text fill="#000000" font-family="Monospace" font-size="14" lengthAdjust="spacing" textLength="151.4374" x="1014.5" y="799.5339">External&#160;source&#160;folders</text><text fill="#000000" font-family="Monospace" font-size="14" lengthAdjust="spacing" textLength="111.8875" x="1014.5" y="818.6018">/home/...&#160;/mnt/...</text></g><!--entity host_state--><g class="entity" data-qualified-name="Host-Only State.host_state" data-source-line="33" id="ent0020"><rect fill="#FDE68A" height="58.1358" rx="2.5" ry="2.5" style="stroke:#181818;stroke-width:0.5;" width="246.4492" x="1194" y="774.5679"/><text fill="#000000" font-family="Monospace" font-size="14" lengthAdjust="spacing" textLength="223.8732" x="1204" y="799.5339">Local&#160;configs&#160;/&#160;passdb&#160;/&#160;Caddy&#160;PKI</text><text fill="#000000" font-family="Monospace" font-size="14" lengthAdjust="spacing" textLength="226.4492" x="1204" y="818.6018">runtime&#160;metadata&#160;/&#160;debug&#160;reports</text></g><g class="link" data-entity-1="ent0002" data-entity-2="ent0005" data-link-type="dependency" id="lnk21"><polygon fill="#181818" points="149.6754,396.8939,158.9565,393.5981,153.3015,393.4513,153.4483,387.7964,149.6754,396.8939" style="stroke:#181818;stroke-width:1;"/><path d="M234.3818,316.4732 C206.3417,343.0947 177.4327,370.5411 154.0267,392.7628" fill="none" style="stroke:#181818;stroke-width:1;"/></g><g class="link" data-entity-1="ent0002" data-entity-2="ent0006" data-link-type="dependency" id="lnk22"><polygon fill="#181818" points="362.1352,387.4706,360.8763,377.7025,359.5371,383.1986,354.0411,381.8594,362.1352,387.4706" style="stroke:#181818;stroke-width:1;"/><path d="M323.0192,323.1511 C336.0432,344.5668 347.3584,363.1727 359.0175,382.3442" fill="none" style="stroke:#181818;stroke-width:1;"/></g><g class="link" data-entity-1="ent0003" data-entity-2="ent0006" data-link-type="dependency" id="lnk23"><polygon fill="#181818" points="407.6291,387.4706,415.6973,381.8223,410.2075,383.1867,408.8431,377.6969,407.6291,387.4706" style="stroke:#181818;stroke-width:1;"/><path d="M446.3418,323.1511 C433.4521,344.5668 422.2621,363.1584 410.7232,382.3299" fill="none" style="stroke:#181818;stroke-width:1;"/></g><g class="link" data-entity-1="ent0003" data-entity-2="ent0007" data-link-type="dependency" id="lnk24"><polygon fill="#181818" points="618.6629,387.5526,614.5798,378.59,614.9207,384.2366,609.2742,384.5775,618.6629,387.5526" style="stroke:#181818;stroke-width:1;"/><path d="M531.619,310.422 C559.0707,334.7472 588.1206,360.4886 614.1723,383.5734" fill="none" style="stroke:#181818;stroke-width:1;"/></g><g class="link" data-entity-1="ent0005" data-entity-2="ent0013" data-link-type="dependency" id="lnk25"><polygon fill="#181818" points="556.321,668.0699,548.9074,661.5861,551.5448,666.5905,546.5404,669.2279,556.321,668.0699" style="stroke:#181818;stroke-width:1;"/><path d="M159.4984,455.235 C179.5253,469.2983 204.345,486.3971 227,501.0679 C309.8525,554.7212 327.5618,574.3066 417,616.0679 C461.8573,637.0131 508.6729,653.3112 550.5896,666.2946" fill="none" style="stroke:#181818;stroke-width:1;"/></g><g class="link" data-entity-1="ent0006" data-entity-2="ent0013" data-link-type="dependency" id="lnk26"><polygon fill="#181818" points="562.3054,661.4896,556.0543,653.8789,557.8362,659.2478,552.4673,661.0297,562.3054,661.4896" style="stroke:#181818;stroke-width:1;"/><path d="M399.5779,464.8615 C417.0736,506.2132 449.8072,572.4154 495,616.0679 C514.2197,634.6326 533.6996,647.1404 556.9423,658.7994" fill="none" style="stroke:#181818;stroke-width:1;"/></g><g class="link" data-entity-1="ent0006" data-entity-2="ent0015" data-link-type="dependency" id="lnk27"><polygon fill="#181818" points="621.2845,548.4581,615.107,540.7874,616.8371,546.1732,611.4513,547.9033,621.2845,548.4581" style="stroke:#181818;stroke-width:1;"/><path d="M458.056,464.6001 C508.732,490.6347 569.812,522.0143 615.9476,545.7162" fill="none" style="stroke:#181818;stroke-width:1;"/></g><g class="link" data-entity-1="ent0015" data-entity-2="ent0016" data-link-type="dependency" id="lnk28"><polygon fill="#181818" points="775.7861,651.9206,770.9038,643.3671,771.7575,648.9592,766.1654,649.8129,775.7861,651.9206" style="stroke:#181818;stroke-width:1;"/><path d="M714.1037,606.5779 C732.8005,620.3219 750.7563,633.5212 770.9518,648.3669" fill="none" style="stroke:#181818;stroke-width:1;"/></g><g class="link" data-entity-1="ent0007" data-entity-2="ent0016" data-link-type="dependency" id="lnk29"><polygon fill="#181818" points="725.8544,654.7272,718.2648,648.4505,721.0393,653.3802,716.1095,656.1547,725.8544,654.7272" style="stroke:#181818;stroke-width:1;"/><path d="M605.7672,464.7339 C586.1355,477.2194 563.5513,490.5896 542,501.0679 C532.6432,505.6173 525.9688,500.5462 520,509.0679 C492.7175,548.0191 489.5617,579.5297 520,616.0679 C576.6889,684.1173 630.2673,629.8363 716,652.0679 C719.2488,652.9104 716.7618,652.1835 720.0762,653.1108" fill="none" style="stroke:#181818;stroke-width:1;"/></g><g class="link" data-entity-1="ent0009" data-entity-2="ent0010" data-link-type="dependency" id="lnk30"><polygon fill="#181818" points="887.0488,216.278,891.9816,207.7534,887.5795,211.3062,884.0268,206.9042,887.0488,216.278" style="stroke:#181818;stroke-width:1;"/><path d="M891.9635,170.2432 C890.3804,185.0712 889.2696,195.476 887.6857,210.3119" fill="none" style="stroke:#181818;stroke-width:1;"/></g><g class="link" data-entity-1="ent0009" data-entity-2="ent0011" data-link-type="dependency" id="lnk31"><polygon fill="#181818" points="948.8733,359.0268,956.8469,353.2457,951.3804,354.7008,949.9253,349.2343,948.8733,359.0268" style="stroke:#181818;stroke-width:1;"/><path d="M944.8944,170.4903 C953.1334,181.3466 960.4868,193.4377 965,206.0679 C982.4978,255.0355 980.0688,273.2991 965,323.0679 C961.2687,335.3915 958.5117,342.3959 951.8818,353.8356" fill="none" style="stroke:#181818;stroke-width:1;"/></g><g class="link" data-entity-1="ent0010" data-entity-2="ent0011" data-link-type="dependency" id="lnk32"><polygon fill="#181818" points="890.7807,358.9364,893.9205,349.6015,890.3126,353.9584,885.9556,350.3505,890.7807,358.9364" style="stroke:#181818;stroke-width:1;"/><path d="M886.4599,312.9913 C887.8157,327.4084 888.7693,337.5485 890.219,352.9628" fill="none" style="stroke:#181818;stroke-width:1;"/></g><g class="link" data-entity-1="ent0011" data-entity-2="ent0013" data-link-type="dependency" id="lnk33"><polygon fill="#181818" points="566.3948,661.4504,560.8259,653.3271,562.1364,658.8301,556.6334,660.1406,566.3948,661.4504" style="stroke:#181818;stroke-width:1;"/><path d="M802.6052,493.1673 C795.8152,496.2336 788.9153,498.92 782,501.0679 C768.093,505.3874 530.1388,498.6148 520,509.0679 C486.8903,543.2041 497.4088,574.221 520,616.0679 C530.3303,635.2034 542.945,647.0212 561.2847,658.306" fill="none" style="stroke:#181818;stroke-width:1;"/></g><g class="link" data-entity-1="ent0011" data-entity-2="ent0014" data-link-type="dependency" id="lnk34"><polygon fill="#181818" points="921.2837,764.7205,929.5219,759.3231,923.9927,760.518,922.7979,754.9888,921.2837,764.7205" style="stroke:#181818;stroke-width:1;"/><path d="M980.1077,493.3308 C983.5345,498.3494 986.5495,503.6012 989,509.0679 C1008.4522,552.4631 999.1757,569.6138 989,616.0679 C976.8968,671.3214 947.8894,723.4461 924.5345,759.6775" fill="none" style="stroke:#181818;stroke-width:1;"/></g><g class="link" data-entity-1="ent0011" data-entity-2="ent0015" data-link-type="dependency" id="lnk35"><polygon fill="#181818" points="717.4509,548.5276,727.1467,546.798,721.5923,545.7261,722.6642,540.1717,717.4509,548.5276" style="stroke:#181818;stroke-width:1;"/><path d="M799.4229,493.076 C770.6309,512.5529 745.6219,529.4707 722.4206,545.1658" fill="none" style="stroke:#181818;stroke-width:1;"/></g><g class="link" data-entity-1="ent0011" data-entity-2="ent0016" data-link-type="dependency" id="lnk36"><polygon fill="#181818" points="725.8223,654.8474,718.2983,648.4922,721.0214,653.4505,716.0632,656.1736,725.8223,654.8474" style="stroke:#181818;stroke-width:1;"/><path d="M802.5964,493.1391 C795.8085,496.2122 788.9115,498.9079 782,501.0679 C769.5316,504.9645 556.0785,499.6751 547,509.0679 C513.9501,543.262 517.0805,579.1037 547,616.0679 C595.3163,675.7605 641.9418,631.7438 716,652.0679 C719.2366,652.9561 716.756,652.2093 720.0613,653.1711" fill="none" style="stroke:#181818;stroke-width:1;"/></g><g class="link" data-entity-1="ent0011" data-entity-2="ent0017" data-link-type="dependency" id="lnk37"><polygon fill="#181818" points="897,538.7703,901,529.7703,897,533.7703,893,529.7703,897,538.7703" style="stroke:#181818;stroke-width:1;"/><path d="M897,493.076 C897,508.7201 897,518.8821 897,532.7703" fill="none" style="stroke:#181818;stroke-width:1;"/></g><g class="link" data-entity-1="ent0013" data-entity-2="ent0014" data-link-type="dependency" id="lnk38"><polygon fill="#181818" points="809.7189,767.8375,802.9188,760.713,805.0952,765.9344,799.8738,768.1108,809.7189,767.8375" style="stroke:#181818;stroke-width:1;"/><path d="M695.0545,719.5863 C702.4415,722.8093 709.8798,726.0278 717,729.0679 C747.1331,741.9341 774.7323,753.4369 804.1705,765.5538" fill="none" style="stroke:#181818;stroke-width:1;"/></g><g class="link" data-entity-1="ent0014" data-entity-2="ent0019" data-link-type="dependency" id="lnk39"><polygon fill="#181818" points="1004.3066,803.5679,995.3066,799.5679,999.3066,803.5679,995.3066,807.5679,1004.3066,803.5679" style="stroke:#181818;stroke-width:1;"/><path d="M980.3125,803.5679 C988.3105,803.5679 990.3086,803.5679 998.3066,803.5679" fill="none" style="stroke:#181818;stroke-width:1;"/></g><g class="link" data-entity-1="ent0015" data-entity-2="ent0020" data-link-type="dependency" id="lnk40"><polygon fill="#181818" points="1262.6971,774.4315,1256.2411,766.9938,1258.1685,772.3121,1252.8502,774.2395,1262.6971,774.4315" style="stroke:#181818;stroke-width:1;"/><path d="M771.7544,606.5957 C782.9544,609.817 794.2244,613.0325 805,616.0679 C863.5314,632.5557 882.2917,625.5202 937,652.0679 C988.742,677.1762 987.435,708.1289 1041,729.0679 C1100.5403,752.3427 1122.2142,728.1581 1184,744.5679 C1210.781,751.6807 1233.6687,760.8463 1257.2628,771.8883" fill="none" style="stroke:#181818;stroke-width:1;"/></g><g class="link" data-entity-1="ent0016" data-entity-2="ent0014" data-link-type="dependency" id="lnk41"><polygon fill="#181818" points="872.002,765.0271,870.7114,755.2631,869.3901,760.7635,863.8897,759.4422,872.002,765.0271" style="stroke:#181818;stroke-width:1;"/><path d="M850.0217,729.1475 C857.1112,740.72 861.7798,748.3408 868.8677,759.9108" fill="none" style="stroke:#181818;stroke-width:1;"/></g><g class="link" data-entity-1="ent0016" data-entity-2="ent0020" data-link-type="dependency" id="lnk42"><polygon fill="#181818" points="1264.1244,774.4619,1257.7131,766.9856,1259.6086,772.3154,1254.2787,774.2109,1264.1244,774.4619" style="stroke:#181818;stroke-width:1;"/><path d="M928.2254,726.1023 C932.8561,727.1993 937.4628,728.1973 942,729.0679 C1047.8448,749.3788 1079.2518,719.2012 1184,744.5679 C1211.4206,751.2083 1234.8863,760.5641 1258.7054,771.8861" fill="none" style="stroke:#181818;stroke-width:1;"/></g><g class="link" data-entity-1="ent0020" data-entity-2="ent0017" data-link-type="dependency" id="lnk43"><polygon fill="#181818" points="967.7723,616.3132,973.8312,624.0779,972.1841,618.6661,977.5959,617.019,967.7723,616.3132" style="stroke:#181818;stroke-width:1;"/><path d="M1264.2523,774.4358 C1189.2433,734.431 1056.8776,663.836 973.0665,619.1367" fill="none" style="stroke:#181818;stroke-width:1;"/></g><?plantuml-src bLPDR-Cs4BthLqoJs-xQNkm2tPmAE8xTNMoI6d7GNWG8b4HRn4eaIuwI66t_UsSeoPBy0RGtaKFEl7apywYVh1ExIa0fzgP6y9L4eKM42ai9NflNrAby9-59MkCL6hU7kSiAXJB3sid8_r3Q2YSgy8N8pQlIEzYAqWyjkToAkiILqVWeAWaFHXjlHJOyGyiVOYStkAUuZfmBlIk71qgb9Uwj1EEmC54aCW83Lvk7MyXA9JNwMAjrORI4bIgb1s5jhD7L7cLE45vK9lqL24yvfabxfVDowyohb-x4qqPiXLEnBeL5Oo5jZWKlxVV1KzHc05VpZ29vM3kpPI1NSBswMSrN2_WhWZurkBgVFmB19-yc4oKKngDcUcPWdNeHAE7REeGgXKu8DFbPBB-iFe-z_A6S_BKMBeVVru-nVgNbZfSJMwUboYOlLiFVq6-JCzwBjRUbGhXxtC1xs9BvLPGbkBfiMJhSI6oRoFduNv-VrnlepiIwnTx67Qmc5PPi3x3OrE3hJYWRmXQ8rf-6_6V0xr5NNkJtQJc_UrXEgppMkSdyZ0cUU8crxVT4gDN42aJfj0y6CUXlICjQ4aID0PsZU0bVXElbf-NDwkCuOcRqLkrcD0bEJfg9YdMtAQfK75PDtCFoLQQz_sOFhkzkb_FLSXmXm4zIfVCaH9dQFLKoR1uADlL5jvU9FDydJ6NRhWFRO3Tfu0HdyitIXBKtttML2APSflKkQGlMtV55ZzndJbbaSZwkFX7qOTM-4llmL6jKbRnOiWsJ18I8fvK3vYeJFByyvdKtUe7Af3r5F2suIOuSCJdWZA42pBnxcVLDqvGdrapYf3A4YFnlJPbBr-e3snE-Ip2Ngy-BBvScxZtasbV2_paOeVmm0XI-HjP3eNEUi-1ypDvvy0lcdbooZa4hJR4s5fNH91HjqQ3h8IhHsnv4ZGLf8rJFzniG299IRGPPfeb7AiC5ff3AauFIT8O4G3XKMr95yekLdRsRLYOb64rFnden9roDv1rclY4jk1aExjtovvlvIGjCVjFb7YWeNkw2vHiF8sNgJUsemcrng9A5gUHiEft2hDB87tt1ygGBVAPazq5XcoGy2wpmFa_few5w_VrRh5tJcy0lO2vGa3KqV6XjXqsQh27C9bLtaE7WHO79v9TEi4_sJpKrEdf6_i-niLH6KVTCi6qq8j4PBV_FXyOD6ntrRu3RDLXq9DvZOzIB9ni6KdVEqaf9D5J4yyPET4upEZKV9llKTfJdYRrFvDJjkFUf7qO2THHv82y7IzkyvzZjEoxg9_d8vTWmk35erxD0jM6PKhi2mMoF6mfENc-WkQoKfYtV_b519bamWafxbfqmK5EwEnGlo8Jcu7im6e9SJO9SLIQd5rOMfCI0HIjQqqZIaf4Tunja3F1So6OZg3pz7huG019ShyZdZlviM7LPo7Xi1GpLdcup4opDwAGCsYT5pY6Gl19OenKB1lC0_7V6odiPru1mWEzIMYY7UlE17hJCIQIFLdUQDvRMp1vKTD4fKNwWsmnwf3gS4iV8J5Kfz3s8Vm40?></g></svg>
