<?plantuml 1.2026.2?><svg xmlns="http://www.w3.org/2000/svg" xmlns:xlink="http://www.w3.org/1999/xlink" contentStyleType="text/css" data-diagram-type="DESCRIPTION" height="4091px" preserveAspectRatio="none" style="width:648px;height:4091px;background:#FFFFFF;" version="1.1" viewBox="0 0 648 4091" width="648px" zoomAndPan="magnify"><title>snowbridge Shell Script Flow</title><defs/><g><g class="title" data-source-line="1"><text fill="#000000" font-family="Monospace" font-size="14" font-weight="bold" lengthAdjust="spacing" textLength="199.0828" x="217.6824" y="24.9659">snowbridge&#160;Shell&#160;Script&#160;Flow</text></g><!--entity shell_config_access_tailscale_tailscale_subnet_router_example_sh--><g class="entity" data-qualified-name="shell_config_access_tailscale_tailscale_subnet_router_example_sh" data-source-line="7" id="ent0002"><rect fill="#DBEAFE" height="77.2038" rx="2.5" ry="2.5" style="stroke:#181818;stroke-width:0.5;" width="400.3926" x="7" y="641.0179"/><text fill="#000000" font-family="Monospace" font-size="14" lengthAdjust="spacing" textLength="380.3926" x="17" y="665.9839">config/access/tailscale/tailscale-subnet-router.example.sh</text><text fill="#000000" font-family="Monospace" font-size="14" lengthAdjust="spacing" textLength="119.3915" x="17" y="685.0518">0&#160;local&#160;shell&#160;edges</text><text fill="#000000" font-family="Monospace" font-size="14" lengthAdjust="spacing" textLength="95.0456" x="17" y="704.1197">1&#160;external&#160;tool</text></g><!--entity shell_config_access_tailscale_tailscale_subnet_router_local_sh--><g class="entity" data-qualified-name="shell_config_access_tailscale_tailscale_subnet_router_local_sh" data-source-line="8" id="ent0003"><rect fill="#DBEAFE" height="77.2038" rx="2.5" ry="2.5" style="stroke:#181818;stroke-width:0.5;" width="374.2966" x="20.05" y="529.0179"/><text fill="#000000" font-family="Monospace" font-size="14" lengthAdjust="spacing" textLength="354.2966" x="30.05" y="553.9839">config/access/tailscale/tailscale-subnet-router.local.sh</text><text fill="#000000" font-family="Monospace" font-size="14" lengthAdjust="spacing" textLength="119.3915" x="30.05" y="573.0518">0&#160;local&#160;shell&#160;edges</text><text fill="#000000" font-family="Monospace" font-size="14" lengthAdjust="spacing" textLength="95.0456" x="30.05" y="592.1197">1&#160;external&#160;tool</text></g><!--entity shell_config_network_networkmanager_static_ip_example_sh--><g class="entity" data-qualified-name="shell_config_network_networkmanager_static_ip_example_sh" data-source-line="9" id="ent0004"><rect fill="#DBEAFE" height="77.2038" rx="2.5" ry="2.5" style="stroke:#181818;stroke-width:0.5;" width="375.1647" x="19.61" y="305.0179"/><text fill="#000000" font-family="Monospace" font-size="14" lengthAdjust="spacing" textLength="355.1647" x="29.61" y="329.9839">config/network/networkmanager-static-ip.example.sh</text><text fill="#000000" font-family="Monospace" font-size="14" lengthAdjust="spacing" textLength="119.3915" x="29.61" y="349.0518">0&#160;local&#160;shell&#160;edges</text><text fill="#000000" font-family="Monospace" font-size="14" lengthAdjust="spacing" textLength="101.7516" x="29.61" y="368.1197">2&#160;external&#160;tools</text></g><!--entity shell_config_network_networkmanager_static_ip_local_sh--><g class="entity" data-qualified-name="shell_config_network_networkmanager_static_ip_local_sh" data-source-line="10" id="ent0005"><rect fill="#DBEAFE" height="77.2038" rx="2.5" ry="2.5" style="stroke:#181818;stroke-width:0.5;" width="349.0687" x="32.66" y="417.0179"/><text fill="#000000" font-family="Monospace" font-size="14" lengthAdjust="spacing" textLength="329.0687" x="42.66" y="441.9839">config/network/networkmanager-static-ip.local.sh</text><text fill="#000000" font-family="Monospace" font-size="14" lengthAdjust="spacing" textLength="119.3915" x="42.66" y="461.0518">0&#160;local&#160;shell&#160;edges</text><text fill="#000000" font-family="Monospace" font-size="14" lengthAdjust="spacing" textLength="101.7516" x="42.66" y="480.1197">2&#160;external&#160;tools</text></g><!--entity shell_scripts_debug_private_access_sh--><g class="entity" data-qualified-name="shell_scripts_debug_private_access_sh" data-source-line="11" id="ent0006"><rect fill="#DBEAFE" height="77.2038" rx="2.5" ry="2.5" style="stroke:#181818;stroke-width:0.5;" width="230.8392" x="91.78" y="1243.0179"/><text fill="#000000" font-family="Monospace" font-size="14" lengthAdjust="spacing" textLength="210.8392" x="101.78" y="1267.9839">scripts/debug_private_access.sh</text><text fill="#000000" font-family="Monospace" font-size="14" lengthAdjust="spacing" textLength="119.3915" x="101.78" y="1287.0518">0&#160;local&#160;shell&#160;edges</text><text fill="#000000" font-family="Monospace" font-size="14" lengthAdjust="spacing" textLength="109.7596" x="101.78" y="1306.1197">11&#160;external&#160;tools</text></g><!--entity shell_scripts_remount_luks_share_sh--><g class="entity" data-qualified-name="shell_scripts_remount_luks_share_sh" data-source-line="12" id="ent0007"><rect fill="#DBEAFE" height="77.2038" rx="2.5" ry="2.5" style="stroke:#181818;stroke-width:0.5;" width="220.8712" x="96.76" y="144.0179"/><text fill="#000000" font-family="Monospace" font-size="14" lengthAdjust="spacing" textLength="200.8712" x="106.76" y="168.9839">scripts/remount_luks_share.sh</text><text fill="#000000" font-family="Monospace" font-size="14" lengthAdjust="spacing" textLength="119.3915" x="106.76" y="188.0518">0&#160;local&#160;shell&#160;edges</text><text fill="#000000" font-family="Monospace" font-size="14" lengthAdjust="spacing" textLength="101.7516" x="106.76" y="207.1197">3&#160;external&#160;tools</text></g><!--entity shell_scripts_setup_caddy_filebrowser_sh--><g class="entity" data-qualified-name="shell_scripts_setup_caddy_filebrowser_sh" data-source-line="13" id="ent0008"><rect fill="#DBEAFE" height="77.2038" rx="2.5" ry="2.5" style="stroke:#181818;stroke-width:0.5;" width="249.9771" x="82.21" y="2713.0179"/><text fill="#000000" font-family="Monospace" font-size="14" lengthAdjust="spacing" textLength="229.9771" x="92.21" y="2737.9839">scripts/setup_caddy_filebrowser.sh</text><text fill="#000000" font-family="Monospace" font-size="14" lengthAdjust="spacing" textLength="119.3915" x="92.21" y="2757.0518">0&#160;local&#160;shell&#160;edges</text><text fill="#000000" font-family="Monospace" font-size="14" lengthAdjust="spacing" textLength="109.7596" x="92.21" y="2776.1197">32&#160;external&#160;tools</text></g><!--entity shell_scripts_start_snowbridge_sh--><g class="entity" data-qualified-name="shell_scripts_start_snowbridge_sh" data-source-line="14" id="ent0009"><rect fill="#DBEAFE" height="77.2038" rx="2.5" ry="2.5" style="stroke:#181818;stroke-width:0.5;" width="202.1253" x="106.13" y="753.0179"/><text fill="#000000" font-family="Monospace" font-size="14" lengthAdjust="spacing" textLength="182.1253" x="116.13" y="777.9839">scripts/start_snowbridge.sh</text><text fill="#000000" font-family="Monospace" font-size="14" lengthAdjust="spacing" textLength="119.3915" x="116.13" y="797.0518">0&#160;local&#160;shell&#160;edges</text><text fill="#000000" font-family="Monospace" font-size="14" lengthAdjust="spacing" textLength="101.7516" x="116.13" y="816.1197">3&#160;external&#160;tools</text></g><!--entity tool_in_global--><g class="entity" data-qualified-name="tool_in_global" data-source-line="15" id="ent0010"><path d="M515.0723,2694.2813 C519.3321,2686.6409 525.4499,2687.9537 529.7988,2694.1867 C533.6016,2688.6879 537.7705,2688.0071 541.8399,2693.9051 C545.2086,2687.5763 550.4117,2687.7813 554.3519,2693.3015 C558.9626,2686.6773 564.0888,2687.4805 568.417,2693.6131 C571.1028,2687.1388 576.9415,2687.27 580.3757,2692.8721 C584.1518,2686.6593 590.3046,2687.1612 593.6563,2693.3274 C603.9381,2696.6653 603.8388,2702.5536 597.8025,2709.9594 C605.3156,2718.5876 601.2408,2724.0053 592.124,2727.1357 C589.0847,2733.2977 583.8726,2734.794 579.1419,2728.9673 C576.2998,2735.7032 571.752,2735.6435 567.1449,2730.7951 C564.05,2738.0265 558.969,2738.399 554.0187,2732.675 C548.85,2738.568 544.2352,2737.106 541.5918,2730.2193 C537.3408,2737.0139 531.8458,2735.7639 528.0772,2729.712 C523.3199,2735.7578 519.4839,2734.246 516.101,2728.3353 C508.3158,2723.4842 506.8593,2718.1207 514.1948,2711.5523 C506.9231,2706.1251 505.6275,2698.8592 515.0723,2694.2813" fill="#FEF3C7" style="stroke:#181818;stroke-width:0.5;"/><text fill="#000000" font-family="Monospace" font-size="14" lengthAdjust="spacing" textLength="63.0138" x="521.88" y="2715.0539">!in_global</text></g><!--entity tool_command_exists--><g class="entity" data-qualified-name="tool_command_exists" data-source-line="16" id="ent0011"><path d="M490.3091,2778.399 C494.16,2772.6691 500.3868,2772.3891 503.7216,2778.9616 C506.9005,2773.4504 512.3485,2772.756 516.5448,2777.7156 C519.6971,2771.1036 525.5122,2771.0352 529.6826,2776.6189 C533.2242,2770.2884 538.5531,2771.4764 542.0329,2776.685 C546.1993,2770.5864 551.6926,2770.6353 555.3047,2777.2631 C559.6337,2771.3569 563.4089,2771.8625 567.501,2777.5132 C570.9963,2772.0138 576.9838,2770.1168 580.7779,2777.1979 C585.4273,2771.7249 589.0321,2772.3208 592.2049,2778.6299 C595.331,2770.7066 601.7853,2771.3796 606.5013,2776.9449 C611.166,2770.8878 616.5452,2772.6972 619.3311,2778.9094 C627.3764,2782.7093 628.4518,2788.5882 621.0572,2794.1381 C628.5385,2800.0269 626.9941,2806.8952 618.5113,2810.2635 C616.606,2816.7634 611.0961,2818.5595 606.4427,2813.0179 C603.4427,2819.7835 598.1726,2820.4135 593.3168,2815.0215 C589.0756,2821.4 583.9534,2820.4092 579.9241,2814.785 C577.0995,2821.4483 571.7656,2821.9966 566.6907,2817.4388 C563.3644,2822.8248 559.2169,2824.6372 554.8056,2818.5642 C549.6194,2825.2168 544.7694,2824.6298 540.7048,2817.4231 C535.9206,2822.1165 531.9772,2820.9223 529.2196,2815.1904 C525.3147,2821.0323 519.8903,2820.9599 516.0041,2815.1692 C510.804,2820.4619 506.257,2818.5448 504.1165,2812.0766 C500.691,2818.5525 494.6393,2818.2383 491.2285,2812.0617 C481.8034,2808.6338 482.6242,2801.3265 488.8688,2795.6461 C481.2469,2790.0109 481.9699,2782.7013 490.3091,2778.399" fill="#FEF3C7" style="stroke:#181818;stroke-width:0.5;"/><text fill="#000000" font-family="Monospace" font-size="14" lengthAdjust="spacing" textLength="114.2816" x="496.25" y="2799.0539">(command_exists</text></g><!--entity tool_tool_2_0_9--><g class="entity" data-qualified-name="tool_tool_2_0_9" data-source-line="17" id="ent0012"><path d="M528.4483,2862.5906 C532.3677,2856.1104 536.5758,2856.5162 541.5712,2861.3417 C544.3355,2855.0236 551.1482,2854.3736 555.4313,2859.5026 C560.0371,2853.9394 565.3352,2856.6038 567.085,2862.4258 C570.9337,2855.7069 576.4172,2854.7907 581.4158,2861.1674 C591.6645,2862.0125 597.0584,2869.0269 589.9408,2878.4421 C594.5888,2887.1372 591.0412,2894.8534 580.8399,2895.7325 C578.0218,2902.9366 573.318,2905.208 566.7944,2899.8881 C565.832,2907.8668 561.6668,2909.0748 555.2113,2905.3029 C549.5314,2909.7952 543.7729,2907.4545 541.9289,2900.7517 C535.5973,2907.243 529.3978,2904.175 527.8496,2896.1215 C516.4456,2896.6536 513.0207,2888.3346 518.0723,2879.3013 C512.672,2869.2623 516.3431,2861.7601 528.4483,2862.5906" fill="#FEF3C7" style="stroke:#181818;stroke-width:0.5;"/><text fill="#000000" font-family="Monospace" font-size="14" lengthAdjust="spacing" textLength="37.7439" x="534.51" y="2883.0539">2[0-9]</text></g><!--entity tool_tool_3_0_1--><g class="entity" data-qualified-name="tool_tool_3_0_1" data-source-line="18" id="ent0013"><path d="M525.2623,2945.6278 C529.5194,2938.7053 535.5764,2939.0532 540.1573,2945.2605 C544.5103,2938.5027 549.3938,2939.0891 554.0804,2944.8908 C559.7482,2937.9231 565.3028,2937.5804 570.4874,2945.426 C576.0236,2938.3166 581.1471,2939.6485 585.3488,2946.8151 C595.2034,2948.1847 597.6468,2953.1518 594.0246,2962.1472 C598.0385,2970.9213 594.6363,2979.3103 583.6084,2978.5075 C580.6324,2986.8019 575.0207,2986.6005 569.3446,2981.3513 C566.0315,2988.5614 561.4722,2991.3597 555.014,2984.5709 C549.5484,2992.1118 542.7172,2992.108 538.9436,2982.9431 C532.8123,2989.0355 526.6476,2987.5645 524.7893,2978.8566 C516.9688,2976.2455 516.0356,2969.146 521.496,2963.6572 C515.24,2957.5371 516.4611,2948.6025 525.2623,2945.6278" fill="#FEF3C7" style="stroke:#181818;stroke-width:0.5;"/><text fill="#000000" font-family="Monospace" font-size="14" lengthAdjust="spacing" textLength="45.6958" x="530.54" y="2967.0539">3[0-1]).</text></g><!--entity tool_tool_443--><g class="entity" data-qualified-name="tool_tool_443" data-source-line="19" id="ent0014"><path d="M534.9532,1181.7753 C539.8175,1172.3855 549.1907,1171.6537 554.8051,1180.9796 C561.6068,1173.2967 567.2816,1173.332 572.4134,1182.7036 C582.9689,1183.3533 585.2197,1189.9472 580.4035,1198.4145 C585.1813,1207.244 581.7784,1212.2086 572.7719,1214.4972 C567.6363,1224.4421 561.9525,1225.1453 554.3219,1217.0488 C547.6786,1224.6289 539.402,1225.4258 535.2421,1214.4898 C526.2382,1213.1819 523.5161,1206.2238 529.759,1199.3823 C522.439,1192.1511 526.2046,1184.266 534.9532,1181.7753" fill="#FEF3C7" style="stroke:#181818;stroke-width:0.5;"/><text fill="#000000" font-family="Monospace" font-size="14" lengthAdjust="spacing" textLength="24.0239" x="541.37" y="1203.0539">443</text></g><!--entity tool_tool_445--><g class="entity" data-qualified-name="tool_tool_445" data-source-line="20" id="ent0015"><path d="M534.9532,1265.7753 C539.8175,1256.3855 549.1907,1255.6537 554.8051,1264.9796 C561.6068,1257.2967 567.2816,1257.332 572.4134,1266.7036 C582.9689,1267.3533 585.2197,1273.9472 580.4035,1282.4145 C585.1813,1291.244 581.7784,1296.2086 572.7719,1298.4972 C567.6363,1308.4421 561.9525,1309.1453 554.3219,1301.0488 C547.6786,1308.6289 539.402,1309.4258 535.2421,1298.4898 C526.2382,1297.1819 523.5161,1290.2238 529.759,1283.3823 C522.439,1276.1511 526.2046,1268.266 534.9532,1265.7753" fill="#FEF3C7" style="stroke:#181818;stroke-width:0.5;"/><text fill="#000000" font-family="Monospace" font-size="14" lengthAdjust="spacing" textLength="24.0239" x="541.37" y="1287.0539">445</text></g><!--entity tool_tool_80--><g class="entity" data-qualified-name="tool_tool_80" data-source-line="21" id="ent0016"><path d="M539.1151,1351.287 C541.9367,1344.4525 549.1581,1341.6084 554.3156,1348.7456 C560.6127,1341.2307 565.9291,1341.2617 570.3611,1350.5288 C579.194,1352.2902 581.3421,1358.8866 576.9128,1366.1945 C583.6457,1375.8848 579.0722,1381.1537 569.3171,1383.6829 C565.2698,1390.1252 557.5218,1391.8209 553.4432,1383.7169 C549.9642,1391.0368 543.8968,1390.2786 539.9773,1384.1583 C529.0472,1383.7271 523.31,1377.6941 529.0104,1366.7724 C525.6653,1356.9333 527.6775,1351.4799 539.1151,1351.287" fill="#FEF3C7" style="stroke:#181818;stroke-width:0.5;"/><text fill="#000000" font-family="Monospace" font-size="14" lengthAdjust="spacing" textLength="16.0159" x="545.38" y="1371.0539">80</text></g><!--entity tool_space--><g class="entity" data-qualified-name="tool_space" data-source-line="22" id="ent0017"><path d="M516.0343,3029.3534 C519.4343,3023.5086 525.8787,3022.8373 528.939,3029.6983 C532.6304,3023.0657 537.6066,3022.9861 542.0903,3028.8655 C546.0695,3022.6938 550.552,3023.1783 554.9446,3028.399 C558.4343,3022.45 562.0477,3023.0225 565.9373,3027.9966 C570.845,3021.4227 575.2617,3022.3766 579.0216,3029.1241 C582.5672,3023.8325 588.7283,3022.9396 591.7405,3029.6875 C600.4368,3032.4202 603.4331,3040.6276 596.9538,3047.7422 C602.2892,3053.5469 600.506,3060.3289 592.9244,3062.6399 C590.4057,3071.0967 584.9325,3071.7765 578.676,3066.525 C576.0655,3072.0571 571.9842,3072.8063 567.3825,3068.9101 C564.5669,3075.4593 559.3164,3077.4381 554.4164,3070.9895 C549.0262,3076.4753 544.652,3075.1507 542.2075,3068.1169 C537.8567,3073.3397 532.206,3073.7018 529.3351,3066.5744 C524.4693,3070.5776 520.1052,3071.2857 517.5984,3064.1 C506.8343,3060.9817 506.6923,3055.1142 512.5676,3047.0782 C505.7874,3039.82 506.0747,3033.3375 516.0343,3029.3534" fill="#FEF3C7" style="stroke:#181818;stroke-width:0.5;"/><text fill="#000000" font-family="Monospace" font-size="14" lengthAdjust="spacing" textLength="8.008" x="522.88" y="3051.0539">^</text><a href=":space:" target="_top" title=":space:" xlink:actuate="onRequest" xlink:href=":space:" xlink:show="new" xlink:title=":space:" xlink:type="simple"><text fill="#0000FF" font-family="Monospace" font-size="14" lengthAdjust="spacing" text-decoration="underline" textLength="45.2898" x="530.888" y="3051.0539">:space:</text></a><text fill="#000000" font-family="Monospace" font-size="14" lengthAdjust="spacing" textLength="7.714" x="576.1778" y="3051.0539">*</text></g><!--entity tool_space_2--><g class="entity" data-qualified-name="tool_space_2" data-source-line="23" id="ent0018"><path d="M515.8843,3113.3534 C519.2966,3107.4861 525.7654,3106.8116 528.838,3113.6983 C532.5447,3107.0419 537.5393,3106.9632 542.0383,3112.8655 C546.0335,3106.6709 550.533,3107.1578 554.9416,3112.399 C558.4478,3106.4241 562.0772,3106.9997 565.9833,3111.9966 C570.9072,3105.3967 575.3406,3106.3527 579.1166,3113.1241 C582.6749,3107.8116 588.8595,3106.9142 591.8845,3113.6875 C600.5808,3116.4202 603.5771,3124.6276 597.0978,3131.7422 C602.4332,3137.5469 600.65,3144.3289 593.0684,3146.6399 C590.5343,3155.1216 585.043,3155.7987 578.771,3150.525 C576.1448,3156.0778 572.0459,3156.8265 567.4285,3152.9101 C564.5986,3159.4818 559.3277,3161.4647 554.4134,3154.9895 C549.0076,3160.5009 544.6156,3159.1752 542.1555,3152.1169 C537.7907,3157.3613 532.119,3157.7272 529.2341,3150.5744 C524.3523,3154.5977 519.9713,3155.3123 517.4484,3148.1 C506.6843,3144.9817 506.5423,3139.1142 512.4176,3131.0782 C505.6374,3123.82 505.9247,3117.3375 515.8843,3113.3534" fill="#FEF3C7" style="stroke:#181818;stroke-width:0.5;"/><text fill="#000000" font-family="Monospace" font-size="14" lengthAdjust="spacing" textLength="8.008" x="522.73" y="3135.0539">^</text><a href=":space:" target="_top" title=":space:" xlink:actuate="onRequest" xlink:href=":space:" xlink:show="new" xlink:title=":space:" xlink:type="simple"><text fill="#0000FF" font-family="Monospace" font-size="14" lengthAdjust="spacing" text-decoration="underline" textLength="45.2898" x="530.738" y="3135.0539">:space:</text></a><text fill="#000000" font-family="Monospace" font-size="14" lengthAdjust="spacing" textLength="8.008" x="576.0278" y="3135.0539">+</text></g><!--entity tool_apt_get--><g class="entity" data-qualified-name="tool_apt_get" data-source-line="24" id="ent0019"><path d="M524.3503,3198.5558 C527.8683,3192.231 534.8257,3192.0353 539.0059,3197.7497 C542.6991,3190.4294 548.6803,3189.6552 554.1576,3195.7319 C559.589,3188.8271 567.517,3189.0714 570.3612,3198.3261 C573.9793,3191.7829 581.1787,3190.2949 585.7022,3197.3009 C596.4769,3198.3995 600.4952,3203.9574 594.491,3213.9261 C599.4188,3223.5651 595.3156,3231.1542 584.1882,3231.2388 C582.0007,3238.9637 575.7699,3240.36 570.2292,3234.7486 C567.973,3243.0077 562.6574,3244.857 555.4066,3240.7219 C547.7316,3246.5811 541.3758,3245.777 538.2636,3235.7867 C531.2879,3242.381 524.6248,3238.9489 522.8716,3230.4579 C515.9424,3225.5298 514.345,3220.9217 522.2413,3215.3741 C515.5473,3209.306 516.5243,3202.8031 524.3503,3198.5558" fill="#FEF3C7" style="stroke:#181818;stroke-width:0.5;"/><text fill="#000000" font-family="Monospace" font-size="14" lengthAdjust="spacing" textLength="47.5858" x="529.59" y="3219.0539">apt-get</text></g><!--entity tool_cat--><g class="entity" data-qualified-name="tool_cat" data-source-line="25" id="ent0020"><path d="M537.4882,1518.102 C541.3719,1507.992 548.2392,1508.3969 555.0021,1515.1033 C562.4859,1508.411 566.8446,1511.2705 570.4538,1519.1983 C579.0692,1522.3511 579.5573,1527.8433 574.2519,1534.4603 C580.1994,1540.6174 579.8212,1548.5145 570.3711,1551.0752 C568.0483,1560.8909 560.7667,1561.8902 553.4082,1556.8096 C545.5932,1562.9014 540.3419,1560.1764 537.9327,1551.2422 C527.1725,1549.9926 525.7603,1544.5466 530.3837,1535.7843 C524.674,1527.7136 526.2207,1519.3515 537.4882,1518.102" fill="#FEF3C7" style="stroke:#181818;stroke-width:0.5;"/><text fill="#000000" font-family="Monospace" font-size="14" lengthAdjust="spacing" textLength="19.6279" x="543.57" y="1539.0539">cat</text></g><!--entity tool_chmod--><g class="entity" data-qualified-name="tool_chmod" data-source-line="26" id="ent0021"><path d="M525.3423,3281.6278 C529.588,3274.7229 535.6293,3275.0695 540.1988,3281.2605 C544.5393,3274.521 549.4093,3275.1055 554.0834,3280.8908 C559.7384,3273.9398 565.2801,3273.5984 570.4519,3281.426 C575.9756,3274.3362 581.0856,3275.6659 585.2749,3282.8151 C595.1294,3284.1847 597.5728,3289.1518 593.9506,3298.1472 C597.9646,3306.9213 594.5623,3315.3103 583.5344,3314.5075 C580.5704,3322.7819 574.9732,3322.5839 569.3091,3317.3513 C566.0086,3324.5448 561.4626,3327.3387 555.017,3320.5709 C549.5625,3328.0926 542.7475,3328.0872 538.9851,3318.9431 C532.8648,3325.0158 526.7166,3323.544 524.8693,3314.8566 C517.0488,3312.2455 516.1156,3305.146 521.576,3299.6572 C515.32,3293.5371 516.5411,3284.6025 525.3423,3281.6278" fill="#FEF3C7" style="stroke:#181818;stroke-width:0.5;"/><text fill="#000000" font-family="Monospace" font-size="14" lengthAdjust="spacing" textLength="45.5418" x="530.62" y="3303.0539">chmod</text></g><!--entity tool_dig--><g class="entity" data-qualified-name="tool_dig" data-source-line="27" id="ent0022"><path d="M537.2612,1433.1566 C541.6055,1425.5287 549.0707,1424.0661 554.5251,1431.9186 C561.9331,1423.8047 568.0418,1425.7522 572.3305,1435.0994 C581.7019,1436.3515 585.7619,1441.2441 580.927,1450.4512 C587.0178,1460.1779 581.3444,1466.602 571.4561,1467.3996 C568.5461,1477.3752 562.8552,1479.7425 554.4733,1472.9374 C546.1573,1480.0497 538.3426,1476.1465 536.3546,1466.2117 C528.542,1461.933 526.11,1457.3108 533.6187,1450.3839 C526.5508,1443.1659 527.4357,1436.8028 537.2612,1433.1566" fill="#FEF3C7" style="stroke:#181818;stroke-width:0.5;"/><text fill="#000000" font-family="Monospace" font-size="14" lengthAdjust="spacing" textLength="20.8319" x="542.97" y="1455.0539">dig</text></g><!--entity tool_dnf--><g class="entity" data-qualified-name="tool_dnf" data-source-line="28" id="ent0023"><path d="M535.8952,3367.0473 C541.3575,3356.8448 547.404,3354.6363 555.4861,3364.488 C560.3728,3355.4778 568.3711,3355.9258 572.6111,3365.0973 C583.7845,3367.8493 585.2584,3373.8441 578.2107,3382.4695 C584.6699,3389.0237 581.6877,3396.6503 573.3201,3398.7508 C570.0458,3408.6715 561.2503,3409.7963 554.55,3402.4817 C548.2818,3411.8771 539.5476,3409.9566 535.4908,3400.2726 C524.5934,3398.2889 520.751,3393.1089 527.5286,3382.9847 C521.7362,3372.9395 524.3218,3367.9761 535.8952,3367.0473" fill="#FEF3C7" style="stroke:#181818;stroke-width:0.5;"/><text fill="#000000" font-family="Monospace" font-size="14" lengthAdjust="spacing" textLength="22.0779" x="542.35" y="3387.0539">dnf</text></g><!--entity tool_docker--><g class="entity" data-qualified-name="tool_docker" data-source-line="29" id="ent0024"><path d="M524.5513,3451.1918 C528.4245,3443.2824 533.469,3444.1162 538.9048,3449.5051 C542.3731,3442.1941 549.586,3442.0328 554.1205,3448.3114 C560.4366,3440.4874 565.1745,3442.6095 570.0041,3449.8761 C574.0945,3442.6803 579.6745,3443.7164 583.5835,3450.058 C593.9626,3450.8111 596.7801,3458.7942 592.3158,3467.1367 C596.9816,3476.2227 593.7744,3481.8096 584.1563,3483.9732 C578.6092,3491.8968 573.6871,3492.252 568.2666,3483.85 C565.8703,3491.0783 559.7805,3490.8524 555.2118,3486.2464 C549.672,3494.6813 543.5046,3492.6243 539.0269,3485.1649 C533.1995,3490.6942 528.1511,3490.5875 524.6755,3482.6573 C516.2143,3481.6172 512.7185,3474.4616 518.3137,3467.5157 C513.5479,3459.5035 514.2299,3453.4389 524.5513,3451.1918" fill="#FEF3C7" style="stroke:#181818;stroke-width:0.5;"/><text fill="#000000" font-family="Monospace" font-size="14" lengthAdjust="spacing" textLength="44.9538" x="530.91" y="3471.0539">docker</text></g><!--entity tool_docker_compose--><g class="entity" data-qualified-name="tool_docker_compose" data-source-line="30" id="ent0025"><path d="M492.4231,930.0897 C495.6678,924.1937 500.8365,924.0502 504.767,929.3323 C508.0674,923.6305 514.2315,923.7602 517.4988,929.3695 C520.388,921.8857 527.0912,922.3878 531.0227,928.3187 C534.0356,922.449 539.4309,922.1285 542.6208,928.146 C546.7932,923.51 550.5579,923.441 554.3397,928.6127 C558.8449,922.9555 563.0724,922.5491 566.9991,929.2073 C570.297,923.3695 574.7322,923.5595 578.2831,928.9532 C581.6309,923.4222 586.6338,922.5806 590.3451,928.5727 C595.0726,922.965 599.5952,923.2918 602.6087,930.2459 C606.2494,924.2603 611.0969,923.3903 615.3265,929.6335 C626.3315,930.9945 627.1598,939.5923 621.717,947.0043 C627.1413,954.0929 624.2728,961.7816 615.0063,962.5136 C612.472,967.9473 608.1173,970.1854 603.6132,964.5391 C600.5101,971.5154 596.4255,971.4082 591.7616,966.0372 C589.3738,972.714 583.3388,973.725 578.6975,968.5135 C575.9288,974.4661 570.6386,976.8058 565.9571,970.5017 C563.4982,975.8181 558.2645,975.4619 555.2558,971.1104 C550.4731,978.1153 545.747,977.397 541.8981,970.2303 C537.5849,975.6562 533.7141,973.8897 530.9452,968.6451 C526.0423,973.5504 520.8261,971.7705 518.3378,965.8366 C513.9273,971.759 507.5979,969.8587 505.0808,963.7502 C501.2827,970.0986 497.266,968.9218 493.1512,964.0879 C485.363,960.8639 482.5074,952.6479 490.309,946.853 C484.0507,940.3405 484.0423,934.756 492.4231,930.0897" fill="#FEF3C7" style="stroke:#181818;stroke-width:0.5;"/><text fill="#000000" font-family="Monospace" font-size="14" lengthAdjust="spacing" textLength="108.5556" x="499.11" y="951.0539">docker&#160;compose</text></g><!--entity tool_docker_compose_2--><g class="entity" data-qualified-name="tool_docker_compose_2" data-source-line="31" id="ent0026"><path d="M493.0642,3534.7257 C495.8928,3528.9474 501.4453,3526.5526 505.8507,3533.0885 C509.8627,3527.4778 514.0379,3528.2636 517.1913,3533.9504 C520.4004,3527.649 525.8592,3527.5945 528.94,3534.0684 C532.6602,3527.3217 538.3384,3527.5423 542.5555,3533.5374 C545.408,3526.1884 550.4256,3527.0288 555.0908,3531.6371 C559.6827,3526.9019 563.5679,3528.2911 566.0905,3533.8485 C570.1111,3527.8022 575.5734,3528.2466 579.7308,3533.6861 C582.4979,3528.5569 587.8995,3527.1357 591.4909,3532.7869 C595.732,3526.797 601.9154,3526.587 604.9512,3533.9976 C608.7185,3529.3166 613.3933,3529.5978 616.2465,3535.0196 C625.6074,3537.3269 627.3702,3543.152 623.0338,3551.2037 C628.8434,3559.1418 625.8473,3567.1958 615.5759,3567.9888 C611.7588,3574.441 607.8385,3574.0824 603.1502,3568.921 C600.7731,3575.5743 595.2254,3575.0769 591.1645,3570.7608 C588.3602,3577.6675 583.5485,3577.5556 578.7475,3572.9062 C576.1907,3578.7047 570.3567,3578.8564 566.9009,3573.8961 C564.2915,3579.9777 558.1434,3581.5359 553.7295,3575.9297 C549.6772,3582.0581 544.1792,3579.7336 541.6409,3574.341 C538.5917,3578.8479 533.0226,3579.4765 530.5407,3573.7271 C524.7173,3580.1814 518.7346,3578.0669 516.7998,3570.0378 C512.8683,3575.2983 509.3917,3575.0619 506.0431,3569.4605 C501.3058,3574.755 495.9412,3573.5908 493.5054,3567.0272 C484.0444,3564.6959 483.4693,3556.5876 489.9394,3550.7633 C482.8828,3545.0863 484.9642,3537.4496 493.0642,3534.7257" fill="#FEF3C7" style="stroke:#181818;stroke-width:0.5;"/><text fill="#000000" font-family="Monospace" font-size="14" lengthAdjust="spacing" textLength="109.4236" x="498.67" y="3555.0539">docker-compose</text></g><!--entity tool_grep--><g class="entity" data-qualified-name="tool_grep" data-source-line="32" id="ent0027"><path d="M532.2692,1602.0846 C534.946,1597.6761 539.4681,1596.5353 542.6297,1601.5516 C545.8603,1594.576 549.8101,1593.6614 555.3739,1599.1698 C558.5121,1594.4056 563.7602,1595.5747 566.0312,1600.1585 C570.4109,1596.1943 574.2713,1596.8767 576.6098,1602.4279 C586.5274,1605.1987 586.4225,1611.5752 580.9252,1618.4881 C587.7446,1626.3669 584.9041,1631.5664 576.3645,1635.2717 C574.2051,1641.4232 570.648,1643.2422 565.0864,1638.9434 C563.3057,1643.8253 558.5078,1645.8728 554.5485,1641.3966 C548.6488,1644.9656 544.6593,1644.2529 542.2792,1637.2946 C538.346,1641.8584 533.2025,1640.0468 531.6388,1634.7403 C521.924,1632.6187 519.3377,1624.8805 526.688,1617.7781 C520.9433,1610.851 523.4003,1603.8146 532.2692,1602.0846" fill="#FEF3C7" style="stroke:#181818;stroke-width:0.5;"/><text fill="#000000" font-family="Monospace" font-size="14" lengthAdjust="spacing" textLength="30.8979" x="537.94" y="1623.0539">grep</text></g><!--entity tool_host--><g class="entity" data-qualified-name="tool_host" data-source-line="33" id="ent0028"><path d="M534.0252,1686.3939 C538.2986,1674.5266 548.3091,1674.9446 555.0982,1683.8406 C562.0023,1675.8124 570.7969,1676.4494 575.5424,1686.3078 C585.0779,1690.267 584.276,1695.5806 578.5261,1702.3778 C585.4967,1709.5876 584.4547,1715.9864 574.9338,1719.7948 C573.0128,1725.5547 569.665,1726.4329 564.9039,1722.8408 C563.8231,1728.287 559.199,1729.7507 555.2642,1725.7542 C550.0041,1730.6328 545.8461,1729.3286 543.2825,1722.8975 C538.9885,1725.6316 535.6495,1724.6338 534.0456,1719.6697 C525.5464,1716.848 522.9193,1708.1201 529.9705,1701.7601 C523.5406,1694.4207 524.4132,1689.5004 534.0252,1686.3939" fill="#FEF3C7" style="stroke:#181818;stroke-width:0.5;"/><text fill="#000000" font-family="Monospace" font-size="14" lengthAdjust="spacing" textLength="28.8819" x="538.95" y="1707.0539">host</text></g><!--entity tool_i--><g class="entity" data-qualified-name="tool_i" data-source-line="34" id="ent0029"><path d="M544.6983,3617.6206 C545.2371,3614.6323 547.1291,3614.6773 549.2122,3616.0059 C550.5381,3613.4842 552.1893,3613.2921 554.2576,3615.1507 C555.9664,3614.0226 557.5211,3614.5464 558.007,3616.5944 C560.5395,3614.7608 562.2557,3615.477 563.1839,3618.3566 C573.0728,3620.5561 575.2342,3628.4246 567.6689,3635.2563 C574.6363,3642.5033 571.504,3648.1875 563.2784,3651.2687 C564.3059,3657.2789 560.9049,3659.2382 555.5847,3658.4027 C549.7543,3661.3922 545.758,3658.7606 546.5207,3652.1669 C535.3924,3651.4003 531.9981,3644.4383 537.3973,3634.9259 C531.6532,3625.9893 533.1011,3619.2409 544.6983,3617.6206" fill="#FEF3C7" style="stroke:#181818;stroke-width:0.5;"/><text fill="#000000" font-family="Monospace" font-size="14" lengthAdjust="spacing" textLength="3.612" x="551.58" y="3639.0539">i</text></g><!--entity tool_id--><g class="entity" data-qualified-name="tool_id" data-source-line="35" id="ent0030"><path d="M541.7232,846.6683 C543.5312,839.499 549.1738,838.2583 554.0345,843.6846 C560.2164,837.1684 565.0222,838.902 567.7762,846.9246 C575.6469,851.4562 574.906,857.1729 568.3343,862.2311 C575.258,866.9808 574.9671,874.1934 567.6993,878.3852 C566.9787,888.5721 562.3032,890.805 553.5937,885.8056 C547.7764,889.6641 541.4684,887.841 541.3898,879.8802 C529.6152,879.13 525.6557,871.2809 533.1702,861.7741 C529.3009,853.6026 532.4108,847.3763 541.7232,846.6683" fill="#FEF3C7" style="stroke:#181818;stroke-width:0.5;"/><text fill="#000000" font-family="Monospace" font-size="14" lengthAdjust="spacing" textLength="12.222" x="547.28" y="867.0539">id</text></g><!--entity tool_in_global_2--><g class="entity" data-qualified-name="tool_in_global_2" data-source-line="36" id="ent0031"><path d="M517.6603,3701.6627 C521.7779,3695.866 526.1305,3694.2056 530.7671,3701.1278 C534.3096,3695.3008 539.6763,3695.9036 543.1431,3701.212 C546.1967,3696.1244 551.2011,3694.6903 554.7447,3700.6999 C557.9073,3696.1703 562.3182,3695.6577 565.623,3700.5354 C570.0228,3693.5872 576.3126,3694.0511 579.3935,3701.7734 C583.5611,3695.7445 588.3069,3696.8041 591.1611,3703.0342 C599.1293,3705.1076 602.5131,3710.8115 596.0187,3717.6813 C603.2265,3724.4023 602.1026,3733.4 591.4396,3735.5385 C588.6752,3742.4419 583.9822,3742.3141 579.4852,3737.2724 C577.6029,3744.7075 570.9141,3745.8054 566.1624,3740.2051 C562.9562,3746.8556 558.5605,3746.8862 553.5482,3742.218 C549.3046,3746.4221 544.5762,3745.9651 543.1385,3739.4844 C537.685,3745.152 533.3625,3743.2819 530.4572,3736.8203 C525.8796,3743.1065 521.5675,3741.7185 517.5793,3736.1784 C508.4818,3732.8104 507.1779,3725.1319 515.0567,3719.2362 C507.1307,3713.0526 508.8518,3705.367 517.6603,3701.6627" fill="#FEF3C7" style="stroke:#181818;stroke-width:0.5;"/><text fill="#000000" font-family="Monospace" font-size="14" lengthAdjust="spacing" textLength="59.2478" x="523.76" y="3723.0539">in_global</text></g><!--entity tool_install--><g class="entity" data-qualified-name="tool_install" data-source-line="37" id="ent0032"><path d="M527.8163,3785.3185 C531.9649,3780.1102 536.9056,3778.907 540.5668,3785.8308 C544.8522,3777.3556 550.0042,3778.6909 555.5226,3784.5437 C559.0318,3779.905 563.8671,3779.3371 566.8398,3785.126 C572.2696,3778.1556 576.8047,3778.3458 581.5171,3785.8532 C591.6788,3785.7441 596.1249,3793.8167 590.1552,3802.221 C594.7727,3811.1014 590.4556,3817.1733 581.1678,3818.2638 C578.6124,3826.2529 572.8618,3827.1511 567.5601,3820.8855 C563.7411,3828.9035 558.8425,3828.9141 553.4179,3822.4539 C549.0133,3828.3112 544.5069,3827.6948 541.3959,3821.1953 C537.4678,3826.1344 531.1363,3825.3981 528.4119,3819.7228 C517.4409,3817.5738 516.6095,3811.8363 521.2976,3803.0182 C513.9776,3793.5074 516.0958,3787.8169 527.8163,3785.3185" fill="#FEF3C7" style="stroke:#181818;stroke-width:0.5;"/><text fill="#000000" font-family="Monospace" font-size="14" lengthAdjust="spacing" textLength="39.1019" x="533.84" y="3807.0539">install</text></g><!--entity tool_ipv6_method--><g class="entity" data-qualified-name="tool_ipv6_method" data-source-line="38" id="ent0033"><path d="M505.0732,334.8501 C509.4243,328.5168 513.4827,327.4636 518.6291,334.0131 C521.4883,329.3064 526.2842,329.0901 529.6328,333.4169 C532.8349,328.0714 538.3719,326.74 541.9891,332.9739 C546.2011,327.8677 551.4476,326.6766 555.1464,333.5382 C559.1841,327.0249 562.9149,327.7416 567.414,333.0598 C570.9538,328.6713 575.7018,328.8945 577.8608,334.5028 C582.3507,328.9473 588.1015,327.6115 591.8924,335.2465 C594.8018,330.5543 598.3196,330.3951 601.8868,334.4989 C610.5961,338.6528 611.9706,345.8064 605.2324,352.7863 C611.3401,357.7807 612.4019,366.1492 603.0223,369.0375 C599.8133,374.5324 593.9612,374.2156 590.8832,368.8905 C588.9633,376.1285 584.2046,375.8086 579.3555,371.9274 C575.7325,376.9508 570.672,377.3872 567.452,371.4882 C564.5916,378.0524 560.57,379.7443 555.2749,373.8721 C550.7103,378.3008 546.1487,377.7036 543.0969,372.0456 C538.4605,379.2254 533.7597,378.2931 529.3101,371.8565 C525.3287,376.1641 521.6594,375.5984 519.1238,370.3202 C515.2372,376.4374 509.8132,375.1968 507.0807,369.1753 C496.7818,367.554 492.3829,359.2604 499.6838,350.6222 C494.6449,343.6571 494.9959,336.6499 505.0732,334.8501" fill="#FEF3C7" style="stroke:#181818;stroke-width:0.5;"/><text fill="#000000" font-family="Monospace" font-size="14" lengthAdjust="spacing" textLength="82.8657" x="511.95" y="356.0539">ipv6.method</text></g><!--entity tool_mapfile--><g class="entity" data-qualified-name="tool_mapfile" data-source-line="39" id="ent0034"><path d="M522.6543,83.2465 C527.3122,74.3347 534.9085,74.6978 539.4899,83.3199 C543.4345,76.08 548.7631,76.7483 553.3989,82.5849 C559.1968,74.6636 565.6212,75.6759 571.0371,83.0261 C575.5948,74.9945 582.1039,75.5995 586.1184,83.539 C597.0073,84.0579 598.9131,90.0288 594.8696,98.9998 C600.4503,108.7094 597.83,115.3787 585.9956,115.9951 C583.6713,124.4798 575.8627,124.7356 570.5681,119.2829 C567.3965,129.53 561.4459,130.6706 553.8094,123.6049 C547.4813,129.728 542.7587,129.0088 538.5905,121.2388 C530.9191,126.4072 525.4829,125.899 522.2442,116.3242 C512.5467,113.2285 510.1298,107.4891 517.7929,99.7351 C512.2015,92.9014 512.5164,85.4427 522.6543,83.2465" fill="#FEF3C7" style="stroke:#181818;stroke-width:0.5;"/><text fill="#000000" font-family="Monospace" font-size="14" lengthAdjust="spacing" textLength="49.4898" x="528.64" y="104.0539">mapfile</text></g><!--entity tool_mkdir--><g class="entity" data-qualified-name="tool_mkdir" data-source-line="40" id="ent0035"><path d="M528.4113,1013.6453 C532.2359,1007.8092 537.5633,1007.8081 540.8887,1014.1565 C544.4158,1007.2931 549.9826,1007.5706 554.7147,1012.7761 C558.6526,1006.7431 562.9004,1007.2672 567.1956,1012.3759 C571.5427,1007.0338 576.7954,1006.5913 579.9007,1013.6484 C592.5044,1013.868 595.0408,1021.0573 590.6445,1031.5053 C595.2329,1040.2585 589.7385,1046.689 580.8293,1046.7543 C577.8907,1053.0177 574.0179,1055.2713 568.1734,1049.921 C565.3257,1056.6074 559.1346,1058.2515 553.8139,1052.8614 C548.3832,1057.3793 544.4974,1055.2275 542.425,1049.2257 C536.7431,1056.4477 530.3304,1054.4697 527.2783,1046.5884 C517.9284,1044.5254 513.5533,1040.0298 519.4115,1030.5208 C513.9552,1020.0865 518.2196,1015.7344 528.4113,1013.6453" fill="#FEF3C7" style="stroke:#181818;stroke-width:0.5;"/><text fill="#000000" font-family="Monospace" font-size="14" lengthAdjust="spacing" textLength="38.5699" x="534.1" y="1035.0539">mkdir</text></g><!--entity tool_mount--><g class="entity" data-qualified-name="tool_mount" data-source-line="41" id="ent0036"><path d="M524.6983,166.9372 C528.3529,159.1975 534.7913,159.0589 539.6448,165.6902 C544.7017,159.5509 550.2486,159.5187 554.8421,166.2378 C559.175,159.6761 565.9449,160.0192 569.846,166.7261 C573.7101,159.8744 578.7953,161.3206 582.7986,166.5771 C593.2008,167.646 598.5263,171.9379 593.7121,183.0735 C599.2493,193.8946 594.7416,198.3059 584.067,199.7513 C580.6004,208.3993 575.577,209.218 569.0401,202.8171 C566.5957,211.4063 561.3883,212.7002 554.4142,207.6879 C548.7695,213.0694 542.6508,210.3892 540.7883,203.491 C534.8678,209.9602 529.0369,209.7481 525.3567,201.1904 C515.634,199.1714 512.1483,191.8169 517.0844,183.0962 C512.4954,175.5517 514.8323,167.6706 524.6983,166.9372" fill="#FEF3C7" style="stroke:#181818;stroke-width:0.5;"/><text fill="#000000" font-family="Monospace" font-size="14" lengthAdjust="spacing" textLength="43.9178" x="531.43" y="188.0539">mount</text></g><!--entity tool_mv--><g class="entity" data-qualified-name="tool_mv" data-source-line="42" id="ent0037"><path d="M537.5812,3869.1566 C541.8367,3861.6615 549.1645,3860.2158 554.5301,3867.9186 C561.836,3859.9665 567.834,3861.8993 572.0205,3871.0994 C581.3919,3872.3515 585.4519,3877.2441 580.617,3886.4512 C586.7078,3896.1779 581.0344,3902.602 571.1461,3903.3996 C568.3395,3913.2239 562.7569,3915.5826 554.4783,3908.9374 C546.249,3915.8938 538.5759,3912.006 536.6746,3902.2117 C528.862,3897.933 526.43,3893.3108 533.9387,3886.3839 C526.8708,3879.1659 527.7557,3872.8028 537.5812,3869.1566" fill="#FEF3C7" style="stroke:#181818;stroke-width:0.5;"/><text fill="#000000" font-family="Monospace" font-size="14" lengthAdjust="spacing" textLength="20.2019" x="543.29" y="3891.0539">mv</text></g><!--entity tool_next--><g class="entity" data-qualified-name="tool_next" data-source-line="43" id="ent0038"><path d="M532.8362,3955.0299 C538.2619,3942.9191 545.3668,3941.5845 554.3282,3951.5948 C562.6857,3942.5335 570.8415,3941.7479 576.1802,3954.6046 C584.0459,3958.5126 585.772,3964.7238 577.9686,3970.4053 C583.7983,3976.9655 584.2513,3982.2014 575.7469,3986.8216 C571.2938,3997.525 562.0486,3997.5666 555.387,3989.1766 C547.3968,3997.6811 540.5374,3999.2908 533.974,3987.6593 C525.472,3984.8709 522.6979,3976.9886 528.904,3969.9818 C522.0835,3963.3647 523.4619,3957.388 532.8362,3955.0299" fill="#FEF3C7" style="stroke:#181818;stroke-width:0.5;"/><text fill="#000000" font-family="Monospace" font-size="14" lengthAdjust="spacing" textLength="29.0079" x="538.88" y="3975.0539">next</text></g><!--entity tool_nmcli--><g class="entity" data-qualified-name="tool_nmcli" data-source-line="44" id="ent0039"><path d="M530.2243,433.8999 C532.7763,427.7672 536.5727,427.6374 541.1287,431.7714 C545.1335,424.8816 549.1403,425.905 553.9931,430.8496 C558.0069,426.0626 562.9065,426.304 566.3736,431.5259 C570.651,426.3213 575.8721,427.3652 578.7256,433.1293 C588.3841,432.9654 594.4241,439.8597 589.4883,449.3684 C596.1406,459.4389 590.9963,468.0827 578.9586,466.9762 C574.6104,472.0478 570.7471,473.7141 566.42,466.9539 C562.7099,472.2147 558.7725,473.5845 554.6115,467.4199 C551.0688,472.6356 544.7417,472.7652 541.6436,466.8996 C537.4195,473.2878 532.1618,472.446 528.557,466.2552 C518.6179,463.8544 516.5191,456.5894 522.6007,448.7403 C517.2952,440.2842 521.3282,435.0605 530.2243,433.8999" fill="#FEF3C7" style="stroke:#181818;stroke-width:0.5;"/><text fill="#000000" font-family="Monospace" font-size="14" lengthAdjust="spacing" textLength="35.6859" x="535.54" y="454.0539">nmcli</text></g><!--entity tool_podman_compose--><g class="entity" data-qualified-name="tool_podman_compose" data-source-line="45" id="ent0040"><path d="M487.7902,4038.1419 C491.2083,4031.8721 495.6185,4031.8949 499.3164,4037.8788 C501.9602,4032.4666 506.0593,4033.1228 509.3924,4037.1424 C513.5468,4030.9399 518.4281,4030.81 521.9729,4037.727 C525.0436,4032.8333 529.3187,4032.4075 532.7763,4037.3 C536.0894,4031.3894 540.1194,4031.042 544.0931,4036.6511 C547.319,4031.7388 551.4892,4032.402 554.4176,4036.9749 C558.2356,4031.9283 561.5906,4031.842 565.0788,4037.3093 C568.7528,4030.5124 574.3843,4031.3422 577.711,4037.6441 C581.2224,4032.7081 584.8991,4033.1341 587.834,4038.2261 C592.0581,4032.1994 595.8345,4032.8561 599.8337,4038.4582 C603.0818,4033.6898 606.2781,4032.7621 610.5676,4037.2506 C614.2596,4032.7401 619.2199,4032.9313 621.8786,4038.4195 C630.7426,4041.7089 632.0782,4049.3149 625.4604,4055.7955 C630.9247,4062.3296 629.1288,4068.9009 620.3122,4070.4014 C619.176,4075.6313 615.1544,4077.0161 611.2945,4073.0815 C608.2257,4078.5802 604.6652,4079.3828 599.9276,4075.0013 C595.9194,4081.4988 590.7652,4081.3475 586.8529,4074.9043 C584.2199,4080.123 581.1101,4080.0305 577.4953,4075.8854 C574.6931,4082.871 570.9917,4084.3196 565.0283,4079.1198 C561.9456,4083.6146 558.1284,4083.8235 555.003,4079.1665 C550.9154,4084.3573 546.8413,4084.4152 543.365,4078.5245 C539.2512,4082.3804 534.6184,4081.3122 533.2149,4075.6378 C529.892,4080.7994 524.5502,4081.1187 521.0558,4075.8375 C515.9963,4080.8931 512.0816,4080.0954 509.4058,4073.4617 C505.7818,4078.8576 502.3889,4078.9331 498.5144,4073.7188 C493.7109,4077.7185 489.4278,4075.9561 487.8132,4070.2154 C480.2164,4065.7752 480.1417,4058.8465 487.3025,4053.9432 C479.7256,4049.1338 479.977,4042.4763 487.7902,4038.1419" fill="#FEF3C7" style="stroke:#181818;stroke-width:0.5;"/><text fill="#000000" font-family="Monospace" font-size="14" lengthAdjust="spacing" textLength="119.7556" x="493.51" y="4059.0539">podman-compose</text></g><!--entity tool_print--><g class="entity" data-qualified-name="tool_print" data-source-line="46" id="ent0041"><path d="M531.5242,1769.7578 C534.4797,1764.219 538.7219,1763.6902 542.2278,1769.2259 C544.5304,1763.8422 549.5758,1761.5791 553.9717,1766.9374 C558.4318,1762.5782 563.061,1762.6119 565.7355,1768.9087 C569.947,1763.2489 575.7135,1764.8076 578.3562,1770.6327 C587.6446,1775.3107 587.9373,1780.5308 580.5659,1787.4038 C586.9349,1793.2488 584.2535,1800.2834 576.8331,1802.7811 C575.189,1807.7941 571.2114,1810.0505 566.733,1805.9079 C563.402,1812.8488 558.6313,1813.5299 554.1425,1806.9891 C549.7506,1811.0144 546.1023,1811.604 543.3701,1805.2642 C539.1535,1810.431 535.3828,1809.9715 532.6224,1803.8747 C523.1651,1801.7025 520.7753,1793.867 526.2241,1786.2755 C519.481,1779.2261 522.9112,1771.8799 531.5242,1769.7578" fill="#FEF3C7" style="stroke:#181818;stroke-width:0.5;"/><text fill="#000000" font-family="Monospace" font-size="14" lengthAdjust="spacing" textLength="31.7099" x="537.53" y="1791.0539">print</text></g><!--entity tool_private_vpn--><g class="entity" data-qualified-name="tool_private_vpn" data-source-line="47" id="ent0042"><path d="M510.5292,1854.8128 C513.2939,1848.5641 516.513,1848.1752 521.093,1853.0958 C524.8988,1847.6927 529.3267,1848.2343 533.0138,1853.2318 C536.587,1847.6814 539.9626,1847.687 543.7967,1852.9722 C546.6018,1848.079 552.0691,1847.1466 555.2278,1852.5808 C558.4382,1848.4672 562.7271,1849.2395 564.7663,1853.8599 C567.6065,1847.6879 571.6558,1846.5447 576.1477,1852.2813 C579.7895,1846.4137 585.2651,1847.0576 587.89,1853.2698 C590.8098,1848.0032 595.9622,1848.1019 598.4365,1853.7022 C609.9798,1854.2896 613.0169,1860.4004 608.5894,1870.5896 C613.3421,1881.021 610.6504,1887.346 598.2947,1887.1278 C595.8942,1892.5267 590.663,1893.9292 586.9321,1888.5274 C584.8416,1893.7456 579.895,1893.2676 576.9916,1889.4186 C574.8801,1895.921 571.0544,1895.7637 566.5075,1891.8761 C562.0607,1898.1291 557.7522,1898.3867 553.7456,1891.4502 C550.7926,1895.6598 546.5276,1895.7765 543.7993,1891.1961 C540.131,1896.2027 535.4566,1895.8008 532.902,1890.0662 C528.383,1894.7389 524.3768,1894.816 521.7685,1888.1844 C518.0201,1894.6169 513.494,1894.4743 509.6166,1888.3089 C497.4025,1886.5807 496.6342,1878.8643 502.0633,1869.8978 C496.065,1861.4576 500.7463,1854.3965 510.5292,1854.8128" fill="#FEF3C7" style="stroke:#181818;stroke-width:0.5;"/><text fill="#000000" font-family="Monospace" font-size="14" lengthAdjust="spacing" textLength="74.8017" x="515.99" y="1875.0539">private-vpn</text></g><!--entity tool_private_vpn_mtls--><g class="entity" data-qualified-name="tool_private_vpn_mtls" data-source-line="48" id="ent0043"><path d="M494.6401,1939.035 C497.2208,1933.0002 502.6676,1934.111 505.5576,1938.7177 C509.7865,1932.4878 513.8333,1932.6078 518.4517,1938.2965 C520.5281,1932.5166 524.8217,1931.0713 529.0765,1936.1686 C533.1414,1929.3164 538.3507,1929.1638 542.7064,1935.8764 C545.8243,1930.9385 551.1195,1930.9013 553.8568,1936.2875 C557.6275,1929.9003 561.7316,1929.6173 565.8556,1935.9544 C570.2352,1930.3049 576.0376,1931.5927 578.551,1937.9308 C581.9112,1931.3788 586.5012,1930.7039 591.1384,1936.6441 C596.4579,1931.2457 600.4344,1932.8103 603.6936,1938.8965 C606.1734,1933.3361 611.0509,1932.5683 614.3632,1938.0955 C622.0123,1940.5593 625.8714,1947.9254 618.686,1954.3375 C626.6327,1961.1378 624.8617,1968.2342 615.3928,1971.7387 C612.4285,1979.0234 607.5883,1977.9825 603.0295,1973.3997 C598.7563,1978.9022 594.9185,1979.934 590.5073,1973.5451 C588.3508,1980.2468 582.3979,1981.2869 578.4995,1975.1777 C576.1301,1981.2935 570.8301,1981.6705 566.8977,1976.8332 C564.4828,1983.5077 560.3132,1983.5335 555.4804,1979.3835 C551.3079,1984.8634 545.6631,1984.45 543.3864,1977.5338 C539.3395,1983.761 533.0677,1983.2378 530.2917,1976.2724 C526.5638,1982.1044 521.6391,1981.7998 518.8805,1975.3704 C514.3206,1982.0173 508.6624,1981.3849 505.8309,1973.787 C500.5093,1978.7427 495.6356,1978.6781 493.0726,1971.001 C485.1214,1966.9737 484.2395,1960.4933 492.1891,1955.5564 C484.018,1949.1066 486.3359,1943.0407 494.6401,1939.035" fill="#FEF3C7" style="stroke:#181818;stroke-width:0.5;"/><text fill="#000000" font-family="Monospace" font-size="14" lengthAdjust="spacing" textLength="107.7716" x="499.5" y="1959.0539">private-vpn-mtls</text></g><!--entity tool_public--><g class="entity" data-qualified-name="tool_public" data-source-line="49" id="ent0044"><path d="M527.4563,2021.3185 C531.6599,2016.0351 536.6691,2014.8123 540.3853,2021.8308 C544.7301,2013.2596 549.9418,2014.6159 555.5196,2020.5437 C559.0802,2015.8292 563.9912,2015.2485 567.0153,2021.126 C572.5068,2014.0678 577.097,2014.2575 581.8711,2021.8532 C592.0328,2021.7441 596.4789,2029.8167 590.5092,2038.221 C595.1267,2047.1014 590.8096,2053.1733 581.5218,2054.2638 C578.9146,2062.3477 573.0891,2063.2433 567.7355,2056.8855 C563.8578,2064.9982 558.8982,2065.0021 553.4149,2058.4539 C548.9546,2064.404 544.381,2063.7855 541.2144,2057.1953 C537.2406,2062.2075 530.822,2061.471 528.0519,2055.7228 C517.0809,2053.5738 516.2495,2047.8363 520.9376,2039.0182 C513.6176,2029.5074 515.7358,2023.8169 527.4563,2021.3185" fill="#FEF3C7" style="stroke:#181818;stroke-width:0.5;"/><text fill="#000000" font-family="Monospace" font-size="14" lengthAdjust="spacing" textLength="39.8158" x="533.48" y="2043.0539">public</text></g><!--entity tool_rm--><g class="entity" data-qualified-name="tool_rm" data-source-line="50" id="ent0045"><path d="M539.1392,2106.9777 C542.4026,2098.3192 548.5468,2097.3169 555.2715,2103.1151 C561.6768,2095.5869 568.5647,2098.4574 571.4416,2106.7267 C580.9875,2109.514 580.4732,2115.9771 574.9965,2122.2128 C582.2119,2128.7342 580.0841,2135.2586 571.9812,2139.034 C571.5766,2151.9273 563.1144,2153.7695 553.515,2148.2612 C546.0168,2152.3418 538.3156,2149.755 538.3036,2140.0192 C528.7882,2137.6856 525.7974,2130.957 533.1103,2123.3733 C526.411,2115.8233 530.8591,2109.0196 539.1392,2106.9777" fill="#FEF3C7" style="stroke:#181818;stroke-width:0.5;"/><text fill="#000000" font-family="Monospace" font-size="14" lengthAdjust="spacing" textLength="18.8719" x="543.95" y="2127.0539">rm</text></g><!--entity tool_sed--><g class="entity" data-qualified-name="tool_sed" data-source-line="51" id="ent0046"><path d="M534.9902,1098.7206 C539.8802,1089.5532 548.2093,1087.9518 555.2881,1096.1643 C561.1681,1088.3701 569.523,1090.1097 572.9387,1098.8025 C582.5283,1099.5113 588.2176,1104.2644 582.7304,1114.4237 C587.9645,1123.8702 584.4625,1129.29 574.089,1130.1728 C573.8307,1142.9283 567.4761,1147.9254 555.4627,1141.7209 C544.5348,1146.782 537.3518,1145.3022 536.6302,1131.5203 C526.9693,1130.6856 523.1811,1122.594 528.5339,1114.5827 C523.4785,1106.4557 525.8947,1101.0877 534.9902,1098.7206" fill="#FEF3C7" style="stroke:#181818;stroke-width:0.5;"/><text fill="#000000" font-family="Monospace" font-size="14" lengthAdjust="spacing" textLength="23.2119" x="541.78" y="1119.0539">sed</text></g><!--entity tool_site--><g class="entity" data-qualified-name="tool_site" data-source-line="52" id="ent0047"><path d="M534.9602,2190.7206 C539.8584,2181.5416 548.1991,2179.9395 555.2861,2188.1643 C561.1735,2180.3567 569.5417,2182.097 572.9647,2190.8025 C582.5543,2191.5113 588.2436,2196.2644 582.7564,2206.4237 C587.9905,2215.8702 584.4885,2221.29 574.115,2222.1728 C573.8478,2234.942 567.4829,2239.9403 555.4607,2233.7209 C544.5234,2238.7946 537.3312,2237.3176 536.6002,2223.5203 C526.9393,2222.6856 523.1511,2214.594 528.5039,2206.5827 C523.4485,2198.4557 525.8647,2193.0877 534.9602,2190.7206" fill="#FEF3C7" style="stroke:#181818;stroke-width:0.5;"/><text fill="#000000" font-family="Monospace" font-size="14" lengthAdjust="spacing" textLength="23.2679" x="541.75" y="2211.0539">site</text></g><!--entity tool_split_site--><g class="entity" data-qualified-name="tool_split_site" data-source-line="53" id="ent0048"><path d="M518.2153,2273.9894 C521.5611,2267.315 527.2255,2267.1589 531.1097,2273.4542 C534.5422,2268.6189 538.9765,2268.3438 542.4165,2273.4457 C546.0241,2266.1135 550.0157,2265.4164 555.2424,2271.9478 C559.0049,2267.4112 563.2229,2267.9613 565.5995,2273.3884 C569.61,2267.4782 575.8754,2268.5305 579.047,2274.3501 C582.4258,2269.578 588.4496,2268.9842 591.2856,2274.9676 C599.2986,2279.4919 600.0119,2284.569 592.6325,2290.4337 C599.5283,2295.642 598.9583,2302.0795 591.6277,2306.392 C589.3681,2314.5388 582.9666,2314.2865 578.0456,2309.1039 C577.3748,2316.667 572.0757,2319.0693 566.2033,2313.9677 C563.8842,2319.6144 558.8102,2320.4663 554.6167,2316.1468 C549.2096,2321.1794 544.1558,2318.2262 542.7164,2311.9657 C537.8864,2317.0691 533.2411,2317.859 529.2645,2311.0056 C524.4214,2315.1178 520.7494,2314.2475 518.9471,2307.9824 C505.8881,2307.352 503.8511,2300.7142 507.954,2289.7412 C502.6275,2279.8215 508.8502,2274.3385 518.2153,2273.9894" fill="#FEF3C7" style="stroke:#181818;stroke-width:0.5;"/><text fill="#000000" font-family="Monospace" font-size="14" lengthAdjust="spacing" textLength="58.8138" x="523.98" y="2295.0539">split(site,</text></g><!--entity tool_systemctl--><g class="entity" data-qualified-name="tool_systemctl" data-source-line="54" id="ent0049"><path d="M515.5543,663.3534 C518.9948,657.4346 525.5193,656.7528 528.62,663.6983 C532.3616,656.9876 537.3985,656.9109 541.9323,662.8655 C545.9641,656.6184 550.5024,657.111 554.9476,662.399 C558.4915,656.3649 562.1575,656.9477 566.1013,661.9966 C571.0621,655.3373 575.5337,656.2981 579.3466,663.1241 C582.934,657.7637 589.1725,656.856 592.2265,663.6875 C600.9228,666.4202 603.9191,674.6276 597.4398,681.7422 C602.7752,687.5469 600.992,694.3289 593.4104,696.6399 C590.841,705.1785 585.3083,705.8496 579.001,700.525 C576.3389,706.1251 572.1998,706.8727 567.5465,702.9101 C564.6841,709.5331 559.3662,711.5256 554.4194,704.9895 C548.978,710.5597 544.5452,709.2314 542.0495,702.1169 C537.6527,707.4105 531.9329,707.7854 529.0161,700.5744 C524.0975,704.6436 519.678,705.3731 517.1184,698.1 C506.3543,694.9817 506.2123,689.1142 512.0876,681.0782 C505.3074,673.82 505.5947,667.3375 515.5543,663.3534" fill="#FEF3C7" style="stroke:#181818;stroke-width:0.5;"/><text fill="#000000" font-family="Monospace" font-size="14" lengthAdjust="spacing" textLength="61.9778" x="522.4" y="685.0539">systemctl</text></g><!--entity tool_tr--><g class="entity" data-qualified-name="tool_tr" data-source-line="55" id="ent0050"><path d="M542.3752,2357.7404 C545.3337,2350.3125 549.3167,2350.858 554.7054,2355.1931 C559.6212,2350.6489 563.2557,2350.5109 566.0438,2357.3183 C578.7824,2357.1762 581.8784,2362.9014 577.4115,2374.2861 C581.5517,2384.3455 577.4194,2390.92 566.3175,2390.6388 C567.6092,2399.4863 561.266,2403.1091 553.8119,2399.2385 C545.4456,2403.2137 541.9464,2399.9397 541.3485,2391.4631 C530.4488,2390.2307 528.9988,2384.6999 532.8498,2375.5765 C527.0155,2366.0569 532.1637,2358.6909 542.3752,2357.7404" fill="#FEF3C7" style="stroke:#181818;stroke-width:0.5;"/><text fill="#000000" font-family="Monospace" font-size="14" lengthAdjust="spacing" textLength="10.836" x="547.97" y="2379.0539">tr</text></g><!--entity tool_umount--><g class="entity" data-qualified-name="tool_umount" data-source-line="56" id="ent0051"><path d="M520.5894,250.6801 C524.1818,244.6858 528.706,245.434 531.947,251.0247 C535.1113,245.9961 538.6689,245.1273 542.6945,250.0992 C545.7479,244.2806 551.135,243.4973 555.4383,248.647 C559.0493,244.9745 562.0958,244.9251 564.5752,249.8496 C568.6559,244.865 572.7509,244.5441 576.0018,250.7008 C579.7571,245.5023 584.0273,244.7509 587.8571,250.621 C595.8159,255.0836 595.7461,261.3877 589.5596,267.2946 C595.9185,273.8689 596.3396,280.5293 586.9045,284.6934 C585.4306,290.7148 580.7516,290.9113 576.7631,287.3564 C574.0626,292.8429 570.7445,293.873 566.0847,289.4727 C564.3111,295.4309 561.546,298.196 555.4809,293.9184 C549.8783,297.7153 544.6234,297.523 543.1161,289.5983 C539.1729,293.8346 535.1331,292.3381 533.0077,287.5598 C527.6007,293.4284 523.4091,291.7762 520.7662,284.9039 C511.8823,280.0788 512.1583,273.9296 520.465,268.7832 C511.841,262.7335 512.4702,256.6148 520.5894,250.6801" fill="#FEF3C7" style="stroke:#181818;stroke-width:0.5;"/><text fill="#000000" font-family="Monospace" font-size="14" lengthAdjust="spacing" textLength="52.5698" x="527.1" y="272.0539">umount</text></g><!--entity tool_up--><g class="entity" data-qualified-name="tool_up" data-source-line="57" id="ent0052"><path d="M539.5762,761.723 C543.8567,755.5152 548.1012,753.2929 553.5555,760.4998 C559.5407,752.6771 565.5758,755.7446 569.3689,762.8257 C578.6317,764.2 582.3939,769.6175 576.9254,778.222 C583.9675,786.3238 580.8808,793.1105 570.7003,794.7096 C570.3677,805.4196 562.4772,807.8534 554.6568,801.9334 C546.3387,806.8851 539.5625,805.6302 537.8917,794.8497 C529.3402,792.6116 526.3812,785.791 532.2853,778.5737 C526.8614,769.4941 529.9503,764.2909 539.5762,761.723" fill="#FEF3C7" style="stroke:#181818;stroke-width:0.5;"/><text fill="#000000" font-family="Monospace" font-size="14" lengthAdjust="spacing" textLength="17.2619" x="544.76" y="783.0539">up</text></g><!--entity tool_update_ca_certificates--><g class="entity" data-qualified-name="tool_update_ca_certificates" data-source-line="58" id="ent0053"><path d="M475.5201,2443.2747 C479.5429,2437.0384 484.1998,2436.8474 488.4428,2443.0458 C490.5374,2436.5106 495.704,2436.9014 499.6826,2441.0668 C503.0006,2436.5998 506.5274,2436.0058 510.2925,2440.5399 C514.2159,2436.5344 518.3202,2435.9137 521.1806,2441.7196 C524.8393,2436.3493 529.1124,2435.7205 532.7998,2441.6903 C534.8984,2436.3817 540.0051,2435.2772 543.6286,2440.0529 C547.1609,2435.6718 551.5649,2434.3975 554.5938,2440.5755 C557.4831,2435.5949 562.2196,2435.1484 565.6324,2439.9869 C569.1794,2433.8971 573.7051,2434.2788 577.0545,2440.1752 C580.7324,2435.3916 586.3304,2436.8253 588.4498,2441.9649 C591.2712,2436.4689 595.1056,2437.5165 598.298,2441.5829 C602.2383,2436.5113 606.1795,2436.9783 610.0158,2441.7071 C613.7093,2435.1285 617.6395,2435.3927 622.1413,2440.8958 C625.4547,2435.9226 628.6956,2436.9631 631.51,2441.393 C640.1072,2445.9772 641.4476,2452.0488 635.0538,2459.5576 C641.4156,2465.1889 640.5155,2470.7449 632.8824,2474.3174 C630.1018,2479.3357 625.5342,2479.1573 622.1325,2475.0489 C618.5729,2480.8597 615.074,2480.7963 610.7155,2475.9009 C607.8389,2482.2355 604.1948,2482.3173 599.2608,2478.1436 C596.0511,2483.3548 590.6683,2483.1643 588.3521,2477.2661 C585.9682,2483.4814 580.1329,2482.7604 576.8667,2478.2071 C574.6755,2484.066 570.6384,2484.6335 566.6657,2479.9271 C563.2673,2485.7475 558.2813,2486.1935 553.8362,2481.165 C549.9318,2485.266 545.7236,2485.5504 542.8733,2479.9713 C539.0595,2484.0059 535.7177,2484.106 532.9453,2478.8576 C528.8294,2485.254 524.6873,2483.9387 520.595,2478.8322 C517.1166,2482.4828 512.3419,2481.2982 510.6478,2476.6846 C507.1868,2483.594 502.5877,2483.9556 498.1228,2477.635 C494.4564,2482.6499 489.6089,2481.9134 486.7577,2476.7267 C482.909,2481.0154 478.6661,2480.7948 475.767,2475.6234 C467.233,2472.4093 464.9299,2465.357 471.6784,2458.4949 C464.8228,2452.5569 466.1711,2445.1226 475.5201,2443.2747" fill="#FEF3C7" style="stroke:#181818;stroke-width:0.5;"/><text fill="#000000" font-family="Monospace" font-size="14" lengthAdjust="spacing" textLength="141.9875" x="482.39" y="2463.0539">update-ca-certificates</text></g><!--entity tool_update_ca_trust--><g class="entity" data-qualified-name="tool_update_ca_trust" data-source-line="59" id="ent0054"><path d="M496.2402,2525.4885 C499.3044,2519.275 505.0969,2520.1949 508.4516,2525.1715 C511.9261,2519.9337 516.947,2519.4045 520.9263,2524.566 C523.8491,2519.9324 528.6648,2520.2319 531.3186,2524.8676 C535.5653,2519.8193 539.7836,2520.3605 543.4249,2525.5813 C546.3168,2521.1612 550.4227,2520.6757 553.4481,2525.4356 C556.3625,2518.7799 561.8447,2518.6827 565.5994,2524.6251 C569.3719,2520.0146 573.4674,2519.1002 577.1673,2524.7072 C580.5001,2520.0243 585.8286,2519.6255 588.5668,2525.358 C592.9492,2519.7932 596.8842,2520.9263 599.7955,2526.802 C603.1081,2520.4706 608.3843,2521.3452 612.142,2526.3159 C619.6471,2530.5901 619.8933,2536.9005 613.3873,2542.2685 C619.8395,2547.4146 620.2964,2555.6268 611.27,2558.7892 C608.5445,2563.7764 603.3196,2563.8155 600.0466,2559.4459 C597.0065,2565.0431 592.7385,2563.9276 589.4592,2559.7037 C587.1972,2565.5669 581.1553,2566.8101 576.8569,2562.1401 C574.202,2568.536 569.1679,2568.82 565.4829,2563.1078 C562.587,2568.2847 558.8272,2567.7218 555.5472,2563.5144 C550.733,2568.7013 546.5954,2569.714 542.7318,2562.5297 C539.0801,2568.0479 535.2224,2567.2367 532.2613,2561.8657 C528.1469,2566.9433 521.5475,2567.1611 519.4534,2559.7875 C516.9986,2565.6844 511.568,2565.6365 508.32,2560.5948 C504.5359,2565.2717 498.3571,2565.8452 495.9164,2559.1319 C485.7131,2555.9678 484.5052,2550.0634 490.4202,2541.7908 C484.7203,2535.1346 487.4886,2526.9854 496.2402,2525.4885" fill="#FEF3C7" style="stroke:#181818;stroke-width:0.5;"/><text fill="#000000" font-family="Monospace" font-size="14" lengthAdjust="spacing" textLength="101.5136" x="502.63" y="2547.0539">update-ca-trust</text></g><!--entity tool_yum--><g class="entity" data-qualified-name="tool_yum" data-source-line="60" id="ent0055"><path d="M534.0252,2610.3939 C538.2986,2598.5266 548.3091,2598.9446 555.0982,2607.8406 C562.0023,2599.8124 570.7969,2600.4494 575.5424,2610.3078 C585.0779,2614.267 584.276,2619.5806 578.526,2626.3778 C585.4967,2633.5876 584.4547,2639.9864 574.9338,2643.7948 C573.0128,2649.5547 569.665,2650.4329 564.9039,2646.8408 C563.8231,2652.287 559.199,2653.7507 555.2642,2649.7542 C550.0041,2654.6328 545.8461,2653.3286 543.2825,2646.8975 C538.9885,2649.6316 535.6495,2648.6338 534.0456,2643.6697 C525.5464,2640.848 522.9193,2632.1201 529.9705,2625.7601 C523.5406,2618.4207 524.4132,2613.5004 534.0252,2610.3939" fill="#FEF3C7" style="stroke:#181818;stroke-width:0.5;"/><text fill="#000000" font-family="Monospace" font-size="14" lengthAdjust="spacing" textLength="28.8819" x="538.95" y="2631.0539">yum</text></g><g class="entity" data-qualified-name="shellGraphSummary" data-source-line="117" id="ent0111"><path d="M110.28,46.0679 L110.28,109.186 L304.1151,109.186 L304.1151,56.0679 L294.1151,46.0679 L110.28,46.0679" fill="#FEFFDD" style="stroke:#181818;stroke-width:0.5;"/><path d="M294.1151,46.0679 L294.1151,56.0679 L304.1151,56.0679 L294.1151,46.0679" fill="#FEFFDD" style="stroke:#181818;stroke-width:1;"/><text fill="#000000" font-family="Monospace" font-size="13" lengthAdjust="spacing" textLength="141.5311" x="116.28" y="64.9649">Scanned&#160;8&#160;shell&#160;scripts.</text><text fill="#000000" font-family="Monospace" font-size="13" lengthAdjust="spacing" textLength="172.8351" x="116.28" y="82.6709">Detected&#160;0&#160;local&#160;shell&#160;edges.</text><text fill="#000000" font-family="Monospace" font-size="13" lengthAdjust="spacing" textLength="163.8911" x="116.28" y="100.377">Detected&#160;46&#160;external&#160;tools.</text></g><!--link shell_config_access_tailscale_tailscale_subnet_router_example_sh to tool_systemctl--><g class="link" data-entity-1="ent0002" data-entity-2="ent0049" data-link-type="dependency" data-source-line="61" id="lnk56"><path d="M407.82,679.6279 C445.01,679.6279 474.45,679.6279 501.06,679.6279" fill="none" id="shell_config_access_tailscale_tailscale_subnet_router_example_sh-to-tool_systemctl" style="stroke:#181818;stroke-width:1;"/><polygon fill="#181818" points="507.06,679.6279,498.06,675.6279,502.06,679.6279,498.06,683.6279,507.06,679.6279" style="stroke:#181818;stroke-width:1;"/></g><!--link shell_config_access_tailscale_tailscale_subnet_router_local_sh to tool_systemctl--><g class="link" data-entity-1="ent0003" data-entity-2="ent0049" data-link-type="dependency" data-source-line="62" id="lnk57"><path d="M394.74,567.6279 C458.69,567.6279 514.38,567.6279 514.38,567.6279 C514.38,567.6279 514.38,615.7679 514.38,648.7679" fill="none" id="shell_config_access_tailscale_tailscale_subnet_router_local_sh-to-tool_systemctl" style="stroke:#181818;stroke-width:1;"/><polygon fill="#181818" points="514.38,654.7679,518.38,645.7679,514.38,649.7679,510.38,645.7679,514.38,654.7679" style="stroke:#181818;stroke-width:1;"/></g><!--link shell_config_network_networkmanager_static_ip_example_sh to tool_ipv6_method--><g class="link" data-entity-1="ent0004" data-entity-2="ent0033" data-link-type="dependency" data-source-line="63" id="lnk58"><path d="M395.23,350.6279 C432.23,350.6279 462.3,350.6279 490.64,350.6279" fill="none" id="shell_config_network_networkmanager_static_ip_example_sh-to-tool_ipv6_method" style="stroke:#181818;stroke-width:1;"/><polygon fill="#181818" points="496.64,350.6279,487.64,346.6279,491.64,350.6279,487.64,354.6279,496.64,350.6279" style="stroke:#181818;stroke-width:1;"/></g><!--link shell_config_network_networkmanager_static_ip_example_sh to tool_nmcli--><g class="link" data-entity-1="ent0004" data-entity-2="ent0039" data-link-type="dependency" data-source-line="64" id="lnk59"><path d="M388.38,382.4479 C388.38,409.3879 388.38,440.4479 388.38,440.4479 C388.38,440.4479 466.24,440.4479 514.39,440.4479" fill="none" id="shell_config_network_networkmanager_static_ip_example_sh-to-tool_nmcli" style="stroke:#181818;stroke-width:1;"/><polygon fill="#181818" points="520.39,440.4479,511.39,436.4479,515.39,440.4479,511.39,444.4479,520.39,440.4479" style="stroke:#181818;stroke-width:1;"/></g><!--link shell_config_network_networkmanager_static_ip_local_sh to tool_ipv6_method--><g class="link" data-entity-1="ent0005" data-entity-2="ent0033" data-link-type="dependency" data-source-line="65" id="lnk60"><path d="M381.89,420.5579 C445.63,420.5579 502.38,420.5579 502.38,420.5579 C502.38,420.5579 502.38,401.5779 502.38,381.4779" fill="none" id="shell_config_network_networkmanager_static_ip_local_sh-to-tool_ipv6_method" style="stroke:#181818;stroke-width:1;"/><polygon fill="#181818" points="502.38,375.4779,498.38,384.4779,502.38,380.4779,506.38,384.4779,502.38,375.4779" style="stroke:#181818;stroke-width:1;"/></g><!--link shell_config_network_networkmanager_static_ip_local_sh to tool_nmcli--><g class="link" data-entity-1="ent0005" data-entity-2="ent0039" data-link-type="dependency" data-source-line="66" id="lnk61"><path d="M382.07,456.7979 C434.95,456.7979 481.61,456.7979 514.3,456.7979" fill="none" id="shell_config_network_networkmanager_static_ip_local_sh-to-tool_nmcli" style="stroke:#181818;stroke-width:1;"/><polygon fill="#181818" points="520.3,456.7979,511.3,452.7979,515.3,456.7979,511.3,460.7979,520.3,456.7979" style="stroke:#181818;stroke-width:1;"/></g><!--link shell_scripts_debug_private_access_sh to tool_tool_443--><g class="link" data-entity-1="ent0006" data-entity-2="ent0014" data-link-type="dependency" data-source-line="67" id="lnk62"><path d="M319.38,1242.5779 C319.38,1220.6379 319.38,1197.6279 319.38,1197.6279 C319.38,1197.6279 458.36,1197.6279 520.08,1197.6279" fill="none" id="shell_scripts_debug_private_access_sh-to-tool_tool_443" style="stroke:#181818;stroke-width:1;"/><polygon fill="#181818" points="526.08,1197.6279,517.08,1193.6279,521.08,1197.6279,517.08,1201.6279,526.08,1197.6279" style="stroke:#181818;stroke-width:1;"/></g><!--link shell_scripts_debug_private_access_sh to tool_tool_445--><g class="link" data-entity-1="ent0006" data-entity-2="ent0015" data-link-type="dependency" data-source-line="68" id="lnk63"><path d="M322.95,1281.6279 C395.29,1281.6279 476.68,1281.6279 520.12,1281.6279" fill="none" id="shell_scripts_debug_private_access_sh-to-tool_tool_445" style="stroke:#181818;stroke-width:1;"/><polygon fill="#181818" points="526.12,1281.6279,517.12,1277.6279,521.12,1281.6279,517.12,1285.6279,526.12,1281.6279" style="stroke:#181818;stroke-width:1;"/></g><!--link shell_scripts_debug_private_access_sh to tool_tool_80--><g class="link" data-entity-1="ent0006" data-entity-2="ent0016" data-link-type="dependency" data-source-line="69" id="lnk64"><path d="M322.95,1313.1879 C423.59,1313.1879 553.38,1313.1879 553.38,1313.1879 C553.38,1313.1879 553.38,1321.1279 553.38,1334.6379" fill="none" id="shell_scripts_debug_private_access_sh-to-tool_tool_80" style="stroke:#181818;stroke-width:1;"/><polygon fill="#181818" points="553.38,1340.6379,557.38,1331.6379,553.38,1335.6379,549.38,1331.6379,553.38,1340.6379" style="stroke:#181818;stroke-width:1;"/></g><!--link shell_scripts_debug_private_access_sh to tool_cat--><g class="link" data-entity-1="ent0006" data-entity-2="ent0020" data-link-type="dependency" data-source-line="70" id="lnk65"><path d="M287.38,1320.5279 C287.38,1389.3679 287.38,1525.4479 287.38,1525.4479 C287.38,1525.4479 456.14,1525.4479 522.36,1525.4479" fill="none" id="shell_scripts_debug_private_access_sh-to-tool_cat" style="stroke:#181818;stroke-width:1;"/><polygon fill="#181818" points="528.36,1525.4479,519.36,1521.4479,523.36,1525.4479,519.36,1529.4479,528.36,1525.4479" style="stroke:#181818;stroke-width:1;"/></g><!--link shell_scripts_debug_private_access_sh to tool_dig--><g class="link" data-entity-1="ent0006" data-entity-2="ent0022" data-link-type="dependency" data-source-line="71" id="lnk66"><path d="M304.38,1320.5879 C304.38,1370.2179 304.38,1449.6279 304.38,1449.6279 C304.38,1449.6279 458.06,1449.6279 521.68,1449.6279" fill="none" id="shell_scripts_debug_private_access_sh-to-tool_dig" style="stroke:#181818;stroke-width:1;"/><polygon fill="#181818" points="527.68,1449.6279,518.68,1445.6279,522.68,1449.6279,518.68,1453.6279,527.68,1449.6279" style="stroke:#181818;stroke-width:1;"/></g><!--link shell_scripts_debug_private_access_sh to tool_docker_compose--><g class="link" data-entity-1="ent0006" data-entity-2="ent0025" data-link-type="dependency" data-source-line="72" id="lnk67"><path d="M322.78,1250.0579 C401.83,1250.0579 492.38,1250.0579 492.38,1250.0579 C492.38,1250.0579 492.38,1049.2479 492.38,976.5379" fill="none" id="shell_scripts_debug_private_access_sh-to-tool_docker_compose" style="stroke:#181818;stroke-width:1;"/><polygon fill="#181818" points="492.38,970.5379,488.38,979.5379,492.38,975.5379,496.38,979.5379,492.38,970.5379" style="stroke:#181818;stroke-width:1;"/></g><!--link shell_scripts_debug_private_access_sh to tool_grep--><g class="link" data-entity-1="ent0006" data-entity-2="ent0027" data-link-type="dependency" data-source-line="73" id="lnk68"><path d="M269.38,1320.5179 C269.38,1407.3579 269.38,1609.4479 269.38,1609.4479 C269.38,1609.4479 442.84,1609.4479 516.45,1609.4479" fill="none" id="shell_scripts_debug_private_access_sh-to-tool_grep" style="stroke:#181818;stroke-width:1;"/><polygon fill="#181818" points="522.45,1609.4479,513.45,1605.4479,517.45,1609.4479,513.45,1613.4479,522.45,1609.4479" style="stroke:#181818;stroke-width:1;"/></g><!--link shell_scripts_debug_private_access_sh to tool_host--><g class="link" data-entity-1="ent0006" data-entity-2="ent0028" data-link-type="dependency" data-source-line="74" id="lnk69"><path d="M251.38,1320.3679 C251.38,1422.8879 251.38,1693.4479 251.38,1693.4479 C251.38,1693.4479 441.41,1693.4479 517.6,1693.4479" fill="none" id="shell_scripts_debug_private_access_sh-to-tool_host" style="stroke:#181818;stroke-width:1;"/><polygon fill="#181818" points="523.6,1693.4479,514.6,1689.4479,518.6,1693.4479,514.6,1697.4479,523.6,1693.4479" style="stroke:#181818;stroke-width:1;"/></g><!--link shell_scripts_debug_private_access_sh to tool_id--><g class="link" data-entity-1="ent0006" data-entity-2="ent0030" data-link-type="dependency" data-source-line="75" id="lnk70"><path d="M311.38,1242.8679 C311.38,1138.8879 311.38,861.6279 311.38,861.6279 C311.38,861.6279 466.68,861.6279 525.91,861.6279" fill="none" id="shell_scripts_debug_private_access_sh-to-tool_id" style="stroke:#181818;stroke-width:1;"/><polygon fill="#181818" points="531.91,861.6279,522.91,857.6279,526.91,861.6279,522.91,865.6279,531.91,861.6279" style="stroke:#181818;stroke-width:1;"/></g><!--link shell_scripts_debug_private_access_sh to tool_mkdir--><g class="link" data-entity-1="ent0006" data-entity-2="ent0035" data-link-type="dependency" data-source-line="76" id="lnk71"><path d="M314.38,1242.5279 C314.38,1171.7479 314.38,1029.6279 314.38,1029.6279 C314.38,1029.6279 446.35,1029.6279 512.63,1029.6279" fill="none" id="shell_scripts_debug_private_access_sh-to-tool_mkdir" style="stroke:#181818;stroke-width:1;"/><polygon fill="#181818" points="518.63,1029.6279,509.63,1025.6279,513.63,1029.6279,509.63,1033.6279,518.63,1029.6279" style="stroke:#181818;stroke-width:1;"/></g><!--link shell_scripts_debug_private_access_sh to tool_sed--><g class="link" data-entity-1="ent0006" data-entity-2="ent0046" data-link-type="dependency" data-source-line="77" id="lnk72"><path d="M316.38,1242.6579 C316.38,1193.0279 316.38,1113.6279 316.38,1113.6279 C316.38,1113.6279 458.68,1113.6279 520.66,1113.6279" fill="none" id="shell_scripts_debug_private_access_sh-to-tool_sed" style="stroke:#181818;stroke-width:1;"/><polygon fill="#181818" points="526.66,1113.6279,517.66,1109.6279,521.66,1113.6279,517.66,1117.6279,526.66,1113.6279" style="stroke:#181818;stroke-width:1;"/></g><!--link shell_scripts_remount_luks_share_sh to tool_mapfile--><g class="link" data-entity-1="ent0007" data-entity-2="ent0034" data-link-type="dependency" data-source-line="78" id="lnk73"><path d="M310.38,143.5879 C310.38,129.1179 310.38,116.1679 310.38,116.1679 C310.38,116.1679 438.24,116.1679 507.26,116.1679" fill="none" id="shell_scripts_remount_luks_share_sh-to-tool_mapfile" style="stroke:#181818;stroke-width:1;"/><polygon fill="#181818" points="513.26,116.1679,504.26,112.1679,508.26,116.1679,504.26,120.1679,513.26,116.1679" style="stroke:#181818;stroke-width:1;"/></g><!--link shell_scripts_remount_luks_share_sh to tool_mount--><g class="link" data-entity-1="ent0007" data-entity-2="ent0036" data-link-type="dependency" data-source-line="79" id="lnk74"><path d="M317.68,182.6279 C385.95,182.6279 463.24,182.6279 510.31,182.6279" fill="none" id="shell_scripts_remount_luks_share_sh-to-tool_mount" style="stroke:#181818;stroke-width:1;"/><polygon fill="#181818" points="516.31,182.6279,507.31,178.6279,511.31,182.6279,507.31,186.6279,516.31,182.6279" style="stroke:#181818;stroke-width:1;"/></g><!--link shell_scripts_remount_luks_share_sh to tool_umount--><g class="link" data-entity-1="ent0007" data-entity-2="ent0051" data-link-type="dependency" data-source-line="80" id="lnk75"><path d="M317.68,214.1879 C419,214.1879 553.38,214.1879 553.38,214.1879 C553.38,214.1879 553.38,222.1279 553.38,235.6379" fill="none" id="shell_scripts_remount_luks_share_sh-to-tool_umount" style="stroke:#181818;stroke-width:1;"/><polygon fill="#181818" points="553.38,241.6379,557.38,232.6379,553.38,236.6379,549.38,232.6379,553.38,241.6379" style="stroke:#181818;stroke-width:1;"/></g><!--link shell_scripts_setup_caddy_filebrowser_sh to tool_in_global--><g class="link" data-entity-1="ent0008" data-entity-2="ent0010" data-link-type="dependency" data-source-line="81" id="lnk76"><path d="M332.67,2728.8779 C393.23,2728.8779 456.24,2728.8779 500.73,2728.8779" fill="none" id="shell_scripts_setup_caddy_filebrowser_sh-to-tool_in_global" style="stroke:#181818;stroke-width:1;"/><polygon fill="#181818" points="506.73,2728.8779,497.73,2724.8779,501.73,2728.8779,497.73,2732.8779,506.73,2728.8779" style="stroke:#181818;stroke-width:1;"/></g><!--link shell_scripts_setup_caddy_filebrowser_sh to tool_command_exists--><g class="link" data-entity-1="ent0008" data-entity-2="ent0011" data-link-type="dependency" data-source-line="82" id="lnk77"><path d="M332.67,2779.6579 C382.59,2779.6579 432.25,2779.6579 475.18,2779.6579" fill="none" id="shell_scripts_setup_caddy_filebrowser_sh-to-tool_command_exists" style="stroke:#181818;stroke-width:1;"/><polygon fill="#181818" points="481.18,2779.6579,472.18,2775.6579,476.18,2779.6579,472.18,2783.6579,481.18,2779.6579" style="stroke:#181818;stroke-width:1;"/></g><!--link shell_scripts_setup_caddy_filebrowser_sh to tool_tool_2_0_9--><g class="link" data-entity-1="ent0008" data-entity-2="ent0012" data-link-type="dependency" data-source-line="83" id="lnk78"><path d="M316.38,2790.4579 C316.38,2827.4779 316.38,2877.6279 316.38,2877.6279 C316.38,2877.6279 447.54,2877.6279 513.18,2877.6279" fill="none" id="shell_scripts_setup_caddy_filebrowser_sh-to-tool_tool_2_0_9" style="stroke:#181818;stroke-width:1;"/><polygon fill="#181818" points="519.18,2877.6279,510.18,2873.6279,514.18,2877.6279,510.18,2881.6279,519.18,2877.6279" style="stroke:#181818;stroke-width:1;"/></g><!--link shell_scripts_setup_caddy_filebrowser_sh to tool_tool_3_0_1--><g class="link" data-entity-1="ent0008" data-entity-2="ent0013" data-link-type="dependency" data-source-line="84" id="lnk79"><path d="M301.38,2790.6279 C301.38,2851.3579 301.38,2961.6279 301.38,2961.6279 C301.38,2961.6279 438.61,2961.6279 509.11,2961.6279" fill="none" id="shell_scripts_setup_caddy_filebrowser_sh-to-tool_tool_3_0_1" style="stroke:#181818;stroke-width:1;"/><polygon fill="#181818" points="515.11,2961.6279,506.11,2957.6279,510.11,2961.6279,506.11,2965.6279,515.11,2961.6279" style="stroke:#181818;stroke-width:1;"/></g><!--link shell_scripts_setup_caddy_filebrowser_sh to tool_space--><g class="link" data-entity-1="ent0008" data-entity-2="ent0017" data-link-type="dependency" data-source-line="85" id="lnk80"><path d="M285.38,2790.6679 C285.38,2870.6379 285.38,3045.6279 285.38,3045.6279 C285.38,3045.6279 425.07,3045.6279 501.62,3045.6279" fill="none" id="shell_scripts_setup_caddy_filebrowser_sh-to-tool_space" style="stroke:#181818;stroke-width:1;"/><polygon fill="#181818" points="507.62,3045.6279,498.62,3041.6279,502.62,3045.6279,498.62,3049.6279,507.62,3045.6279" style="stroke:#181818;stroke-width:1;"/></g><!--link shell_scripts_setup_caddy_filebrowser_sh to tool_space_2--><g class="link" data-entity-1="ent0008" data-entity-2="ent0018" data-link-type="dependency" data-source-line="86" id="lnk81"><path d="M269.38,2790.6479 C269.38,2887.2279 269.38,3129.6279 269.38,3129.6279 C269.38,3129.6279 421.06,3129.6279 501.44,3129.6279" fill="none" id="shell_scripts_setup_caddy_filebrowser_sh-to-tool_space_2" style="stroke:#181818;stroke-width:1;"/><polygon fill="#181818" points="507.44,3129.6279,498.44,3125.6279,502.44,3129.6279,498.44,3133.6279,507.44,3129.6279" style="stroke:#181818;stroke-width:1;"/></g><!--link shell_scripts_setup_caddy_filebrowser_sh to tool_apt_get--><g class="link" data-entity-1="ent0008" data-entity-2="ent0019" data-link-type="dependency" data-source-line="87" id="lnk82"><path d="M254.38,2790.6179 C254.38,2901.9979 254.38,3213.6279 254.38,3213.6279 C254.38,3213.6279 427.25,3213.6279 508.3,3213.6279" fill="none" id="shell_scripts_setup_caddy_filebrowser_sh-to-tool_apt_get" style="stroke:#181818;stroke-width:1;"/><polygon fill="#181818" points="514.3,3213.6279,505.3,3209.6279,509.3,3213.6279,505.3,3217.6279,514.3,3213.6279" style="stroke:#181818;stroke-width:1;"/></g><!--link shell_scripts_setup_caddy_filebrowser_sh to tool_cat--><g class="link" data-entity-1="ent0008" data-entity-2="ent0020" data-link-type="dependency" data-source-line="88" id="lnk83"><path d="M109.38,2712.7379 C109.38,2505.6579 109.38,1541.7979 109.38,1541.7979 C109.38,1541.7979 428.32,1541.7979 522.24,1541.7979" fill="none" id="shell_scripts_setup_caddy_filebrowser_sh-to-tool_cat" style="stroke:#181818;stroke-width:1;"/><polygon fill="#181818" points="528.24,1541.7979,519.24,1537.7979,523.24,1541.7979,519.24,1545.7979,528.24,1541.7979" style="stroke:#181818;stroke-width:1;"/></g><!--link shell_scripts_setup_caddy_filebrowser_sh to tool_chmod--><g class="link" data-entity-1="ent0008" data-entity-2="ent0021" data-link-type="dependency" data-source-line="89" id="lnk84"><path d="M238.38,2790.4579 C238.38,2915.1879 238.38,3297.6279 238.38,3297.6279 C238.38,3297.6279 425.61,3297.6279 509.39,3297.6279" fill="none" id="shell_scripts_setup_caddy_filebrowser_sh-to-tool_chmod" style="stroke:#181818;stroke-width:1;"/><polygon fill="#181818" points="515.39,3297.6279,506.39,3293.6279,510.39,3297.6279,506.39,3301.6279,515.39,3297.6279" style="stroke:#181818;stroke-width:1;"/></g><!--link shell_scripts_setup_caddy_filebrowser_sh to tool_dnf--><g class="link" data-entity-1="ent0008" data-entity-2="ent0023" data-link-type="dependency" data-source-line="90" id="lnk85"><path d="M222.38,2790.5579 C222.38,2927.9079 222.38,3381.6279 222.38,3381.6279 C222.38,3381.6279 442.31,3381.6279 520.86,3381.6279" fill="none" id="shell_scripts_setup_caddy_filebrowser_sh-to-tool_dnf" style="stroke:#181818;stroke-width:1;"/><polygon fill="#181818" points="526.86,3381.6279,517.86,3377.6279,521.86,3381.6279,517.86,3385.6279,526.86,3381.6279" style="stroke:#181818;stroke-width:1;"/></g><!--link shell_scripts_setup_caddy_filebrowser_sh to tool_docker--><g class="link" data-entity-1="ent0008" data-entity-2="ent0024" data-link-type="dependency" data-source-line="91" id="lnk86"><path d="M207.38,2790.5179 C207.38,2939.5179 207.38,3465.6279 207.38,3465.6279 C207.38,3465.6279 420.02,3465.6279 509.7,3465.6279" fill="none" id="shell_scripts_setup_caddy_filebrowser_sh-to-tool_docker" style="stroke:#181818;stroke-width:1;"/><polygon fill="#181818" points="515.7,3465.6279,506.7,3461.6279,510.7,3465.6279,506.7,3469.6279,515.7,3465.6279" style="stroke:#181818;stroke-width:1;"/></g><!--link shell_scripts_setup_caddy_filebrowser_sh to tool_docker_compose--><g class="link" data-entity-1="ent0008" data-entity-2="ent0025" data-link-type="dependency" data-source-line="92" id="lnk87"><path d="M87.38,2712.6479 C87.38,2449.7279 87.38,945.6279 87.38,945.6279 C87.38,945.6279 347.62,945.6279 477.62,945.6279" fill="none" id="shell_scripts_setup_caddy_filebrowser_sh-to-tool_docker_compose" style="stroke:#181818;stroke-width:1;"/><polygon fill="#181818" points="483.62,945.6279,474.62,941.6279,478.62,945.6279,474.62,949.6279,483.62,945.6279" style="stroke:#181818;stroke-width:1;"/></g><!--link shell_scripts_setup_caddy_filebrowser_sh to tool_docker_compose_2--><g class="link" data-entity-1="ent0008" data-entity-2="ent0026" data-link-type="dependency" data-source-line="93" id="lnk88"><path d="M191.38,2790.6579 C191.38,2950.8679 191.38,3549.6279 191.38,3549.6279 C191.38,3549.6279 372.39,3549.6279 477.59,3549.6279" fill="none" id="shell_scripts_setup_caddy_filebrowser_sh-to-tool_docker_compose_2" style="stroke:#181818;stroke-width:1;"/><polygon fill="#181818" points="483.59,3549.6279,474.59,3545.6279,478.59,3549.6279,474.59,3553.6279,483.59,3549.6279" style="stroke:#181818;stroke-width:1;"/></g><!--link shell_scripts_setup_caddy_filebrowser_sh to tool_grep--><g class="link" data-entity-1="ent0008" data-entity-2="ent0027" data-link-type="dependency" data-source-line="94" id="lnk89"><path d="M127.38,2712.5479 C127.38,2513.9279 127.38,1625.7979 127.38,1625.7979 C127.38,1625.7979 419.07,1625.7979 516.75,1625.7979" fill="none" id="shell_scripts_setup_caddy_filebrowser_sh-to-tool_grep" style="stroke:#181818;stroke-width:1;"/><polygon fill="#181818" points="522.75,1625.7979,513.75,1621.7979,517.75,1625.7979,513.75,1629.7979,522.75,1625.7979" style="stroke:#181818;stroke-width:1;"/></g><!--link shell_scripts_setup_caddy_filebrowser_sh to tool_host--><g class="link" data-entity-1="ent0008" data-entity-2="ent0028" data-link-type="dependency" data-source-line="95" id="lnk90"><path d="M145.38,2712.6879 C145.38,2523.5479 145.38,1709.7979 145.38,1709.7979 C145.38,1709.7979 423.83,1709.7979 517.71,1709.7979" fill="none" id="shell_scripts_setup_caddy_filebrowser_sh-to-tool_host" style="stroke:#181818;stroke-width:1;"/><polygon fill="#181818" points="523.71,1709.7979,514.71,1705.7979,518.71,1709.7979,514.71,1713.7979,523.71,1709.7979" style="stroke:#181818;stroke-width:1;"/></g><!--link shell_scripts_setup_caddy_filebrowser_sh to tool_i--><g class="link" data-entity-1="ent0008" data-entity-2="ent0029" data-link-type="dependency" data-source-line="96" id="lnk91"><path d="M176.38,2790.6579 C176.38,2961.3579 176.38,3633.6279 176.38,3633.6279 C176.38,3633.6279 456.45,3633.6279 530.21,3633.6279" fill="none" id="shell_scripts_setup_caddy_filebrowser_sh-to-tool_i" style="stroke:#181818;stroke-width:1;"/><polygon fill="#181818" points="536.21,3633.6279,527.21,3629.6279,531.21,3633.6279,527.21,3637.6279,536.21,3633.6279" style="stroke:#181818;stroke-width:1;"/></g><!--link shell_scripts_setup_caddy_filebrowser_sh to tool_in_global_2--><g class="link" data-entity-1="ent0008" data-entity-2="ent0031" data-link-type="dependency" data-source-line="97" id="lnk92"><path d="M160.38,2790.6879 C160.38,2971.4079 160.38,3717.6279 160.38,3717.6279 C160.38,3717.6279 399.07,3717.6279 502.3,3717.6279" fill="none" id="shell_scripts_setup_caddy_filebrowser_sh-to-tool_in_global_2" style="stroke:#181818;stroke-width:1;"/><polygon fill="#181818" points="508.3,3717.6279,499.3,3713.6279,503.3,3717.6279,499.3,3721.6279,508.3,3717.6279" style="stroke:#181818;stroke-width:1;"/></g><!--link shell_scripts_setup_caddy_filebrowser_sh to tool_install--><g class="link" data-entity-1="ent0008" data-entity-2="ent0032" data-link-type="dependency" data-source-line="98" id="lnk93"><path d="M144.38,2790.5579 C144.38,2980.5779 144.38,3801.6279 144.38,3801.6279 C144.38,3801.6279 413.61,3801.6279 512.51,3801.6279" fill="none" id="shell_scripts_setup_caddy_filebrowser_sh-to-tool_install" style="stroke:#181818;stroke-width:1;"/><polygon fill="#181818" points="518.51,3801.6279,509.51,3797.6279,513.51,3801.6279,509.51,3805.6279,518.51,3801.6279" style="stroke:#181818;stroke-width:1;"/></g><!--link shell_scripts_setup_caddy_filebrowser_sh to tool_mv--><g class="link" data-entity-1="ent0008" data-entity-2="ent0037" data-link-type="dependency" data-source-line="99" id="lnk94"><path d="M129.38,2790.6579 C129.38,2990.0579 129.38,3885.6279 129.38,3885.6279 C129.38,3885.6279 430.15,3885.6279 521.82,3885.6279" fill="none" id="shell_scripts_setup_caddy_filebrowser_sh-to-tool_mv" style="stroke:#181818;stroke-width:1;"/><polygon fill="#181818" points="527.82,3885.6279,518.82,3881.6279,522.82,3885.6279,518.82,3889.6279,527.82,3885.6279" style="stroke:#181818;stroke-width:1;"/></g><!--link shell_scripts_setup_caddy_filebrowser_sh to tool_next--><g class="link" data-entity-1="ent0008" data-entity-2="ent0038" data-link-type="dependency" data-source-line="100" id="lnk95"><path d="M113.38,2790.4279 C113.38,2998.1879 113.38,3969.6279 113.38,3969.6279 C113.38,3969.6279 418.46,3969.6279 517.49,3969.6279" fill="none" id="shell_scripts_setup_caddy_filebrowser_sh-to-tool_next" style="stroke:#181818;stroke-width:1;"/><polygon fill="#181818" points="523.49,3969.6279,514.49,3965.6279,518.49,3969.6279,514.49,3973.6279,523.49,3969.6279" style="stroke:#181818;stroke-width:1;"/></g><!--link shell_scripts_setup_caddy_filebrowser_sh to tool_podman_compose--><g class="link" data-entity-1="ent0008" data-entity-2="ent0040" data-link-type="dependency" data-source-line="101" id="lnk96"><path d="M97.38,2790.5879 C97.38,3007.2279 97.38,4053.6279 97.38,4053.6279 C97.38,4053.6279 342.57,4053.6279 472.09,4053.6279" fill="none" id="shell_scripts_setup_caddy_filebrowser_sh-to-tool_podman_compose" style="stroke:#181818;stroke-width:1;"/><polygon fill="#181818" points="478.09,4053.6279,469.09,4049.6279,473.09,4053.6279,469.09,4057.6279,478.09,4053.6279" style="stroke:#181818;stroke-width:1;"/></g><!--link shell_scripts_setup_caddy_filebrowser_sh to tool_print--><g class="link" data-entity-1="ent0008" data-entity-2="ent0041" data-link-type="dependency" data-source-line="102" id="lnk97"><path d="M162.38,2712.5579 C162.38,2531.8379 162.38,1785.6279 162.38,1785.6279 C162.38,1785.6279 423.27,1785.6279 516.05,1785.6279" fill="none" id="shell_scripts_setup_caddy_filebrowser_sh-to-tool_print" style="stroke:#181818;stroke-width:1;"/><polygon fill="#181818" points="522.05,1785.6279,513.05,1781.6279,517.05,1785.6279,513.05,1789.6279,522.05,1785.6279" style="stroke:#181818;stroke-width:1;"/></g><!--link shell_scripts_setup_caddy_filebrowser_sh to tool_private_vpn--><g class="link" data-entity-1="ent0008" data-entity-2="ent0042" data-link-type="dependency" data-source-line="103" id="lnk98"><path d="M180.38,2712.5879 C180.38,2541.8979 180.38,1869.6279 180.38,1869.6279 C180.38,1869.6279 391.92,1869.6279 494.73,1869.6279" fill="none" id="shell_scripts_setup_caddy_filebrowser_sh-to-tool_private_vpn" style="stroke:#181818;stroke-width:1;"/><polygon fill="#181818" points="500.73,1869.6279,491.73,1865.6279,495.73,1869.6279,491.73,1873.6279,500.73,1869.6279" style="stroke:#181818;stroke-width:1;"/></g><!--link shell_scripts_setup_caddy_filebrowser_sh to tool_private_vpn_mtls--><g class="link" data-entity-1="ent0008" data-entity-2="ent0043" data-link-type="dependency" data-source-line="104" id="lnk99"><path d="M198.38,2712.5979 C198.38,2552.3779 198.38,1953.6279 198.38,1953.6279 C198.38,1953.6279 374.78,1953.6279 478.09,1953.6279" fill="none" id="shell_scripts_setup_caddy_filebrowser_sh-to-tool_private_vpn_mtls" style="stroke:#181818;stroke-width:1;"/><polygon fill="#181818" points="484.09,1953.6279,475.09,1949.6279,479.09,1953.6279,475.09,1957.6279,484.09,1953.6279" style="stroke:#181818;stroke-width:1;"/></g><!--link shell_scripts_setup_caddy_filebrowser_sh to tool_public--><g class="link" data-entity-1="ent0008" data-entity-2="ent0044" data-link-type="dependency" data-source-line="105" id="lnk100"><path d="M216.38,2712.7279 C216.38,2563.7379 216.38,2037.6279 216.38,2037.6279 C216.38,2037.6279 425.96,2037.6279 512.27,2037.6279" fill="none" id="shell_scripts_setup_caddy_filebrowser_sh-to-tool_public" style="stroke:#181818;stroke-width:1;"/><polygon fill="#181818" points="518.27,2037.6279,509.27,2033.6279,513.27,2037.6279,509.27,2041.6279,518.27,2037.6279" style="stroke:#181818;stroke-width:1;"/></g><!--link shell_scripts_setup_caddy_filebrowser_sh to tool_rm--><g class="link" data-entity-1="ent0008" data-entity-2="ent0045" data-link-type="dependency" data-source-line="106" id="lnk101"><path d="M233.38,2712.6879 C233.38,2575.3379 233.38,2121.6279 233.38,2121.6279 C233.38,2121.6279 447.36,2121.6279 522.54,2121.6279" fill="none" id="shell_scripts_setup_caddy_filebrowser_sh-to-tool_rm" style="stroke:#181818;stroke-width:1;"/><polygon fill="#181818" points="528.54,2121.6279,519.54,2117.6279,523.54,2121.6279,519.54,2125.6279,528.54,2121.6279" style="stroke:#181818;stroke-width:1;"/></g><!--link shell_scripts_setup_caddy_filebrowser_sh to tool_site--><g class="link" data-entity-1="ent0008" data-entity-2="ent0047" data-link-type="dependency" data-source-line="107" id="lnk102"><path d="M324.38,2712.7979 C324.38,2588.0579 324.38,2205.6279 324.38,2205.6279 C324.38,2205.6279 460.26,2205.6279 520.67,2205.6279" fill="none" id="shell_scripts_setup_caddy_filebrowser_sh-to-tool_site" style="stroke:#181818;stroke-width:1;"/><polygon fill="#181818" points="526.67,2205.6279,517.67,2201.6279,521.67,2205.6279,517.67,2209.6279,526.67,2205.6279" style="stroke:#181818;stroke-width:1;"/></g><!--link shell_scripts_setup_caddy_filebrowser_sh to tool_split_site--><g class="link" data-entity-1="ent0008" data-entity-2="ent0048" data-link-type="dependency" data-source-line="108" id="lnk103"><path d="M326.38,2712.6279 C326.38,2601.2479 326.38,2289.6279 326.38,2289.6279 C326.38,2289.6279 436.38,2289.6279 502.54,2289.6279" fill="none" id="shell_scripts_setup_caddy_filebrowser_sh-to-tool_split_site" style="stroke:#181818;stroke-width:1;"/><polygon fill="#181818" points="508.54,2289.6279,499.54,2285.6279,503.54,2289.6279,499.54,2293.6279,508.54,2289.6279" style="stroke:#181818;stroke-width:1;"/></g><!--link shell_scripts_setup_caddy_filebrowser_sh to tool_tr--><g class="link" data-entity-1="ent0008" data-entity-2="ent0050" data-link-type="dependency" data-source-line="109" id="lnk104"><path d="M328.38,2712.5979 C328.38,2616.0179 328.38,2373.6279 328.38,2373.6279 C328.38,2373.6279 470.92,2373.6279 526.62,2373.6279" fill="none" id="shell_scripts_setup_caddy_filebrowser_sh-to-tool_tr" style="stroke:#181818;stroke-width:1;"/><polygon fill="#181818" points="532.62,2373.6279,523.62,2369.6279,527.62,2373.6279,523.62,2377.6279,532.62,2373.6279" style="stroke:#181818;stroke-width:1;"/></g><!--link shell_scripts_setup_caddy_filebrowser_sh to tool_update_ca_certificates--><g class="link" data-entity-1="ent0008" data-entity-2="ent0053" data-link-type="dependency" data-source-line="110" id="lnk105"><path d="M332.49,2718.3079 C401.53,2718.3079 473.38,2718.3079 473.38,2718.3079 C473.38,2718.3079 473.38,2553.8679 473.38,2488.6179" fill="none" id="shell_scripts_setup_caddy_filebrowser_sh-to-tool_update_ca_certificates" style="stroke:#181818;stroke-width:1;"/><polygon fill="#181818" points="473.38,2482.6179,469.38,2491.6179,473.38,2487.6179,477.38,2491.6179,473.38,2482.6179" style="stroke:#181818;stroke-width:1;"/></g><!--link shell_scripts_setup_caddy_filebrowser_sh to tool_update_ca_trust--><g class="link" data-entity-1="ent0008" data-entity-2="ent0054" data-link-type="dependency" data-source-line="111" id="lnk106"><path d="M332.37,2723.5879 C410.9,2723.5879 497.38,2723.5879 497.38,2723.5879 C497.38,2723.5879 497.38,2622.3779 497.38,2572.5479" fill="none" id="shell_scripts_setup_caddy_filebrowser_sh-to-tool_update_ca_trust" style="stroke:#181818;stroke-width:1;"/><polygon fill="#181818" points="497.38,2566.5479,493.38,2575.5479,497.38,2571.5479,501.38,2575.5479,497.38,2566.5479" style="stroke:#181818;stroke-width:1;"/></g><!--link shell_scripts_setup_caddy_filebrowser_sh to tool_yum--><g class="link" data-entity-1="ent0008" data-entity-2="ent0055" data-link-type="dependency" data-source-line="112" id="lnk107"><path d="M330.38,2712.7879 C330.38,2675.7679 330.38,2625.6279 330.38,2625.6279 C330.38,2625.6279 457.11,2625.6279 517.77,2625.6279" fill="none" id="shell_scripts_setup_caddy_filebrowser_sh-to-tool_yum" style="stroke:#181818;stroke-width:1;"/><polygon fill="#181818" points="523.77,2625.6279,514.77,2621.6279,518.77,2625.6279,514.77,2629.6279,523.77,2625.6279" style="stroke:#181818;stroke-width:1;"/></g><!--link shell_scripts_start_snowbridge_sh to tool_docker_compose--><g class="link" data-entity-1="ent0009" data-entity-2="ent0025" data-link-type="dependency" data-source-line="113" id="lnk108"><path d="M308.63,816.1879 C389.89,816.1879 490.38,816.1879 490.38,816.1879 C490.38,816.1879 490.38,877.0579 490.38,914.6679" fill="none" id="shell_scripts_start_snowbridge_sh-to-tool_docker_compose" style="stroke:#181818;stroke-width:1;"/><polygon fill="#181818" points="490.38,920.6679,494.38,911.6679,490.38,915.6679,486.38,911.6679,490.38,920.6679" style="stroke:#181818;stroke-width:1;"/></g><!--link shell_scripts_start_snowbridge_sh to tool_systemctl--><g class="link" data-entity-1="ent0009" data-entity-2="ent0049" data-link-type="dependency" data-source-line="114" id="lnk109"><path d="M308.66,769.4479 C399.47,769.4479 518.38,769.4479 518.38,769.4479 C518.38,769.4479 518.38,737.2179 518.38,710.6479" fill="none" id="shell_scripts_start_snowbridge_sh-to-tool_systemctl" style="stroke:#181818;stroke-width:1;"/><polygon fill="#181818" points="518.38,704.6479,514.38,713.6479,518.38,709.6479,522.38,713.6479,518.38,704.6479" style="stroke:#181818;stroke-width:1;"/></g><!--link shell_scripts_start_snowbridge_sh to tool_up--><g class="link" data-entity-1="ent0009" data-entity-2="ent0052" data-link-type="dependency" data-source-line="115" id="lnk110"><path d="M308.73,785.7979 C385.34,785.7979 478.65,785.7979 523.52,785.7979" fill="none" id="shell_scripts_start_snowbridge_sh-to-tool_up" style="stroke:#181818;stroke-width:1;"/><polygon fill="#181818" points="529.52,785.7979,520.52,781.7979,524.52,785.7979,520.52,789.7979,529.52,785.7979" style="stroke:#181818;stroke-width:1;"/></g><?plantuml-src lLXDS-Cs3BthLwZPo_P3ZcCds-mUEjDsavxQYu_Pb4DBjCmnHMf8obd_-uAIRD6aR5bqffV40Du38OW40Mcg6OaL5szBIRESn8irOInUf9AMEdvcuYrYPALZBM99yxMECof9ggdWaTfGNcA9YrYjSIRUAC_Z5MQAM9QCh735zBFW-XzSaFXlmOKgSMfZKb6KWXEk5te7iHZtcEVCXZ3AYTwL91PIhqLqWCGtgU0hcj_YD2LAtMfCcKen8zslH5LB82TIL9h82VcEYvAHYLf_uzEO2O10-EQH2Joz-iRlOl8TW1pqMWXs4sFL052p56gMGeS5h5_DKgXP2hLB8RMEFtpzu-dtvwTh0gz3_J_2hfsV3nhGRq9kzlyBp75EPA8qrZHDQ3cSvTbnkCgFj_MDZjT0pHg8bfUbTp3IWRI-GvpdygdgOwPkCxAiSbHAkiMQjA_gpBk-EnrLwn7rUHm8Gf92L5mZLcqC5Cipxsy-787lRc1zHNHLeXHdsGwjA2DBATuKxFpJGSo6epZXT2WKZQL6NLMyAX6kCtljb8agYsz-e1pbJ2nnSt2D9tHGnH-UdvxdV_ww1t-4WWdRB8CJG9LM7UDOxz9cBzFaysk7hl_Cq1HzTf5pGDwz_ZXni7F0thdO-_kv0mED3thmG0ykw77gO1wdBkJVbvSlzUtnvVNrfmvTgyvXVtQmQEQYSQcJdEWE1me42XUNOWi3WcTV5oAp44PqCHdDEmG8dfslB3jVUNQHReYq8BNSZsekLqLSD6hr_QnaWENdBvUaxD16SX5heQpK6Sb5K6llUpOhgTJBwBdJuyTAEPn8TeIj5Hwkt7wQ50GQ3djnKA96wU8BN9eAqs5RXOVRG0zbeOpeOKpfj316z31R2x1rhHpgKcStaeSeKcRbl1PTJ2aoA2d-VcZqftOHN3jszBNOWp5NKx8j-H6olgz0UGQV59gfNX8o5ezPBHbDBNmjkoXPT0XPk5P5h3q0WcUdsigEaJn4oQZ-Q2o_sDK8bFtmdTAaIBMrJGyg5wkjtQIzhLGvUwdgtKoLTNohqhTc9lSfJb8YDLrHA7r4sGnZXuA8RFjfBrfMTZNewBN1vUqgwzs0SB1VtPSdoMzERgChc-OXZsFQseClg-YyWxVwe4U1JUmxnEJxiYCQQc0Ff7sp4SXx2E8zJiVIu2ICfK1FC9foT3-FPPlxUYp7tE1ZEJGRowWlnx4agC_H9RD8jqfpKOya6UCuIjN7EJEXT8dRTpC1tEEf8C11DoY4akl98O3SVYaAuw5P0BDj-qFIZ8DOPa08uC5O4CAggqGmyKHv6UyWwDNq5AbBQ3rrwg8JTyqf3Ng-TWe9O1RR09AP209enur_Y0Cp38Jnzbt-TUnwHWXnKOyD0KHPX9Gmc0c2Ajz-e0YfrI6beR_rlyfHFGG4U83H81h-z7PXKJl7T7lxYqXL6N41Wzx---1V4fVhHGMNizn5YnHp3cFbO_jriVKuYRuIJL8DbfwlZvRr_fFp7N8I4Px5Pi7_0000?></g></svg>
