<?plantuml 1.2026.2?><svg xmlns="http://www.w3.org/2000/svg" xmlns:xlink="http://www.w3.org/1999/xlink" contentStyleType="text/css" data-diagram-type="DESCRIPTION" height="2548px" preserveAspectRatio="none" style="width:890px;height:2548px;background:#FFFFFF;" version="1.1" viewBox="0 0 890 2548" width="890px" zoomAndPan="magnify"><title>snowbridge Shell Script Flow</title><defs/><g><g class="title" data-source-line="1"><text fill="#000000" font-family="Monospace" font-size="14" font-weight="bold" lengthAdjust="spacing" textLength="199.0828" x="338.7624" y="24.9659">snowbridge&#160;Shell&#160;Script&#160;Flow</text></g><!--entity shell_config_access_tailscale_tailscale_subnet_router_example_sh--><g class="entity" data-qualified-name="shell_config_access_tailscale_tailscale_subnet_router_example_sh" data-source-line="7" id="ent0002"><rect fill="#DBEAFE" height="39.0679" rx="2.5" ry="2.5" style="stroke:#181818;stroke-width:0.5;" width="642.5497" x="7" y="302.0879"/><text fill="#000000" font-family="Monospace" font-size="14" lengthAdjust="spacing" textLength="622.5497" x="17" y="327.0539">config/access/tailscale/tailscale-subnet-router.example.sh\n0&#160;local&#160;shell&#160;edges\n1&#160;external&#160;tool</text></g><!--entity shell_config_access_tailscale_tailscale_subnet_router_local_sh--><g class="entity" data-qualified-name="shell_config_access_tailscale_tailscale_subnet_router_local_sh" data-source-line="8" id="ent0003"><rect fill="#DBEAFE" height="39.0679" rx="2.5" ry="2.5" style="stroke:#181818;stroke-width:0.5;" width="616.4537" x="20.05" y="376.0879"/><text fill="#000000" font-family="Monospace" font-size="14" lengthAdjust="spacing" textLength="596.4537" x="30.05" y="401.0539">config/access/tailscale/tailscale-subnet-router.local.sh\n0&#160;local&#160;shell&#160;edges\n1&#160;external&#160;tool</text></g><!--entity shell_config_network_networkmanager_static_ip_example_sh--><g class="entity" data-qualified-name="shell_config_network_networkmanager_static_ip_example_sh" data-source-line="9" id="ent0004"><rect fill="#DBEAFE" height="39.0679" rx="2.5" ry="2.5" style="stroke:#181818;stroke-width:0.5;" width="624.0278" x="16.26" y="144.0879"/><text fill="#000000" font-family="Monospace" font-size="14" lengthAdjust="spacing" textLength="604.0278" x="26.26" y="169.0539">config/network/networkmanager-static-ip.example.sh\n0&#160;local&#160;shell&#160;edges\n2&#160;external&#160;tools</text></g><!--entity shell_config_network_networkmanager_static_ip_local_sh--><g class="entity" data-qualified-name="shell_config_network_networkmanager_static_ip_local_sh" data-source-line="10" id="ent0005"><rect fill="#DBEAFE" height="39.0679" rx="2.5" ry="2.5" style="stroke:#181818;stroke-width:0.5;" width="597.9318" x="29.31" y="220.0879"/><text fill="#000000" font-family="Monospace" font-size="14" lengthAdjust="spacing" textLength="577.9318" x="39.31" y="245.0539">config/network/networkmanager-static-ip.local.sh\n0&#160;local&#160;shell&#160;edges\n2&#160;external&#160;tools</text></g><!--entity shell_scripts_setup_caddy_filebrowser_sh--><g class="entity" data-qualified-name="shell_scripts_setup_caddy_filebrowser_sh" data-source-line="11" id="ent0006"><rect fill="#DBEAFE" height="39.0679" rx="2.5" ry="2.5" style="stroke:#181818;stroke-width:0.5;" width="506.8481" x="74.85" y="1527.0879"/><text fill="#000000" font-family="Monospace" font-size="14" lengthAdjust="spacing" textLength="486.8481" x="84.85" y="1552.0539">scripts/setup_caddy_filebrowser.sh\n0&#160;local&#160;shell&#160;edges\n24&#160;external&#160;tools</text></g><!--entity shell_scripts_setup_wireguard_sh--><g class="entity" data-qualified-name="shell_scripts_setup_wireguard_sh" data-source-line="12" id="ent0007"><rect fill="#DBEAFE" height="39.0679" rx="2.5" ry="2.5" style="stroke:#181818;stroke-width:0.5;" width="447.3064" x="104.62" y="645.0879"/><text fill="#000000" font-family="Monospace" font-size="14" lengthAdjust="spacing" textLength="427.3064" x="114.62" y="670.0539">scripts/setup_wireguard.sh\n0&#160;local&#160;shell&#160;edges\n9&#160;external&#160;tools</text></g><!--entity tool_in_global--><g class="entity" data-qualified-name="tool_in_global" data-source-line="13" id="ent0008"><path d="M757.2323,1825.2813 C761.4921,1817.6409 767.6099,1818.9537 771.9588,1825.1867 C775.7616,1819.6879 779.9305,1819.0071 783.9999,1824.9051 C787.3686,1818.5763 792.5717,1818.7813 796.5119,1824.3015 C801.1226,1817.6773 806.2488,1818.4805 810.577,1824.6131 C813.2628,1818.1388 819.1015,1818.27 822.5357,1823.8721 C826.3118,1817.6593 832.4646,1818.1612 835.8163,1824.3274 C846.0981,1827.6653 845.9988,1833.5536 839.9625,1840.9594 C847.4756,1849.5876 843.4008,1855.0053 834.284,1858.1357 C831.2447,1864.2977 826.0326,1865.794 821.3019,1859.9673 C818.4598,1866.7032 813.912,1866.6435 809.3049,1861.7951 C806.21,1869.0265 801.129,1869.399 796.1787,1863.675 C791.01,1869.568 786.3952,1868.106 783.7518,1861.2193 C779.5008,1868.0139 774.0058,1866.7639 770.2372,1860.712 C765.4799,1866.7578 761.6439,1865.246 758.261,1859.3353 C750.4758,1854.4842 749.0193,1849.1207 756.3548,1842.5523 C749.0831,1837.1251 747.7875,1829.8592 757.2323,1825.2813" fill="#FEF3C7" style="stroke:#181818;stroke-width:0.5;"/><text fill="#000000" font-family="Monospace" font-size="14" lengthAdjust="spacing" textLength="63.0138" x="764.04" y="1846.0539">!in_global</text></g><!--entity tool_command_exists--><g class="entity" data-qualified-name="tool_command_exists" data-source-line="14" id="ent0009"><path d="M732.4591,1909.399 C736.31,1903.6691 742.5368,1903.3891 745.8716,1909.9616 C749.0505,1904.4504 754.4985,1903.756 758.6948,1908.7156 C761.8471,1902.1036 767.6622,1902.0352 771.8326,1907.6189 C775.3742,1901.2884 780.7031,1902.4764 784.1829,1907.685 C788.3493,1901.5864 793.8426,1901.6353 797.4547,1908.2631 C801.7837,1902.3569 805.5589,1902.8625 809.651,1908.5132 C813.1463,1903.0138 819.1338,1901.1168 822.9279,1908.1979 C827.5773,1902.7249 831.1821,1903.3208 834.3549,1909.6299 C837.481,1901.7066 843.9353,1902.3796 848.6513,1907.9449 C853.316,1901.8878 858.6952,1903.6972 861.4811,1909.9094 C869.5264,1913.7093 870.6018,1919.5882 863.2072,1925.1381 C870.6885,1931.0269 869.1441,1937.8952 860.6613,1941.2635 C858.756,1947.7634 853.2461,1949.5595 848.5927,1944.0179 C845.5927,1950.7835 840.3226,1951.4135 835.4668,1946.0215 C831.2256,1952.4 826.1034,1951.4092 822.0741,1945.785 C819.2495,1952.4483 813.9156,1952.9966 808.8407,1948.4388 C805.5144,1953.8248 801.3669,1955.6372 796.9556,1949.5642 C791.7694,1956.2168 786.9194,1955.6298 782.8548,1948.4231 C778.0706,1953.1165 774.1272,1951.9223 771.3696,1946.1904 C767.4647,1952.0323 762.0403,1951.9599 758.1541,1946.1692 C752.954,1951.4619 748.407,1949.5448 746.2665,1943.0766 C742.841,1949.5525 736.7893,1949.2383 733.3785,1943.0617 C723.9534,1939.6338 724.7742,1932.3265 731.0188,1926.6461 C723.3969,1921.0109 724.1199,1913.7013 732.4591,1909.399" fill="#FEF3C7" style="stroke:#181818;stroke-width:0.5;"/><text fill="#000000" font-family="Monospace" font-size="14" lengthAdjust="spacing" textLength="114.2816" x="738.4" y="1930.0539">(command_exists</text></g><!--entity tool_space--><g class="entity" data-qualified-name="tool_space" data-source-line="15" id="ent0010"><path d="M758.1943,1992.3534 C761.5943,1986.5086 768.0387,1985.8373 771.099,1992.6983 C774.7904,1986.0657 779.7666,1985.9861 784.2503,1991.8655 C788.2295,1985.6938 792.712,1986.1783 797.1046,1991.399 C800.5943,1985.45 804.2077,1986.0225 808.0973,1990.9966 C813.005,1984.4227 817.4217,1985.3766 821.1816,1992.1241 C824.7272,1986.8325 830.8883,1985.9396 833.9005,1992.6875 C842.5968,1995.4202 845.5931,2003.6276 839.1138,2010.7422 C844.4492,2016.5469 842.666,2023.3289 835.0844,2025.6399 C832.5657,2034.0967 827.0925,2034.7765 820.836,2029.525 C818.2255,2035.0571 814.1442,2035.8063 809.5425,2031.9101 C806.7269,2038.4593 801.4764,2040.4381 796.5764,2033.9895 C791.1862,2039.4753 786.812,2038.1507 784.3675,2031.1169 C780.0167,2036.3397 774.366,2036.7018 771.4951,2029.5744 C766.6293,2033.5776 762.2652,2034.2857 759.7584,2027.1 C748.9943,2023.9817 748.8523,2018.1142 754.7276,2010.0782 C747.9474,2002.82 748.2347,1996.3375 758.1943,1992.3534" fill="#FEF3C7" style="stroke:#181818;stroke-width:0.5;"/><text fill="#000000" font-family="Monospace" font-size="14" lengthAdjust="spacing" textLength="8.008" x="765.04" y="2014.0539">^</text><a href=":space:" target="_top" title=":space:" xlink:actuate="onRequest" xlink:href=":space:" xlink:show="new" xlink:title=":space:" xlink:type="simple"><text fill="#0000FF" font-family="Monospace" font-size="14" lengthAdjust="spacing" text-decoration="underline" textLength="45.2898" x="773.048" y="2014.0539">:space:</text></a><text fill="#000000" font-family="Monospace" font-size="14" lengthAdjust="spacing" textLength="7.714" x="818.3378" y="2014.0539">*</text></g><!--entity tool_space_2--><g class="entity" data-qualified-name="tool_space_2" data-source-line="16" id="ent0011"><path d="M758.0443,2076.3534 C761.4566,2070.4861 767.9254,2069.8116 770.998,2076.6983 C774.7047,2070.0419 779.6993,2069.9632 784.1983,2075.8655 C788.1935,2069.6709 792.693,2070.1578 797.1016,2075.399 C800.6078,2069.4241 804.2372,2069.9997 808.1433,2074.9966 C813.0672,2068.3967 817.5006,2069.3527 821.2766,2076.1241 C824.8349,2070.8116 831.0195,2069.9142 834.0445,2076.6875 C842.7408,2079.4202 845.7371,2087.6276 839.2578,2094.7422 C844.5932,2100.5469 842.81,2107.3289 835.2284,2109.6399 C832.6943,2118.1216 827.203,2118.7987 820.931,2113.525 C818.3048,2119.0778 814.2059,2119.8265 809.5885,2115.9101 C806.7586,2122.4818 801.4877,2124.4647 796.5734,2117.9895 C791.1676,2123.5009 786.7756,2122.1752 784.3155,2115.1169 C779.9507,2120.3613 774.279,2120.7272 771.3941,2113.5744 C766.5123,2117.5977 762.1313,2118.3123 759.6084,2111.1 C748.8443,2107.9817 748.7023,2102.1142 754.5776,2094.0782 C747.7974,2086.82 748.0847,2080.3375 758.0443,2076.3534" fill="#FEF3C7" style="stroke:#181818;stroke-width:0.5;"/><text fill="#000000" font-family="Monospace" font-size="14" lengthAdjust="spacing" textLength="8.008" x="764.89" y="2098.0539">^</text><a href=":space:" target="_top" title=":space:" xlink:actuate="onRequest" xlink:href=":space:" xlink:show="new" xlink:title=":space:" xlink:type="simple"><text fill="#0000FF" font-family="Monospace" font-size="14" lengthAdjust="spacing" text-decoration="underline" textLength="45.2898" x="772.898" y="2098.0539">:space:</text></a><text fill="#000000" font-family="Monospace" font-size="14" lengthAdjust="spacing" textLength="8.008" x="818.1878" y="2098.0539">+</text></g><!--entity tool_apt_get--><g class="entity" data-qualified-name="tool_apt_get" data-source-line="17" id="ent0012"><path d="M766.5103,817.5558 C770.0283,811.231 776.9857,811.0353 781.1659,816.7497 C784.8591,809.4294 790.8403,808.6552 796.3176,814.7319 C801.749,807.8271 809.677,808.0714 812.5212,817.3261 C816.1393,810.7829 823.3387,809.2949 827.8622,816.3009 C838.6369,817.3995 842.6552,822.9574 836.651,832.9261 C841.5788,842.5651 837.4756,850.1542 826.3482,850.2388 C824.1607,857.9637 817.9299,859.36 812.3892,853.7486 C810.133,862.0077 804.8174,863.857 797.5666,859.7219 C789.8916,865.5811 783.5358,864.777 780.4236,854.7867 C773.4479,861.381 766.7848,857.9489 765.0316,849.4579 C758.1024,844.5298 756.505,839.9217 764.4013,834.3741 C757.7073,828.306 758.6843,821.8031 766.5103,817.5558" fill="#FEF3C7" style="stroke:#181818;stroke-width:0.5;"/><text fill="#000000" font-family="Monospace" font-size="14" lengthAdjust="spacing" textLength="47.5858" x="771.75" y="838.0539">apt-get</text></g><!--entity tool_cat--><g class="entity" data-qualified-name="tool_cat" data-source-line="18" id="ent0013"><path d="M779.6482,901.102 C783.5319,890.992 790.3992,891.3969 797.1621,898.1033 C804.6459,891.411 809.0046,894.2705 812.6138,902.1983 C821.2292,905.3511 821.7173,910.8433 816.4119,917.4603 C822.3594,923.6174 821.9812,931.5145 812.5311,934.0752 C810.2083,943.8909 802.9267,944.8902 795.5682,939.8096 C787.7532,945.9014 782.5019,943.1764 780.0927,934.2422 C769.3325,932.9926 767.9203,927.5466 772.5437,918.7843 C766.834,910.7136 768.3807,902.3515 779.6482,901.102" fill="#FEF3C7" style="stroke:#181818;stroke-width:0.5;"/><text fill="#000000" font-family="Monospace" font-size="14" lengthAdjust="spacing" textLength="19.6279" x="785.73" y="922.0539">cat</text></g><!--entity tool_dnf--><g class="entity" data-qualified-name="tool_dnf" data-source-line="19" id="ent0014"><path d="M778.0452,986.0473 C783.5075,975.8448 789.554,973.6363 797.6361,983.488 C802.5228,974.4778 810.5211,974.9258 814.7611,984.0973 C825.9345,986.8493 827.4084,992.8441 820.3607,1001.4695 C826.8199,1008.0237 823.8377,1015.6503 815.4701,1017.7508 C812.1958,1027.6715 803.4003,1028.7963 796.7,1021.4817 C790.4318,1030.8771 781.6976,1028.9566 777.6408,1019.2726 C766.7434,1017.2889 762.901,1012.1089 769.6786,1001.9847 C763.8862,991.9395 766.4718,986.9761 778.0452,986.0473" fill="#FEF3C7" style="stroke:#181818;stroke-width:0.5;"/><text fill="#000000" font-family="Monospace" font-size="14" lengthAdjust="spacing" textLength="22.0779" x="784.5" y="1006.0539">dnf</text></g><!--entity tool_docker--><g class="entity" data-qualified-name="tool_docker" data-source-line="20" id="ent0015"><path d="M766.7113,2162.1918 C770.5845,2154.2824 775.629,2155.1162 781.0648,2160.5051 C784.5331,2153.1941 791.746,2153.0328 796.2805,2159.3114 C802.5966,2151.4874 807.3345,2153.6095 812.1641,2160.8761 C816.2545,2153.6803 821.8345,2154.7164 825.7435,2161.058 C836.1226,2161.8111 838.9401,2169.7942 834.4758,2178.1367 C839.1416,2187.2227 835.9344,2192.8096 826.3163,2194.9732 C820.7692,2202.8968 815.8471,2203.252 810.4266,2194.85 C808.0303,2202.0783 801.9405,2201.8524 797.3718,2197.2464 C791.832,2205.6813 785.6646,2203.6243 781.1869,2196.1649 C775.3595,2201.6942 770.3111,2201.5875 766.8355,2193.6573 C758.3743,2192.6172 754.8785,2185.4616 760.4737,2178.5157 C755.7079,2170.5035 756.3899,2164.4389 766.7113,2162.1918" fill="#FEF3C7" style="stroke:#181818;stroke-width:0.5;"/><text fill="#000000" font-family="Monospace" font-size="14" lengthAdjust="spacing" textLength="44.9538" x="773.07" y="2182.0539">docker</text></g><!--entity tool_docker_compose--><g class="entity" data-qualified-name="tool_docker_compose" data-source-line="21" id="ent0016"><path d="M734.5831,2245.0897 C737.8278,2239.1937 742.9965,2239.0502 746.927,2244.3323 C750.2274,2238.6305 756.3915,2238.7602 759.6588,2244.3695 C762.548,2236.8857 769.2512,2237.3878 773.1827,2243.3187 C776.1956,2237.449 781.5909,2237.1285 784.7808,2243.146 C788.9532,2238.51 792.7179,2238.441 796.4997,2243.6127 C801.0049,2237.9555 805.2324,2237.5491 809.1591,2244.2073 C812.457,2238.3695 816.8922,2238.5595 820.4431,2243.9532 C823.7909,2238.4222 828.7938,2237.5806 832.5051,2243.5727 C837.2326,2237.965 841.7552,2238.2918 844.7687,2245.2459 C848.4094,2239.2603 853.2569,2238.3903 857.4865,2244.6335 C868.4915,2245.9945 869.3198,2254.5923 863.877,2262.0043 C869.3013,2269.0929 866.4328,2276.7816 857.1663,2277.5136 C854.632,2282.9473 850.2773,2285.1854 845.7732,2279.5391 C842.6701,2286.5154 838.5855,2286.4082 833.9216,2281.0372 C831.5338,2287.714 825.4988,2288.725 820.8575,2283.5135 C818.0888,2289.4661 812.7986,2291.8058 808.1171,2285.5017 C805.6582,2290.8181 800.4245,2290.4619 797.4158,2286.1104 C792.6331,2293.1153 787.907,2292.397 784.0581,2285.2303 C779.7449,2290.6562 775.8741,2288.8897 773.1052,2283.6451 C768.2023,2288.5504 762.9861,2286.7705 760.4978,2280.8366 C756.0873,2286.759 749.7579,2284.8587 747.2408,2278.7502 C743.4427,2285.0986 739.426,2283.9218 735.3112,2279.0879 C727.523,2275.8639 724.6674,2267.6479 732.469,2261.853 C726.2107,2255.3405 726.2023,2249.756 734.5831,2245.0897" fill="#FEF3C7" style="stroke:#181818;stroke-width:0.5;"/><text fill="#000000" font-family="Monospace" font-size="14" lengthAdjust="spacing" textLength="108.5556" x="741.27" y="2266.0539">docker&#160;compose</text></g><!--entity tool_docker_compose_2--><g class="entity" data-qualified-name="tool_docker_compose_2" data-source-line="22" id="ent0017"><path d="M735.2242,2329.7257 C738.0528,2323.9474 743.6053,2321.5526 748.0107,2328.0885 C752.0227,2322.4778 756.1979,2323.2636 759.3513,2328.9504 C762.5604,2322.649 768.0192,2322.5945 771.1,2329.0684 C774.8202,2322.3217 780.4984,2322.5423 784.7155,2328.5374 C787.568,2321.1884 792.5856,2322.0288 797.2508,2326.6371 C801.8427,2321.9019 805.7279,2323.2911 808.2505,2328.8485 C812.2711,2322.8022 817.7334,2323.2466 821.8908,2328.6861 C824.6579,2323.5569 830.0595,2322.1357 833.6509,2327.7869 C837.892,2321.797 844.0754,2321.587 847.1112,2328.9976 C850.8785,2324.3166 855.5533,2324.5978 858.4065,2330.0196 C867.7674,2332.3269 869.5302,2338.152 865.1938,2346.2037 C871.0034,2354.1418 868.0073,2362.1958 857.7359,2362.9888 C853.9188,2369.441 849.9985,2369.0824 845.3102,2363.921 C842.9331,2370.5743 837.3854,2370.0769 833.3245,2365.7608 C830.5202,2372.6675 825.7085,2372.5556 820.9075,2367.9062 C818.3507,2373.7047 812.5167,2373.8564 809.0609,2368.8961 C806.4515,2374.9777 800.3034,2376.5359 795.8895,2370.9297 C791.8372,2377.0581 786.3392,2374.7336 783.8009,2369.341 C780.7517,2373.8479 775.1826,2374.4765 772.7007,2368.7271 C766.8773,2375.1814 760.8946,2373.0669 758.9598,2365.0378 C755.0283,2370.2983 751.5517,2370.0619 748.2031,2364.4605 C743.4658,2369.755 738.1012,2368.5908 735.6654,2362.0272 C726.2044,2359.6959 725.6293,2351.5876 732.0994,2345.7633 C725.0428,2340.0863 727.1242,2332.4496 735.2242,2329.7257" fill="#FEF3C7" style="stroke:#181818;stroke-width:0.5;"/><text fill="#000000" font-family="Monospace" font-size="14" lengthAdjust="spacing" textLength="109.4236" x="740.83" y="2350.0539">docker-compose</text></g><!--entity tool_grep--><g class="entity" data-qualified-name="tool_grep" data-source-line="23" id="ent0018"><path d="M774.4192,565.0846 C777.096,560.6761 781.6181,559.5353 784.7797,564.5516 C788.0103,557.576 791.9601,556.6614 797.5239,562.1698 C800.6621,557.4056 805.9102,558.5747 808.1812,563.1585 C812.5609,559.1943 816.4213,559.8767 818.7598,565.4279 C828.6774,568.1987 828.5725,574.5752 823.0752,581.4881 C829.8946,589.3669 827.0541,594.5664 818.5145,598.2717 C816.3551,604.4232 812.798,606.2422 807.2364,601.9434 C805.4557,606.8253 800.6578,608.8728 796.6985,604.3966 C790.7988,607.9656 786.8093,607.2529 784.4292,600.2946 C780.496,604.8584 775.3525,603.0468 773.7888,597.7403 C764.074,595.6187 761.4877,587.8805 768.838,580.7781 C763.0933,573.851 765.5503,566.8146 774.4192,565.0846" fill="#FEF3C7" style="stroke:#181818;stroke-width:0.5;"/><text fill="#000000" font-family="Monospace" font-size="14" lengthAdjust="spacing" textLength="30.8979" x="780.09" y="586.0539">grep</text></g><!--entity tool_host--><g class="entity" data-qualified-name="tool_host" data-source-line="24" id="ent0019"><path d="M776.1752,2413.3939 C780.4486,2401.5266 790.4591,2401.9446 797.2482,2410.8406 C804.1523,2402.8124 812.9469,2403.4494 817.6924,2413.3078 C827.2279,2417.267 826.426,2422.5806 820.6761,2429.3778 C827.6467,2436.5876 826.6047,2442.9864 817.0838,2446.7948 C815.1628,2452.5547 811.815,2453.4329 807.0539,2449.8408 C805.9731,2455.287 801.349,2456.7507 797.4142,2452.7542 C792.1541,2457.6328 787.9961,2456.3286 785.4325,2449.8975 C781.1385,2452.6316 777.7995,2451.6338 776.1956,2446.6697 C767.6964,2443.848 765.0693,2435.1201 772.1205,2428.7601 C765.6906,2421.4207 766.5632,2416.5004 776.1752,2413.3939" fill="#FEF3C7" style="stroke:#181818;stroke-width:0.5;"/><text fill="#000000" font-family="Monospace" font-size="14" lengthAdjust="spacing" textLength="28.8819" x="781.1" y="2434.0539">host</text></g><!--entity tool_in_global_2--><g class="entity" data-qualified-name="tool_in_global_2" data-source-line="25" id="ent0020"><path d="M759.8203,2496.6627 C763.9379,2490.866 768.2905,2489.2056 772.9271,2496.1278 C776.4696,2490.3008 781.8363,2490.9036 785.3031,2496.212 C788.3567,2491.1244 793.3611,2489.6903 796.9047,2495.6999 C800.0673,2491.1703 804.4782,2490.6577 807.783,2495.5354 C812.1828,2488.5872 818.4726,2489.0511 821.5535,2496.7734 C825.7211,2490.7445 830.4669,2491.8041 833.3211,2498.0342 C841.2893,2500.1076 844.6731,2505.8115 838.1787,2512.6813 C845.3865,2519.4023 844.2626,2528.4 833.5996,2530.5385 C830.8352,2537.4419 826.1422,2537.3141 821.6452,2532.2724 C819.7629,2539.7075 813.0741,2540.8054 808.3224,2535.2051 C805.1162,2541.8556 800.7205,2541.8862 795.7082,2537.218 C791.4646,2541.4221 786.7362,2540.9651 785.2985,2534.4844 C779.845,2540.152 775.5225,2538.2819 772.6172,2531.8203 C768.0396,2538.1065 763.7275,2536.7185 759.7393,2531.1784 C750.6418,2527.8104 749.3379,2520.1319 757.2167,2514.2362 C749.2907,2508.0526 751.0118,2500.367 759.8203,2496.6627" fill="#FEF3C7" style="stroke:#181818;stroke-width:0.5;"/><text fill="#000000" font-family="Monospace" font-size="14" lengthAdjust="spacing" textLength="59.2478" x="765.92" y="2518.0539">in_global</text></g><!--entity tool_install--><g class="entity" data-qualified-name="tool_install" data-source-line="26" id="ent0021"><path d="M769.9663,648.3185 C774.1149,643.1102 779.0556,641.907 782.7168,648.8308 C787.0022,640.3556 792.1542,641.6909 797.6726,647.5437 C801.1818,642.905 806.0171,642.3371 808.9898,648.126 C814.4196,641.1556 818.9547,641.3458 823.6671,648.8532 C833.8288,648.7441 838.2749,656.8167 832.3052,665.221 C836.9227,674.1014 832.6056,680.1733 823.3178,681.2638 C820.7624,689.2529 815.0118,690.1511 809.7101,683.8855 C805.8911,691.9035 800.9925,691.9141 795.5679,685.4539 C791.1633,691.3112 786.6569,690.6948 783.5459,684.1953 C779.6178,689.1344 773.2863,688.3981 770.5619,682.7228 C759.5909,680.5738 758.7595,674.8363 763.4476,666.0182 C756.1276,656.5074 758.2458,650.8169 769.9663,648.3185" fill="#FEF3C7" style="stroke:#181818;stroke-width:0.5;"/><text fill="#000000" font-family="Monospace" font-size="14" lengthAdjust="spacing" textLength="39.1019" x="775.99" y="670.0539">install</text></g><!--entity tool_ipv6_method--><g class="entity" data-qualified-name="tool_ipv6_method" data-source-line="27" id="ent0022"><path d="M747.2332,144.8501 C751.5843,138.5168 755.6427,137.4636 760.7891,144.0131 C763.6483,139.3064 768.4442,139.0901 771.7928,143.4169 C774.9949,138.0714 780.5319,136.74 784.1491,142.9739 C788.3611,137.8677 793.6076,136.6766 797.3064,143.5382 C801.3441,137.0249 805.0749,137.7416 809.574,143.0598 C813.1138,138.6713 817.8618,138.8945 820.0208,144.5028 C824.5107,138.9473 830.2615,137.6115 834.0524,145.2465 C836.9618,140.5543 840.4796,140.3951 844.0468,144.4989 C852.7561,148.6528 854.1306,155.8064 847.3924,162.7863 C853.5001,167.7807 854.5619,176.1492 845.1823,179.0375 C841.9733,184.5324 836.1212,184.2156 833.0432,178.8905 C831.1233,186.1285 826.3646,185.8086 821.5155,181.9274 C817.8925,186.9508 812.832,187.3872 809.612,181.4882 C806.7516,188.0524 802.73,189.7443 797.4349,183.8721 C792.8703,188.3008 788.3087,187.7036 785.2569,182.0456 C780.6205,189.2254 775.9197,188.2931 771.4701,181.8565 C767.4887,186.1641 763.8194,185.5984 761.2838,180.3202 C757.3972,186.4374 751.9732,185.1968 749.2407,179.1753 C738.9418,177.554 734.5429,169.2604 741.8438,160.6222 C736.8049,153.6571 737.1559,146.6499 747.2332,144.8501" fill="#FEF3C7" style="stroke:#181818;stroke-width:0.5;"/><text fill="#000000" font-family="Monospace" font-size="14" lengthAdjust="spacing" textLength="82.8657" x="754.11" y="166.0539">ipv6.method</text></g><!--entity tool_mv--><g class="entity" data-qualified-name="tool_mv" data-source-line="28" id="ent0023"><path d="M779.7312,1068.1566 C783.9867,1060.6615 791.3145,1059.2158 796.6801,1066.9186 C803.986,1058.9665 809.984,1060.8993 814.1705,1070.0994 C823.5419,1071.3515 827.6019,1076.2441 822.767,1085.4512 C828.8578,1095.1779 823.1844,1101.602 813.2961,1102.3996 C810.4895,1112.2239 804.9069,1114.5826 796.6283,1107.9374 C788.399,1114.8938 780.7259,1111.006 778.8246,1101.2117 C771.012,1096.933 768.58,1092.3108 776.0887,1085.3839 C769.0208,1078.1659 769.9057,1071.8028 779.7312,1068.1566" fill="#FEF3C7" style="stroke:#181818;stroke-width:0.5;"/><text fill="#000000" font-family="Monospace" font-size="14" lengthAdjust="spacing" textLength="20.2019" x="785.44" y="1090.0539">mv</text></g><!--entity tool_next--><g class="entity" data-qualified-name="tool_next" data-source-line="29" id="ent0024"><path d="M774.9962,1154.0299 C780.4219,1141.9191 787.5268,1140.5845 796.4882,1150.5948 C804.8457,1141.5335 813.0015,1140.7479 818.3402,1153.6046 C826.2059,1157.5126 827.932,1163.7238 820.1286,1169.4053 C825.9583,1175.9655 826.4113,1181.2014 817.9069,1185.8216 C813.4538,1196.525 804.2086,1196.5666 797.547,1188.1766 C789.5568,1196.6811 782.6974,1198.2908 776.134,1186.6593 C767.632,1183.8709 764.8579,1175.9886 771.064,1168.9818 C764.2435,1162.3647 765.6219,1156.388 774.9962,1154.0299" fill="#FEF3C7" style="stroke:#181818;stroke-width:0.5;"/><text fill="#000000" font-family="Monospace" font-size="14" lengthAdjust="spacing" textLength="29.0079" x="781.04" y="1174.0539">next</text></g><!--entity tool_nmcli--><g class="entity" data-qualified-name="tool_nmcli" data-source-line="30" id="ent0025"><path d="M772.3843,229.8999 C774.9363,223.7672 778.7327,223.6374 783.2887,227.7714 C787.2935,220.8816 791.3003,221.905 796.1531,226.8496 C800.1669,222.0626 805.0665,222.304 808.5336,227.5259 C812.811,222.3213 818.0321,223.3652 820.8856,229.1293 C830.5441,228.9654 836.5841,235.8597 831.6483,245.3684 C838.3006,255.4389 833.1563,264.0827 821.1186,262.9762 C816.7704,268.0478 812.9071,269.7141 808.58,262.9539 C804.8699,268.2147 800.9325,269.5845 796.7715,263.4199 C793.2288,268.6356 786.9017,268.7652 783.8036,262.8996 C779.5795,269.2878 774.3218,268.446 770.717,262.2552 C760.7779,259.8544 758.6791,252.5894 764.7607,244.7403 C759.4552,236.2842 763.4882,231.0605 772.3843,229.8999" fill="#FEF3C7" style="stroke:#181818;stroke-width:0.5;"/><text fill="#000000" font-family="Monospace" font-size="14" lengthAdjust="spacing" textLength="35.6859" x="777.7" y="250.0539">nmcli</text></g><!--entity tool_podman_compose--><g class="entity" data-qualified-name="tool_podman_compose" data-source-line="31" id="ent0026"><path d="M729.9502,1237.1419 C733.3683,1230.8721 737.7785,1230.8949 741.4764,1236.8788 C744.1202,1231.4666 748.2193,1232.1228 751.5524,1236.1424 C755.7068,1229.9399 760.5881,1229.81 764.1329,1236.727 C767.2036,1231.8333 771.4787,1231.4075 774.9363,1236.3 C778.2494,1230.3894 782.2794,1230.042 786.2531,1235.6511 C789.479,1230.7388 793.6492,1231.402 796.5776,1235.9749 C800.3956,1230.9283 803.7506,1230.842 807.2388,1236.3093 C810.9128,1229.5124 816.5443,1230.3422 819.871,1236.6441 C823.3824,1231.7081 827.0591,1232.1341 829.994,1237.2261 C834.2181,1231.1994 837.9945,1231.8561 841.9937,1237.4582 C845.2418,1232.6898 848.4381,1231.7621 852.7276,1236.2506 C856.4196,1231.7401 861.3799,1231.9313 864.0386,1237.4195 C872.9026,1240.7089 874.2382,1248.3149 867.6204,1254.7955 C873.0847,1261.3296 871.2888,1267.9009 862.4722,1269.4014 C861.336,1274.6313 857.3144,1276.0161 853.4545,1272.0815 C850.3857,1277.5802 846.8252,1278.3828 842.0876,1274.0013 C838.0794,1280.4988 832.9252,1280.3475 829.0129,1273.9043 C826.3799,1279.123 823.2701,1279.0305 819.6553,1274.8854 C816.8531,1281.871 813.1517,1283.3196 807.1883,1278.1198 C804.1056,1282.6146 800.2884,1282.8235 797.163,1278.1665 C793.0754,1283.3573 789.0013,1283.4152 785.525,1277.5245 C781.4112,1281.3804 776.7784,1280.3122 775.3749,1274.6378 C772.052,1279.7994 766.7102,1280.1187 763.2158,1274.8375 C758.1563,1279.8931 754.2416,1279.0954 751.5658,1272.4617 C747.9418,1277.8576 744.5489,1277.9331 740.6744,1272.7188 C735.8709,1276.7185 731.5878,1274.9561 729.9732,1269.2154 C722.3764,1264.7752 722.3017,1257.8465 729.4625,1252.9432 C721.8856,1248.1338 722.137,1241.4763 729.9502,1237.1419" fill="#FEF3C7" style="stroke:#181818;stroke-width:0.5;"/><text fill="#000000" font-family="Monospace" font-size="14" lengthAdjust="spacing" textLength="119.7556" x="735.67" y="1258.0539">podman-compose</text></g><!--entity tool_print--><g class="entity" data-qualified-name="tool_print" data-source-line="32" id="ent0027"><path d="M773.6842,1320.7578 C776.6397,1315.219 780.8819,1314.6902 784.3878,1320.2259 C786.6904,1314.8422 791.7358,1312.5791 796.1317,1317.9374 C800.5918,1313.5782 805.221,1313.6119 807.8955,1319.9087 C812.107,1314.2489 817.8735,1315.8076 820.5162,1321.6327 C829.8046,1326.3107 830.0973,1331.5308 822.7259,1338.4038 C829.0949,1344.2488 826.4135,1351.2834 818.9931,1353.7811 C817.349,1358.7941 813.3714,1361.0505 808.893,1356.9079 C805.562,1363.8488 800.7913,1364.5299 796.3025,1357.9891 C791.9106,1362.0144 788.2623,1362.604 785.5301,1356.2642 C781.3135,1361.431 777.5428,1360.9715 774.7824,1354.8747 C765.3251,1352.7025 762.9353,1344.867 768.3841,1337.2755 C761.641,1330.2261 765.0712,1322.8799 773.6842,1320.7578" fill="#FEF3C7" style="stroke:#181818;stroke-width:0.5;"/><text fill="#000000" font-family="Monospace" font-size="14" lengthAdjust="spacing" textLength="31.7099" x="779.69" y="1342.0539">print</text></g><!--entity tool_private_vpn--><g class="entity" data-qualified-name="tool_private_vpn" data-source-line="33" id="ent0028"><path d="M752.6792,1405.8128 C755.4439,1399.5641 758.663,1399.1752 763.243,1404.0958 C767.0488,1398.6927 771.4767,1399.2343 775.1638,1404.2318 C778.737,1398.6814 782.1126,1398.687 785.9467,1403.9722 C788.7518,1399.079 794.2191,1398.1466 797.3778,1403.5808 C800.5882,1399.4672 804.8771,1400.2395 806.9163,1404.8599 C809.7565,1398.6879 813.8058,1397.5447 818.2977,1403.2813 C821.9395,1397.4137 827.4151,1398.0576 830.04,1404.2698 C832.9598,1399.0032 838.1122,1399.1019 840.5865,1404.7022 C852.1298,1405.2896 855.1669,1411.4004 850.7394,1421.5896 C855.4921,1432.021 852.8004,1438.346 840.4447,1438.1278 C838.0442,1443.5267 832.813,1444.9292 829.0821,1439.5274 C826.9916,1444.7456 822.045,1444.2676 819.1416,1440.4186 C817.0301,1446.921 813.2044,1446.7637 808.6575,1442.8761 C804.2107,1449.1291 799.9022,1449.3867 795.8956,1442.4502 C792.9426,1446.6598 788.6776,1446.7765 785.9493,1442.1961 C782.281,1447.2027 777.6066,1446.8008 775.052,1441.0662 C770.533,1445.7389 766.5268,1445.816 763.9185,1439.1844 C760.1701,1445.6169 755.644,1445.4743 751.7666,1439.3089 C739.5525,1437.5807 738.7842,1429.8643 744.2133,1420.8978 C738.215,1412.4576 742.8963,1405.3965 752.6792,1405.8128" fill="#FEF3C7" style="stroke:#181818;stroke-width:0.5;"/><text fill="#000000" font-family="Monospace" font-size="14" lengthAdjust="spacing" textLength="74.8017" x="758.14" y="1426.0539">private-vpn</text></g><!--entity tool_qrencode--><g class="entity" data-qualified-name="tool_qrencode" data-source-line="34" id="ent0029"><path d="M757.7573,481.608 C761.9226,476.1018 765.8227,474.9732 770.0807,481.5131 C774.5062,476.062 778.4901,474.3895 783.262,481.1388 C786.0466,474.5879 792.7586,473.4351 797.0076,479.5494 C800.4507,473.2679 804.6331,474.1465 808.3608,479.266 C812.3691,473.2641 819.341,473.066 822.2059,480.4487 C826.6261,473.7022 831.3739,474.3588 835.9668,480.2608 C846.0346,481.1112 849.9751,488.9454 845.4022,497.7118 C851.7052,508.0646 845.8281,515.8377 834.498,515.1892 C831.5175,520.8773 825.6115,521.3581 822.0789,515.7987 C819.8216,523.9011 815.5822,524.9018 809.3531,519.5576 C807.1561,525.7389 801.3858,526.9233 797.2453,521.6038 C792.3394,527.0264 786.6047,527.7216 783.3183,519.9007 C778.3578,523.793 773.356,523.4838 771.2238,516.6973 C765.8431,523.5452 761.3214,521.2292 757.3988,515.1392 C746.9531,513.1867 744.4831,505.8763 749.2222,497.0572 C744.5431,488.41 747.7853,482.161 757.7573,481.608" fill="#FEF3C7" style="stroke:#181818;stroke-width:0.5;"/><text fill="#000000" font-family="Monospace" font-size="14" lengthAdjust="spacing" textLength="62.6358" x="764.23" y="502.0539">qrencode</text></g><!--entity tool_site--><g class="entity" data-qualified-name="tool_site" data-source-line="35" id="ent0030"><path d="M777.1202,1489.7206 C782.0184,1480.5416 790.3591,1478.9395 797.4461,1487.1643 C803.3335,1479.3567 811.7017,1481.097 815.1247,1489.8025 C824.7143,1490.5113 830.4036,1495.2644 824.9164,1505.4237 C830.1505,1514.8702 826.6485,1520.29 816.275,1521.1728 C816.0078,1533.942 809.6429,1538.9403 797.6207,1532.7209 C786.6834,1537.7946 779.4912,1536.3176 778.7602,1522.5203 C769.0993,1521.6856 765.3111,1513.594 770.6639,1505.5827 C765.6085,1497.4557 768.0247,1492.0877 777.1202,1489.7206" fill="#FEF3C7" style="stroke:#181818;stroke-width:0.5;"/><text fill="#000000" font-family="Monospace" font-size="14" lengthAdjust="spacing" textLength="23.2679" x="783.91" y="1510.0539">site</text></g><!--entity tool_split_site--><g class="entity" data-qualified-name="tool_split_site" data-source-line="36" id="ent0031"><path d="M760.3753,1572.9894 C763.7211,1566.315 769.3855,1566.1589 773.2697,1572.4542 C776.7022,1567.6189 781.1365,1567.3438 784.5765,1572.4457 C788.1841,1565.1135 792.1757,1564.4164 797.4024,1570.9478 C801.1649,1566.4112 805.3829,1566.9613 807.7595,1572.3884 C811.77,1566.4782 818.0354,1567.5305 821.207,1573.3501 C824.5858,1568.578 830.6096,1567.9842 833.4456,1573.9676 C841.4586,1578.4919 842.1719,1583.569 834.7925,1589.4337 C841.6883,1594.642 841.1183,1601.0795 833.7877,1605.392 C831.5281,1613.5388 825.1266,1613.2865 820.2056,1608.1039 C819.5348,1615.667 814.2357,1618.0693 808.3633,1612.9677 C806.0442,1618.6144 800.9702,1619.4663 796.7767,1615.1468 C791.3696,1620.1794 786.3158,1617.2262 784.8764,1610.9657 C780.0464,1616.0691 775.4011,1616.859 771.4245,1610.0056 C766.5814,1614.1178 762.9094,1613.2475 761.1071,1606.9824 C748.0481,1606.352 746.0111,1599.7142 750.114,1588.7412 C744.7875,1578.8215 751.0102,1573.3385 760.3753,1572.9894" fill="#FEF3C7" style="stroke:#181818;stroke-width:0.5;"/><text fill="#000000" font-family="Monospace" font-size="14" lengthAdjust="spacing" textLength="58.8138" x="766.14" y="1594.0539">split(site,</text></g><!--entity tool_sysctl--><g class="entity" data-qualified-name="tool_sysctl" data-source-line="37" id="ent0032"><path d="M772.2543,397.8999 C774.8271,391.7358 778.6448,391.6095 783.2217,395.7714 C787.2485,388.8494 791.2744,389.8792 796.1491,394.8496 C800.182,390.0372 805.1065,390.2785 808.5926,395.5259 C812.8881,390.2925 818.136,391.3382 821.0076,397.1293 C830.6661,396.9654 836.7061,403.8597 831.7703,413.3684 C838.4226,423.4389 833.2784,432.0827 821.2406,430.9762 C816.8706,436.0734 812.9879,437.748 808.639,430.9539 C804.908,436.2419 800.9493,437.6182 796.7675,431.4199 C793.2086,436.6616 786.8509,436.7931 783.7366,430.8996 C779.4937,437.3195 774.2106,436.4749 770.587,430.2552 C760.6479,427.8544 758.5491,420.5894 764.6307,412.7403 C759.3252,404.2842 763.3582,399.0605 772.2543,397.8999" fill="#FEF3C7" style="stroke:#181818;stroke-width:0.5;"/><text fill="#000000" font-family="Monospace" font-size="14" lengthAdjust="spacing" textLength="35.9379" x="777.57" y="418.0539">sysctl</text></g><!--entity tool_systemctl--><g class="entity" data-qualified-name="tool_systemctl" data-source-line="38" id="ent0033"><path d="M757.7043,312.3534 C761.1448,306.4346 767.6693,305.7528 770.77,312.6983 C774.5116,305.9876 779.5485,305.9109 784.0823,311.8655 C788.1141,305.6184 792.6524,306.111 797.0976,311.399 C800.6415,305.3649 804.3075,305.9477 808.2513,310.9966 C813.2121,304.3373 817.6837,305.2981 821.4966,312.1241 C825.084,306.7637 831.3225,305.856 834.3765,312.6875 C843.0728,315.4202 846.0691,323.6276 839.5898,330.7422 C844.9252,336.5469 843.142,343.3289 835.5604,345.6399 C832.991,354.1785 827.4583,354.8496 821.151,349.525 C818.4889,355.1251 814.3498,355.8727 809.6965,351.9101 C806.8341,358.5331 801.5162,360.5256 796.5694,353.9895 C791.128,359.5597 786.6952,358.2314 784.1995,351.1169 C779.8027,356.4105 774.0829,356.7854 771.1661,349.5744 C766.2475,353.6436 761.828,354.3731 759.2684,347.1 C748.5043,343.9817 748.3623,338.1142 754.2376,330.0782 C747.4574,322.82 747.7447,316.3375 757.7043,312.3534" fill="#FEF3C7" style="stroke:#181818;stroke-width:0.5;"/><text fill="#000000" font-family="Monospace" font-size="14" lengthAdjust="spacing" textLength="61.9778" x="764.55" y="334.0539">systemctl</text></g><!--entity tool_update_ca_certificates--><g class="entity" data-qualified-name="tool_update_ca_certificates" data-source-line="39" id="ent0034"><path d="M717.6801,1658.2747 C721.7029,1652.0384 726.3598,1651.8474 730.6028,1658.0458 C732.6974,1651.5106 737.864,1651.9014 741.8426,1656.0668 C745.1606,1651.5998 748.6874,1651.0058 752.4525,1655.5399 C756.3759,1651.5344 760.4802,1650.9137 763.3406,1656.7196 C766.9993,1651.3493 771.2724,1650.7205 774.9598,1656.6903 C777.0584,1651.3817 782.1651,1650.2772 785.7886,1655.0529 C789.3209,1650.6718 793.7249,1649.3975 796.7538,1655.5755 C799.6431,1650.5949 804.3796,1650.1484 807.7924,1654.9869 C811.3394,1648.8971 815.8651,1649.2788 819.2145,1655.1752 C822.8924,1650.3916 828.4904,1651.8253 830.6098,1656.9649 C833.4312,1651.4689 837.2656,1652.5165 840.458,1656.5829 C844.3983,1651.5113 848.3395,1651.9783 852.1758,1656.7071 C855.8693,1650.1285 859.7995,1650.3927 864.3013,1655.8958 C867.6147,1650.9226 870.8556,1651.9631 873.67,1656.393 C882.2672,1660.9772 883.6076,1667.0488 877.2138,1674.5576 C883.5756,1680.1889 882.6755,1685.7449 875.0424,1689.3174 C872.2618,1694.3357 867.6942,1694.1573 864.2925,1690.0489 C860.7329,1695.8597 857.234,1695.7963 852.8755,1690.9009 C849.9989,1697.2355 846.3548,1697.3173 841.4208,1693.1436 C838.2111,1698.3548 832.8283,1698.1643 830.5121,1692.2661 C828.1282,1698.4814 822.2929,1697.7604 819.0267,1693.2071 C816.8355,1699.066 812.7984,1699.6335 808.8257,1694.9271 C805.4273,1700.7475 800.4413,1701.1935 795.9962,1696.165 C792.0918,1700.266 787.8836,1700.5504 785.0333,1694.9713 C781.2195,1699.0059 777.8777,1699.106 775.1053,1693.8576 C770.9894,1700.254 766.8473,1698.9387 762.755,1693.8322 C759.2766,1697.4828 754.5019,1696.2982 752.8078,1691.6846 C749.3468,1698.594 744.7477,1698.9556 740.2828,1692.635 C736.6164,1697.6499 731.7689,1696.9134 728.9177,1691.7267 C725.069,1696.0154 720.8261,1695.7948 717.927,1690.6234 C709.393,1687.4093 707.0899,1680.357 713.8384,1673.4949 C706.9828,1667.5569 708.3311,1660.1226 717.6801,1658.2747" fill="#FEF3C7" style="stroke:#181818;stroke-width:0.5;"/><text fill="#000000" font-family="Monospace" font-size="14" lengthAdjust="spacing" textLength="141.9875" x="724.55" y="1678.0539">update-ca-certificates</text></g><!--entity tool_update_ca_trust--><g class="entity" data-qualified-name="tool_update_ca_trust" data-source-line="40" id="ent0035"><path d="M738.4002,1740.4885 C741.4644,1734.275 747.2569,1735.1949 750.6116,1740.1715 C754.0861,1734.9337 759.107,1734.4045 763.0863,1739.566 C766.0091,1734.9324 770.8248,1735.2319 773.4786,1739.8676 C777.7253,1734.8193 781.9436,1735.3605 785.5849,1740.5813 C788.4768,1736.1612 792.5827,1735.6757 795.6081,1740.4356 C798.5225,1733.7799 804.0047,1733.6827 807.7594,1739.6251 C811.5319,1735.0146 815.6274,1734.1002 819.3273,1739.7072 C822.6601,1735.0243 827.9886,1734.6255 830.7268,1740.358 C835.1092,1734.7932 839.0442,1735.9263 841.9555,1741.802 C845.2681,1735.4706 850.5443,1736.3452 854.302,1741.3159 C861.8071,1745.5901 862.0533,1751.9005 855.5473,1757.2685 C861.9995,1762.4146 862.4564,1770.6268 853.43,1773.7892 C850.7045,1778.7764 845.4796,1778.8155 842.2066,1774.4459 C839.1665,1780.0431 834.8985,1778.9276 831.6192,1774.7037 C829.3572,1780.5669 823.3153,1781.8101 819.0169,1777.1401 C816.362,1783.536 811.3279,1783.82 807.6429,1778.1078 C804.747,1783.2847 800.9872,1782.7218 797.7072,1778.5144 C792.893,1783.7013 788.7554,1784.714 784.8918,1777.5297 C781.2401,1783.0479 777.3824,1782.2367 774.4213,1776.8657 C770.3069,1781.9433 763.7075,1782.1611 761.6134,1774.7875 C759.1586,1780.6844 753.728,1780.6365 750.48,1775.5948 C746.6959,1780.2717 740.5171,1780.8452 738.0764,1774.1319 C727.8731,1770.9678 726.6652,1765.0634 732.5802,1756.7908 C726.8803,1750.1346 729.6486,1741.9854 738.4002,1740.4885" fill="#FEF3C7" style="stroke:#181818;stroke-width:0.5;"/><text fill="#000000" font-family="Monospace" font-size="14" lengthAdjust="spacing" textLength="101.5136" x="744.79" y="1762.0539">update-ca-trust</text></g><!--entity tool_yum--><g class="entity" data-qualified-name="tool_yum" data-source-line="41" id="ent0036"><path d="M776.1752,733.3939 C780.4486,721.5266 790.4591,721.9446 797.2482,730.8406 C804.1523,722.8124 812.9469,723.4494 817.6924,733.3078 C827.2279,737.267 826.426,742.5806 820.676,749.3778 C827.6467,756.5876 826.6047,762.9864 817.0838,766.7948 C815.1628,772.5547 811.815,773.4329 807.0539,769.8408 C805.9731,775.287 801.349,776.7507 797.4142,772.7542 C792.1541,777.6328 787.9961,776.3286 785.4325,769.8975 C781.1385,772.6316 777.7995,771.6338 776.1956,766.6697 C767.6964,763.848 765.0693,755.1201 772.1205,748.7601 C765.6906,741.4207 766.5632,736.5004 776.1752,733.3939" fill="#FEF3C7" style="stroke:#181818;stroke-width:0.5;"/><text fill="#000000" font-family="Monospace" font-size="14" lengthAdjust="spacing" textLength="28.8819" x="781.1" y="754.0539">yum</text></g><g class="entity" data-qualified-name="shellGraphSummary" data-source-line="82" id="ent0076"><path d="M231.36,46.0679 L231.36,109.186 L425.1951,109.186 L425.1951,56.0679 L415.1951,46.0679 L231.36,46.0679" fill="#FEFFDD" style="stroke:#181818;stroke-width:0.5;"/><path d="M415.1951,46.0679 L415.1951,56.0679 L425.1951,56.0679 L415.1951,46.0679" fill="#FEFFDD" style="stroke:#181818;stroke-width:1;"/><text fill="#000000" font-family="Monospace" font-size="13" lengthAdjust="spacing" textLength="141.5311" x="237.36" y="64.9649">Scanned&#160;6&#160;shell&#160;scripts.</text><text fill="#000000" font-family="Monospace" font-size="13" lengthAdjust="spacing" textLength="172.8351" x="237.36" y="82.6709">Detected&#160;0&#160;local&#160;shell&#160;edges.</text><text fill="#000000" font-family="Monospace" font-size="13" lengthAdjust="spacing" textLength="163.8911" x="237.36" y="100.377">Detected&#160;29&#160;external&#160;tools.</text></g><!--link shell_config_access_tailscale_tailscale_subnet_router_example_sh to tool_systemctl--><g class="link" data-entity-1="ent0002" data-entity-2="ent0033" data-link-type="dependency" data-source-line="42" id="lnk37"><path d="M649.94,322.6279 C688.42,322.6279 717.18,322.6279 743.07,322.6279" fill="none" id="shell_config_access_tailscale_tailscale_subnet_router_example_sh-to-tool_systemctl" style="stroke:#181818;stroke-width:1;"/><polygon fill="#181818" points="749.07,322.6279,740.07,318.6279,744.07,322.6279,740.07,326.6279,749.07,322.6279" style="stroke:#181818;stroke-width:1;"/></g><!--link shell_config_access_tailscale_tailscale_subnet_router_local_sh to tool_systemctl--><g class="link" data-entity-1="ent0003" data-entity-2="ent0033" data-link-type="dependency" data-source-line="43" id="lnk38"><path d="M636.96,382.0879 C704.63,382.0879 756.54,382.0879 756.54,382.0879 C756.54,382.0879 756.54,373.4379 756.54,359.4779" fill="none" id="shell_config_access_tailscale_tailscale_subnet_router_local_sh-to-tool_systemctl" style="stroke:#181818;stroke-width:1;"/><polygon fill="#181818" points="756.54,353.4779,752.54,362.4779,756.54,358.4779,760.54,362.4779,756.54,353.4779" style="stroke:#181818;stroke-width:1;"/></g><!--link shell_config_network_networkmanager_static_ip_example_sh to tool_ipv6_method--><g class="link" data-entity-1="ent0004" data-entity-2="ent0022" data-link-type="dependency" data-source-line="44" id="lnk39"><path d="M640.6,163.6279 C677.8,163.6279 705.99,163.6279 732.73,163.6279" fill="none" id="shell_config_network_networkmanager_static_ip_example_sh-to-tool_ipv6_method" style="stroke:#181818;stroke-width:1;"/><polygon fill="#181818" points="738.73,163.6279,729.73,159.6279,733.73,163.6279,729.73,167.6279,738.73,163.6279" style="stroke:#181818;stroke-width:1;"/></g><!--link shell_config_network_networkmanager_static_ip_example_sh to tool_nmcli--><g class="link" data-entity-1="ent0004" data-entity-2="ent0025" data-link-type="dependency" data-source-line="45" id="lnk40"><path d="M633.54,183.5879 C633.54,206.1079 633.54,239.6279 633.54,239.6279 C633.54,239.6279 708.97,239.6279 756.37,239.6279" fill="none" id="shell_config_network_networkmanager_static_ip_example_sh-to-tool_nmcli" style="stroke:#181818;stroke-width:1;"/><polygon fill="#181818" points="762.37,239.6279,753.37,235.6279,757.37,239.6279,753.37,243.6279,762.37,239.6279" style="stroke:#181818;stroke-width:1;"/></g><!--link shell_config_network_networkmanager_static_ip_local_sh to tool_ipv6_method--><g class="link" data-entity-1="ent0005" data-entity-2="ent0022" data-link-type="dependency" data-source-line="46" id="lnk41"><path d="M627.48,229.8579 C693.66,229.8579 744.54,229.8579 744.54,229.8579 C744.54,229.8579 744.54,211.4479 744.54,191.6179" fill="none" id="shell_config_network_networkmanager_static_ip_local_sh-to-tool_ipv6_method" style="stroke:#181818;stroke-width:1;"/><polygon fill="#181818" points="744.54,185.6179,740.54,194.6179,744.54,190.6179,748.54,194.6179,744.54,185.6179" style="stroke:#181818;stroke-width:1;"/></g><!--link shell_config_network_networkmanager_static_ip_local_sh to tool_nmcli--><g class="link" data-entity-1="ent0005" data-entity-2="ent0025" data-link-type="dependency" data-source-line="47" id="lnk42"><path d="M627.51,249.3879 C682.07,249.3879 725.43,249.3879 756.32,249.3879" fill="none" id="shell_config_network_networkmanager_static_ip_local_sh-to-tool_nmcli" style="stroke:#181818;stroke-width:1;"/><polygon fill="#181818" points="762.32,249.3879,753.32,245.3879,757.32,249.3879,753.32,253.3879,762.32,249.3879" style="stroke:#181818;stroke-width:1;"/></g><!--link shell_scripts_setup_caddy_filebrowser_sh to tool_in_global--><g class="link" data-entity-1="ent0006" data-entity-2="ent0008" data-link-type="dependency" data-source-line="48" id="lnk43"><path d="M489.54,1566.3679 C489.54,1632.2879 489.54,1840.6279 489.54,1840.6279 C489.54,1840.6279 657.01,1840.6279 742.73,1840.6279" fill="none" id="shell_scripts_setup_caddy_filebrowser_sh-to-tool_in_global" style="stroke:#181818;stroke-width:1;"/><polygon fill="#181818" points="748.73,1840.6279,739.73,1836.6279,743.73,1840.6279,739.73,1844.6279,748.73,1840.6279" style="stroke:#181818;stroke-width:1;"/></g><!--link shell_scripts_setup_caddy_filebrowser_sh to tool_command_exists--><g class="link" data-entity-1="ent0006" data-entity-2="ent0009" data-link-type="dependency" data-source-line="49" id="lnk44"><path d="M443.54,1566.4179 C443.54,1644.1879 443.54,1924.6279 443.54,1924.6279 C443.54,1924.6279 613.99,1924.6279 717.03,1924.6279" fill="none" id="shell_scripts_setup_caddy_filebrowser_sh-to-tool_command_exists" style="stroke:#181818;stroke-width:1;"/><polygon fill="#181818" points="723.03,1924.6279,714.03,1920.6279,718.03,1924.6279,714.03,1928.6279,723.03,1924.6279" style="stroke:#181818;stroke-width:1;"/></g><!--link shell_scripts_setup_caddy_filebrowser_sh to tool_space--><g class="link" data-entity-1="ent0006" data-entity-2="ent0010" data-link-type="dependency" data-source-line="50" id="lnk45"><path d="M397.54,1566.4779 C397.54,1654.9079 397.54,2008.6279 397.54,2008.6279 C397.54,2008.6279 639.34,2008.6279 743.89,2008.6279" fill="none" id="shell_scripts_setup_caddy_filebrowser_sh-to-tool_space" style="stroke:#181818;stroke-width:1;"/><polygon fill="#181818" points="749.89,2008.6279,740.89,2004.6279,744.89,2008.6279,740.89,2012.6279,749.89,2008.6279" style="stroke:#181818;stroke-width:1;"/></g><!--link shell_scripts_setup_caddy_filebrowser_sh to tool_space_2--><g class="link" data-entity-1="ent0006" data-entity-2="ent0011" data-link-type="dependency" data-source-line="51" id="lnk46"><path d="M351.54,1566.3779 C351.54,1664.2679 351.54,2092.6279 351.54,2092.6279 C351.54,2092.6279 630.26,2092.6279 743.7,2092.6279" fill="none" id="shell_scripts_setup_caddy_filebrowser_sh-to-tool_space_2" style="stroke:#181818;stroke-width:1;"/><polygon fill="#181818" points="749.7,2092.6279,740.7,2088.6279,744.7,2092.6279,740.7,2096.6279,749.7,2092.6279" style="stroke:#181818;stroke-width:1;"/></g><!--link shell_scripts_setup_caddy_filebrowser_sh to tool_apt_get--><g class="link" data-entity-1="ent0006" data-entity-2="ent0012" data-link-type="dependency" data-source-line="52" id="lnk47"><path d="M562.54,1526.6379 C562.54,1411.7779 562.54,840.7979 562.54,840.7979 C562.54,840.7979 683.88,840.7979 750.28,840.7979" fill="none" id="shell_scripts_setup_caddy_filebrowser_sh-to-tool_apt_get" style="stroke:#181818;stroke-width:1;"/><polygon fill="#181818" points="756.28,840.7979,747.28,836.7979,751.28,840.7979,747.28,844.7979,756.28,840.7979" style="stroke:#181818;stroke-width:1;"/></g><!--link shell_scripts_setup_caddy_filebrowser_sh to tool_cat--><g class="link" data-entity-1="ent0006" data-entity-2="ent0013" data-link-type="dependency" data-source-line="53" id="lnk48"><path d="M565.54,1526.6379 C565.54,1420.2079 565.54,924.7979 565.54,924.7979 C565.54,924.7979 704.88,924.7979 764.49,924.7979" fill="none" id="shell_scripts_setup_caddy_filebrowser_sh-to-tool_cat" style="stroke:#181818;stroke-width:1;"/><polygon fill="#181818" points="770.49,924.7979,761.49,920.7979,765.49,924.7979,761.49,928.7979,770.49,924.7979" style="stroke:#181818;stroke-width:1;"/></g><!--link shell_scripts_setup_caddy_filebrowser_sh to tool_dnf--><g class="link" data-entity-1="ent0006" data-entity-2="ent0014" data-link-type="dependency" data-source-line="54" id="lnk49"><path d="M568.54,1526.8479 C568.54,1429.8179 568.54,1008.7979 568.54,1008.7979 C568.54,1008.7979 703.18,1008.7979 763.06,1008.7979" fill="none" id="shell_scripts_setup_caddy_filebrowser_sh-to-tool_dnf" style="stroke:#181818;stroke-width:1;"/><polygon fill="#181818" points="769.06,1008.7979,760.06,1004.7979,764.06,1008.7979,760.06,1012.7979,769.06,1008.7979" style="stroke:#181818;stroke-width:1;"/></g><!--link shell_scripts_setup_caddy_filebrowser_sh to tool_docker--><g class="link" data-entity-1="ent0006" data-entity-2="ent0015" data-link-type="dependency" data-source-line="55" id="lnk50"><path d="M305.54,1566.5179 C305.54,1673.6079 305.54,2176.6279 305.54,2176.6279 C305.54,2176.6279 637.17,2176.6279 751.91,2176.6279" fill="none" id="shell_scripts_setup_caddy_filebrowser_sh-to-tool_docker" style="stroke:#181818;stroke-width:1;"/><polygon fill="#181818" points="757.91,2176.6279,748.91,2172.6279,752.91,2176.6279,748.91,2180.6279,757.91,2176.6279" style="stroke:#181818;stroke-width:1;"/></g><!--link shell_scripts_setup_caddy_filebrowser_sh to tool_docker_compose--><g class="link" data-entity-1="ent0006" data-entity-2="ent0016" data-link-type="dependency" data-source-line="56" id="lnk51"><path d="M259.54,1566.4679 C259.54,1681.7779 259.54,2260.6279 259.54,2260.6279 C259.54,2260.6279 574.99,2260.6279 720.02,2260.6279" fill="none" id="shell_scripts_setup_caddy_filebrowser_sh-to-tool_docker_compose" style="stroke:#181818;stroke-width:1;"/><polygon fill="#181818" points="726.02,2260.6279,717.02,2256.6279,721.02,2260.6279,717.02,2264.6279,726.02,2260.6279" style="stroke:#181818;stroke-width:1;"/></g><!--link shell_scripts_setup_caddy_filebrowser_sh to tool_docker_compose_2--><g class="link" data-entity-1="ent0006" data-entity-2="ent0017" data-link-type="dependency" data-source-line="57" id="lnk52"><path d="M213.54,1566.3479 C213.54,1689.2379 213.54,2344.6279 213.54,2344.6279 C213.54,2344.6279 564.54,2344.6279 719.34,2344.6279" fill="none" id="shell_scripts_setup_caddy_filebrowser_sh-to-tool_docker_compose_2" style="stroke:#181818;stroke-width:1;"/><polygon fill="#181818" points="725.34,2344.6279,716.34,2340.6279,720.34,2344.6279,716.34,2348.6279,725.34,2344.6279" style="stroke:#181818;stroke-width:1;"/></g><!--link shell_scripts_setup_caddy_filebrowser_sh to tool_grep--><g class="link" data-entity-1="ent0006" data-entity-2="ent0018" data-link-type="dependency" data-source-line="58" id="lnk53"><path d="M554.54,1526.6179 C554.54,1389.0679 554.54,588.7979 554.54,588.7979 C554.54,588.7979 694.17,588.7979 759.02,588.7979" fill="none" id="shell_scripts_setup_caddy_filebrowser_sh-to-tool_grep" style="stroke:#181818;stroke-width:1;"/><polygon fill="#181818" points="765.02,588.7979,756.02,584.7979,760.02,588.7979,756.02,592.7979,765.02,588.7979" style="stroke:#181818;stroke-width:1;"/></g><!--link shell_scripts_setup_caddy_filebrowser_sh to tool_host--><g class="link" data-entity-1="ent0006" data-entity-2="ent0019" data-link-type="dependency" data-source-line="59" id="lnk54"><path d="M166.54,1566.2779 C166.54,1696.4179 166.54,2428.6279 166.54,2428.6279 C166.54,2428.6279 634.62,2428.6279 759.63,2428.6279" fill="none" id="shell_scripts_setup_caddy_filebrowser_sh-to-tool_host" style="stroke:#181818;stroke-width:1;"/><polygon fill="#181818" points="765.63,2428.6279,756.63,2424.6279,760.63,2428.6279,756.63,2432.6279,765.63,2428.6279" style="stroke:#181818;stroke-width:1;"/></g><!--link shell_scripts_setup_caddy_filebrowser_sh to tool_in_global_2--><g class="link" data-entity-1="ent0006" data-entity-2="ent0020" data-link-type="dependency" data-source-line="60" id="lnk55"><path d="M120.54,1566.3579 C120.54,1703.7979 120.54,2512.6279 120.54,2512.6279 C120.54,2512.6279 593.42,2512.6279 744.47,2512.6279" fill="none" id="shell_scripts_setup_caddy_filebrowser_sh-to-tool_in_global_2" style="stroke:#181818;stroke-width:1;"/><polygon fill="#181818" points="750.47,2512.6279,741.47,2508.6279,745.47,2512.6279,741.47,2516.6279,750.47,2512.6279" style="stroke:#181818;stroke-width:1;"/></g><!--link shell_scripts_setup_caddy_filebrowser_sh to tool_install--><g class="link" data-entity-1="ent0006" data-entity-2="ent0021" data-link-type="dependency" data-source-line="61" id="lnk56"><path d="M557.54,1526.8079 C557.54,1397.2679 557.54,676.3479 557.54,676.3479 C557.54,676.3479 688.57,676.3479 754.68,676.3479" fill="none" id="shell_scripts_setup_caddy_filebrowser_sh-to-tool_install" style="stroke:#181818;stroke-width:1;"/><polygon fill="#181818" points="760.68,676.3479,751.68,672.3479,755.68,676.3479,751.68,680.3479,760.68,676.3479" style="stroke:#181818;stroke-width:1;"/></g><!--link shell_scripts_setup_caddy_filebrowser_sh to tool_mv--><g class="link" data-entity-1="ent0006" data-entity-2="ent0023" data-link-type="dependency" data-source-line="62" id="lnk57"><path d="M570.54,1526.7679 C570.54,1438.3379 570.54,1084.6279 570.54,1084.6279 C570.54,1084.6279 705.32,1084.6279 764.17,1084.6279" fill="none" id="shell_scripts_setup_caddy_filebrowser_sh-to-tool_mv" style="stroke:#181818;stroke-width:1;"/><polygon fill="#181818" points="770.17,1084.6279,761.17,1080.6279,765.17,1084.6279,761.17,1088.6279,770.17,1084.6279" style="stroke:#181818;stroke-width:1;"/></g><!--link shell_scripts_setup_caddy_filebrowser_sh to tool_next--><g class="link" data-entity-1="ent0006" data-entity-2="ent0024" data-link-type="dependency" data-source-line="63" id="lnk58"><path d="M573.54,1526.8379 C573.54,1449.0579 573.54,1168.6279 573.54,1168.6279 C573.54,1168.6279 699,1168.6279 759.6,1168.6279" fill="none" id="shell_scripts_setup_caddy_filebrowser_sh-to-tool_next" style="stroke:#181818;stroke-width:1;"/><polygon fill="#181818" points="765.6,1168.6279,756.6,1164.6279,760.6,1168.6279,756.6,1172.6279,765.6,1168.6279" style="stroke:#181818;stroke-width:1;"/></g><!--link shell_scripts_setup_caddy_filebrowser_sh to tool_podman_compose--><g class="link" data-entity-1="ent0006" data-entity-2="ent0026" data-link-type="dependency" data-source-line="64" id="lnk59"><path d="M581.95,1536.1479 C662.72,1536.1479 731.54,1536.1479 731.54,1536.1479 C731.54,1536.1479 731.54,1352.2679 731.54,1283.2879" fill="none" id="shell_scripts_setup_caddy_filebrowser_sh-to-tool_podman_compose" style="stroke:#181818;stroke-width:1;"/><polygon fill="#181818" points="731.54,1277.2879,727.54,1286.2879,731.54,1282.2879,735.54,1286.2879,731.54,1277.2879" style="stroke:#181818;stroke-width:1;"/></g><!--link shell_scripts_setup_caddy_filebrowser_sh to tool_print--><g class="link" data-entity-1="ent0006" data-entity-2="ent0027" data-link-type="dependency" data-source-line="65" id="lnk60"><path d="M576.54,1526.8679 C576.54,1474.5879 576.54,1336.6279 576.54,1336.6279 C576.54,1336.6279 698.26,1336.6279 758.63,1336.6279" fill="none" id="shell_scripts_setup_caddy_filebrowser_sh-to-tool_print" style="stroke:#181818;stroke-width:1;"/><polygon fill="#181818" points="764.63,1336.6279,755.63,1332.6279,759.63,1336.6279,755.63,1340.6279,764.63,1336.6279" style="stroke:#181818;stroke-width:1;"/></g><!--link shell_scripts_setup_caddy_filebrowser_sh to tool_private_vpn--><g class="link" data-entity-1="ent0006" data-entity-2="ent0028" data-link-type="dependency" data-source-line="66" id="lnk61"><path d="M582.13,1543.1279 C670.3,1543.1279 747.54,1543.1279 747.54,1543.1279 C747.54,1543.1279 747.54,1487.2079 747.54,1451.4179" fill="none" id="shell_scripts_setup_caddy_filebrowser_sh-to-tool_private_vpn" style="stroke:#181818;stroke-width:1;"/><polygon fill="#181818" points="747.54,1445.4179,743.54,1454.4179,747.54,1450.4179,751.54,1454.4179,747.54,1445.4179" style="stroke:#181818;stroke-width:1;"/></g><!--link shell_scripts_setup_caddy_filebrowser_sh to tool_site--><g class="link" data-entity-1="ent0006" data-entity-2="ent0030" data-link-type="dependency" data-source-line="67" id="lnk62"><path d="M578.54,1526.6179 C578.54,1515.3779 578.54,1503.5879 578.54,1503.5879 C578.54,1503.5879 704.33,1503.5879 762.5,1503.5879" fill="none" id="shell_scripts_setup_caddy_filebrowser_sh-to-tool_site" style="stroke:#181818;stroke-width:1;"/><polygon fill="#181818" points="768.5,1503.5879,759.5,1499.5879,763.5,1503.5879,759.5,1507.5879,768.5,1503.5879" style="stroke:#181818;stroke-width:1;"/></g><!--link shell_scripts_setup_caddy_filebrowser_sh to tool_split_site--><g class="link" data-entity-1="ent0006" data-entity-2="ent0031" data-link-type="dependency" data-source-line="68" id="lnk63"><path d="M581.95,1550.1179 C675.7,1550.1179 759.54,1550.1179 759.54,1550.1179 C759.54,1550.1179 759.54,1550.4679 759.54,1558.0179" fill="none" id="shell_scripts_setup_caddy_filebrowser_sh-to-tool_split_site" style="stroke:#181818;stroke-width:1;"/><polygon fill="#181818" points="759.54,1564.0179,763.54,1555.0179,759.54,1559.0179,755.54,1555.0179,759.54,1564.0179" style="stroke:#181818;stroke-width:1;"/></g><!--link shell_scripts_setup_caddy_filebrowser_sh to tool_update_ca_certificates--><g class="link" data-entity-1="ent0006" data-entity-2="ent0034" data-link-type="dependency" data-source-line="69" id="lnk64"><path d="M581.99,1557.1079 C655.11,1557.1079 715.54,1557.1079 715.54,1557.1079 C715.54,1557.1079 715.54,1607.8979 715.54,1641.8379" fill="none" id="shell_scripts_setup_caddy_filebrowser_sh-to-tool_update_ca_certificates" style="stroke:#181818;stroke-width:1;"/><polygon fill="#181818" points="715.54,1647.8379,719.54,1638.8379,715.54,1642.8379,711.54,1638.8379,715.54,1647.8379" style="stroke:#181818;stroke-width:1;"/></g><!--link shell_scripts_setup_caddy_filebrowser_sh to tool_update_ca_trust--><g class="link" data-entity-1="ent0006" data-entity-2="ent0035" data-link-type="dependency" data-source-line="70" id="lnk65"><path d="M535.54,1566.3779 C535.54,1618.6579 535.54,1756.6279 535.54,1756.6279 C535.54,1756.6279 646.57,1756.6279 723.6,1756.6279" fill="none" id="shell_scripts_setup_caddy_filebrowser_sh-to-tool_update_ca_trust" style="stroke:#181818;stroke-width:1;"/><polygon fill="#181818" points="729.6,1756.6279,720.6,1752.6279,724.6,1756.6279,720.6,1760.6279,729.6,1756.6279" style="stroke:#181818;stroke-width:1;"/></g><!--link shell_scripts_setup_caddy_filebrowser_sh to tool_yum--><g class="link" data-entity-1="ent0006" data-entity-2="ent0036" data-link-type="dependency" data-source-line="71" id="lnk66"><path d="M560.54,1526.7079 C560.54,1404.0779 560.54,756.7979 560.54,756.7979 C560.54,756.7979 696.54,756.7979 759.78,756.7979" fill="none" id="shell_scripts_setup_caddy_filebrowser_sh-to-tool_yum" style="stroke:#181818;stroke-width:1;"/><polygon fill="#181818" points="765.78,756.7979,756.78,752.7979,760.78,756.7979,756.78,760.7979,765.78,756.7979" style="stroke:#181818;stroke-width:1;"/></g><!--link shell_scripts_setup_wireguard_sh to tool_apt_get--><g class="link" data-entity-1="ent0007" data-entity-2="ent0012" data-link-type="dependency" data-source-line="72" id="lnk67"><path d="M372.54,684.5379 C372.54,727.3879 372.54,824.4479 372.54,824.4479 C372.54,824.4479 645.79,824.4479 750.51,824.4479" fill="none" id="shell_scripts_setup_wireguard_sh-to-tool_apt_get" style="stroke:#181818;stroke-width:1;"/><polygon fill="#181818" points="756.51,824.4479,747.51,820.4479,751.51,824.4479,747.51,828.4479,756.51,824.4479" style="stroke:#181818;stroke-width:1;"/></g><!--link shell_scripts_setup_wireguard_sh to tool_cat--><g class="link" data-entity-1="ent0007" data-entity-2="ent0013" data-link-type="dependency" data-source-line="73" id="lnk68"><path d="M283.54,684.5779 C283.54,742.8079 283.54,908.4479 283.54,908.4479 C283.54,908.4479 661.71,908.4479 764.5,908.4479" fill="none" id="shell_scripts_setup_wireguard_sh-to-tool_cat" style="stroke:#181818;stroke-width:1;"/><polygon fill="#181818" points="770.5,908.4479,761.5,904.4479,765.5,908.4479,761.5,912.4479,770.5,908.4479" style="stroke:#181818;stroke-width:1;"/></g><!--link shell_scripts_setup_wireguard_sh to tool_dnf--><g class="link" data-entity-1="ent0007" data-entity-2="ent0014" data-link-type="dependency" data-source-line="74" id="lnk69"><path d="M194.54,684.6379 C194.54,755.8079 194.54,992.4479 194.54,992.4479 C194.54,992.4479 647.66,992.4479 763.33,992.4479" fill="none" id="shell_scripts_setup_wireguard_sh-to-tool_dnf" style="stroke:#181818;stroke-width:1;"/><polygon fill="#181818" points="769.33,992.4479,760.33,988.4479,764.33,992.4479,760.33,996.4479,769.33,992.4479" style="stroke:#181818;stroke-width:1;"/></g><!--link shell_scripts_setup_wireguard_sh to tool_grep--><g class="link" data-entity-1="ent0007" data-entity-2="ent0018" data-link-type="dependency" data-source-line="75" id="lnk70"><path d="M402.54,644.6179 C402.54,617.5079 402.54,572.4479 402.54,572.4479 C402.54,572.4479 666.06,572.4479 758.7,572.4479" fill="none" id="shell_scripts_setup_wireguard_sh-to-tool_grep" style="stroke:#181818;stroke-width:1;"/><polygon fill="#181818" points="764.7,572.4479,755.7,568.4479,759.7,572.4479,755.7,576.4479,764.7,572.4479" style="stroke:#181818;stroke-width:1;"/></g><!--link shell_scripts_setup_wireguard_sh to tool_install--><g class="link" data-entity-1="ent0007" data-entity-2="ent0021" data-link-type="dependency" data-source-line="76" id="lnk71"><path d="M552.33,668.5279 C633.14,668.5279 709.47,668.5279 754.59,668.5279" fill="none" id="shell_scripts_setup_wireguard_sh-to-tool_install" style="stroke:#181818;stroke-width:1;"/><polygon fill="#181818" points="760.59,668.5279,751.59,664.5279,755.59,668.5279,751.59,672.5279,760.59,668.5279" style="stroke:#181818;stroke-width:1;"/></g><!--link shell_scripts_setup_wireguard_sh to tool_qrencode--><g class="link" data-entity-1="ent0007" data-entity-2="ent0029" data-link-type="dependency" data-source-line="77" id="lnk72"><path d="M552.21,660.7179 C654.2,660.7179 752.54,660.7179 752.54,660.7179 C752.54,660.7179 752.54,573.4479 752.54,527.5479" fill="none" id="shell_scripts_setup_wireguard_sh-to-tool_qrencode" style="stroke:#181818;stroke-width:1;"/><polygon fill="#181818" points="752.54,521.5479,748.54,530.5479,752.54,526.5479,756.54,530.5479,752.54,521.5479" style="stroke:#181818;stroke-width:1;"/></g><!--link shell_scripts_setup_wireguard_sh to tool_sysctl--><g class="link" data-entity-1="ent0007" data-entity-2="ent0032" data-link-type="dependency" data-source-line="78" id="lnk73"><path d="M253.54,644.6979 C253.54,587.3879 253.54,426.1579 253.54,426.1579 C253.54,426.1579 638.78,426.1579 756.45,426.1579" fill="none" id="shell_scripts_setup_wireguard_sh-to-tool_sysctl" style="stroke:#181818;stroke-width:1;"/><polygon fill="#181818" points="762.45,426.1579,753.45,422.1579,757.45,426.1579,753.45,430.1579,762.45,426.1579" style="stroke:#181818;stroke-width:1;"/></g><!--link shell_scripts_setup_wireguard_sh to tool_systemctl--><g class="link" data-entity-1="ent0007" data-entity-2="ent0033" data-link-type="dependency" data-source-line="79" id="lnk74"><path d="M552.06,652.9079 C603.05,652.9079 642.54,652.9079 642.54,652.9079 C642.54,652.9079 642.54,347.1579 642.54,347.1579 C642.54,347.1579 698.19,347.1579 743.22,347.1579" fill="none" id="shell_scripts_setup_wireguard_sh-to-tool_systemctl" style="stroke:#181818;stroke-width:1;"/><polygon fill="#181818" points="749.22,347.1579,740.22,343.1579,744.22,347.1579,740.22,351.1579,749.22,347.1579" style="stroke:#181818;stroke-width:1;"/></g><!--link shell_scripts_setup_wireguard_sh to tool_yum--><g class="link" data-entity-1="ent0007" data-entity-2="ent0036" data-link-type="dependency" data-source-line="80" id="lnk75"><path d="M462.54,684.5479 C462.54,707.0079 462.54,740.4479 462.54,740.4479 C462.54,740.4479 677.96,740.4479 759.7,740.4479" fill="none" id="shell_scripts_setup_wireguard_sh-to-tool_yum" style="stroke:#181818;stroke-width:1;"/><polygon fill="#181818" points="765.7,740.4479,756.7,736.4479,760.7,740.4479,756.7,744.4479,765.7,740.4479" style="stroke:#181818;stroke-width:1;"/></g><?plantuml-src lLTDa-Cc4BthLv3PorOIUPBPrAQoXrGbsN5EoSN7tGt5eBPC3G82o5x_-xI-B8paZy5JETbqlzVT89e7NdW9n2czUxAYA86iDY0bMN4hZ2TBgNUPXBKdNXChoeqdXR30lT0gSyz26MPPHTo65NedL4dMJ3e8F0MiMItzKYl_Dwk0_AMLTeRn4CDrPRG2vLT-ZxKquPagPGYHGe7V6o3Q-etE3X1onxLQY_AUSGxEtNicfEDCmlWlT_KJadEhQmzs0LzPPIGitERpP_K3aHenM7ypPy3fExJ-IE0hGXKwlDRoZZ3N8MYNZ7R9w255yAzBHhjaj4z6tOQy-VZxus_BnrjARslzVmflevyl6z4xRP-7tuefLeBDdMTUy5oOQrRwuRXWDwsuZqwFiz0k2nNckYM-MEl5fNs5Ii-jgMlRpTqxyBMXd1N5dgw5X2UhTmu__RdAVZfTMX-MdWXxLJ4xxFUoPhOuLyGlrzPmY1RcvbBN1RdxHYXQIlt4kftR1A874tcpV5o---Fd0VmMJmrSum8tW73UZOnZUqpxvzEd3-tvy-7Bbsz7KciwX_qkmjA76CsCpqlm8muD50qnZhC0WuFONwZrwCV1nA_vCzW0qexdKTtHwY16qzu-pyeliAPpBosO4TsCOiH6ks3QpIX6dFluqun2OMF98snhcE3CzlsY0XID8i2YaNR665zjHrYrZRqAT_deRqOJHCMb223DCCOONU0EdQvoPp_rROmLAaZU3cSmM-OXtnfrX6oC58qn_byBYkiYg66mn4WdV81gHXE4aSA_RJpVXxs2nddutd4VVBzkF8FoKCN0pXHZQrCqS-Sivs2zM0jiBWWEXiwFBKT3_-aetjRXdXtfhIFcxUjgnEBWuB_vvf3dlqOppsuKzKiHNoAwXrX1Kxr2jBPniaI1VOMQfh72YgxGrR66uH1Bu1vhMKA0_ggTngCF2SnUzL8cor9Og90fh5RGaed36NrpWAGbRlGrWTQ8xYtxDwdMNfOJcDKsWTH8SWBjM7bJ0ZHgdCORj3cbIr5Navfx4EK4yhoAtXIerTE42AYosSKtnbK7qppZr84qZpvr4CsZJ_RmFFnS6yqpXelS2oZT5UnbXAFhmpMSvgCfZVV1uO7ufsLciwfHwEm-Mt6c51JaVV--x2Ckie_WyO6AdfdtP-1zY1-YYmnKGPg4_m40?></g></svg>